<svg width="265" height="265" viewBox="0 0 265 265" fill="none" xmlns="http://www.w3.org/2000/svg">
<path d="M140.894 225.458C141.016 225.755 141.399 226.833 140.894 227.51C140.48 228.064 139.632 228.119 135.855 227.938C133.434 227.821 132.501 227.74 132.181 228.281C131.893 228.763 132.244 229.494 132.524 230.076C133.119 231.316 134.016 232.038 134.232 232.213C134.232 232.213 137.374 234.766 139.357 238.793C139.88 239.853 140.525 241.165 140.043 241.698C139.466 242.333 137.617 241.517 135.774 240.674C129.508 237.806 126.376 236.372 123.815 234.865C119.763 232.475 118.681 231.56 116.13 231.104C114.264 230.77 112.853 230.91 111.005 231.104C109.846 231.226 105.925 231.699 98.0229 234.523C94.2862 235.857 92.1045 236.845 90.3375 235.718C90.0806 235.555 89.0303 234.865 88.9717 233.837C88.85 231.776 92.7761 229.706 100.331 225.805C101.255 225.327 102.508 224.691 103.833 223.41C104.383 222.878 106.421 220.907 106.907 218.283C107.417 215.545 105.929 213.272 105.37 211.96C104.897 210.846 100.083 199.526 104.004 192.135C106.885 186.705 113.971 184.337 119.209 184.788C120.701 184.915 124.307 185.226 126.213 187.864C127.674 189.889 127.421 192.653 127.237 195.044C127.2 195.517 127.097 196.681 126.385 199.572C124.072 208.947 123.225 211.789 123.225 211.789C123.035 212.429 122.639 213.732 123.139 215.121C123.576 216.33 124.487 217.042 125.019 217.43C128.26 219.793 132.659 221.327 134.755 222.044C138.465 223.311 140.232 223.812 140.894 225.458Z" fill="#BD5220" stroke="#341202" stroke-width="3" stroke-miterlimit="10"/>
<path d="M108.609 234.177C108.659 234.298 109.182 235.611 108.609 236.228C107.924 236.968 106.288 236.03 103.141 235.376C100.469 234.821 97.9533 234.298 97.1645 235.376C96.3937 236.427 97.4755 238.713 98.5303 239.99C99.0486 240.621 99.5354 240.968 100.067 241.356C105.296 245.162 106.324 246.191 107.072 247.508C107.302 247.918 108.348 249.758 107.757 250.412C107.18 251.048 105.332 250.231 103.489 249.388C97.2231 246.52 94.0903 245.086 91.53 243.579C87.4777 241.189 86.3959 240.274 83.8446 239.818C81.9784 239.485 80.5676 239.624 78.7195 239.818C77.561 239.94 73.6394 240.414 65.7376 243.237C62.0009 244.572 59.8192 245.559 58.0522 244.432C57.8223 244.288 56.6639 243.548 56.6864 242.551C56.7315 240.621 61.212 238.925 68.9831 236.057C71.1242 235.268 72.4134 234.844 73.4231 233.496C74.9196 231.498 74.7573 228.873 74.6176 227.001C74.3652 223.651 73.3013 221.202 73.0805 220.679C72.6072 219.565 67.7931 208.245 71.7147 200.854C74.595 195.424 81.6809 193.056 86.9187 193.507C88.4107 193.633 92.0168 193.945 93.9235 196.583C95.0549 198.148 95.0189 200.019 94.9467 203.762C94.8791 207.456 94.825 210.261 93.4096 213.504C91.2325 218.487 89.8216 220.512 89.8216 220.512C89.2221 221.373 88.4513 222.374 88.6271 223.588C88.8254 224.945 90.1011 225.833 91.1874 226.492C94.5185 228.508 97.6828 229.338 102.461 230.763C105.963 231.804 107.897 232.445 108.609 234.177Z" fill="#BD5220" stroke="#341202" stroke-width="3" stroke-miterlimit="10"/>
<path d="M193.187 178.227C191.109 180.328 173.849 197.425 152.042 202.44C147.034 203.59 144.428 204.19 140.547 204.257C133.867 204.37 130.504 202.778 124.514 204.257C121.322 205.047 121.205 205.764 117.856 206.981C108.674 210.318 103.08 207.27 88.5119 207.586C81.7956 207.73 82.679 208.384 77.0175 208.492C71.5588 208.596 58.0632 208.853 44.9506 202.138C40.398 199.806 41.1147 199.31 16.8143 173.685C16.4357 173.284 12.9243 169.586 10.1567 163.696C8.67818 160.553 5.87897 154.595 8.0381 152.196C9.39488 150.69 11.6892 151.714 18.3244 152.498C24.9595 153.283 30.8645 153.982 37.0804 152.196C41.6015 150.893 44.9551 148.66 47.3667 147.05C51.7345 144.137 54.4571 141.237 55.2324 140.389C58.2345 137.111 59.8121 134.274 60.5604 133.057C66.8665 122.747 81.1645 117.601 84.5812 116.478C92.6588 113.822 94.2545 115.82 107.574 114.359C118.762 113.132 121.476 111.301 134.8 108.307C149.684 104.96 161.967 104.361 186.534 103.161C198.492 102.575 206.426 102.57 211.947 108.005C216.108 112.099 217.541 117.958 217.996 119.807C219.606 126.373 218.434 131.866 217.392 136.755C216.252 142.09 214.575 145.918 213.155 149.166C212.605 150.428 210.383 155.412 206.196 161.879C200.385 170.858 194.607 176.797 193.187 178.227Z" fill="#E68636" stroke="#341202" stroke-width="3" stroke-miterlimit="10"/>
<path d="M35.8959 153.679C37.5457 155.776 35.3099 160.11 35.1567 160.403C34.3093 162.009 33.7593 161.905 30.4327 165.874C28.1339 168.611 27.8319 169.333 27.7552 170.144C27.5975 171.84 28.5441 172.539 28.1519 174.415C27.8995 175.642 27.4172 175.723 26.7275 177.265C25.4203 180.197 26.2452 181.965 25.4158 182.393C24.2078 183.02 21.368 179.777 19.0962 177.153C17.185 174.943 14.4489 171.488 11.7939 166.825C10.7842 165.057 10.2839 163.97 9.27869 161.797C7.74161 158.473 7.52975 157.494 7.46664 156.579C7.38551 155.424 7.20519 152.908 8.64311 151.726C10.0179 150.594 11.8841 151.487 16.7613 152.304C16.7613 152.304 19.8084 152.813 23.6624 153.084C31.6047 153.634 34.467 151.862 35.8959 153.679Z" fill="#452110" stroke="#341202" stroke-width="3" stroke-miterlimit="10"/>
<path d="M132.351 156.073C132.581 159.6 131.512 162.315 130.985 163.821C128.443 171.051 121.677 174.879 120.28 175.669C114.645 178.857 112.865 177.035 103.2 181.139C101.974 181.658 100.171 182.465 97.5073 183.191C95.3527 183.777 93.8472 183.98 88.8528 184.557C83.2498 185.207 80.4461 185.532 78.6025 185.698C74.1851 186.091 71.6924 186.312 68.5822 186.384C59.2786 186.591 52.6705 185.243 50.588 184.787C45.0932 183.583 42.303 182.934 40.1123 180.688C36.1366 176.607 36.4206 170.929 36.4702 170.207C36.5559 168.886 36.7587 165.774 38.9764 163.37C40.811 161.382 43.0918 160.89 44.8994 160.407C48.5144 159.442 52.1701 157.638 59.4769 154.026C65.6162 150.991 64.7192 149.868 72.0034 145.367C80.1351 140.339 87.194 138.066 92.9546 136.253C100.933 133.741 104.922 132.483 109.123 133.29C115.438 134.503 119.644 138.039 122.79 140.808C126.491 144.073 131.878 148.822 132.351 156.073Z" fill="#E68636" stroke="#341202" stroke-width="3" stroke-miterlimit="10"/>
<path d="M77.425 142.309C78.0967 142.773 76.4379 145.019 76.3252 148.722C76.2666 150.661 76.776 150.945 77.3484 154.53C78.0832 159.13 77.7496 159.802 78.3716 163.419C78.7863 165.823 79.2055 168.236 80.4226 171.108C82.3293 175.605 85.1059 178.798 85.719 179.483C88.2838 182.356 90.3573 183.551 89.9786 184.421C89.7397 184.967 88.7931 184.796 85.2096 185.12C81.3286 185.472 81.3106 185.779 80.5894 185.495C78.6646 184.733 78.6736 182.491 76.3252 177.431C74.8783 174.315 74.7746 174.955 73.5936 172.304C72.8499 170.635 71.3624 166.959 70.6907 162.048C70.0506 157.39 71.1595 157.507 70.3481 153.845C69.5864 150.404 68.3333 148.74 69.2934 147.125C69.8072 146.259 70.3797 146.395 72.9986 144.875C76.0187 143.125 76.9382 141.971 77.425 142.309Z" fill="#452110" stroke="#341202" stroke-width="3" stroke-miterlimit="10"/>
<path d="M59.4722 154.021C60.0853 154.517 59.2243 156.254 58.733 157.954C57.9577 160.642 58.6473 163.42 59.5849 169.062C60.2836 173.251 60.9552 177.274 63.173 180.512C64.3404 182.217 65.6025 183.881 67.1036 185.297C67.5092 185.68 68.0952 186.203 67.9555 186.578C67.7977 187.011 66.788 186.947 64.2818 186.835C59.923 186.636 59.2874 186.654 58.7195 186.027C58.0884 185.328 58.3994 184.787 57.8766 182.902C57.3672 181.067 56.646 180.056 55.9969 178.884C54.4463 176.088 53.8558 173.368 53.4366 171.452C52.0978 165.327 53.3555 160.84 52.5847 158.292C52.5441 158.166 52.4314 157.81 52.5396 157.404C52.7785 156.493 53.9009 156.15 55.5777 155.473C58.5392 154.274 59.0756 153.701 59.4722 154.021Z" fill="#452110" stroke="#341202" stroke-width="3" stroke-miterlimit="10"/>
<path d="M213.661 109.816C210.155 112.702 212.305 116.048 208.424 119.841C206.751 121.474 204.119 122.448 198.859 124.401C195.82 125.524 193.513 126.155 191.57 126.678C187.427 127.796 184.939 128.45 181.549 128.5C179.607 128.527 177.952 128.351 177.222 128.27C172.512 127.751 171.561 126.759 169.253 127.359C167.635 127.778 167.982 128.297 164.926 129.636C163.767 130.146 162.023 130.895 159.913 131.233C157.502 131.616 155.599 131.296 153.99 131.003C146.007 129.564 142.149 128.495 142.149 128.495C132.119 125.726 133.638 125.695 129.622 124.852C123.406 123.539 121.775 124.035 118.236 122.119C116.104 120.964 114.085 119.368 112.088 117.789C109.645 115.859 109.307 115.318 106.62 113.23C102.933 110.362 102.829 110.808 101.382 109.356C98.6011 106.573 97.4607 103.416 96.8251 101.608C95.7703 98.5955 95.6036 96.1827 95.4593 93.8602C95.2429 90.3876 95.004 86.5137 96.5997 82.2384C98.2179 77.8955 100.039 77.688 100.242 74.2651C100.386 71.8433 99.5296 71.0721 99.5567 67.6582C99.5567 67.6582 99.5792 64.7268 100.467 61.7323C102.243 55.7523 110.501 52.83 117.091 48.9741C127.774 42.7235 125.719 38.8992 133.715 34.1639C144.889 27.548 150.803 33.8843 181.545 32.5674C187.657 32.3059 193.035 31.8143 207.964 31.201C225.341 30.4839 230.24 30.6463 233.472 34.1639C237.43 38.4708 233.355 41.799 237.114 55.1255C239.192 62.499 241.383 64.8261 243.037 73.8096C244.002 79.0545 244.466 81.7513 243.493 85.2013C242.88 87.3751 242.019 88.719 233.928 97.9596C227.135 105.721 226.328 106.388 224.818 107.074C219.634 109.437 216.966 107.096 213.661 109.816Z" fill="#8F3615" stroke="#341202" stroke-width="3" stroke-miterlimit="10"/>
<path d="M211.046 113.116C211.077 113.121 211.091 113.121 211.136 113.089C211.442 112.918 211.979 112.453 211.289 111.786C211.275 111.773 211.212 111.727 211.181 111.718C210.378 111.628 209.567 111.619 208.765 111.646C205.181 111.786 201.791 112.895 198.555 114.082C195.31 115.29 192.154 116.58 188.864 117.41C185.578 118.235 182.206 118.754 178.812 118.88C177.117 118.948 175.418 118.943 173.727 118.83L173.362 118.812L173.195 118.799L172.857 118.772L172.186 118.713C172.186 118.713 172.055 118.713 171.834 118.709C171.613 118.7 171.302 118.691 170.946 118.677C170.229 118.668 169.332 118.605 168.58 118.6C166.046 118.433 166.961 118.921 168.498 119.376C168.413 119.376 169.341 119.593 170.297 119.786C170.775 119.872 171.262 119.962 171.627 120.03C171.992 120.084 172.24 120.12 172.24 120.12L172.92 120.179L173.258 120.206L174.255 120.26C175.968 120.341 177.685 120.355 179.398 120.255C181.111 120.161 182.819 119.985 184.514 119.728C186.209 119.457 187.89 119.105 189.549 118.673C192.884 117.811 196.049 116.494 199.2 115.335C202.346 114.181 205.551 113.166 208.819 113.044C209.563 113.026 210.306 113.035 211.046 113.116Z" fill="#202020"/>
<path d="M116.293 107.976C116.271 107.954 116.266 107.944 116.212 107.931C115.878 107.841 115.171 107.796 115.198 108.761C115.198 108.779 115.211 108.855 115.229 108.887C115.752 109.509 116.325 110.078 116.929 110.614C118.66 112.143 120.629 113.329 122.658 114.321C124.691 115.314 126.773 116.125 128.856 116.919C130.943 117.704 133.043 118.443 135.153 119.151L138.322 120.193L139.724 120.644C139.724 120.644 141.802 121.154 143.294 121.393C145.804 121.866 144.93 121.266 143.478 120.64C143.641 120.662 139.971 119.255 139.971 119.255L138.376 118.741L135.279 117.717C133.219 117.023 131.168 116.301 129.14 115.53C127.111 114.754 125.096 113.961 123.176 113.014C121.256 112.071 119.43 110.957 117.857 109.564C117.298 109.067 116.771 108.544 116.293 107.976Z" fill="black"/>
<path d="M190.155 65.6116C190.155 78.5728 205.783 77.8828 223.078 77.8828C240.374 77.8828 255.258 75.6099 255.258 62.6487C255.258 49.6875 241.239 39.1797 223.944 39.1797C206.648 39.1797 190.155 52.6505 190.155 65.6116Z" fill="#FFCE91" stroke="#341202" stroke-width="3" stroke-miterlimit="10"/>
<path d="M234.899 78.5818C228.013 78.5818 222.431 74.0934 222.431 68.5566C222.431 63.0197 228.013 58.5312 234.899 58.5312C241.785 58.5312 247.367 63.0197 247.367 68.5566C247.367 74.0934 241.785 78.5818 234.899 78.5818Z" fill="#291207"/>
<path d="M236.362 70.7979C234.854 70.7979 233.631 69.5743 233.631 68.065C233.631 66.5556 234.854 65.332 236.362 65.332C237.871 65.332 239.094 66.5556 239.094 68.065C239.094 69.5743 237.871 70.7979 236.362 70.7979Z" fill="white"/>
<path d="M230.235 67.7544C229.428 67.7544 228.774 67.1002 228.774 66.2932C228.774 65.4862 229.428 64.832 230.235 64.832C231.041 64.832 231.695 65.4862 231.695 66.2932C231.695 67.1002 231.041 67.7544 230.235 67.7544Z" fill="white"/>
<path d="M250.78 45.1053C252.52 47.1437 253.71 48.0277 254.764 50.3457C255.364 51.6671 255.792 56.5782 255.148 57.4306C254.877 57.7869 251.334 56.0596 246.705 55.4733C241.904 54.8645 235.977 55.3967 233.466 55.7033C229.788 56.1543 226.66 56.461 222.707 56.8714C217.324 57.4306 208.616 60.0192 203.405 60.2898C199.939 60.4702 194.593 60.6731 190.081 60.3078C187.2 60.0733 190.207 58.1567 188.715 56.1588C186.484 53.1688 188.269 50.7561 185.983 45.3353C185.524 44.2439 184.915 43.2427 183.707 41.2359C178.185 32.0855 174.904 29.9884 175.282 25.8529C175.323 25.3929 175.553 22.881 177.333 21.6363C178.496 20.8245 179.312 21.2529 181.318 20.9508C184.176 20.5178 184.636 19.3273 189.517 17.0769C191.649 16.0937 192.713 15.6022 194.074 15.2549C197.491 14.38 199.682 14.9978 203.752 15.3677C209.878 15.9269 209.247 14.9257 214.458 15.4804C219.245 15.99 222.734 16.3643 226.186 18.8988C229.86 21.5957 231.397 25.1945 231.992 26.6467C233.015 29.1316 234.246 32.1171 233.245 34.0518C233.092 34.3449 238.393 35.3371 239.394 35.1927C241.994 34.8094 244.32 36.8839 245.997 38.3812C248.454 40.5729 247.498 41.2584 250.78 45.1053Z" fill="#8F3615" stroke="#341202" stroke-width="3" stroke-miterlimit="10"/>
<path d="M215.24 51.2823C215.271 51.2778 215.285 51.2733 215.325 51.2327C215.596 50.9802 215.943 50.4029 215.109 49.9384C215.096 49.9294 215.023 49.9023 214.992 49.9023L212.707 50.3172L211.882 50.4706L210.606 50.7051C210.606 50.7051 210.11 50.8359 209.389 51.0253C209.051 51.12 208.663 51.2327 208.253 51.3455C207.861 51.4627 207.455 51.5755 207.077 51.7333C206.432 51.9769 206.071 52.3512 205.968 52.5902C205.86 52.8337 205.909 52.9239 205.995 52.9059C206.089 52.8923 206.234 52.7841 206.45 52.6939C206.666 52.5992 206.964 52.5225 207.324 52.4729C207.293 52.491 207.482 52.4549 207.811 52.4233C208.163 52.3827 208.632 52.3331 209.105 52.279C210.07 52.1663 211.039 52.049 211.039 52.049L212.134 51.8506L212.959 51.7018L215.24 51.2823Z" fill="#231F20"/>
<path d="M246.633 49.9978C246.66 50.0068 246.669 50.0114 246.714 49.9933C246.867 49.9437 247.088 49.8355 247.237 49.6461C247.376 49.4567 247.453 49.1861 247.151 48.7576C247.142 48.7441 247.083 48.681 247.047 48.6584C246.222 48.4149 245.433 48.3067 244.645 48.1984C242.679 47.9684 240.728 47.8872 238.776 47.8602C237.798 47.8512 236.824 47.8512 235.837 47.8963C235.589 47.9098 235.337 47.9188 235.071 47.9459L234.349 48.0225L232.916 48.1533L231.631 48.2525C231.631 48.2525 231.108 48.3337 230.387 48.4419C229.671 48.5592 228.76 48.7306 228.025 48.9335C226.772 49.2537 226.434 49.4837 226.583 49.5919C226.736 49.7047 227.39 49.7092 228.169 49.6957C228.093 49.7182 229.017 49.6686 229.973 49.6551C230.933 49.6416 231.915 49.628 231.915 49.628L233.029 49.5423L234.485 49.407L235.206 49.3304C235.422 49.3078 235.652 49.2988 235.891 49.2853C236.833 49.2447 237.798 49.2447 238.753 49.2537C240.669 49.2808 242.589 49.3619 244.469 49.5829C245.217 49.6912 245.97 49.8039 246.633 49.9978Z" fill="#231F20"/>
<path d="M241.926 36.5459C241.953 36.5594 241.967 36.5594 242.016 36.5459C242.183 36.5143 242.417 36.4332 242.575 36.2528C242.728 36.0724 242.805 35.8018 242.566 35.3553C242.557 35.3373 242.508 35.2742 242.48 35.2561C241.701 34.9224 240.885 34.7149 240.073 34.5887C238.198 34.3136 236.391 34.4218 234.597 34.521C232.798 34.6428 231.004 34.8457 229.228 35.1479C228.795 35.22 228.367 35.3012 227.935 35.3779C227.935 35.3779 227.412 35.5132 226.713 35.7296C226.014 35.9416 225.144 36.2483 224.446 36.5414C222.066 37.52 223.152 37.5291 224.694 37.2765C224.617 37.3126 225.536 37.1367 226.479 36.9834C227.421 36.8345 228.381 36.7128 228.381 36.7128C228.741 36.6451 229.102 36.5775 229.463 36.5189C231.193 36.2257 232.938 36.0273 234.691 35.91C236.445 35.8108 238.212 35.7161 239.866 35.9642C240.583 36.0904 241.281 36.2663 241.926 36.5459Z" fill="#231F20"/>
<path d="M215.192 37.185C215.224 37.176 215.237 37.1714 215.273 37.1263C215.53 36.8467 215.796 36.2424 214.931 35.8591C214.917 35.8501 214.845 35.832 214.814 35.832C214.083 36.0395 213.349 36.2199 212.605 36.3687C209.048 37.0948 205.384 37.1805 201.778 36.6393C199.957 36.3912 198.059 36.0485 196.067 36.274C195.571 36.3236 195.075 36.4363 194.584 36.5716C194.097 36.7295 193.619 36.9189 193.168 37.1669L192.934 37.3022L192.776 37.4014C192.672 37.4691 192.569 37.5367 192.465 37.6089C192.262 37.7487 192.068 37.8975 191.879 38.0509C191.879 38.0509 191.455 38.4342 190.964 38.9889C190.473 39.5436 189.9 40.2381 189.436 40.8424C187.831 42.8312 188.773 42.3442 190.013 41.361C189.963 41.4287 190.685 40.8154 191.41 40.193C191.771 39.8818 192.136 39.5842 192.415 39.3722C192.695 39.1603 192.884 39.034 192.884 39.034C193.051 38.9032 193.218 38.7814 193.385 38.6732C193.569 38.556 193.655 38.4883 194.097 38.2628C194.831 37.9111 195.638 37.7126 196.481 37.6405C198.176 37.5007 199.948 37.8028 201.764 38.0554C205.438 38.5875 209.229 38.4928 212.875 37.7487C213.66 37.5863 214.43 37.4014 215.192 37.185Z" fill="#231F20"/>
<path d="M205.914 53.8776C205.707 55.0186 189.633 57.0209 183.254 53.4221C173.919 48.1591 169.249 45.5254 166.058 39.9784C165.463 38.9411 160.807 30.8505 164.124 26.5346C165.206 25.1276 167.694 23.3913 170.273 23.4589C171.391 23.486 172.238 23.8468 174.487 23.9144C176.191 23.964 176.908 23.7972 177.561 23.8017C181.965 23.8333 188.528 31.748 188.15 39.0674C188.064 40.6954 187.622 42.6166 188.605 43.284C189.529 43.9109 191.192 43.0766 192.477 42.2603C196.466 47.0046 201.929 49.1288 205.914 53.8776Z" fill="#8F3615"/>
<path d="M227.895 84.4702C231.92 84.2177 232.177 83.6495 238.6 82.5355C243.676 81.6561 245.681 81.6832 248.278 79.7395C248.363 79.6763 250.464 78.0348 251.582 75.5769C252.916 72.6365 252.037 71.2475 251.924 71.3106C250.216 72.1946 247.638 73.2679 240.308 74.9365C233.633 76.4563 220.123 76.5826 217.505 76.4563C213.98 76.2849 194.367 71.8157 191.739 70.4628C190.77 69.9622 189.089 74.2059 189.233 74.9365C190.103 79.2795 204.96 83.5548 220.948 84.362C224.802 84.5514 226.092 84.583 227.895 84.4702Z" fill="#8F3615" stroke="#341202" stroke-width="3" stroke-miterlimit="10"/>
<path d="M132.497 59.0044C132.497 71.9655 146.515 77.5712 163.811 77.5712C181.106 77.5712 195.125 71.9655 195.125 59.0044C195.125 52.7312 189.797 47.1526 184.447 42.9404C178.744 38.4532 171.861 37.2852 162.941 37.2852C145.645 37.2852 132.497 46.0387 132.497 59.0044Z" fill="#FFCE91" stroke="#341202" stroke-width="3" stroke-miterlimit="10"/>
<path d="M172.876 73.7498C164.825 73.7498 158.298 69.2613 158.298 63.7245C158.298 58.1877 164.825 53.6992 172.876 53.6992C180.927 53.6992 187.453 58.1877 187.453 63.7245C187.453 69.2613 180.927 73.7498 172.876 73.7498Z" fill="#291207"/>
<path d="M176.862 66.4581C175.354 66.4581 174.131 65.2345 174.131 63.7251C174.131 62.2158 175.354 60.9922 176.862 60.9922C178.371 60.9922 179.594 62.2158 179.594 63.7251C179.594 65.2345 178.371 66.4581 176.862 66.4581Z" fill="white"/>
<path d="M168.948 60.9497C168.004 60.9497 167.239 60.1844 167.239 59.2405C167.239 58.2965 168.004 57.5312 168.948 57.5312C169.891 57.5312 170.656 58.2965 170.656 59.2405C170.656 60.1844 169.891 60.9497 168.948 60.9497Z" fill="white"/>
<path d="M195.604 51.8239C195.554 52.1982 196.023 53.691 195.437 53.9886C194.679 54.3719 191.484 52.7755 191.15 52.5455C188.585 50.7776 185.646 50.5837 182.568 50.1147C173.981 48.8023 169.689 48.8339 167.422 48.7482C163.045 48.5859 159.768 49.2894 156.207 49.8892C152.912 50.4439 152.574 49.9117 145.898 51.4857C141.697 52.4778 142.076 52.7664 139.065 53.8804C135.513 55.1927 135.396 55.089 133.259 55.7474C127.999 57.3664 121.021 55.7745 117.942 51.0076C117.573 50.4349 117.97 51.1564 117.884 49.4382C117.69 45.3749 121.4 43.7604 123.464 38.6147C124.614 35.7419 125.173 36.68 125.628 30.7541C125.741 29.3019 127.021 26.6006 128.932 24.6027C131.051 22.3839 132.335 21.4774 139.408 19.0196C146.191 16.6655 144.456 16.8819 147.152 16.3994C150.87 15.7319 154.968 15.6733 159.723 16.3047C164.754 16.9766 165.259 17.0398 168.274 18.7625C170.929 20.2823 172.534 22.0592 174.08 23.7774C177.271 27.3176 179.313 29.5815 179.886 33.0045C180.183 34.7768 180.079 36.8198 181.594 38.0194C182.139 38.4523 182.378 38.3621 183.758 39.1604C185.038 39.9 185.588 40.4141 186.832 41.3251C189.288 43.1245 189.243 42.669 190.474 43.7198C192.471 45.42 193.652 46.4031 194.404 47.9635C194.95 49.0639 195.766 50.6378 195.604 51.8239Z" fill="#8F3615" stroke="#341202" stroke-width="3" stroke-miterlimit="10"/>
<path d="M190.899 45.0259C190.926 45.0484 190.935 45.0575 190.989 45.062C191.35 45.1161 192.026 45.0394 191.877 44.0969C191.873 44.0788 191.855 44.0067 191.832 43.9796C191.251 43.461 190.66 42.9469 190.07 42.4418C189.119 41.63 188.15 40.8318 187.167 40.0516C186.189 39.2759 185.184 38.4822 184.052 37.8237C182.93 37.1563 181.627 36.6647 180.311 36.4888C178.995 36.2859 177.692 36.3355 176.425 36.4392C173.888 36.6647 171.49 37.1247 169.092 36.9218C166.68 36.7594 164.268 36.2092 161.807 35.7447C159.337 35.2667 156.817 34.969 154.293 34.8743C151.769 34.7886 149.245 34.8473 146.711 35.2261C144.178 35.6094 141.69 36.4573 139.459 37.7335L139.017 37.9861C138.967 38.0132 138.913 38.0447 138.864 38.0763L138.566 38.2657C138.363 38.3875 138.17 38.5182 137.976 38.6535C137.976 38.6535 137.539 38.9918 136.984 39.4924C136.434 39.9975 135.794 40.6739 135.325 41.2828C134.92 41.7924 134.694 42.1486 134.591 42.3786C134.482 42.6041 134.5 42.6988 134.595 42.6943C134.789 42.6853 135.298 42.2839 135.902 41.8059C135.857 41.8735 136.56 41.2737 137.322 40.7371C138.079 40.1869 138.909 39.7179 138.909 39.7179C139.085 39.5916 139.274 39.4833 139.454 39.3661C139.544 39.3075 139.635 39.2488 139.729 39.1947L140.112 38.9737C140.365 38.8204 140.631 38.6941 140.892 38.5498C143.002 37.4675 145.287 36.791 147.654 36.5114C150.02 36.2273 152.459 36.1912 154.861 36.3039C157.273 36.4257 159.657 36.7414 162.042 37.2149C164.431 37.6749 166.86 38.2161 169.389 38.3469C171.945 38.5002 174.42 38.0041 176.791 37.8192C177.981 37.7245 179.157 37.72 180.279 37.9049C181.406 38.0853 182.457 38.4957 183.453 39.1C184.449 39.6953 185.396 40.4349 186.351 41.1926C187.302 41.9502 188.24 42.7214 189.164 43.5106C189.745 44.0067 190.327 44.5118 190.899 45.0259Z" fill="#231F20"/>
<path d="M192.625 70.2842C188.884 77.3376 183.745 76.0613 181.288 77.1211C177.421 78.7852 176.632 79.9307 172.868 80.6252C166.729 81.7572 163.2 81.9376 159.566 81.5768C150.876 80.7154 140.878 79.7278 129.731 73.8289C123.718 70.645 118.214 67.628 116.406 61.5262C116.163 60.7099 114.644 55.2846 117.547 51.6136C122.762 45.0158 135.424 48.326 137.984 50.9733C138.791 51.8076 139.499 57.5801 140.378 59.2442C140.738 59.9297 153.076 67.8309 166.684 70.9652C180.144 74.068 192.548 70.1129 192.625 70.2842Z" fill="#8F3615" stroke="#341202" stroke-width="3" stroke-miterlimit="10"/>
<path d="M175.966 76.6743C175.583 78.0723 172.387 78.0633 168.109 80.7737C167.383 81.2337 166.522 81.838 166.63 82.3702C166.797 83.1864 169.137 83.1864 169.137 83.3939C169.137 83.7953 160.442 84.9813 148.753 83.9621C138.904 83.1053 133.982 82.6768 128.713 79.7455C128.181 79.4478 117.056 73.0619 114.487 61.837C114.018 59.7851 113.31 56.4884 114.82 53.0835C115.456 51.6584 116.376 55.7127 117.236 54.8062C118.165 53.8366 119.03 47.9513 119.49 47.6131C120.658 46.7517 121.712 45.9761 123.25 45.5612C127.69 44.3661 126.5 44.6096 132.504 44.4653C134.424 44.4202 139.085 47.9784 139.306 48.7496C139.459 49.2772 143.975 47.8341 143.371 49.0788C142.785 50.2874 136.939 53.6788 137.052 55.0588C137.435 59.7174 138.165 61.6612 138.395 62.0806C140.23 65.4719 143.764 66.64 147.162 67.6637C151.521 68.9896 176.286 75.4972 175.966 76.6743Z" fill="#8F3615"/>
<path d="M160.178 79.6149C160.21 79.6149 160.219 79.6149 160.264 79.5834C160.408 79.4977 160.602 79.3398 160.687 79.1189C160.768 78.8979 160.75 78.6138 160.372 78.2755C160.358 78.262 160.291 78.2214 160.255 78.2124C159.407 78.1673 158.6 78.244 157.83 78.3161C157.023 78.3928 156.243 78.4649 155.508 78.4108C155.116 78.3838 154.746 78.3206 154.39 78.2079C154.39 78.2079 153.935 78.1177 153.308 77.8561C152.682 77.6036 151.88 77.1751 151.172 76.873C149.982 76.3318 149.54 76.3814 149.617 76.5438C149.689 76.7241 150.203 77.0804 150.811 77.5585C150.739 77.5224 151.469 78.0771 152.294 78.6408C152.709 78.9204 153.164 79.182 153.534 79.3489C153.903 79.5157 154.169 79.6014 154.169 79.6014C154.575 79.7096 154.99 79.7818 155.395 79.8089C156.292 79.8765 157.144 79.7908 157.951 79.7187C158.736 79.642 159.475 79.5743 160.178 79.6149Z" fill="#231F20"/>
<path d="M201.625 108.055C198.735 107.198 197.455 106.287 195.138 103.865C194.656 103.36 190.64 99.6573 191.203 94.3808C191.393 92.6129 191.018 91.8373 191.929 90.2363C194.516 85.6814 197.609 80.2335 204.397 77.5908C212.141 74.5737 219.862 77.0857 224.212 79.8141C224.586 80.0486 226.511 81.7939 230.361 85.2845C238.727 92.8655 238.799 93.4337 242.148 95.878C245.547 98.3584 246.466 98.4982 248.125 100.492C249.919 102.643 251.925 105.046 252.222 108.352C252.326 109.471 250.518 110.517 249.662 111.004C248.513 111.649 234.71 109.313 221.192 108.555C213.93 108.145 206.709 109.561 201.625 108.055Z" fill="#8F3615" stroke="#341202" stroke-width="3" stroke-miterlimit="10"/>
<path d="M229.668 105.614C225.435 104.554 226.413 104.59 222.834 103.733C218.746 102.755 212.99 102.588 206.364 100.789C204.281 100.225 200.103 99.9497 197.695 99.4221C196.569 99.174 197.741 96.7613 200.9 95.7556C202.798 95.1558 211.34 96.8109 217.033 98.0917C225.981 100.108 227.576 100.509 236.077 102.417C242.528 103.864 244.133 104.577 246.341 105.231C248.649 105.916 250.966 106.985 251.895 107.878C253.314 109.249 252.165 111.229 251.638 111.851C250.876 112.74 237.93 107.68 229.668 105.614Z" fill="#521F0C" stroke="#341202" stroke-width="3" stroke-miterlimit="10"/>
<path d="M248.593 114.628C245.311 114.534 242.341 112.86 239.199 111.765C235.886 110.61 232.433 109.834 228.268 108.901C224.013 107.949 224.991 109.005 221.394 108.238C217.279 107.359 212.091 106.506 205.419 104.874C203.323 104.36 199.438 103.494 197.905 101.379C196.99 100.111 196.972 97.6489 198.135 97.4821C199.65 97.2701 198.415 98.2397 201.674 99.8226C203.314 100.621 209.724 101.604 215.444 102.745C224.441 104.54 226.046 104.901 234.588 106.592C241.074 107.877 244.577 109.244 244.577 109.244C249.571 110.827 249.792 110.831 250.599 111.508C252.393 113.014 250.013 114.673 248.593 114.628Z" fill="#521F0C" stroke="#341202" stroke-width="3" stroke-miterlimit="10"/>
<path d="M203.076 99.4221H202.139L200.602 100.789L198.947 100.617C198.947 100.617 198.533 98.953 198.947 98.2676C199.362 97.5821 200.534 96.4727 201.841 96.4727C203.144 96.4727 203.117 98.0962 203.117 98.0962C203.387 98.2676 203.482 98.6148 203.342 98.8989L203.076 99.4221Z" fill="#521F0C"/>
<path d="M231.257 84.1247C231.987 83.5114 230.301 79.9261 228.182 77.1165C225.473 73.5222 222.372 71.5965 219.641 69.9369C215.994 67.7181 214.168 66.6132 211.613 66.5185C208.516 66.4057 206.212 67.7226 203.242 69.4228C202.647 69.7655 202.624 69.8061 195.385 75.7455C193.217 77.5224 192.266 78.3026 191.455 79.8449C191.031 80.6522 190.062 82.7808 190.431 85.4867C190.58 86.5826 190.837 88.4812 192.311 89.7575C193.294 90.6098 194.682 91.0698 197.094 90.9526C201.056 90.7632 202.841 89.2659 208.71 86.6818C212.135 85.171 214.353 84.481 218.789 83.092C222.377 81.969 224.171 81.5767 226.303 82.0683C229.237 82.7492 230.684 84.6073 231.257 84.1247Z" fill="#FFCE91" stroke="#341202" stroke-width="3" stroke-miterlimit="10"/>
</svg>
