<svg width="1920" height="450" viewBox="0 0 1920 450" fill="none" xmlns="http://www.w3.org/2000/svg">
<path d="M1864.3 15.7997C1893 18.0997 1911.5 32 1920 43V300H0.003479L0 66C34.3 52.5 86.099 60.4997 104.799 97.0997C120.599 61.5997 153.999 37.8997 188.299 37.6997C222.499 37.4997 256.099 60.9997 272.199 96.2997C285.099 66.2997 315.399 49.2997 344.099 51.5997C372.799 53.8997 399.299 73.4997 416.999 99.8997C422.399 107.8 426.899 116.4 430.899 125.3C432.699 121.1 434.899 117.2 437.299 113.5C451.299 92.2997 473.899 81.0997 496.399 75.4997C516.899 70.3997 540.099 69.9997 556.499 85.1997C558.299 63.5997 575.699 48.0997 593.399 41.0997C627.699 27.4997 670.799 39.7997 689.199 76.1997C704.999 40.6997 738.399 16.9997 772.699 16.7997C806.899 16.5997 840.499 40.0997 856.599 75.3997C869.499 45.3997 899.799 28.3997 928.499 30.6997C957.199 32.9997 983.699 52.5997 1001.4 78.9997L1002 79.8997C1006.8 78.0997 1011.7 76.5997 1016.6 75.3997C1037 70.2997 1060.3 69.8997 1076.7 85.0997C1078.5 63.4997 1095.9 47.9997 1113.6 40.9997C1147.9 27.3997 1191 39.6997 1209.4 76.0997C1225.2 40.5997 1258.6 16.8997 1292.9 16.6997C1327.1 16.4997 1360.7 39.9997 1376.8 75.2997C1389.7 45.2997 1420 28.2997 1448.7 30.5997C1466.4 32.0997 1483.3 40.0997 1497.8 52.1997C1504.7 39.9997 1516.9 30.9997 1529.1 26.1997C1563.4 12.5997 1606.5 24.8997 1624.9 61.2997C1640.8 25.7997 1674.2 2.0997 1708.5 1.8997C1742.7 1.6997 1776.3 25.1997 1792.4 60.4997C1805.3 30.4997 1835.6 13.4997 1864.3 15.7997Z" fill="white"/>
<path d="M1902.5 210.918C1915.5 230.187 1920 243.166 1920 243.166V346H0L0.00230789 237.275C19.2023 233.182 43.0015 232.783 58.4015 245.263C60.1015 227.491 76.4015 214.812 93.0015 209.121C125.201 198.039 165.601 208.023 182.901 237.874C197.801 208.821 229.101 189.353 261.301 189.253C293.501 189.153 325.001 208.322 340.101 237.275C352.201 212.715 380.601 198.738 407.501 200.635C434.401 202.532 459.301 218.506 475.901 240.171C480.901 246.76 485.201 253.749 488.901 261.037C490.701 257.642 492.701 254.348 495.001 251.353C508.201 233.981 529.401 224.796 550.501 220.203C569.701 216.11 591.501 215.71 606.901 228.19C608.601 210.419 624.901 197.739 641.501 192.049C673.701 180.966 714.101 190.95 731.401 220.802C746.301 191.749 777.601 172.281 809.8 172.181C842 172.081 873.5 191.25 888.6 220.203C900.7 195.643 929.1 181.665 956 183.562C982.9 185.459 1007.8 201.433 1024.4 223.098C1024.6 223.398 1024.8 223.598 1025 223.897C1029.5 222.399 1034.1 221.201 1038.7 220.203C1057.9 216.11 1079.7 215.71 1095.1 228.19C1096.8 210.419 1113.1 197.739 1129.7 192.049C1161.9 180.966 1202.3 190.95 1219.6 220.802C1234.5 191.749 1265.8 172.281 1298 172.181C1330.2 172.081 1361.7 191.25 1376.8 220.203C1388.9 195.643 1417.3 181.665 1444.2 183.562C1460.9 184.76 1476.7 191.25 1490.3 201.234C1496.7 191.15 1508.1 183.862 1519.6 179.868C1551.8 168.786 1592.2 178.77 1609.5 208.622C1624.4 179.569 1655.7 160.1 1687.9 160C1720.1 159.901 1751.6 179.07 1766.7 208.023C1778.8 183.462 1807.2 169.485 1834.1 171.382C1861 173.279 1885.9 189.253 1902.5 210.918Z" fill="#77C87E"/>
<path d="M1920 276.333V368.93V369.03V426.752L1920 450H0V388.571V346.682V313.711C3 312.709 7.5 315.214 9.39514 318.322C11.1951 296.676 28.5951 281.144 46.2951 274.129C80.5951 260.5 123.695 272.826 142.095 309.303C157.895 273.728 191.295 249.977 225.595 249.777C259.795 249.577 293.395 273.127 309.495 308.501C322.395 278.438 352.695 261.402 381.395 263.707C410.095 266.011 436.595 285.653 454.295 312.109C459.695 320.026 464.195 328.644 468.195 337.563C469.995 333.354 472.195 329.446 474.595 325.738C488.595 304.493 511.195 293.269 533.695 287.657C554.195 282.546 577.395 282.146 593.795 297.378C595.595 275.732 612.995 260.199 630.695 253.184C664.995 239.555 708.095 251.882 726.495 288.359C742.295 252.783 775.695 229.033 809.995 228.833C844.195 228.632 877.795 252.182 893.895 287.557C906.795 257.493 937.095 240.457 965.795 242.762C994.495 245.067 1020.99 264.709 1038.69 291.165C1038.89 291.564 1039.09 291.864 1039.29 292.164L1039.3 292.167C1044.1 290.363 1048.99 288.86 1053.9 287.657C1074.3 282.546 1097.59 282.146 1113.99 297.378C1115.8 275.732 1133.2 260.199 1150.9 253.184C1185.2 239.555 1228.29 251.882 1246.69 288.359C1262.49 252.783 1295.89 229.033 1330.19 228.833C1364.39 228.632 1397.99 252.182 1414.09 287.557C1426.99 257.493 1457.3 240.457 1485.99 242.762C1503.69 244.265 1520.59 252.282 1535.09 264.408C1541.99 252.182 1554.2 243.163 1566.4 238.353C1600.7 224.724 1643.79 237.05 1662.19 273.527C1677.99 237.952 1711.39 214.202 1745.69 214.001C1779.89 213.801 1813.49 237.351 1829.59 272.726C1842.49 242.662 1891.3 225.626 1920 227.931V276.333Z" fill="#76EB83"/>
</svg>
