<svg width="24" height="24" viewBox="0 0 24 24" fill="none" xmlns="http://www.w3.org/2000/svg">
<path d="M12.0035 15.4167C11.522 15.4167 11.1331 15.2593 10.8368 14.9444C10.559 14.6296 10.3831 14.1944 10.309 13.6389L9.33681 5.25C9.20718 4.28704 9.3831 3.50926 9.86458 2.91667C10.3461 2.30556 11.059 2 12.0035 2C12.9664 2 13.6794 2.30556 14.1424 2.91667C14.6053 3.50926 14.772 4.28704 14.6424 5.25L13.6979 13.6389C13.6238 14.1944 13.4479 14.6296 13.1701 14.9444C12.8924 15.2593 12.5035 15.4167 12.0035 15.4167ZM12.0035 22C11.1701 22 10.5035 21.75 10.0035 21.25C9.52199 20.75 9.28125 20.0926 9.28125 19.2778C9.28125 18.4815 9.52199 17.8426 10.0035 17.3611C10.5035 16.8611 11.1701 16.6111 12.0035 16.6111C12.8738 16.6111 13.5405 16.8611 14.0035 17.3611C14.485 17.8426 14.7257 18.4815 14.7257 19.2778C14.7257 20.0926 14.485 20.75 14.0035 21.25C13.5405 21.75 12.8738 22 12.0035 22Z" fill="#DE2B2B"/>
</svg>
