<svg width="28" height="28" viewBox="0 0 28 28" fill="none" xmlns="http://www.w3.org/2000/svg">
<path d="M6.61576 11.5655L10.1883 6.73192C12.4975 3.60752 13.6521 2.04533 14.7294 2.37545C15.8066 2.70558 15.8066 4.62161 15.8066 8.45367V8.81499C15.8066 10.1971 15.8066 10.8882 16.2483 11.3217L16.2716 11.3441C16.7228 11.7685 17.442 11.7685 18.8805 11.7685C21.4693 11.7685 22.7637 11.7685 23.2011 12.5536C23.2083 12.5665 23.2153 12.5797 23.2222 12.5929C23.6352 13.3902 22.8857 14.4041 21.3868 16.432L17.8143 21.2655C15.505 24.3899 14.3504 25.9521 13.2731 25.622C12.1959 25.2918 12.1959 23.3758 12.1959 19.5436L12.196 19.1826C12.196 17.8003 12.196 17.1093 11.7543 16.6757L11.731 16.6533C11.2798 16.229 10.5606 16.229 9.12201 16.229C6.53333 16.229 5.239 16.229 4.80156 15.4439C4.79431 15.4309 4.78726 15.4178 4.78043 15.4045C4.36748 14.6074 5.11691 13.5934 6.61576 11.5655Z" fill="#F2F2F2" stroke="#0C0C0C" stroke-width="2"/>
</svg>
