<svg width="53" height="53" viewBox="0 0 53 53" fill="none" xmlns="http://www.w3.org/2000/svg">
<path d="M12.7814 22.2298L19.416 13.2533C23.7046 7.45079 25.8489 4.54958 27.8496 5.16266C29.8501 5.77576 29.8501 9.3341 29.8501 16.4508V17.1218C29.8501 19.6886 29.8501 20.9721 30.6704 21.7771L30.7137 21.8188C31.5516 22.6069 32.8873 22.6069 35.5588 22.6069C40.3665 22.6069 42.7704 22.6069 43.5827 24.0649C43.5961 24.0889 43.6091 24.1134 43.6219 24.1379C44.3889 25.6186 42.997 27.5016 40.2133 31.2677L33.5787 40.2442C29.29 46.0466 27.1457 48.9479 25.145 48.3348C23.1445 47.7216 23.1445 44.1633 23.1445 37.0464L23.1447 36.3759C23.1447 33.8088 23.1447 32.5255 22.3244 31.7203L22.2811 31.6787C21.4432 30.8907 20.1074 30.8907 17.4359 30.8907C12.6283 30.8907 10.2245 30.8907 9.41215 29.4326C9.3987 29.4085 9.38561 29.3842 9.37291 29.3595C8.60602 27.8791 9.9978 25.996 12.7814 22.2298Z" fill="#0C0C0C"/>
</svg>
