<svg width="0" height="0" class="hidden">
  <symbol xmlns="http://www.w3.org/2000/svg" viewBox="0 0 58 58" id="leader" >
    <path d="M35.4431 5.44531H22.5543C21.4345 5.44531 20.3605 5.89015 19.5687 6.68197C18.7769 7.47379 18.332 8.54773 18.332 9.66753V51.1536C18.332 51.5257 18.4798 51.8825 18.7429 52.1456C19.006 52.4086 19.3628 52.5564 19.7348 52.5564H38.2626C38.6346 52.5564 38.9914 52.4086 39.2545 52.1456C39.5176 51.8825 39.6654 51.5257 39.6654 51.1536V9.66753C39.6654 8.54773 39.2205 7.47379 38.4287 6.68197C37.6369 5.89015 36.5629 5.44531 35.4431 5.44531ZM49.9431 21.5564H42.6931C42.2143 21.5564 41.755 21.7466 41.4164 22.0853C41.0778 22.4239 40.8876 22.8831 40.8876 23.362V50.7509C40.8876 51.2297 41.0778 51.689 41.4164 52.0276C41.755 52.3662 42.2143 52.5564 42.6931 52.5564H50.7487C51.6549 52.5564 52.5239 52.1964 53.1646 51.5557C53.8054 50.915 54.1654 50.0459 54.1654 49.1398V25.7786C54.1654 24.6588 53.7205 23.5849 52.9287 22.7931C52.1369 22.0013 51.0629 21.5564 49.9431 21.5564ZM8.05425 15.112C6.93445 15.112 5.86051 15.5568 5.06869 16.3486C4.27687 17.1405 3.83203 18.2144 3.83203 19.3342V49.1398C3.83203 50.0459 4.192 50.915 4.83275 51.5557C5.4735 52.1964 6.34254 52.5564 7.2487 52.5564H15.3043C15.7831 52.5564 16.2424 52.3662 16.581 52.0276C16.9196 51.689 17.1098 51.2297 17.1098 50.7509V16.9175C17.1098 16.4387 16.9196 15.9794 16.581 15.6408C16.2424 15.3022 15.7831 15.112 15.3043 15.112H8.05425Z"  stroke-width="2"/>
  </symbol>
  <symbol xmlns="http://www.w3.org/2000/svg" viewBox="0 0 58 58" id="achiev">
    <path ill-rule="evenodd" clip-rule="evenodd" d="M52.7743 26.8873L52.2204 32.7726C51.3077 42.4697 50.8514 47.3182 47.9935 50.2417C45.1355 53.1654 40.852 53.1654 32.2851 53.1654H25.7123C17.1454 53.1654 12.8619 53.1654 10.0039 50.2417C7.14594 47.3182 6.6896 42.4697 5.77694 32.7726L5.22307 26.8873C4.78804 22.2651 4.57054 19.9541 5.36125 18.9987C5.78898 18.4819 6.37062 18.1653 6.9925 18.1106C8.14209 18.0097 9.5858 19.6532 12.4732 22.9403C13.9665 24.6402 14.7131 25.4902 15.546 25.6219C16.0075 25.6946 16.4777 25.6197 16.9039 25.4054C17.673 25.0182 18.1858 23.9675 19.2114 21.866L24.617 10.7888C26.555 6.81761 27.524 4.83203 28.9987 4.83203C30.4733 4.83203 31.4424 6.81761 33.3804 10.7888L38.786 21.8659C39.8116 23.9675 40.3244 25.0182 41.0934 25.4054C41.5197 25.6197 41.99 25.6946 42.4513 25.6219C43.2843 25.4902 44.0308 24.6402 45.5241 22.9403C48.4115 19.6532 49.8553 18.0097 51.0049 18.1106C51.6267 18.1653 52.2084 18.4819 52.6361 18.9987C53.4268 19.9541 53.2093 22.2651 52.7743 26.8873ZM31.3003 30.6879L31.0628 30.2619C30.1444 28.6144 29.6853 27.7908 28.9987 27.7908C28.3121 27.7908 27.853 28.6144 26.9346 30.2619L26.6971 30.6879C26.4363 31.1561 26.3058 31.3902 26.1023 31.5447C25.8988 31.6991 25.6456 31.7564 25.1388 31.8711L24.6775 31.9755C22.8941 32.3789 22.0025 32.5807 21.7903 33.2629C21.5782 33.9451 22.186 34.6559 23.4018 36.0774L23.7163 36.4452C24.0618 36.8492 24.2345 37.0513 24.3123 37.3012C24.3899 37.551 24.3638 37.8205 24.3116 38.3594L24.264 38.8502C24.0802 40.7468 23.9883 41.6954 24.5436 42.1168C25.0992 42.5386 25.9339 42.1541 27.6036 41.3853L28.0354 41.1864C28.51 40.968 28.7471 40.8587 28.9987 40.8587C29.2503 40.8587 29.4873 40.968 29.962 41.1864L30.3938 41.3853C32.0635 42.1541 32.8982 42.5386 33.4538 42.1168C34.0092 41.6954 33.9171 40.7468 33.7334 38.8502L33.6858 38.3594C33.6336 37.8205 33.6075 37.551 33.6851 37.3012C33.7629 37.0513 33.9357 36.8492 34.281 36.4452L34.5957 36.0774C35.8113 34.6559 36.4193 33.9451 36.2071 33.2629C35.9949 32.5807 35.1032 32.3789 33.3199 31.9755L32.8586 31.8711C32.3518 31.7564 32.0986 31.6991 31.8951 31.5447C31.6916 31.3902 31.5611 31.1561 31.3003 30.6879Z" stroke-width="2"></path>
  </symbol>
  <symbol xmlns="http://www.w3.org/2000/svg" viewBox="0 0 58 58" id="shop">
      <path d="M44.9642 31.6245H44.961C42.4207 31.6263 39.9728 30.6611 38.1186 28.9254L37.4408 28.2909L36.7578 28.9199C34.8639 30.6642 32.3817 31.63 29.8069 31.6245H29.8026C27.2278 31.6302 24.7457 30.6644 22.8519 28.92L22.1689 28.2908L21.491 28.9254C19.6366 30.6613 17.1911 31.6263 14.651 31.6245H14.6476C12.9302 31.6292 11.2409 31.1895 9.74386 30.348L8.25389 29.5106V31.2198V33.8334V33.9115C8.25388 38.404 8.25387 41.8781 8.61702 44.5782C8.98611 47.3225 9.74678 49.4165 11.3804 51.0489C13.9898 53.6583 17.8193 54.0675 23.7459 54.1535L24.7604 54.1683V53.1536V44.7133C24.7604 43.5645 24.7614 42.7702 24.8171 42.1558C24.8715 41.5552 24.9719 41.2255 25.1123 40.9823C25.3428 40.583 25.6745 40.2514 26.0737 40.0209C26.3168 39.8805 26.6468 39.78 27.2474 39.7255C27.8617 39.6698 28.6561 39.6689 29.8048 39.6689C30.9535 39.6689 31.7479 39.6698 32.3623 39.7255C32.9628 39.78 33.2926 39.8804 33.5357 40.0208C33.9349 40.2513 34.2667 40.5829 34.4972 40.9822C34.6376 41.2254 34.7381 41.5552 34.7925 42.1558C34.8482 42.7702 34.8492 43.5645 34.8492 44.7133V53.1536V54.1683L35.8637 54.1535C41.7897 54.0675 45.6199 53.6609 48.2296 51.0485C49.8629 49.4162 50.6235 47.3223 50.9926 44.5782C51.3557 41.8781 51.3557 38.404 51.3557 33.9115V33.8334V31.2198V29.5106L49.8658 30.348C48.3693 31.1891 46.6808 31.6288 44.9642 31.6245Z" />
      <path d="M36.8492 53.1536V53.135M22.1623 25.3928C22.1152 25.4877 22.0662 25.5817 22.0154 25.6749C21.4687 26.6785 20.7229 27.5599 19.8237 28.2652C18.9245 28.9705 17.8909 29.4849 16.786 29.7768C15.6811 30.0687 14.5282 30.1321 13.398 29.963C12.2678 29.794 11.1839 29.396 10.2129 28.7935C9.24177 28.191 8.40386 27.3966 7.75043 26.4591C7.09701 25.5215 6.6418 24.4604 6.41269 23.3408C6.18384 22.2225 6.18538 21.0693 6.41719 19.9516L7.86229 12.7261C7.87453 12.6649 7.88662 12.6044 7.89857 12.5446C8.29453 10.5635 8.53432 9.36378 9.03239 8.37293C9.55122 7.3388 10.2817 6.42529 11.1764 5.69172C12.0712 4.95806 13.1103 4.42075 14.2262 4.11467C15.3004 3.81997 16.5237 3.8201 18.552 3.82033C18.6096 3.82034 18.6678 3.82034 18.7267 3.82034H40.883C40.9418 3.82034 41 3.82034 41.0576 3.82033C43.086 3.8201 44.3092 3.81996 45.3834 4.11466C46.4993 4.42073 47.5384 4.95805 48.4332 5.69172C49.328 6.4254 50.0587 7.33922 50.5775 8.37352C51.0761 9.36785 51.3157 10.5667 51.7131 12.5549L51.7473 12.7261L53.1916 19.9478L53.1924 19.9517C53.4242 21.0694 53.4258 22.2226 53.1969 23.3408C52.9678 24.4604 52.5126 25.5215 51.8592 26.4591C51.2057 27.3966 50.3678 28.191 49.3968 28.7935C48.4257 29.396 47.3418 29.794 46.2116 29.963C45.0814 30.1321 43.9285 30.0687 42.8236 29.7768C41.7188 29.4849 40.6851 28.9705 39.7859 28.2652C38.8867 27.5599 38.1409 26.6785 37.5942 25.6749C37.5436 25.5821 37.4949 25.4885 37.4479 25.394C37.1172 26.0155 36.7111 26.596 36.2374 27.1218C35.4315 28.0164 34.4479 28.733 33.3494 29.2259C32.2509 29.7188 31.0616 29.9771 29.8576 29.9844C28.6536 29.9916 27.4613 29.7476 26.3569 29.268C25.2525 28.7884 24.2603 28.0837 23.4437 27.1989C22.9397 26.6528 22.5095 26.0455 22.1623 25.3928ZM44.9642 31.6245H44.961C42.4207 31.6263 39.9728 30.6611 38.1186 28.9254L37.4408 28.2909L36.7578 28.9199C34.8639 30.6642 32.3817 31.63 29.8069 31.6245H29.8026C27.2278 31.6302 24.7457 30.6644 22.8519 28.92L22.1689 28.2908L21.491 28.9254C19.6366 30.6613 17.1911 31.6263 14.651 31.6245H14.6476C12.9302 31.6292 11.2409 31.1895 9.74386 30.348L8.25389 29.5106V31.2198V33.8334V33.9115C8.25388 38.404 8.25387 41.8781 8.61702 44.5782C8.98611 47.3225 9.74678 49.4165 11.3804 51.0489C13.9898 53.6583 17.8193 54.0675 23.7459 54.1535L24.7604 54.1683V53.1536V44.7133C24.7604 43.5645 24.7614 42.7702 24.8171 42.1558C24.8715 41.5552 24.9719 41.2255 25.1123 40.9823C25.3428 40.583 25.6745 40.2514 26.0737 40.0209C26.3168 39.8805 26.6468 39.78 27.2474 39.7255C27.8617 39.6698 28.6561 39.6689 29.8048 39.6689C30.9535 39.6689 31.7479 39.6698 32.3623 39.7255C32.9628 39.78 33.2926 39.8804 33.5357 40.0208C33.9349 40.2513 34.2667 40.5829 34.4972 40.9822C34.6376 41.2254 34.7381 41.5552 34.7925 42.1558C34.8482 42.7702 34.8492 43.5645 34.8492 44.7133V53.1536V54.1683L35.8637 54.1535C41.7897 54.0675 45.6199 53.6609 48.2296 51.0485C49.8629 49.4162 50.6235 47.3223 50.9926 44.5782C51.3557 41.8781 51.3557 38.404 51.3557 33.9115V33.8334V31.2198V29.5106L49.8658 30.348C48.3693 31.1891 46.6808 31.6288 44.9642 31.6245Z" stroke-width="2"/>
  </symbol>
  <symbol xmlns="http://www.w3.org/2000/svg" viewBox="0 0 58 58" id="settings">
    <path fill-rule="evenodd" clip-rule="evenodd" d="M34.5071 5.19995C33.6121 4.83203 32.4775 4.83203 30.2083 4.83203C27.9391 4.83203 26.8045 4.83203 25.9095 5.19995C24.7162 5.6905 23.7681 6.63143 23.2738 7.81573C23.0482 8.35635 22.9599 8.98508 22.9253 9.90218C22.8746 11.2499 22.1781 12.4974 21.0012 13.1718C19.8243 13.8461 18.3875 13.8209 17.1861 13.1907C16.3685 12.7618 15.7757 12.5234 15.1911 12.447C13.9106 12.2797 12.6154 12.6241 11.5907 13.4044C10.8222 13.9897 10.2549 14.9649 9.12027 16.9152C7.98567 18.8655 7.41837 19.8407 7.29192 20.7939C7.12333 22.0648 7.47035 23.3501 8.25665 24.3671C8.61555 24.8313 9.11995 25.2215 9.90278 25.7097C11.0536 26.4273 11.7941 27.6499 11.794 28.9988C11.794 30.3475 11.0535 31.5699 9.90278 32.2874C9.11981 32.7756 8.61535 33.1659 8.25642 33.6301C7.47012 34.6471 7.12309 35.9324 7.29168 37.2033C7.41813 38.1565 7.98543 39.1317 9.12003 41.082C10.2546 43.0324 10.8219 44.0075 11.5905 44.5928C12.6152 45.3732 13.9103 45.7176 15.1909 45.5502C15.7755 45.4739 16.3682 45.2354 17.1857 44.8066C18.3873 44.1764 19.8242 44.1512 21.0011 44.8255C22.1781 45.4999 22.8746 46.7475 22.9254 48.0953C22.9599 49.0124 23.0482 49.6411 23.2738 50.1817C23.7681 51.366 24.7162 52.3069 25.9095 52.7974C26.8045 53.1654 27.9391 53.1654 30.2083 53.1654C32.4775 53.1654 33.6121 53.1654 34.5071 52.7974C35.7004 52.3069 36.6485 51.366 37.1428 50.1817C37.3685 49.641 37.4568 49.0123 37.4913 48.0951C37.5421 46.7474 38.2385 45.4999 39.4153 44.8255C40.5923 44.1511 42.0292 44.1762 43.2308 44.8065C44.0483 45.2353 44.641 45.4737 45.2255 45.5501C46.5061 45.7174 47.8012 45.373 48.826 44.5926C49.5945 44.0074 50.1618 43.0322 51.2964 41.0819C52.431 39.1315 52.9983 38.1564 53.1247 37.2032C53.2933 35.9323 52.9463 34.6469 52.16 33.63C51.8011 33.1657 51.2967 32.7755 50.5137 32.2873C49.363 31.5697 48.6226 30.3473 48.6226 28.9985C48.6227 27.6498 49.3631 26.4276 50.5137 25.7101C51.2968 25.2218 51.8013 24.8315 52.1603 24.3673C52.9466 23.3503 53.2936 22.065 53.125 20.7941C52.9985 19.8409 52.4312 18.8657 51.2966 16.9154C50.162 14.965 49.5947 13.9899 48.8262 13.4046C47.8015 12.6242 46.5064 12.2798 45.2258 12.4472C44.6412 12.5235 44.0485 12.762 43.231 13.1908C42.0294 13.821 40.5925 13.8462 39.4155 13.1719C38.2386 12.4975 37.5421 11.2499 37.4913 9.90205C37.4568 8.98502 37.3685 8.35633 37.1428 7.81573C36.6485 6.63143 35.7004 5.6905 34.5071 5.19995ZM30.2083 36.2487C34.2429 36.2487 37.5135 33.0028 37.5135 28.9987C37.5135 24.9946 34.2429 21.7487 30.2083 21.7487C26.1738 21.7487 22.9031 24.9946 22.9031 28.9987C22.9031 33.0028 26.1738 36.2487 30.2083 36.2487Z" stroke-width="2"/>
  </symbol>
  <symbol xmlns="http://www.w3.org/2000/svg" viewBox="0 0 58 58" id="history">
    <path d="M5.71753 25.6965L5.71754 25.6966C6.73061 26.7096 8.01578 27.1601 9.60737 27.374C11.1547 27.5821 13.1323 27.5821 15.6316 27.582H15.707H15.7824C18.2817 27.5821 20.2594 27.5821 21.8067 27.374C23.3983 27.1601 24.6835 26.7096 25.6965 25.6966L25.6966 25.6965C26.7096 24.6835 27.1601 23.3983 27.374 21.8067C27.5821 20.2594 27.5821 18.2817 27.582 15.7824V15.707V15.6316C27.5821 13.1323 27.5821 11.1547 27.374 9.60737C27.1601 8.01578 26.7096 6.73061 25.6966 5.71754L25.6965 5.71753C24.6835 4.70446 23.3983 4.25401 21.8067 4.04002C20.2594 3.83199 18.2817 3.83201 15.7824 3.83203L15.707 3.83203L15.6317 3.83203C13.1323 3.83201 11.1547 3.83199 9.60737 4.04002C8.01577 4.25401 6.7306 4.70446 5.71753 5.71753C4.70446 6.7306 4.25401 8.01577 4.04002 9.60737C3.83199 11.1547 3.83201 13.1323 3.83203 15.6317L3.83203 15.707L3.83203 15.7824C3.83201 18.2817 3.83199 20.2594 4.04002 21.8067C4.25401 23.3983 4.70446 24.6835 5.71753 25.6965ZM25.6965 52.2799L24.9894 51.5728L25.6966 52.2799C26.7096 51.2668 27.1601 49.9816 27.374 48.39C27.5821 46.8427 27.5821 44.8651 27.582 42.3657V42.2904V42.215C27.5821 39.7157 27.5821 37.738 27.374 36.1907C27.1601 34.5991 26.7096 33.3139 25.6966 32.3008L24.9894 33.0079L25.6965 32.3008C24.6835 31.2878 23.3983 30.8373 21.8067 30.6234C20.2594 30.4153 18.2817 30.4153 15.7824 30.4154H15.707H15.6316C13.1323 30.4153 11.1547 30.4153 9.60737 30.6234C8.01578 30.8373 6.73061 31.2878 5.71754 32.3008C4.70446 33.3139 4.25401 34.5991 4.04002 36.1907C3.83199 37.738 3.83201 39.7157 3.83203 42.215L3.83203 42.2904L3.83203 42.3657C3.83201 44.865 3.83199 46.8427 4.04002 48.39C4.25401 49.9816 4.70446 51.2668 5.71754 52.2799C6.73061 53.2929 8.01578 53.7434 9.60737 53.9574C11.1547 54.1654 13.1323 54.1654 15.6316 54.1654H15.707H15.7824C18.2817 54.1654 20.2594 54.1654 21.8067 53.9574C23.3983 53.7434 24.6835 53.2929 25.6965 52.2799ZM32.3008 25.6965L33.0079 24.9894L32.3008 25.6966C33.3139 26.7096 34.5991 27.1601 36.1907 27.374C37.738 27.5821 39.7157 27.5821 42.215 27.582H42.2904H42.3657C44.8651 27.5821 46.8427 27.5821 48.39 27.374C49.9816 27.1601 51.2668 26.7096 52.2799 25.6966L51.5728 24.9894L52.2799 25.6965C53.2929 24.6835 53.7434 23.3983 53.9574 21.8067C54.1654 20.2594 54.1654 18.2817 54.1654 15.7824V15.707V15.6316C54.1654 13.1323 54.1654 11.1547 53.9574 9.60737C53.7434 8.01578 53.2929 6.73061 52.2799 5.71754C51.2668 4.70446 49.9816 4.25401 48.39 4.04002C46.8427 3.83199 44.865 3.83201 42.3657 3.83203L42.2904 3.83203L42.215 3.83203C39.7157 3.83201 37.738 3.83199 36.1907 4.04002C34.5991 4.25401 33.3139 4.70446 32.3008 5.71754C31.2878 6.73061 30.8373 8.01578 30.6234 9.60737C30.4153 11.1547 30.4153 13.1323 30.4154 15.6316V15.707V15.7824C30.4153 18.2817 30.4153 20.2594 30.6234 21.8067C30.8373 23.3983 31.2878 24.6835 32.3008 25.6965ZM32.3008 32.3008C31.2878 33.3139 30.8373 34.5991 30.6234 36.1907C30.4153 37.738 30.4153 39.7157 30.4154 42.215V42.2904V42.3657C30.4153 44.8651 30.4153 46.8427 30.6234 48.39C30.8373 49.9816 31.2878 51.2668 32.3008 52.2799C33.3139 53.2929 34.5991 53.7434 36.1907 53.9574C37.738 54.1654 39.7157 54.1654 42.215 54.1654H42.2904H42.3657C44.8651 54.1654 46.8427 54.1654 48.39 53.9574C49.9816 53.7434 51.2668 53.2929 52.2799 52.2799C53.2929 51.2668 53.7434 49.9816 53.9574 48.39C54.1654 46.8427 54.1654 44.8651 54.1654 42.3657V42.2904V42.215C54.1654 39.7157 54.1654 37.738 53.9574 36.1907C53.7434 34.5991 53.2929 33.3139 52.2799 32.3008C51.2668 31.2878 49.9816 30.8373 48.39 30.6234C46.8427 30.4153 44.8651 30.4153 42.3657 30.4154H42.2904H42.215C39.7157 30.4153 37.738 30.4153 36.1907 30.6234C34.5991 30.8373 33.3139 31.2878 32.3008 32.3008Z" stroke-width="2"/>
  </symbol>
  <symbol xmlns="http://www.w3.org/2000/svg" viewBox="0 0 32 32" id="hash">
    <path fill-rule="evenodd" clip-rule="evenodd" d="M11.1667 4.5C11.1667 2.29086 12.9575 0.5 15.1667 0.5H28.5C30.7091 0.5 32.5 2.29086 32.5 4.5V17.8333C32.5 20.0425 30.7091 21.8333 28.5 21.8333H15.1667C12.9575 21.8333 11.1667 20.0425 11.1667 17.8333V4.5ZM15.1667 3.16667C14.4303 3.16667 13.8333 3.76362 13.8333 4.5V17.8333C13.8333 18.5697 14.4303 19.1667 15.1667 19.1667H28.5C29.2364 19.1667 29.8333 18.5697 29.8333 17.8333V4.5C29.8333 3.76362 29.2364 3.16667 28.5 3.16667H15.1667ZM4.5 13.8333C3.76362 13.8333 3.16667 14.4303 3.16667 15.1667V28.5C3.16667 29.2364 3.76362 29.8333 4.5 29.8333H17.8333C18.5697 29.8333 19.1667 29.2364 19.1667 28.5V25.8333C19.1667 25.097 19.7636 24.5 20.5 24.5C21.2364 24.5 21.8333 25.097 21.8333 25.8333V28.5C21.8333 30.7091 20.0425 32.5 17.8333 32.5H4.5C2.29086 32.5 0.5 30.7091 0.5 28.5V15.1667C0.5 12.9575 2.29086 11.1667 4.5 11.1667H7.16667C7.90305 11.1667 8.5 11.7636 8.5 12.5C8.5 13.2364 7.90305 13.8333 7.16667 13.8333H4.5Z" />
    <path fill-rule="evenodd" clip-rule="evenodd" d="M20.8905 6.22386C21.4112 5.70316 22.2554 5.70316 22.7761 6.22386L26.7761 10.2239C27.2968 10.7446 27.2968 11.5888 26.7761 12.1095L22.7761 16.1095C22.2554 16.6302 21.4112 16.6302 20.8905 16.1095C20.3698 15.5888 20.3698 14.7446 20.8905 14.2239L22.6144 12.5H17.8333C17.097 12.5 16.5 11.903 16.5 11.1667C16.5 10.4303 17.097 9.83333 17.8333 9.83333H22.6144L20.8905 8.10948C20.3698 7.58878 20.3698 6.74456 20.8905 6.22386Z" />
  </symbol>
</svg> 