<svg width="58" height="58" viewBox="0 0 58 58" fill="none" xmlns="http://www.w3.org/2000/svg">
<path d="M35.4431 5.44531H22.5543C21.4345 5.44531 20.3605 5.89015 19.5687 6.68197C18.7769 7.47379 18.332 8.54773 18.332 9.66753V51.1536C18.332 51.5257 18.4798 51.8825 18.7429 52.1456C19.006 52.4086 19.3628 52.5564 19.7348 52.5564H38.2626C38.6346 52.5564 38.9914 52.4086 39.2545 52.1456C39.5176 51.8825 39.6654 51.5257 39.6654 51.1536V9.66753C39.6654 8.54773 39.2205 7.47379 38.4287 6.68197C37.6369 5.89015 36.5629 5.44531 35.4431 5.44531ZM49.9431 21.5564H42.6931C42.2143 21.5564 41.755 21.7466 41.4164 22.0853C41.0778 22.4239 40.8876 22.8831 40.8876 23.362V50.7509C40.8876 51.2297 41.0778 51.689 41.4164 52.0276C41.755 52.3662 42.2143 52.5564 42.6931 52.5564H50.7487C51.6549 52.5564 52.5239 52.1964 53.1646 51.5557C53.8054 50.915 54.1654 50.0459 54.1654 49.1398V25.7786C54.1654 24.6588 53.7205 23.5849 52.9287 22.7931C52.1369 22.0013 51.0629 21.5564 49.9431 21.5564ZM8.05425 15.112C6.93445 15.112 5.86051 15.5568 5.06869 16.3486C4.27687 17.1405 3.83203 18.2144 3.83203 19.3342V49.1398C3.83203 50.0459 4.192 50.915 4.83275 51.5557C5.4735 52.1964 6.34254 52.5564 7.2487 52.5564H15.3043C15.7831 52.5564 16.2424 52.3662 16.581 52.0276C16.9196 51.689 17.1098 51.2297 17.1098 50.7509V16.9175C17.1098 16.4387 16.9196 15.9794 16.581 15.6408C16.2424 15.3022 15.7831 15.112 15.3043 15.112H8.05425Z" fill="#F2F2F2" stroke="#0C0C0C" stroke-width="2"/>
</svg>
