<svg width="28" height="28" viewBox="0 0 28 28" fill="none" xmlns="http://www.w3.org/2000/svg">
<path d="M20.7595 20.9659L20.7792 20.978L20.7994 20.9891C21.9613 21.6274 23.4278 21.2643 24.0981 20.101C25.1374 18.3078 25.7328 16.2196 25.7328 14.0008C25.7328 7.26225 20.2713 1.80078 13.5328 1.80078C12.2187 1.80078 11.1541 2.8548 11.1331 4.16141H11.1328V4.20078H11.1331C11.1536 5.5632 12.2366 6.56141 13.5328 6.56141C17.618 6.56141 20.9328 9.87619 20.9328 13.9614C20.9328 15.3558 20.5683 16.613 19.9498 17.6488L19.9394 17.6662L19.9297 17.6841C19.3066 18.8313 19.647 20.2861 20.7595 20.9659Z" fill="#F2F2F2" stroke="black" stroke-width="2"/>
</svg>
