<svg width="55" height="55" viewBox="0 0 55 55" fill="none" xmlns="http://www.w3.org/2000/svg">
<path d="M38.4375 32.9336V46.4336C38.4375 47.6271 37.9634 48.7717 37.1195 49.6156C36.2756 50.4595 35.131 50.9336 33.9375 50.9336H11.4375C10.244 50.9336 9.09943 50.4595 8.25552 49.6156C7.41161 48.7717 6.9375 47.6271 6.9375 46.4336V32.9336C6.9375 31.7401 7.41161 30.5955 8.25552 29.7516C9.09943 28.9077 10.244 28.4336 11.4375 28.4336H33.9375C35.131 28.4336 36.2756 28.9077 37.1195 29.7516C37.9634 30.5955 38.4375 31.7401 38.4375 32.9336ZM28.6933 7.43937C28.9974 7.74352 28.9974 8.23666 28.6933 8.54082L25.8801 11.354C25.3894 11.8447 25.7369 12.6836 26.4308 12.6836H29.4375C34.2114 12.6836 38.7898 14.58 42.1654 17.9557C45.3571 21.1473 47.2264 25.4142 47.4207 29.9049C47.4393 30.3346 47.0888 30.6836 46.6587 30.6836H43.7163C43.2862 30.6836 42.9398 30.3342 42.9153 29.9047C42.5103 22.8226 36.6191 17.1836 29.4375 17.1836H26.4308C25.7369 17.1836 25.3894 18.0225 25.8801 18.5132L28.6933 21.3264C28.9974 21.6305 28.9974 22.1237 28.6933 22.4278L26.6132 24.5079C26.3091 24.812 25.8159 24.812 25.5118 24.5079L16.4882 15.4843C16.1841 15.1802 16.1841 14.687 16.4882 14.3829L19.119 11.7521L25.5118 5.35932C25.8159 5.05516 26.3091 5.05516 26.6132 5.35932L28.6933 7.43937Z" fill="#F2F2F2" stroke="black" stroke-width="1.5"/>
</svg>
