<svg width="28" height="28" viewBox="0 0 28 28" fill="none" xmlns="http://www.w3.org/2000/svg">
<path d="M14.0013 12.6654C17.1309 12.6654 19.668 10.1283 19.668 6.9987C19.668 3.86908 17.1309 1.33203 14.0013 1.33203C10.8717 1.33203 8.33464 3.86908 8.33464 6.9987C8.33464 10.1283 10.8717 12.6654 14.0013 12.6654ZM14.0013 26.6654C16.369 26.6654 18.1923 26.517 19.5955 26.2329C20.9943 25.9498 22.0435 25.5187 22.7994 24.9031C24.3385 23.6497 24.3364 21.8926 24.3347 20.545C24.3347 20.5013 24.3346 20.4581 24.3346 20.4154C24.3346 18.4439 22.9246 16.8627 21.0912 15.8315C19.2266 14.7826 16.7179 14.1654 14.0013 14.1654C11.2848 14.1654 8.77606 14.7826 6.91138 15.8315C5.07804 16.8627 3.66797 18.4439 3.66797 20.4154C3.66797 20.4581 3.66792 20.5013 3.66786 20.545C3.66621 21.8926 3.66406 23.6497 5.20318 24.9031C5.95915 25.5187 7.00827 25.9498 8.40708 26.2329C9.81032 26.517 11.6336 26.6654 14.0013 26.6654Z" fill="#F2F2F2" stroke="black" stroke-width="2"/>
</svg>
