<svg width="300" height="300" viewBox="0 0 300 300" fill="none" xmlns="http://www.w3.org/2000/svg">
<path d="M234.868 219.959C234.868 219.959 224.746 222.388 204.098 210.244C183.449 198.096 176.565 178.932 177.377 171.375C173.196 177.746 171.305 182.711 171.305 182.711C171.305 182.711 175.625 200.795 190.062 210.646C204.5 220.497 216.11 228.054 234.868 227.516C235.003 225.629 234.868 219.959 234.868 219.959Z" fill="#D16628" stroke="black" stroke-width="0.146099" stroke-miterlimit="10"/>
<path d="M233.244 224.953C233.244 224.953 234.323 232.646 244.58 229.676C254.837 226.706 256.001 211.727 256.001 211.727C256.001 211.727 252.005 217.261 246.606 216.99C241.207 216.72 237.532 216.235 235.406 217.532C232.3 219.423 233.244 224.953 233.244 224.953Z" fill="#E1E2E1" stroke="black" stroke-width="0.146099" stroke-miterlimit="10"/>
<path d="M158.544 269.221C158.544 269.221 165.635 283.829 166.123 290.193C166.607 296.557 171.882 296.906 172.608 296.981C179.275 297.672 176.287 288.883 176.287 288.883C176.287 288.883 177.07 292.352 181.882 292.615C189.229 293.021 184.307 286.614 184.307 286.614C184.307 286.614 188.428 289.584 190.853 287.643C193.278 285.702 194.55 281.4 193.823 280.855C193.62 280.702 192.673 279.534 190.55 278.462C185.119 275.713 175.194 271.457 174.061 270.674C172.483 269.584 171.999 258.732 171.999 258.732L175.785 199.165L178.004 176.764L181.91 155.257C181.91 155.257 158.113 147.843 149.815 147.618C141.518 147.394 117.126 154.805 117.126 154.805L120.936 175.557L126.827 259.566C126.827 259.566 126.218 266.92 123.184 269.014C120.146 271.104 108.472 276.165 108.472 276.165C108.472 276.165 103.276 277.65 105.772 283.993C108.269 290.336 117.852 283.587 117.852 283.587C117.852 283.587 109.351 286.76 114.344 290.806C119.337 294.855 123.308 287.301 123.308 287.301C123.308 287.301 120.31 295.112 125.951 295.934C129.662 296.476 131.913 294.641 132.497 291.28C133.982 282.711 141.742 266.92 141.742 266.92C141.742 266.92 137.49 205.989 138.636 201.195C139.783 196.405 141.183 185.137 149.997 184.866C158.811 184.596 160.5 196.27 161.173 201.331C161.846 206.391 159.431 256.393 159.431 256.393L158.544 269.221Z" fill="#D16628" stroke="black" stroke-width="0.146099" stroke-miterlimit="10"/>
<path d="M85.9868 138.169C85.9868 138.169 93.4834 132.161 100.578 125.024C107.672 117.89 120.938 103.709 120.938 103.709C120.938 103.709 115.357 96.2659 113.082 94.8022C110.806 93.3385 75.7123 132.075 75.7123 132.075C75.7123 132.075 57.2716 129.896 55.3449 129.073C52.5706 127.891 50.3448 131.302 50.8897 132.574C51.4346 133.845 54.3442 138.486 66.0753 136.983C67.2469 136.833 64.6187 138.621 64.6187 138.621C64.5759 138.696 53.842 147.777 50.1133 149.166C46.4878 150.516 48.4323 156.214 52.5243 155.669C56.6163 155.124 65.7084 145.167 65.9827 144.893C66.2569 144.618 57.0935 157.204 56.7089 159.622C56.2103 162.76 60.6193 164.897 63.4363 160.712C66.2533 156.531 73.5292 146.983 73.2549 147.072C72.9807 147.165 65.4342 161.894 66.3459 163.985C67.2576 166.075 68.8923 167.803 71.4386 166.439C73.985 165.075 77.9417 149.818 77.6674 149.907C77.3932 150 76.9409 164.573 76.9409 164.573C76.9409 164.573 78.6219 168.754 81.8948 165.755C83.3514 165.801 85.132 142.898 85.0786 142.977L85.9868 138.169Z" fill="#D16628" stroke="black" stroke-width="0.146099" stroke-miterlimit="10"/>
<path d="M213.256 138.559C213.256 138.559 205.759 132.551 198.665 125.414C191.571 118.277 178.305 104.1 178.305 104.1C178.305 104.1 183.885 96.6565 186.161 95.1928C188.433 93.7291 223.534 132.466 223.534 132.466C223.534 132.466 241.974 130.286 243.901 129.464C246.675 128.281 248.901 131.693 248.356 132.964C247.812 134.236 244.902 138.876 233.171 137.373C231.999 137.224 234.627 139.012 234.627 139.012C234.67 139.086 245.404 148.168 249.133 149.557C252.758 150.907 250.814 156.605 246.722 156.06C242.63 155.515 233.538 145.557 233.263 145.283C232.989 145.009 242.153 157.595 242.537 160.013C243.036 163.15 238.627 165.287 235.81 161.103C232.993 156.922 225.717 147.374 225.991 147.463C226.265 147.555 233.812 162.285 232.9 164.376C231.992 166.466 230.354 168.193 227.807 166.829C225.261 165.465 221.304 150.209 221.579 150.298C221.853 150.387 222.305 164.963 222.305 164.963C222.305 164.963 220.624 169.144 217.351 166.146C215.895 166.192 214.114 143.289 214.167 143.367L213.256 138.559Z" fill="#D16628" stroke="black" stroke-width="0.146099" stroke-miterlimit="10"/>
<path d="M111.403 93.0683L78.8984 124.949L90.9536 137.546C90.9536 137.546 121.574 104.65 121.72 104.981C125.413 102.168 127.906 98.072 127.906 98.072C127.906 98.072 128.041 110.939 127.269 116.349C124.904 119.258 114.131 136.67 117.13 154.811C131.631 155.584 133.679 150.128 142.55 149.081C147.219 148.54 153.502 148.287 162.23 150.63C167.918 152.158 179.371 156.994 181.918 155.264C184.418 149.626 181.554 129.348 172.733 117.62C170.642 105.255 171.825 99.0691 171.825 99.0691C171.825 99.0691 177.462 104.981 177.737 105.07C177.94 105.138 208.46 137.995 208.46 137.995C208.46 137.995 218.995 126.851 220.515 125.487C220.79 124.123 175.283 79.699 175.283 79.699C175.283 79.699 165.5 70.9309 157.843 70.2685C150.186 69.6061 140.606 70.0726 138.273 70.8775C135.944 71.6824 128.43 76.0236 124.181 79.699C119.811 83.474 111.403 93.0683 111.403 93.0683Z" fill="#E1E2E1" stroke="black" stroke-width="0.146099" stroke-miterlimit="10"/>
<path d="M141.176 3.11914C142.12 2.81642 142.426 0.294987 142.426 0.294987C142.426 0.294987 143.79 1.02506 144.516 0.0029561C145.243 -1.01915 145.004 -2.04482 145.004 -2.04482C145.004 -2.04482 146.333 -1.17585 147.316 -1.43227C148.299 -1.68868 149.68 -4 149.68 -4C149.68 -4 150.749 -1.90949 151.903 -1.60321C153.057 -1.29694 154.535 -1.90593 154.535 -1.90593C154.535 -1.90593 154.41 -0.837522 155.04 0.00651753C155.671 0.850557 156.906 0.344846 156.906 0.344846C156.906 0.344846 157.177 3.02298 158.178 2.9197C159.179 2.81998 149.638 6.56652 149.638 6.56652C149.638 6.56652 140.232 3.42185 141.176 3.11914Z" fill="#F1F2F2" stroke="black" stroke-width="0.146099" stroke-miterlimit="10"/>
<path d="M173.328 13.6516C173.328 13.6516 191.32 11.8068 188.713 0.00447056C187.98 -3.32539 191.886 3.61568 192.221 7.87861C192.559 12.1415 190.871 19.0755 188.375 21.1019C185.878 23.1283 183.663 24.5885 175.169 25.0194C174.204 25.0657 173.328 13.6516 173.328 13.6516Z" fill="#EDDFD3" stroke="black" stroke-width="0.146099" stroke-miterlimit="10"/>
<path d="M179.592 31.8983C179.592 31.8983 182.502 32.9524 185.946 31.1433C188.122 30.0001 190.857 26.4636 193.165 24.2734C194.507 22.9985 196.085 22.6708 196.338 22.2506C197.018 21.1003 196.338 19.5083 196.338 19.5083C196.338 19.5083 183.652 14.9819 175.757 21.054C175.169 27.443 179.592 31.8983 179.592 31.8983Z" fill="#D16628" stroke="black" stroke-width="0.146099" stroke-miterlimit="10"/>
<path d="M174.68 25.6925C174.68 25.6925 178.255 28.5274 183.79 23.3313C189.324 18.1353 195.471 22.5763 195.471 22.5763" stroke="black" stroke-width="0.146099" stroke-miterlimit="10"/>
<path d="M126.725 13.6516C126.725 13.6516 108.733 11.8068 111.34 0.00447056C112.074 -3.32539 108.167 3.61568 107.832 7.87861C107.494 12.1415 109.182 19.0755 111.678 21.1019C114.175 23.1283 116.39 24.5885 124.884 25.0194C125.849 25.0657 126.725 13.6516 126.725 13.6516Z" fill="#EDDFD3" stroke="black" stroke-width="0.146099" stroke-miterlimit="10"/>
<path d="M119.993 31.2615C119.993 31.2615 117.083 32.3157 113.64 30.5065C111.464 29.3633 108.729 25.8269 106.421 23.6367C105.078 22.3617 103.5 22.0341 103.248 21.6138C102.567 20.4635 103.248 18.8716 103.248 18.8716C103.248 18.8716 115.933 14.3451 123.829 20.4172C124.42 26.8099 119.993 31.2615 119.993 31.2615Z" fill="#D16628" stroke="black" stroke-width="0.146099" stroke-miterlimit="10"/>
<path d="M126.151 25.6886C126.151 25.6886 122.575 28.5234 117.041 23.3274C111.506 18.1314 105.359 22.5724 105.359 22.5724" stroke="black" stroke-width="0.146099" stroke-miterlimit="10"/>
<path d="M124.666 18.6275C124.666 18.6275 121.757 19.1119 121.636 26.751C121.636 26.751 108.298 40.0882 123.94 54.3942C141.768 66.7841 141.155 65.6694 141.155 65.6694L141.508 68.2122L142.972 78.7609C142.972 78.7609 144.361 83.2909 150.002 83.2909C155.643 83.2909 156.911 79.0031 156.911 79.0031L158.488 66.1502C158.488 66.1502 178.977 55.3593 181.644 47.5991C184.312 39.8389 178.371 27.2318 178.371 27.2318C178.371 27.2318 179.098 22.8655 175.099 18.624C171.099 14.3824 175.22 -0.895777 154.368 2.3771C153.179 2.57654 150.6 4.2753 149.781 4.98045C148.77 4.30023 147.434 2.98965 146.376 2.72612C142.776 1.83578 140.436 1.05584 133.271 2.98253C127.295 4.59582 124.666 18.6275 124.666 18.6275Z" fill="#D16628" stroke="black" stroke-width="0.146099" stroke-miterlimit="10"/>
<path d="M142.123 2.09375L141.656 65.8383C141.656 65.8383 144.014 68.5093 149.527 68.5378C155.04 68.5663 157.697 66.6468 158.234 65.8383C158.772 65.0299 157.372 2.27538 157.372 2.27538C157.372 2.27538 155.962 2.10087 153.889 2.77041C152.458 3.23338 150.83 4.56889 149.634 5.19925C148.669 4.39438 147.757 3.43638 146.735 3.0838C144.267 2.22908 142.123 2.09375 142.123 2.09375Z" fill="white"/>
<path d="M128.047 22.4014C128.047 22.4014 133.382 31.9173 148.535 23.5517C148.688 22.1877 143.959 13.2452 136.11 14.3385C128.261 15.4318 128.047 22.4014 128.047 22.4014Z" fill="white" stroke="black" stroke-width="0.146099" stroke-miterlimit="10"/>
<path d="M171.336 22.4014C171.336 22.4014 166.001 31.9173 150.847 23.5517C150.694 22.1877 155.424 13.2452 163.273 14.3385C171.126 15.4318 171.336 22.4014 171.336 22.4014Z" fill="white" stroke="black" stroke-width="0.146099" stroke-miterlimit="10"/>
<path d="M161.958 25.6851C164.493 25.6851 166.548 23.6298 166.548 21.0945C166.548 18.5592 164.493 16.5039 161.958 16.5039C159.422 16.5039 157.367 18.5592 157.367 21.0945C157.367 23.6298 159.422 25.6851 161.958 25.6851Z" fill="black" stroke="black" stroke-width="0.146099" stroke-miterlimit="10"/>
<path d="M137.169 25.314C139.704 25.314 141.759 23.2587 141.759 20.7234C141.759 18.1881 139.704 16.1328 137.169 16.1328C134.633 16.1328 132.578 18.1881 132.578 20.7234C132.578 23.2587 134.633 25.314 137.169 25.314Z" fill="black" stroke="black" stroke-width="0.146099" stroke-miterlimit="10"/>
<path d="M160.413 21.0522C161.266 21.0522 161.958 20.3602 161.958 19.5066C161.958 18.6529 161.266 17.9609 160.413 17.9609C159.559 17.9609 158.867 18.6529 158.867 19.5066C158.867 20.3602 159.559 21.0522 160.413 21.0522Z" fill="white" stroke="white" stroke-width="0.146099" stroke-miterlimit="10"/>
<path d="M135.592 21.0522C136.446 21.0522 137.138 20.3602 137.138 19.5066C137.138 18.6529 136.446 17.9609 135.592 17.9609C134.739 17.9609 134.047 18.6529 134.047 19.5066C134.047 20.3602 134.739 21.0522 135.592 21.0522Z" fill="white" stroke="white" stroke-width="0.146099" stroke-miterlimit="10"/>
<path d="M175.172 26.7305C175.172 26.7305 173.171 30.2633 167.109 30.6301" stroke="black" stroke-width="0.146099" stroke-miterlimit="10"/>
<path d="M179.587 36.3257C179.587 36.3257 178.921 34.9938 177.586 34.4453" stroke="black" stroke-width="0.146099" stroke-miterlimit="10"/>
<path d="M172.984 15.5954C172.984 15.5954 161.648 4.19905 151.039 16.5035" stroke="black" stroke-width="0.146099" stroke-miterlimit="10"/>
<path d="M158.856 6.56422C158.856 6.56422 152.314 6.34698 149.586 10.7915" stroke="black" stroke-width="0.146099" stroke-miterlimit="10"/>
<path d="M149.586 4.80469V23.7796" stroke="black" stroke-width="0.146099" stroke-miterlimit="10"/>
<path d="M124.062 26.7305C124.062 26.7305 126.064 30.2633 132.125 30.6301" stroke="black" stroke-width="0.146099" stroke-miterlimit="10"/>
<path d="M119.633 36.3257C119.633 36.3257 120.299 34.9938 121.634 34.4453" stroke="black" stroke-width="0.146099" stroke-miterlimit="10"/>
<path d="M126.234 15.5954C126.234 15.5954 137.57 4.19905 148.179 16.5035" stroke="black" stroke-width="0.146099" stroke-miterlimit="10"/>
<path d="M140.367 6.56422C140.367 6.56422 146.909 6.34698 149.637 10.7915" stroke="black" stroke-width="0.146099" stroke-miterlimit="10"/>
<path d="M149.633 4.80469V23.7796" stroke="black" stroke-width="0.146099" stroke-miterlimit="10"/>
<path d="M124.303 36.6092C127.181 35.6441 133.399 34.5045 133.399 34.5045C133.399 34.5045 131.358 31.2245 132.829 29.0058C134.3 26.787 136.145 27.1147 136.145 27.1147C136.145 27.1147 148.481 27.7237 149.885 27.6987C151.288 27.6738 165.116 27.4281 165.116 27.4281C165.116 27.4281 167.082 27.7272 167.592 29.8569C168.097 31.9866 166.801 34.5009 166.801 34.5009C166.801 34.5009 175.722 36.1961 176.723 36.9191C177.724 37.642 178.529 39.1983 176.801 42.197C175.074 45.1992 170.498 50.0177 148.734 47.4714C142.128 47.653 129.457 50.6837 122.79 42.4712C121.212 38.6891 123.096 37.0152 124.303 36.6092Z" fill="#F9D6B5" stroke="black" stroke-width="0.146099" stroke-miterlimit="10"/>
<path d="M126.719 41.2422C126.719 41.2422 133.325 45.4695 149.326 42.1076C159.736 46.018 172.454 41.2422 172.454 41.2422" stroke="black" stroke-width="0.146099" stroke-miterlimit="10"/>
<path d="M155.273 33.4491C155.273 33.4491 159.173 28.5024 161.947 28.6805C164.722 28.8585 165.17 28.3208 165.53 29.9412C165.89 31.5616 165.979 33.0894 164.451 33.4491C162.923 33.8088 155.273 33.4491 155.273 33.4491Z" fill="black" stroke="black" stroke-width="0.146099" stroke-miterlimit="10"/>
<path d="M144.469 33.453C144.469 33.453 140.57 28.5063 137.795 28.6844C135.021 28.8624 134.572 28.3247 134.213 29.9451C133.853 31.5655 133.764 33.0933 135.292 33.453C136.823 33.8127 144.469 33.453 144.469 33.453Z" fill="black" stroke="black" stroke-width="0.146099" stroke-miterlimit="10"/>
</svg>
