<svg width="300" height="300" viewBox="0 0 300 300" fill="none" xmlns="http://www.w3.org/2000/svg">
<g clip-path="url(#clip0_1306_2975)">
<path d="M151.215 88.1571C151.215 88.1571 156.785 86.7566 156.888 83.1148C156.991 79.473 157.583 72.0433 157.583 72.0433L157.811 70.4469C157.811 70.4469 176.694 64.0328 179.035 53.5884C181.376 43.1441 176.063 36.933 176.063 36.933C176.063 36.933 171.202 19.7396 168.052 16.8568C164.902 13.974 150.021 20.1886 150.021 20.1886C150.021 20.1886 136.366 13.8885 131.955 17.3093C127.543 20.7302 124.122 36.933 124.122 36.933C124.122 36.933 106.858 53.902 140.158 70.4433C141.273 85.5451 143.03 84.7362 143.03 84.7362C143.03 84.7362 144.013 87.9789 151.215 88.1571Z" fill="#DEBBAA" stroke="black" stroke-width="0.1461" stroke-miterlimit="10"/>
<path d="M126.047 45.8633H173.893C173.893 45.8633 175.7 46.6045 175.162 48.6998C174.62 50.7915 169.827 54.0627 167.194 54.4404C164.561 54.8146 134.952 55.2814 132.693 54.4404C130.434 53.5994 126.393 52.6159 124.75 49.0383C123.777 45.849 126.047 45.8633 126.047 45.8633Z" fill="#AB6564" stroke="black" stroke-width="0.1461" stroke-miterlimit="10"/>
<path d="M128.43 48.0273C128.43 48.0273 134.912 50.4576 138.528 50.5253C142.145 50.593 150.519 50.5253 150.519 50.5253C150.519 50.5253 160.119 50.7213 162.806 50.5538C165.493 50.3899 169.762 49.1071 171.112 48.0273" stroke="black" stroke-width="0.1461" stroke-miterlimit="10"/>
<path d="M123.862 36.7963C123.399 36.7214 117.348 35.7059 118.631 25.7782C119.216 25.4183 122.245 33.1937 122.558 23.968C123.189 20.7716 124.764 22.1685 124.764 22.1685C124.764 22.1685 123.46 15.5512 127.194 11.3642C127.148 13.21 127.825 17.9886 129.806 13.0746C129.446 11.2751 130.166 5.82666 136.83 4.61154C136.559 5.18525 139.869 -2.54379 148.172 0.877084C149.583 1.45792 149.914 1.57195 149.914 1.57195L150.085 19.781C150.085 19.781 146.02 20.4331 141.519 17.2367C139.157 17.0015 136.153 17.169 136.153 17.169C136.153 17.169 133.501 18.206 131.335 16.043C132.55 17.1227 128.905 26.3056 127.194 26.3519C127.779 27.118 124.326 36.8711 123.862 36.7963Z" fill="#4A342A" stroke="black" stroke-width="0.1461" stroke-miterlimit="10"/>
<path d="M176.309 36.7963C176.772 36.7214 182.823 35.7059 181.54 25.7782C180.956 25.4183 177.927 33.1937 177.613 23.968C176.983 20.7716 175.408 22.1685 175.408 22.1685C175.408 22.1685 176.712 15.5512 172.977 11.3642C173.024 13.21 172.347 17.9886 170.365 13.0746C170.725 11.2751 170.005 5.82666 163.342 4.61154C163.613 5.18525 160.302 -2.54379 151.999 0.877084C150.588 1.45792 150.257 1.57195 150.257 1.57195L150.086 19.781C150.086 19.781 154.152 20.4331 158.652 17.2367C161.015 17.0015 164.019 17.169 164.019 17.169C164.019 17.169 166.67 18.206 168.837 16.043C167.621 17.1227 171.267 26.3056 172.977 26.3519C172.393 27.118 175.846 36.8711 176.309 36.7963Z" fill="#4A342A" stroke="black" stroke-width="0.1461" stroke-miterlimit="10"/>
<path d="M124.758 22.1602C124.758 22.1602 125.207 25.3565 127.188 26.3472Z" fill="#4A342A"/>
<path d="M124.758 22.1602C124.758 22.1602 125.207 25.3565 127.188 26.3472" stroke="black" stroke-width="0.1461" stroke-miterlimit="10"/>
<path d="M131.333 16.0422C131.333 16.0422 129.833 14.7024 129.805 13.0703Z" fill="#4A342A"/>
<path d="M131.333 16.0422C131.333 16.0422 129.833 14.7024 129.805 13.0703" stroke="black" stroke-width="0.1461" stroke-miterlimit="10"/>
<path d="M141.517 17.2345C141.517 17.2345 135.926 11.811 136.824 4.60938Z" fill="#4A342A"/>
<path d="M141.517 17.2345C141.517 17.2345 135.926 11.811 136.824 4.60938" stroke="black" stroke-width="0.1461" stroke-miterlimit="10"/>
<path d="M175.438 22.1602C175.438 22.1602 174.989 25.3565 173.008 26.3472Z" fill="#4A342A"/>
<path d="M175.438 22.1602C175.438 22.1602 174.989 25.3565 173.008 26.3472" stroke="black" stroke-width="0.1461" stroke-miterlimit="10"/>
<path d="M168.797 16.0422C168.797 16.0422 170.297 14.7024 170.326 13.0703Z" fill="#4A342A"/>
<path d="M168.797 16.0422C168.797 16.0422 170.297 14.7024 170.326 13.0703" stroke="black" stroke-width="0.1461" stroke-miterlimit="10"/>
<path d="M158.695 17.2345C158.695 17.2345 164.286 11.811 163.388 4.60938Z" fill="#4A342A"/>
<path d="M158.695 17.2345C158.695 17.2345 164.286 11.811 163.388 4.60938" stroke="black" stroke-width="0.1461" stroke-miterlimit="10"/>
<path d="M148.163 0.875109C148.163 0.875109 139.386 8.3262 146.609 18.1826C150.269 21.5571 153.633 18.1826 153.633 18.1826C153.633 18.1826 160.589 10.621 152.079 0.964194C150.034 -0.553819 148.163 0.875109 148.163 0.875109Z" fill="#4A342A" stroke="black" stroke-width="0.1461" stroke-miterlimit="10"/>
<path d="M151.206 32.0925C149.966 30.1433 164.91 15.6189 169.839 31.3513C162.619 42.4906 151.206 33.778 151.206 32.0925Z" fill="white" stroke="black" stroke-width="0.1461" stroke-miterlimit="10"/>
<path d="M148.619 25.8768C148.619 25.8768 139.415 14.93 128.422 25.2996" stroke="black" stroke-width="0.1461" stroke-miterlimit="10"/>
<path d="M126.609 35.1953C126.609 35.1953 128.11 38.4345 134.246 38.9084" stroke="black" stroke-width="0.1461" stroke-miterlimit="10"/>
<path d="M122.492 43.5003C122.492 43.5003 123.166 42.4206 124.449 42.082" stroke="black" stroke-width="0.1461" stroke-miterlimit="10"/>
<path d="M151.109 25.8768C151.109 25.8768 160.314 14.93 171.307 25.2996" stroke="black" stroke-width="0.1461" stroke-miterlimit="10"/>
<path d="M173.136 35.1953C173.136 35.1953 171.636 38.4345 165.5 38.9084" stroke="black" stroke-width="0.1461" stroke-miterlimit="10"/>
<path d="M177.386 43.0706C177.386 43.0706 176.713 41.9909 175.43 41.6523" stroke="black" stroke-width="0.1461" stroke-miterlimit="10"/>
<path d="M150.023 30.0617L150.113 16.4922" stroke="black" stroke-width="0.1461" stroke-miterlimit="10"/>
<path d="M148.844 32.0925C150.084 30.1433 135.139 15.6189 130.211 31.3513C137.434 42.4906 148.844 33.778 148.844 32.0925Z" fill="white" stroke="black" stroke-width="0.1461" stroke-miterlimit="10"/>
<path d="M139.104 35.2753C141.734 35.2753 143.865 33.1439 143.865 30.5146C143.865 27.8854 141.734 25.7539 139.104 25.7539C136.475 25.7539 134.344 27.8854 134.344 30.5146C134.344 33.1439 136.475 35.2753 139.104 35.2753Z" fill="black" stroke="black" stroke-width="0.1461" stroke-miterlimit="10"/>
<path d="M137.196 30.3185C137.93 30.3185 138.525 29.7234 138.525 28.9893C138.525 28.2552 137.93 27.6602 137.196 27.6602C136.462 27.6602 135.867 28.2552 135.867 28.9893C135.867 29.7234 136.462 30.3185 137.196 30.3185Z" fill="white" stroke="white" stroke-width="0.1461" stroke-miterlimit="10"/>
<path d="M161.19 35.2753C163.82 35.2753 165.951 33.1439 165.951 30.5146C165.951 27.8854 163.82 25.7539 161.19 25.7539C158.561 25.7539 156.43 27.8854 156.43 30.5146C156.43 33.1439 158.561 35.2753 161.19 35.2753Z" fill="black" stroke="black" stroke-width="0.1461" stroke-miterlimit="10"/>
<path d="M159.282 30.3185C160.016 30.3185 160.611 29.7234 160.611 28.9893C160.611 28.2552 160.016 27.6602 159.282 27.6602C158.548 27.6602 157.953 28.2552 157.953 28.9893C157.953 29.7234 158.548 30.3185 159.282 30.3185Z" fill="white" stroke="white" stroke-width="0.1461" stroke-miterlimit="10"/>
<path d="M110.821 274.003C109.674 272.766 108.444 271.273 108.708 269.609C108.915 268.319 109.973 267.35 111.038 266.598C114 264.503 117.453 263.234 120.681 261.584C123.913 259.934 127.07 257.747 128.713 254.511C129.269 253.417 129.636 252.223 130.327 251.208C131.557 249.401 133.677 248.371 135.815 247.929C136.884 247.708 138.053 247.634 139.004 248.165C139.756 248.585 140.273 249.337 140.625 250.121C141.908 252.997 141.267 256.375 140.08 259.29C138.89 262.204 137.183 264.909 136.271 267.92C135.391 270.831 135.287 273.939 134.332 276.825C133.377 279.711 131.214 282.534 128.196 282.901C127.569 282.979 126.885 282.929 126.375 282.551C126.033 282.298 125.805 281.921 125.62 281.536C124.701 279.626 124.693 277.413 124.882 275.303C124.679 276.96 123.582 278.478 122.071 279.188C120.563 279.897 118.693 279.776 117.285 278.878C117.057 278.731 116.836 278.56 116.686 278.332C116.512 278.062 116.455 277.73 116.444 277.406C116.401 275.988 117.182 274.669 118.098 273.586C119.017 272.503 120.1 271.548 120.866 270.354C120.357 272.157 118.447 273.126 116.715 273.839C115.514 274.331 114.263 274.808 112.963 274.78C111.666 274.748 110.297 274.088 109.809 272.884" fill="#DEBBAA"/>
<path d="M110.821 274.003C109.674 272.766 108.444 271.273 108.708 269.609C108.915 268.319 109.973 267.35 111.038 266.598C114 264.503 117.453 263.234 120.681 261.584C123.913 259.934 127.07 257.747 128.713 254.511C129.269 253.417 129.636 252.223 130.327 251.208C131.557 249.401 133.677 248.371 135.815 247.929C136.884 247.708 138.053 247.634 139.004 248.165C139.756 248.585 140.273 249.337 140.625 250.121C141.908 252.997 141.267 256.375 140.08 259.29C138.89 262.204 137.183 264.909 136.271 267.92C135.391 270.831 135.287 273.939 134.332 276.825C133.377 279.711 131.214 282.534 128.196 282.901C127.569 282.979 126.885 282.929 126.375 282.551C126.033 282.298 125.805 281.921 125.62 281.536C124.701 279.626 124.693 277.413 124.882 275.303C124.679 276.96 123.582 278.478 122.071 279.188C120.563 279.897 118.693 279.776 117.285 278.878C117.057 278.731 116.836 278.56 116.686 278.332C116.512 278.062 116.455 277.73 116.444 277.406C116.401 275.988 117.182 274.669 118.098 273.586C119.017 272.503 120.1 271.548 120.866 270.354C120.357 272.157 118.447 273.126 116.715 273.839C115.514 274.331 114.263 274.808 112.963 274.78C111.666 274.748 110.297 274.088 109.809 272.884" stroke="black" stroke-width="0.1461" stroke-miterlimit="10"/>
<path d="M188.556 274.003C189.703 272.766 190.933 271.273 190.669 269.609C190.462 268.319 189.404 267.35 188.339 266.598C185.377 264.503 181.924 263.234 178.696 261.584C175.464 259.934 172.307 257.747 170.664 254.511C170.108 253.417 169.741 252.223 169.05 251.208C167.82 249.401 165.7 248.371 163.562 247.929C162.493 247.708 161.324 247.634 160.373 248.165C159.621 248.585 159.104 249.337 158.752 250.121C157.469 252.997 158.11 256.375 159.297 259.29C160.487 262.204 162.194 264.909 163.106 267.92C163.986 270.831 164.09 273.939 165.045 276.825C166 279.711 168.163 282.534 171.181 282.901C171.808 282.979 172.492 282.929 173.002 282.551C173.344 282.298 173.572 281.921 173.757 281.536C174.676 279.626 174.684 277.413 174.495 275.303C174.698 276.96 175.795 278.478 177.306 279.188C178.814 279.897 180.684 279.776 182.092 278.878C182.32 278.731 182.541 278.56 182.691 278.332C182.865 278.062 182.922 277.73 182.933 277.406C182.976 275.988 182.195 274.669 181.279 273.586C180.36 272.503 179.277 271.548 178.511 270.354C179.02 272.157 180.93 273.126 182.662 273.839C183.863 274.331 185.114 274.808 186.414 274.78C187.711 274.748 189.08 274.088 189.568 272.884" fill="#DEBBAA"/>
<path d="M188.556 274.003C189.703 272.766 190.933 271.273 190.669 269.609C190.462 268.319 189.404 267.35 188.339 266.598C185.377 264.503 181.924 263.234 178.696 261.584C175.464 259.934 172.307 257.747 170.664 254.511C170.108 253.417 169.741 252.223 169.05 251.208C167.82 249.401 165.7 248.371 163.562 247.929C162.493 247.708 161.324 247.634 160.373 248.165C159.621 248.585 159.104 249.337 158.752 250.121C157.469 252.997 158.11 256.375 159.297 259.29C160.487 262.204 162.194 264.909 163.106 267.92C163.986 270.831 164.09 273.939 165.045 276.825C166 279.711 168.163 282.534 171.181 282.901C171.808 282.979 172.492 282.929 173.002 282.551C173.344 282.298 173.572 281.921 173.757 281.536C174.676 279.626 174.684 277.413 174.495 275.303C174.698 276.96 175.795 278.478 177.306 279.188C178.814 279.897 180.684 279.776 182.092 278.878C182.32 278.731 182.541 278.56 182.691 278.332C182.865 278.062 182.922 277.73 182.933 277.406C182.976 275.988 182.195 274.669 181.279 273.586C180.36 272.503 179.277 271.548 178.511 270.354C179.02 272.157 180.93 273.126 182.662 273.839C183.863 274.331 185.114 274.808 186.414 274.78C187.711 274.748 189.08 274.088 189.568 272.884" stroke="black" stroke-width="0.1461" stroke-miterlimit="10"/>
<path d="M87.9969 160.308C87.8473 161.463 87.4589 162.845 86.3292 163.123C85.4883 163.33 84.6081 162.746 84.2019 161.979C83.7957 161.213 83.7493 160.312 83.7351 159.446C83.6745 156.061 83.9239 152.683 84.1734 149.304C83.6282 153.616 82.0104 157.792 79.5053 161.345C78.6964 162.493 77.4777 163.697 76.1094 163.373C75.1758 163.152 74.5344 162.236 74.3526 161.292C74.1709 160.347 74.3669 159.378 74.5842 158.445C75.525 154.372 76.9005 150.398 78.675 146.614C77.1428 150.687 74.8764 154.482 72.0186 157.76C71.1456 158.765 70.1692 159.749 68.9255 160.223C67.6819 160.697 66.0998 160.518 65.2624 159.485C64.1898 158.156 64.767 156.182 65.5474 154.664C67.4717 150.933 70.3188 147.772 73.1339 144.658C71.9651 145.766 70.7714 146.849 69.5563 147.911C68.0276 149.244 66.4383 150.548 64.5853 151.371C63.5876 151.817 62.6397 152.33 61.6776 152.846C60.5123 153.474 58.866 153.01 58.2211 152.8C56.8741 152.362 56.8456 149.889 57.5511 148.659C58.2567 147.434 60.5729 147.017 61.7453 146.226C63.2882 145.189 64.6815 143.949 66.0677 142.712C68.2485 140.77 70.4293 138.832 72.6101 136.889C70.4436 136.102 63.9688 136.159 63.1706 135.621C62.4081 135.108 60.099 133.91 59.903 133.009C59.6642 131.919 60.5088 130.251 61.4958 129.734C62.4829 129.217 65.0806 130.279 66.196 130.258C69.0324 130.205 74.6591 132.139 81.148 131.69C88.3818 131.192 89.882 127.414 91.6957 127.518C91.9487 127.532 92.216 127.582 92.4084 127.749C92.6258 127.942 92.7006 128.245 92.7683 128.526C93.2743 130.746 94.183 133.258 93.6093 135.543C93.253 136.957 92.2659 137.634 91.2753 138.589C88.1573 141.59 88.8201 147.359 88.6455 151.321C88.5172 154.329 88.3818 157.329 87.9969 160.308Z" fill="#DEBBAA" stroke="black" stroke-width="0.1461" stroke-miterlimit="10"/>
<path d="M211.749 160.308C211.899 161.463 212.287 162.845 213.417 163.123C214.258 163.33 215.138 162.746 215.544 161.979C215.95 161.213 215.997 160.312 216.011 159.446C216.072 156.061 215.822 152.683 215.573 149.304C216.118 153.616 217.736 157.792 220.241 161.345C221.05 162.493 222.268 163.697 223.637 163.373C224.57 163.152 225.212 162.236 225.393 161.292C225.575 160.347 225.379 159.378 225.162 158.445C224.221 154.372 222.846 150.398 221.071 146.614C222.603 150.687 224.87 154.482 227.727 157.76C228.6 158.765 229.577 159.749 230.82 160.223C232.064 160.697 233.646 160.518 234.484 159.485C235.556 158.156 234.979 156.182 234.199 154.664C232.274 150.933 229.427 147.772 226.612 144.658C227.781 145.766 228.975 146.849 230.19 147.911C231.718 149.244 233.308 150.548 235.161 151.371C236.158 151.817 237.106 152.33 238.068 152.846C239.234 153.474 240.88 153.01 241.525 152.8C242.872 152.362 242.9 149.889 242.195 148.659C241.489 147.434 239.173 147.017 238.001 146.226C236.458 145.189 235.064 143.949 233.678 142.712C231.498 140.77 229.317 138.832 227.136 136.889C229.302 136.102 235.777 136.159 236.575 135.621C237.338 135.108 239.647 133.91 239.843 133.009C240.082 131.919 239.237 130.251 238.25 129.734C237.263 129.217 234.665 130.279 233.55 130.258C230.714 130.205 225.087 132.139 218.598 131.69C211.364 131.192 209.864 127.414 208.05 127.518C207.797 127.532 207.53 127.582 207.338 127.749C207.12 127.942 207.045 128.245 206.978 128.526C206.472 130.746 205.563 133.258 206.137 135.543C206.493 136.957 207.48 137.634 208.471 138.589C211.589 141.59 210.926 147.359 211.101 151.321C211.229 154.329 211.364 157.329 211.749 160.308Z" fill="#DEBBAA" stroke="black" stroke-width="0.1461" stroke-miterlimit="10"/>
<path d="M134.654 87.2922L143.744 86.159L150.073 89.3198L159.138 84.7266L169.494 92.2881L172.544 146.213L153.287 152.424L134.925 150.985L127.406 143.512L134.654 87.2922Z" fill="#E1E2E1" stroke="black" stroke-width="0.1461" stroke-miterlimit="10"/>
<path d="M152.098 88.1187C152.412 87.3098 158.142 86.7183 157.012 72.4754C159.164 66.8737 163.08 90.9089 163.08 90.9089C163.08 90.9089 163.547 88.2043 158.533 87.7588C153.52 87.3134 151.784 88.9276 152.098 88.1187Z" fill="#E1E2E1" stroke="black" stroke-width="0.1461" stroke-miterlimit="10"/>
<path d="M147.853 88.1187C147.54 87.3098 141.81 86.7183 142.939 72.4754C140.787 66.8737 136.871 90.9089 136.871 90.9089C136.871 90.9089 136.404 88.2043 141.418 87.7588C146.428 87.3134 148.167 88.9276 147.853 88.1187Z" fill="#E1E2E1" stroke="black" stroke-width="0.1461" stroke-miterlimit="10"/>
<path d="M148.158 94.1958C148.158 94.1958 144.748 88.7972 145.008 87.354C145.268 85.9108 153.785 85.6436 154.729 87.4003C155.402 88.3019 152.423 93.4332 152.067 93.9285C151.711 94.4238 160.587 133.183 160.085 133.988C159.582 134.794 151.582 142.498 150.072 142.587C148.561 142.672 140.265 135.25 139.755 134.576C139.246 133.896 148.158 94.1958 148.158 94.1958Z" fill="#454545" stroke="black" stroke-width="0.1461" stroke-miterlimit="10"/>
<path d="M140.166 70.4369C140.166 70.4369 124.519 79.9691 118.422 80.9704C115.917 81.3802 117.089 84.883 115.874 88.4322C114.131 93.5172 110.532 99.1402 110.051 99.6213C109.232 100.441 85.6668 125.37 82.9372 125.916C80.2076 126.461 83.8459 130.737 83.8459 130.737C83.8459 130.737 92.0346 139.599 93.125 141.128C94.2154 142.657 93.5811 144.477 95.5802 143.113C97.5828 141.748 113.155 122.028 116.701 118.782C120.246 115.535 125.787 111.177 125.787 111.177C125.787 111.177 119.601 140.201 117.235 143.384C114.869 146.569 119.419 149.57 119.601 149.299C119.783 149.028 125.516 190.695 125.516 190.695C125.516 190.695 128.691 232.754 126.789 246.829C126.461 249.252 126.03 250.378 125.606 252.046C124.28 257.256 140.8 257.22 140.8 257.22C140.8 257.22 145.532 256.565 145.896 254.562C146.259 252.559 134.339 224.993 148.625 166.948C148.718 164.857 151.811 166.403 151.811 166.403C151.811 166.403 157.648 188.115 158.688 210.671C159.522 228.752 155.752 248.201 154.783 251.316C152.598 258.321 158.596 257.217 158.596 257.217C158.596 257.217 174.556 256.198 174.83 253.375C175.105 250.557 173.451 253.026 172.618 238.666C172.069 229.247 170.44 215.671 175.376 185.867C181.59 148.347 181.252 149.224 181.252 149.224C181.252 149.224 186.383 147.268 183.411 142.81C179.495 136.666 174.285 116.672 174.353 112.157C178.536 114.976 182.435 118.996 186.337 122.445C190.239 125.894 204.214 142.379 204.214 142.379L206.488 143.287L218.133 128.731C218.133 128.731 191.475 102.618 190.385 99.2542C189.294 95.8868 186.836 96.9808 183.653 83.5147C183.539 83.0372 183.251 83.7035 182.107 81.2412C179.93 76.5482 158.457 70.1875 158.457 70.1875C158.457 70.1875 156.953 70.7078 156.946 71.8516C156.939 72.9955 160.73 84.516 160.73 84.516L159.365 144.837L150.033 145.468L140.622 144.926C140.622 144.926 139.218 101.449 139.62 82.5133C139.667 80.361 142.867 73.4088 142.806 72.1403C142.767 71.3563 141.726 70.9608 141.121 70.6793C140.515 70.4013 140.166 70.4369 140.166 70.4369Z" fill="#ED1C24" stroke="black" stroke-width="0.1461" stroke-miterlimit="10"/>
<path d="M141.128 70.6836C141.128 70.6836 130.755 86.7083 130.014 87.7203C129.273 88.7323 129.472 89.812 130.014 90.0151C130.555 90.2182 135.409 93.4574 135.409 93.4574L127.851 97.9152C127.851 97.9152 126.5 98.1183 128.592 103.453C130.684 108.787 139.528 164.893 139.528 164.893C139.528 164.893 139.664 165.367 140.137 164.893C140.611 164.419 140.626 144.927 140.626 144.927" stroke="black" stroke-width="0.1461" stroke-miterlimit="10"/>
<path d="M119.133 149.227C119.133 149.227 138.917 165.305 139.658 165.102" stroke="black" stroke-width="0.1461" stroke-miterlimit="10"/>
<path d="M125.611 112.165C125.611 112.165 128.957 84.3599 117.344 81.5234" stroke="black" stroke-width="0.1461" stroke-miterlimit="10"/>
<path d="M158.445 70.1953C158.445 70.1953 169.21 86.7117 169.952 87.7237C170.693 88.7357 170.493 89.8155 169.952 90.0186C169.41 90.2217 164.557 93.4608 164.557 93.4608L172.115 97.9186C172.115 97.9186 173.465 98.1218 171.373 103.456C169.282 108.791 160.437 164.897 160.437 164.897C160.437 164.897 160.302 165.37 159.828 164.897C159.354 164.423 159.34 144.931 159.34 144.931" stroke="black" stroke-width="0.1461" stroke-miterlimit="10"/>
<path d="M180.833 149.227C180.833 149.227 161.049 165.305 160.308 165.102" stroke="black" stroke-width="0.1461" stroke-miterlimit="10"/>
<path d="M174.346 112.165C174.346 112.165 171 84.3599 182.613 81.5234" stroke="black" stroke-width="0.1461" stroke-miterlimit="10"/>
</g>
<defs>
<clipPath id="clip0_1306_2975">
<rect width="300" height="300" fill="white"/>
</clipPath>
</defs>
</svg>
