<svg width="300" height="300" viewBox="0 0 300 300" fill="none" xmlns="http://www.w3.org/2000/svg">
<g clip-path="url(#clip0_1306_2907)">
<path d="M151.192 88.1571C151.192 88.1571 156.761 86.7566 156.865 83.1148C156.968 79.473 157.559 72.0433 157.559 72.0433L157.788 70.4469C157.788 70.4469 176.67 64.0328 179.011 53.5884C181.352 43.1441 176.039 36.933 176.039 36.933C176.039 36.933 171.179 19.7396 168.029 16.8568C164.879 13.974 149.998 20.1886 149.998 20.1886C149.998 20.1886 136.343 13.8885 131.931 17.3093C127.52 20.7302 124.099 36.933 124.099 36.933C124.099 36.933 106.834 53.902 140.134 70.4433C141.25 85.5451 143.007 84.7362 143.007 84.7362C143.007 84.7362 143.99 87.9789 151.192 88.1571Z" fill="#DEBBAA" stroke="black" stroke-width="0.1461" stroke-miterlimit="10"/>
<path d="M126.024 45.8633H173.87C173.87 45.8633 175.676 46.6045 175.138 48.6998C174.597 50.7915 169.804 54.0627 167.171 54.4404C164.537 54.8146 134.929 55.2814 132.67 54.4404C130.41 53.5994 126.369 52.6159 124.727 49.0383C123.754 45.849 126.024 45.8633 126.024 45.8633Z" fill="#AB6564" stroke="black" stroke-width="0.1461" stroke-miterlimit="10"/>
<path d="M128.406 48.0273C128.406 48.0273 134.888 50.4576 138.505 50.5253C142.122 50.593 150.496 50.5253 150.496 50.5253C150.496 50.5253 160.096 50.7213 162.782 50.5538C165.469 50.3899 169.738 49.1071 171.089 48.0273" stroke="black" stroke-width="0.1461" stroke-miterlimit="10"/>
<path d="M123.839 36.7963C123.376 36.7214 117.325 35.7059 118.608 25.7782C119.192 25.4183 122.221 33.1937 122.535 23.968C123.165 20.7716 124.74 22.1685 124.74 22.1685C124.74 22.1685 123.436 15.5512 127.171 11.3642C127.124 13.21 127.801 17.9886 129.783 13.0746C129.423 11.2751 130.143 5.82666 136.806 4.61154C136.535 5.18525 139.846 -2.54379 148.148 0.877084C149.56 1.45792 149.891 1.57195 149.891 1.57195L150.062 19.781C150.062 19.781 145.996 20.4331 141.496 17.2367C139.133 17.0015 136.129 17.169 136.129 17.169C136.129 17.169 133.478 18.206 131.311 16.043C132.527 17.1227 128.881 26.3056 127.171 26.3519C127.755 27.118 124.302 36.8711 123.839 36.7963Z" fill="#4A342A" stroke="black" stroke-width="0.1461" stroke-miterlimit="10"/>
<path d="M176.286 36.7963C176.749 36.7214 182.8 35.7059 181.517 25.7782C180.932 25.4183 177.903 33.1937 177.59 23.968C176.959 20.7716 175.384 22.1685 175.384 22.1685C175.384 22.1685 176.688 15.5512 172.954 11.3642C173 13.21 172.323 17.9886 170.342 13.0746C170.702 11.2751 169.982 5.82666 163.318 4.61154C163.589 5.18525 160.279 -2.54379 151.976 0.877084C150.565 1.45792 150.234 1.57195 150.234 1.57195L150.062 19.781C150.062 19.781 154.128 20.4331 158.629 17.2367C160.991 17.0015 163.995 17.169 163.995 17.169C163.995 17.169 166.647 18.206 168.813 16.043C167.598 17.1227 171.243 26.3056 172.954 26.3519C172.369 27.118 175.822 36.8711 176.286 36.7963Z" fill="#4A342A" stroke="black" stroke-width="0.1461" stroke-miterlimit="10"/>
<path d="M124.734 22.1602C124.734 22.1602 125.183 25.3565 127.165 26.3472Z" fill="#4A342A"/>
<path d="M124.734 22.1602C124.734 22.1602 125.183 25.3565 127.165 26.3472" stroke="black" stroke-width="0.1461" stroke-miterlimit="10"/>
<path d="M131.31 16.0422C131.31 16.0422 129.81 14.7024 129.781 13.0703Z" fill="#4A342A"/>
<path d="M131.31 16.0422C131.31 16.0422 129.81 14.7024 129.781 13.0703" stroke="black" stroke-width="0.1461" stroke-miterlimit="10"/>
<path d="M141.494 17.2345C141.494 17.2345 135.903 11.811 136.801 4.60938Z" fill="#4A342A"/>
<path d="M141.494 17.2345C141.494 17.2345 135.903 11.811 136.801 4.60938" stroke="black" stroke-width="0.1461" stroke-miterlimit="10"/>
<path d="M175.415 22.1602C175.415 22.1602 174.966 25.3565 172.984 26.3472Z" fill="#4A342A"/>
<path d="M175.415 22.1602C175.415 22.1602 174.966 25.3565 172.984 26.3472" stroke="black" stroke-width="0.1461" stroke-miterlimit="10"/>
<path d="M168.773 16.0422C168.773 16.0422 170.274 14.7024 170.302 13.0703Z" fill="#4A342A"/>
<path d="M168.773 16.0422C168.773 16.0422 170.274 14.7024 170.302 13.0703" stroke="black" stroke-width="0.1461" stroke-miterlimit="10"/>
<path d="M158.672 17.2345C158.672 17.2345 164.263 11.811 163.365 4.60938Z" fill="#4A342A"/>
<path d="M158.672 17.2345C158.672 17.2345 164.263 11.811 163.365 4.60938" stroke="black" stroke-width="0.1461" stroke-miterlimit="10"/>
<path d="M148.14 0.875109C148.14 0.875109 139.363 8.3262 146.586 18.1826C150.246 21.5571 153.609 18.1826 153.609 18.1826C153.609 18.1826 160.565 10.621 152.056 0.964194C150.01 -0.553819 148.14 0.875109 148.14 0.875109Z" fill="#4A342A" stroke="black" stroke-width="0.1461" stroke-miterlimit="10"/>
<path d="M151.182 32.0925C149.942 30.1433 164.887 15.6189 169.815 31.3513C162.596 42.4906 151.182 33.778 151.182 32.0925Z" fill="white" stroke="black" stroke-width="0.1461" stroke-miterlimit="10"/>
<path d="M148.596 25.8768C148.596 25.8768 139.392 14.93 128.398 25.2996" stroke="black" stroke-width="0.1461" stroke-miterlimit="10"/>
<path d="M126.586 35.1953C126.586 35.1953 128.086 38.4345 134.222 38.9084" stroke="black" stroke-width="0.1461" stroke-miterlimit="10"/>
<path d="M122.469 43.5003C122.469 43.5003 123.142 42.4206 124.425 42.082" stroke="black" stroke-width="0.1461" stroke-miterlimit="10"/>
<path d="M151.086 25.8768C151.086 25.8768 160.29 14.93 171.283 25.2996" stroke="black" stroke-width="0.1461" stroke-miterlimit="10"/>
<path d="M173.113 35.1953C173.113 35.1953 171.613 38.4345 165.477 38.9084" stroke="black" stroke-width="0.1461" stroke-miterlimit="10"/>
<path d="M177.363 43.0706C177.363 43.0706 176.689 41.9909 175.406 41.6523" stroke="black" stroke-width="0.1461" stroke-miterlimit="10"/>
<path d="M150 30.0617L150.089 16.4922" stroke="black" stroke-width="0.1461" stroke-miterlimit="10"/>
<path d="M148.821 32.0925C150.061 30.1433 135.116 15.6189 130.188 31.3513C137.411 42.4906 148.821 33.778 148.821 32.0925Z" fill="white" stroke="black" stroke-width="0.1461" stroke-miterlimit="10"/>
<path d="M139.081 35.2753C141.71 35.2753 143.842 33.1439 143.842 30.5146C143.842 27.8854 141.71 25.7539 139.081 25.7539C136.452 25.7539 134.32 27.8854 134.32 30.5146C134.32 33.1439 136.452 35.2753 139.081 35.2753Z" fill="black" stroke="black" stroke-width="0.1461" stroke-miterlimit="10"/>
<path d="M137.173 30.3185C137.907 30.3185 138.502 29.7234 138.502 28.9893C138.502 28.2552 137.907 27.6602 137.173 27.6602C136.439 27.6602 135.844 28.2552 135.844 28.9893C135.844 29.7234 136.439 30.3185 137.173 30.3185Z" fill="white" stroke="white" stroke-width="0.1461" stroke-miterlimit="10"/>
<path d="M161.167 35.2753C163.796 35.2753 165.928 33.1439 165.928 30.5146C165.928 27.8854 163.796 25.7539 161.167 25.7539C158.538 25.7539 156.406 27.8854 156.406 30.5146C156.406 33.1439 158.538 35.2753 161.167 35.2753Z" fill="black" stroke="black" stroke-width="0.1461" stroke-miterlimit="10"/>
<path d="M159.259 30.3185C159.993 30.3185 160.588 29.7234 160.588 28.9893C160.588 28.2552 159.993 27.6602 159.259 27.6602C158.525 27.6602 157.93 28.2552 157.93 28.9893C157.93 29.7234 158.525 30.3185 159.259 30.3185Z" fill="white" stroke="white" stroke-width="0.1461" stroke-miterlimit="10"/>
<path d="M110.798 274.003C109.65 272.766 108.421 271.273 108.685 269.609C108.891 268.319 109.95 267.35 111.015 266.598C113.976 264.503 117.429 263.234 120.658 261.584C123.89 259.934 127.047 257.747 128.69 254.511C129.245 253.417 129.612 252.223 130.304 251.208C131.533 249.401 133.653 248.371 135.791 247.929C136.86 247.708 138.029 247.634 138.981 248.165C139.733 248.585 140.249 249.337 140.602 250.121C141.885 252.997 141.243 256.375 140.057 259.29C138.867 262.204 137.16 264.909 136.248 267.92C135.367 270.831 135.264 273.939 134.309 276.825C133.354 279.711 131.191 282.534 128.173 282.901C127.546 282.979 126.861 282.929 126.352 282.551C126.01 282.298 125.782 281.921 125.596 281.536C124.677 279.626 124.67 277.413 124.859 275.303C124.656 276.96 123.558 278.478 122.047 279.188C120.54 279.897 118.669 279.776 117.262 278.878C117.034 278.731 116.813 278.56 116.663 278.332C116.488 278.062 116.431 277.73 116.421 277.406C116.378 275.988 117.158 274.669 118.074 273.586C118.993 272.503 120.077 271.548 120.843 270.354C120.333 272.157 118.423 273.126 116.692 273.839C115.491 274.331 114.24 274.808 112.939 274.78C111.642 274.748 110.274 274.088 109.786 272.884" fill="#DEBBAA"/>
<path d="M110.798 274.003C109.65 272.766 108.421 271.273 108.685 269.609C108.891 268.319 109.95 267.35 111.015 266.598C113.976 264.503 117.429 263.234 120.658 261.584C123.89 259.934 127.047 257.747 128.69 254.511C129.245 253.417 129.612 252.223 130.304 251.208C131.533 249.401 133.653 248.371 135.791 247.929C136.86 247.708 138.029 247.634 138.981 248.165C139.733 248.585 140.249 249.337 140.602 250.121C141.885 252.997 141.243 256.375 140.057 259.29C138.867 262.204 137.16 264.909 136.248 267.92C135.367 270.831 135.264 273.939 134.309 276.825C133.354 279.711 131.191 282.534 128.173 282.901C127.546 282.979 126.861 282.929 126.352 282.551C126.01 282.298 125.782 281.921 125.596 281.536C124.677 279.626 124.67 277.413 124.859 275.303C124.656 276.96 123.558 278.478 122.047 279.188C120.54 279.897 118.669 279.776 117.262 278.878C117.034 278.731 116.813 278.56 116.663 278.332C116.488 278.062 116.431 277.73 116.421 277.406C116.378 275.988 117.158 274.669 118.074 273.586C118.993 272.503 120.077 271.548 120.843 270.354C120.333 272.157 118.423 273.126 116.692 273.839C115.491 274.331 114.24 274.808 112.939 274.78C111.642 274.748 110.274 274.088 109.786 272.884" stroke="black" stroke-width="0.1461" stroke-miterlimit="10"/>
<path d="M188.533 274.003C189.68 272.766 190.909 271.273 190.646 269.609C190.439 268.319 189.381 267.35 188.315 266.598C185.354 264.503 181.901 263.234 178.673 261.584C175.441 259.934 172.283 257.747 170.641 254.511C170.085 253.417 169.718 252.223 169.026 251.208C167.797 249.401 165.677 248.371 163.539 247.929C162.47 247.708 161.301 247.634 160.35 248.165C159.598 248.585 159.081 249.337 158.728 250.121C157.445 252.997 158.087 256.375 159.273 259.29C160.464 262.204 162.17 264.909 163.083 267.92C163.963 270.831 164.066 273.939 165.021 276.825C165.976 279.711 168.139 282.534 171.157 282.901C171.784 282.979 172.469 282.929 172.978 282.551C173.32 282.298 173.548 281.921 173.734 281.536C174.653 279.626 174.66 277.413 174.471 275.303C174.674 276.96 175.772 278.478 177.283 279.188C178.79 279.897 180.661 279.776 182.069 278.878C182.297 278.731 182.517 278.56 182.667 278.332C182.842 278.062 182.899 277.73 182.909 277.406C182.952 275.988 182.172 274.669 181.256 273.586C180.337 272.503 179.253 271.548 178.487 270.354C178.997 272.157 180.907 273.126 182.639 273.839C183.84 274.331 185.09 274.808 186.391 274.78C187.688 274.748 189.056 274.088 189.545 272.884" fill="#DEBBAA"/>
<path d="M188.533 274.003C189.68 272.766 190.909 271.273 190.646 269.609C190.439 268.319 189.381 267.35 188.315 266.598C185.354 264.503 181.901 263.234 178.673 261.584C175.441 259.934 172.283 257.747 170.641 254.511C170.085 253.417 169.718 252.223 169.026 251.208C167.797 249.401 165.677 248.371 163.539 247.929C162.47 247.708 161.301 247.634 160.35 248.165C159.598 248.585 159.081 249.337 158.728 250.121C157.445 252.997 158.087 256.375 159.273 259.29C160.464 262.204 162.17 264.909 163.083 267.92C163.963 270.831 164.066 273.939 165.021 276.825C165.976 279.711 168.139 282.534 171.157 282.901C171.784 282.979 172.469 282.929 172.978 282.551C173.32 282.298 173.548 281.921 173.734 281.536C174.653 279.626 174.66 277.413 174.471 275.303C174.674 276.96 175.772 278.478 177.283 279.188C178.79 279.897 180.661 279.776 182.069 278.878C182.297 278.731 182.517 278.56 182.667 278.332C182.842 278.062 182.899 277.73 182.909 277.406C182.952 275.988 182.172 274.669 181.256 273.586C180.337 272.503 179.253 271.548 178.487 270.354C178.997 272.157 180.907 273.126 182.639 273.839C183.84 274.331 185.09 274.808 186.391 274.78C187.688 274.748 189.056 274.088 189.545 272.884" stroke="black" stroke-width="0.1461" stroke-miterlimit="10"/>
<path d="M87.9735 160.308C87.8238 161.463 87.4354 162.845 86.3058 163.123C85.4648 163.33 84.5847 162.746 84.1785 161.979C83.7722 161.213 83.7259 160.312 83.7116 159.446C83.6511 156.061 83.9005 152.683 84.1499 149.304C83.6047 153.616 81.987 157.792 79.4819 161.345C78.673 162.493 77.4543 163.697 76.0859 163.373C75.1523 163.152 74.5109 162.236 74.3292 161.292C74.1475 160.347 74.3434 159.378 74.5608 158.445C75.5015 154.372 76.877 150.398 78.6516 146.614C77.1193 150.687 74.853 154.482 71.9952 157.76C71.1221 158.765 70.1457 159.749 68.9021 160.223C67.6585 160.697 66.0763 160.518 65.2389 159.485C64.1663 158.156 64.7436 156.182 65.524 154.664C67.4482 150.933 70.2954 147.772 73.1105 144.658C71.9417 145.766 70.748 146.849 69.5328 147.911C68.0041 149.244 66.4148 150.548 64.5619 151.371C63.5641 151.817 62.6163 152.33 61.6541 152.846C60.4889 153.474 58.8426 153.01 58.1976 152.8C56.8507 152.362 56.8221 149.889 57.5277 148.659C58.2333 147.434 60.5495 147.017 61.7218 146.226C63.2648 145.189 64.6581 143.949 66.0443 142.712C68.2251 140.77 70.4059 138.832 72.5867 136.889C70.4201 136.102 63.9454 136.159 63.1472 135.621C62.3846 135.108 60.0755 133.91 59.8796 133.009C59.6408 131.919 60.4853 130.251 61.4724 129.734C62.4595 129.217 65.0572 130.279 66.1725 130.258C69.009 130.205 74.6356 132.139 81.1246 131.69C88.3583 131.192 89.8585 127.414 91.6723 127.518C91.9253 127.532 92.1926 127.582 92.385 127.749C92.6024 127.942 92.6772 128.245 92.7449 128.526C93.2509 130.746 94.1596 133.258 93.5859 135.543C93.2295 136.957 92.2425 137.634 91.2518 138.589C88.1338 141.59 88.7966 147.359 88.622 151.321C88.4937 154.329 88.3583 157.329 87.9735 160.308Z" fill="#DEBBAA" stroke="black" stroke-width="0.1461" stroke-miterlimit="10"/>
<path d="M211.726 160.308C211.875 161.463 212.264 162.845 213.393 163.123C214.234 163.33 215.114 162.746 215.521 161.979C215.927 161.213 215.973 160.312 215.987 159.446C216.048 156.061 215.799 152.683 215.549 149.304C216.094 153.616 217.712 157.792 220.217 161.345C221.026 162.493 222.245 163.697 223.613 163.373C224.547 163.152 225.188 162.236 225.37 161.292C225.552 160.347 225.356 159.378 225.138 158.445C224.198 154.372 222.822 150.398 221.048 146.614C222.58 150.687 224.846 154.482 227.704 157.76C228.577 158.765 229.553 159.749 230.797 160.223C232.041 160.697 233.623 160.518 234.46 159.485C235.533 158.156 234.956 156.182 234.175 154.664C232.251 150.933 229.404 147.772 226.589 144.658C227.757 145.766 228.951 146.849 230.166 147.911C231.695 149.244 233.284 150.548 235.137 151.371C236.135 151.817 237.083 152.33 238.045 152.846C239.21 153.474 240.857 153.01 241.502 152.8C242.848 152.362 242.877 149.889 242.171 148.659C241.466 147.434 239.15 147.017 237.977 146.226C236.434 145.189 235.041 143.949 233.655 142.712C231.474 140.77 229.293 138.832 227.112 136.889C229.279 136.102 235.754 136.159 236.552 135.621C237.315 135.108 239.624 133.91 239.82 133.009C240.058 131.919 239.214 130.251 238.227 129.734C237.24 129.217 234.642 130.279 233.527 130.258C230.69 130.205 225.063 132.139 218.575 131.69C211.341 131.192 209.841 127.414 208.027 127.518C207.774 127.532 207.507 127.582 207.314 127.749C207.097 127.942 207.022 128.245 206.954 128.526C206.448 130.746 205.54 133.258 206.113 135.543C206.47 136.957 207.457 137.634 208.447 138.589C211.565 141.59 210.903 147.359 211.077 151.321C211.205 154.329 211.341 157.329 211.726 160.308Z" fill="#DEBBAA" stroke="black" stroke-width="0.1461" stroke-miterlimit="10"/>
<path d="M134.631 87.2922L143.721 86.159L150.05 89.3198L159.115 84.7266L169.47 92.2881L172.521 146.213L153.264 152.424L134.902 150.985L127.383 143.512L134.631 87.2922Z" fill="#E1E2E1" stroke="black" stroke-width="0.1461" stroke-miterlimit="10"/>
<path d="M152.098 88.1187C152.412 87.3098 158.142 86.7183 157.012 72.4754C159.164 66.8737 163.08 90.9089 163.08 90.9089C163.08 90.9089 163.547 88.2043 158.533 87.7588C153.52 87.3134 151.784 88.9276 152.098 88.1187Z" fill="#E1E2E1" stroke="black" stroke-width="0.1461" stroke-miterlimit="10"/>
<path d="M147.83 88.1187C147.516 87.3098 141.786 86.7183 142.916 72.4754C140.764 66.8737 136.847 90.9089 136.847 90.9089C136.847 90.9089 136.381 88.2043 141.394 87.7588C146.405 87.3134 148.143 88.9276 147.83 88.1187Z" fill="#E1E2E1" stroke="black" stroke-width="0.1461" stroke-miterlimit="10"/>
<path d="M148.135 94.1958C148.135 94.1958 144.724 88.7972 144.984 87.354C145.245 85.9108 153.761 85.6436 154.705 87.4003C155.379 88.3019 152.4 93.4332 152.044 93.9285C151.687 94.4238 160.564 133.183 160.061 133.988C159.559 134.794 151.559 142.498 150.048 142.587C148.537 142.672 140.242 135.25 139.732 134.576C139.222 133.896 148.135 94.1958 148.135 94.1958Z" fill="#454545" stroke="black" stroke-width="0.1461" stroke-miterlimit="10"/>
<path d="M140.142 70.4369C140.142 70.4369 124.495 79.9691 118.398 80.9704C115.893 81.3802 117.066 84.883 115.85 88.4322C114.108 93.5172 110.509 99.1402 110.028 99.6213C109.208 100.441 85.6434 125.37 82.9138 125.916C80.1842 126.461 83.8225 130.737 83.8225 130.737C83.8225 130.737 92.0112 139.599 93.1016 141.128C94.192 142.657 93.5577 144.477 95.5568 143.113C97.5594 141.748 113.132 122.028 116.677 118.782C120.223 115.535 125.764 111.177 125.764 111.177C125.764 111.177 119.578 140.201 117.212 143.384C114.846 146.569 119.396 149.57 119.578 149.299C119.759 149.028 125.493 190.695 125.493 190.695C125.493 190.695 128.668 232.754 126.765 246.829C126.437 249.252 126.006 250.378 125.582 252.046C124.256 257.256 140.776 257.22 140.776 257.22C140.776 257.22 145.509 256.565 145.872 254.562C146.236 252.559 134.316 224.993 148.602 166.948C148.694 164.857 151.787 166.403 151.787 166.403C151.787 166.403 157.624 188.115 158.665 210.671C159.499 228.752 155.729 248.201 154.759 251.316C152.575 258.321 158.572 257.217 158.572 257.217C158.572 257.217 174.533 256.198 174.807 253.375C175.081 250.557 173.428 253.026 172.594 238.666C172.045 229.247 170.417 215.671 175.352 185.867C181.567 148.347 181.228 149.224 181.228 149.224C181.228 149.224 186.36 147.268 183.388 142.81C179.472 136.666 174.262 116.672 174.33 112.157C178.513 114.976 182.411 118.996 186.313 122.445C190.215 125.894 204.191 142.379 204.191 142.379L206.464 143.287L218.11 128.731C218.11 128.731 191.452 102.618 190.361 99.2542C189.271 95.8868 186.812 96.9808 183.63 83.5147C183.516 83.0372 183.227 83.7035 182.084 81.2412C179.906 76.5482 158.433 70.1875 158.433 70.1875C158.433 70.1875 156.929 70.7078 156.922 71.8516C156.915 72.9955 160.707 84.516 160.707 84.516L159.342 144.837L150.009 145.468L140.598 144.926C140.598 144.926 139.194 101.449 139.597 82.5133C139.643 80.361 142.843 73.4088 142.783 72.1403C142.743 71.3563 141.703 70.9608 141.097 70.6793C140.491 70.4013 140.142 70.4369 140.142 70.4369Z" fill="white" stroke="black" stroke-width="0.1461" stroke-miterlimit="10"/>
<path d="M141.089 70.6836C141.089 70.6836 130.716 86.7083 129.975 87.7203C129.234 88.7323 129.433 89.812 129.975 90.0151C130.516 90.2182 135.37 93.4574 135.37 93.4574L127.812 97.9152C127.812 97.9152 126.461 98.1183 128.553 103.453C130.645 108.787 139.489 164.893 139.489 164.893C139.489 164.893 139.624 165.367 140.098 164.893C140.572 164.419 140.587 144.927 140.587 144.927" stroke="black" stroke-width="0.1461" stroke-miterlimit="10"/>
<path d="M119.109 149.227C119.109 149.227 138.893 165.305 139.635 165.102" stroke="black" stroke-width="0.1461" stroke-miterlimit="10"/>
<path d="M125.587 112.165C125.587 112.165 128.933 84.3599 117.32 81.5234" stroke="black" stroke-width="0.1461" stroke-miterlimit="10"/>
<path d="M158.445 70.1953C158.445 70.1953 169.21 86.7117 169.952 87.7237C170.693 88.7357 170.493 89.8155 169.952 90.0186C169.41 90.2217 164.557 93.4608 164.557 93.4608L172.115 97.9186C172.115 97.9186 173.465 98.1218 171.373 103.456C169.282 108.791 160.437 164.897 160.437 164.897C160.437 164.897 160.302 165.37 159.828 164.897C159.354 164.423 159.34 144.931 159.34 144.931" stroke="black" stroke-width="0.1461" stroke-miterlimit="10"/>
<path d="M180.809 149.227C180.809 149.227 161.025 165.305 160.284 165.102" stroke="black" stroke-width="0.1461" stroke-miterlimit="10"/>
<path d="M174.322 112.165C174.322 112.165 170.976 84.3599 182.589 81.5234" stroke="black" stroke-width="0.1461" stroke-miterlimit="10"/>
</g>
<defs>
<clipPath id="clip0_1306_2907">
<rect width="300" height="300" fill="white"/>
</clipPath>
</defs>
</svg>
