<svg width="300" height="300" viewBox="0 0 300 300" fill="none" xmlns="http://www.w3.org/2000/svg">
<g clip-path="url(#clip0_1306_1691)">
<path d="M49.7774 113.777C49.7774 113.777 41.906 117.699 40.044 122.109C39.8097 122.496 40.5167 124.785 42.0375 123.63C43.6694 123.305 46.1315 120.638 46.1315 120.638L50.0652 116.071L49.7774 113.777Z" fill="#DBF1FB" stroke="black" stroke-width="0.1461" stroke-miterlimit="10"/>
<path d="M250.225 113.285C250.225 113.285 258.097 117.206 259.959 121.617C260.193 122.003 259.486 124.293 257.965 123.138C256.333 122.813 253.871 120.145 253.871 120.145L249.938 115.579L250.225 113.285Z" fill="#DBF1FB" stroke="black" stroke-width="0.1461" stroke-miterlimit="10"/>
<path d="M145.57 8.17469C145.57 8.17469 147.301 -1.3697 151.239 0.167596C155.176 1.70489 155.086 9.3626 155.086 9.3626C155.086 9.3626 153.125 14.0485 151.658 13.6991C150.19 13.3497 148.02 11.389 147.531 11.1095C147.038 10.8341 145.57 8.17469 145.57 8.17469Z" fill="#75858A" stroke="black" stroke-width="0.1461" stroke-miterlimit="10"/>
<path d="M126.939 77.1557C126.939 77.1557 114.065 61.203 93.4964 84.2915C89.0201 83.453 91.8152 72.3958 91.8152 72.3958C91.8152 72.3958 83.5572 76.5926 80.832 84.571C80.2524 85.2944 75.5829 81.9814 76.1461 69.4568C72.5946 70.3488 66.1905 77.5667 65.652 81.3525C64.0448 83.3132 62.2938 67.2207 65.093 66.5178C62.0841 69.4568 57.6078 76.8721 54.9484 75.8938C52.2889 74.9155 57.6777 71.9765 56.1363 70.1556C54.599 68.3346 45.782 76.8721 44.5201 77.2914C43.2623 77.7106 40.6028 78.619 44.9394 71.623C49.2759 64.627 69.5652 58.2599 71.9452 58.8189C77.2107 58.7819 97.2944 59.1354 102.868 58.5723C110.863 57.7666 118.665 55.1606 124.699 55.6004C130.523 56.3156 133.027 57.7008 134.198 58.6791C135.37 59.6574 137.713 60.2165 136.595 58.3996C135.477 56.5787 124.978 52.2421 125.542 39.5079C125.751 30.2018 127.991 32.7914 127.922 29.7126C127.642 28.1054 128.9 22.7166 128.9 22.7166C128.9 22.7166 130.848 13.2091 134.067 10.2701C137.285 7.33111 141.301 6.87074 145.428 7.54075C148.515 7.80382 150.5 10.8209 150.5 10.8209C150.5 10.8209 152.835 7.66818 155.766 7.40922C159.58 7.03927 164.32 6.54191 168.385 12.5268C170.625 18.265 171.797 21.2903 171.377 22.9674C171.271 23.2304 173.766 23.8347 172.976 30.8307C172.82 30.1031 181.407 50.9802 164.476 57.8365C164.04 58.8518 164.324 58.7161 164.423 59.1477C164.636 60.1014 166.889 58.3626 166.889 58.3626C166.889 58.3626 172.306 55.5305 176.799 55.6333C186.196 55.847 189.809 58.0872 198.301 58.9586C208.343 59.9904 225.373 58.3421 228.02 58.8888C234.613 60.2534 247.697 64.1378 252.736 68.4744C257.775 72.8109 259.206 78.1628 255.987 77.0447C252.769 75.9267 244.355 67.9318 244.495 70.172C244.634 72.4122 248.589 75.5773 245.65 75.9965C242.711 76.4158 236.311 67.9154 236.311 67.9154C236.311 67.9154 239.04 77.9367 234.892 81.6649C234.736 79.8275 233.844 73.8468 225.184 69.28C221.982 69.8062 229.068 78.6725 219.515 84.9697C215.512 76.2062 208.577 71.6353 208.791 71.9724C209.009 72.3095 211.903 75.68 207.759 84.7066C204.401 84.2874 197.615 70.4515 186.138 71.8491C174.666 73.2466 173.441 76.3089 173.441 76.3089C173.441 76.3089 180.104 110.52 170.449 126.391C172.549 132.141 170.938 151.802 169.051 162.366C168.771 171.113 169.54 175.799 169.54 175.799C169.54 175.799 169.121 192.66 168.003 196.018C166.885 199.376 167.024 209.801 164.784 214.561C162.544 219.316 174.929 226.876 174.929 226.876C174.929 226.876 179.545 228.627 177.169 230.164C174.793 231.701 170.177 228.762 168.985 229.815C168.566 232.474 172.972 235.413 171.156 238.352C167.518 241.64 163.251 230.378 159.893 230.378C157.233 231.705 151.113 234.854 150.5 232.758C149.888 230.661 156.185 228.211 155.906 220.932C157.024 212.748 158.286 212.888 159.404 205.398C155.696 188.118 159.531 179.576 157.373 176.222C154.853 172.305 154.126 163.151 154.224 164.396C154.323 165.646 152.478 142.812 152.404 141.448C152.293 139.368 150.796 136.268 150.41 136.268C147.993 136.268 147.085 152.99 147.085 152.99C147.085 152.99 146.805 169.502 145.403 170.62C144.91 171.014 144.1 174.105 143.023 176.637C141.951 179.165 142.999 194.086 142.185 200.425C140.927 210.22 141.346 209.381 144.006 219.177C146.665 228.972 147.113 228.68 148.901 230.649C152.399 234.496 144.092 232.667 144.006 232.61L140.368 229.95C140.368 229.95 137.988 232.749 135.049 235.968C132.11 239.186 128.814 239.006 128.814 237.608C128.814 236.21 132.599 231.002 131.272 228.622C128.682 228.832 127.798 231.833 124.066 230.374C120.173 228.853 126.376 226.736 123.996 227.295C123.996 227.295 134.77 222.609 135.752 216.731C135.472 208.966 132.254 206.167 133.232 194.691C131.062 186.153 128.756 177.2 131.411 173C134.071 168.803 129.874 149.492 129.874 149.492C129.874 149.492 127.671 131.426 130.433 127.801C130.643 126.892 127.798 124.763 125.829 117.467C123.856 110.171 124.588 102.262 125.118 96.5982C125.648 90.9422 126.939 77.1557 126.939 77.1557Z" fill="#DBF1FB" stroke="black" stroke-width="0.1461" stroke-miterlimit="10"/>
<path d="M135.973 59.8074C135.973 59.8074 128.558 63.5849 129.816 81.1446C133.211 75.6859 135.344 75.5462 135.344 75.5462C135.344 75.5462 130.798 85.2016 135.065 93.1059C136.569 86.669 139.75 86.1099 139.75 86.1099C139.75 86.1099 138.069 95.4858 143.039 100.311C143.565 96.2545 145.209 95.5557 145.209 95.5557C145.209 95.5557 147.938 102.761 150.302 105.071C150.738 104.126 154.795 98.285 155.144 95.6256C155.95 96.5011 158.362 100.032 157.664 100.521C156.965 101.01 162.489 94.713 160.952 85.6866C162.526 86.073 165.638 92.8921 165.638 92.8921C165.638 92.8921 169.415 84.5644 165.638 75.8216C168.157 76.2778 170.747 80.9308 170.747 80.9308C170.747 80.9308 172.568 62.7381 164.799 59.8033C157.031 56.8685 135.973 59.8074 135.973 59.8074Z" fill="#DBF1FB" stroke="black" stroke-width="0.1461" stroke-miterlimit="10"/>
<path d="M136.664 57.6916V60.4538C136.664 60.4538 147.018 64.5108 164.089 60.0674C164.298 58.8096 163.842 57.6875 163.842 57.6875C163.842 57.6875 146.599 61.4033 136.664 57.6916Z" fill="#75858A" stroke="black" stroke-width="0.1461" stroke-miterlimit="10"/>
<path d="M147.105 42.8516C147.105 42.8516 149.136 48.0636 145.042 58.0354C142.07 64.4353 145.601 65.3109 145.601 65.3109C145.601 65.3109 149.625 67.0249 150.323 60.7976C150.574 58.9438 150.57 64.4723 152.177 65.204C152.773 65.6767 157.356 65.8329 156.76 61.8458C156.164 57.8587 151.721 48.972 153.435 44.7752C153.493 43.0941 153.493 43.0941 153.493 43.0941L147.105 42.8516Z" fill="#75858A" stroke="black" stroke-width="0.1461" stroke-miterlimit="10"/>
<path d="M152.734 24.6812C152.734 24.6812 162.599 12.7158 169.316 24.6812C163.598 32.6061 152.734 24.6812 152.734 24.6812Z" fill="white" stroke="black" stroke-width="0.1461" stroke-miterlimit="10"/>
<path d="M147.808 24.6812C147.808 24.6812 137.943 12.7158 131.227 24.6812C136.948 32.6061 147.808 24.6812 147.808 24.6812Z" fill="white" stroke="black" stroke-width="0.1461" stroke-miterlimit="10"/>
<path d="M161.012 27.1605C163.012 27.1605 164.633 25.5392 164.633 23.5392C164.633 21.5393 163.012 19.918 161.012 19.918C159.012 19.918 157.391 21.5393 157.391 23.5392C157.391 25.5392 159.012 27.1605 161.012 27.1605Z" fill="black" stroke="black" stroke-width="0.1461" stroke-miterlimit="10"/>
<path d="M159.765 22.9096C160.24 22.9096 160.624 22.5249 160.624 22.0505C160.624 21.576 160.24 21.1914 159.765 21.1914C159.291 21.1914 158.906 21.576 158.906 22.0505C158.906 22.5249 159.291 22.9096 159.765 22.9096Z" fill="white" stroke="white" stroke-width="0.1461" stroke-miterlimit="10"/>
<path d="M139.512 27.4027C141.512 27.4027 143.133 25.7814 143.133 23.7814C143.133 21.7815 141.512 20.1602 139.512 20.1602C137.512 20.1602 135.891 21.7815 135.891 23.7814C135.891 25.7814 137.512 27.4027 139.512 27.4027Z" fill="black" stroke="black" stroke-width="0.1461" stroke-miterlimit="10"/>
<path d="M138.281 23.1869C138.755 23.1869 139.14 22.8023 139.14 22.3278C139.14 21.8534 138.755 21.4688 138.281 21.4688C137.806 21.4688 137.422 21.8534 137.422 22.3278C137.422 22.8023 137.806 23.1869 138.281 23.1869Z" fill="white" stroke="white" stroke-width="0.1461" stroke-miterlimit="10"/>
<path d="M150.05 45.6738C150.05 45.6738 142.705 44.2064 139.137 41.9991C135.569 39.7959 135.516 36.2281 135.516 36.2281L151.205 30.6133L160.704 32.0273L164.991 35.7266C164.991 35.7266 164.535 39.0972 161.703 41.6333C158.871 44.1694 150.05 45.6738 150.05 45.6738Z" fill="white" stroke="black" stroke-width="0.1461" stroke-miterlimit="10"/>
<path d="M150.16 23.5955C145.91 29.0007 135.305 29.7858 135.519 36.2432C137.985 35.9267 140.558 34.3031 144.175 35.6143C147.797 36.9256 147.48 40.8633 150.629 40.6003C154.197 39.9179 152.622 36.5063 157.452 35.302C162.282 34.0976 164.773 37.0859 165.138 35.6185C165.504 34.151 164.744 31.7876 158.66 29.0582C151.891 27.0565 150.37 22.7035 150.16 23.5955Z" fill="white" stroke="black" stroke-width="0.1461" stroke-miterlimit="10"/>
<path d="M130.812 17.6506C130.812 17.6506 136.9 11.0903 145.454 16.549" stroke="black" stroke-width="0.1461" stroke-miterlimit="10"/>
<path d="M129.418 23.0586C129.418 23.0586 128.735 24.526 131.518 24.6863" stroke="black" stroke-width="0.1461" stroke-miterlimit="10"/>
<path d="M127.93 29.9805C127.93 29.9805 127.614 30.6094 128.613 31.974" stroke="black" stroke-width="0.1461" stroke-miterlimit="10"/>
<path d="M130.18 126.402C130.18 126.402 134.113 135.828 150.173 136.247" stroke="black" stroke-width="0.1461" stroke-miterlimit="10"/>
<path d="M169.899 17.6506C169.899 17.6506 163.812 11.0903 155.258 16.549" stroke="black" stroke-width="0.1461" stroke-miterlimit="10"/>
<path d="M171.296 23.0586C171.296 23.0586 171.978 24.526 169.195 24.6863" stroke="black" stroke-width="0.1461" stroke-miterlimit="10"/>
<path d="M172.8 29.9805C172.8 29.9805 173.116 30.6094 172.117 31.974" stroke="black" stroke-width="0.1461" stroke-miterlimit="10"/>
<path d="M170.509 126.402C170.509 126.402 166.575 135.828 150.516 136.247" stroke="black" stroke-width="0.1461" stroke-miterlimit="10"/>
<path d="M169.504 185.262C169.504 185.262 169.155 192.677 168.037 196.035C166.919 199.394 167.058 209.818 164.818 214.578C162.578 219.334 174.963 226.893 174.963 226.893C174.963 226.893 179.579 228.644 177.203 230.181C174.827 231.718 170.211 228.779 169.019 229.832C168.6 232.491 173.006 235.43 171.189 238.369C167.552 241.658 163.285 230.395 159.927 230.395C157.267 231.723 151.147 234.871 150.534 232.775C149.922 230.679 156.219 228.229 155.939 220.949C157.058 212.765 157.97 212.835 159.088 205.346C158.529 199.537 157.76 192.891 158.04 189.463C161.25 189.039 169.504 185.262 169.504 185.262Z" fill="white" stroke="black" stroke-width="0.1461" stroke-miterlimit="10"/>
<path d="M142.203 200.443C140.945 210.238 141.365 209.399 144.024 219.195C146.684 228.99 147.132 228.698 148.92 230.667C152.418 234.515 144.11 232.685 144.024 232.628L140.386 229.968C140.386 229.968 138.006 232.768 135.067 235.986C132.128 239.205 128.832 239.024 128.832 237.626C128.832 236.229 132.617 231.021 131.29 228.641C128.7 228.85 127.816 231.851 124.084 230.392C120.191 228.871 126.394 226.754 124.014 227.313C124.014 227.313 134.788 222.627 135.77 216.749C135.491 208.984 132.272 206.185 133.25 194.709C132.733 192.666 131.121 185.739 131.853 185.333C132.827 185.283 138.22 188.97 142.487 189.18C143.654 191.441 142.4 198.914 142.203 200.443Z" fill="white" stroke="black" stroke-width="0.1461" stroke-miterlimit="10"/>
</g>
<defs>
<clipPath id="clip0_1306_1691">
<rect width="300" height="300" fill="white"/>
</clipPath>
</defs>
</svg>
