<svg width="300" height="300" viewBox="0 0 300 300" fill="none" xmlns="http://www.w3.org/2000/svg">
<g clip-path="url(#clip0_1306_1562)">
<path d="M140.612 262.586C140.612 262.586 133.517 277.204 133.029 283.571C132.545 289.939 127.267 290.288 126.54 290.363C119.87 291.055 122.859 282.26 122.859 282.26C122.859 282.26 122.075 285.731 117.261 285.995C109.91 286.401 114.834 279.99 114.834 279.99C114.834 279.99 110.712 282.962 108.285 281.02C105.858 279.078 104.586 274.773 105.313 274.228C105.516 274.075 106.464 272.906 108.588 271.833C114.022 269.083 123.953 264.824 125.086 264.04C126.665 262.95 127.15 252.092 127.15 252.092L125.453 184.395H139.411L140.612 262.586Z" fill="#34A7D6" stroke="black" stroke-width="0.1461" stroke-miterlimit="10"/>
<path d="M85.7118 144.57C85.7118 144.57 96.0278 128.656 103.126 121.518C110.224 114.381 125.451 90.5913 125.451 90.5913C125.451 90.5913 124.382 71.1707 122.108 69.7062C119.835 68.2416 75.4313 138.476 75.4313 138.476C75.4313 138.476 56.98 136.296 55.0522 135.473C52.2763 134.289 50.0491 137.703 50.5943 138.975C51.1395 140.247 54.0509 144.891 65.7887 143.387C66.9611 143.237 64.3313 145.026 64.3313 145.026C64.2885 145.101 53.5484 154.188 49.8175 155.577C46.19 156.928 48.1356 162.629 52.23 162.084C56.3243 161.539 65.4217 151.576 65.6961 151.301C65.9705 151.027 56.8018 163.62 56.417 166.039C55.9181 169.179 60.3296 171.317 63.1482 167.13C65.9669 162.946 73.2469 153.393 72.9726 153.482C72.6982 153.575 65.1473 168.313 66.0595 170.405C66.9682 172.496 68.6074 174.225 71.1552 172.86C73.7031 171.495 77.662 156.229 77.3876 156.318C77.1132 156.408 76.6607 170.993 76.6607 170.993C76.6607 170.993 78.3426 175.176 81.6174 172.176C83.0748 172.222 84.8565 149.306 84.8031 149.384L85.7118 144.57Z" fill="#34A7D6" stroke="black" stroke-width="0.1461" stroke-miterlimit="10"/>
<path d="M160.445 262.586C160.445 262.586 167.54 277.204 168.028 283.571C168.513 289.939 173.79 290.288 174.517 290.363C181.188 291.055 178.198 282.26 178.198 282.26C178.198 282.26 178.982 285.731 183.796 285.995C191.148 286.401 186.223 279.99 186.223 279.99C186.223 279.99 190.346 282.962 192.773 281.02C195.199 279.078 196.471 274.773 195.744 274.228C195.541 274.075 194.593 272.906 192.47 271.833C187.035 269.083 177.104 264.824 175.971 264.04C174.393 262.95 173.908 252.092 173.908 252.092L175.604 184.395H161.646L160.445 262.586Z" fill="#34A7D6" stroke="black" stroke-width="0.1461" stroke-miterlimit="10"/>
<path d="M215.333 144.57C215.333 144.57 205.017 128.656 197.919 121.518C190.82 114.381 175.594 90.5913 175.594 90.5913C175.594 90.5913 176.663 71.1707 178.936 69.7062C181.21 68.2416 225.613 138.476 225.613 138.476C225.613 138.476 244.065 136.296 245.993 135.473C248.768 134.289 250.996 137.703 250.45 138.975C249.905 140.247 246.994 144.891 235.256 143.387C234.084 143.237 236.713 145.026 236.713 145.026C236.756 145.101 247.496 154.188 251.227 155.577C254.855 156.928 252.909 162.629 248.815 162.084C244.72 161.539 235.623 151.576 235.349 151.301C235.074 151.027 244.243 163.62 244.628 166.039C245.127 169.179 240.715 171.317 237.896 167.13C235.078 162.946 227.798 153.393 228.072 153.482C228.346 153.575 235.897 168.313 234.985 170.405C234.076 172.496 232.437 174.225 229.889 172.86C227.342 171.495 223.383 156.229 223.657 156.318C223.931 156.408 224.384 170.993 224.384 170.993C224.384 170.993 222.702 175.176 219.427 172.176C217.97 172.222 216.188 149.306 216.242 149.384L215.333 144.57Z" fill="#34A7D6" stroke="black" stroke-width="0.1461" stroke-miterlimit="10"/>
<path d="M122.87 141.181C122.87 141.181 118.978 160.898 120.87 171.834C122.763 182.77 120.354 191.685 120.354 191.685L121.612 192.63H142.073C142.073 192.63 138.962 172.646 150.376 170.754C161.789 168.862 158.415 192.63 158.415 192.63H179.075L180.02 191.415C180.02 191.415 178.263 174.806 180.02 170.619C181.776 166.432 178.206 140.102 178.206 140.102L122.87 141.181Z" fill="#5F6BA8" stroke="black" stroke-width="0.1461" stroke-miterlimit="10"/>
<path d="M124.929 97.8402C124.929 97.8402 123.147 138.755 120.314 143.21C117.478 147.667 122.623 146.855 122.623 146.855C122.623 146.855 129.768 145.526 132.872 145.718C135.979 145.911 137.329 147.104 140.839 146.912C144.349 146.72 144.342 144.154 150.357 144.425C156.369 144.696 158.934 147.283 160.556 146.933C162.177 146.584 167.308 145.526 168.659 145.718C170.009 145.911 179.73 148.697 180.678 146.965C181.623 145.234 179.958 143.21 179.958 143.21C179.958 143.21 174.788 104.051 175.436 98.7845C176.085 93.5178 175.597 71.1039 175.597 71.1039L153.671 65.5664L124.932 70.4269L127.338 90.6813L124.929 97.8402Z" fill="#1471B9" stroke="black" stroke-width="0.1461" stroke-miterlimit="10"/>
<path d="M122.744 97.8409C122.744 97.8409 124.298 99.4622 125.445 98.7852C126.592 98.1081 129.86 96.0449 128.684 79.1366C128.467 76.0221 127.922 73.3424 127.334 71.575C125.334 65.5742 121.461 68.8739 121.461 68.8739C121.461 68.8739 120.698 69.2018 120.987 69.6828C121.276 70.1674 122.769 69.4904 123.375 72.6654C123.706 74.4043 124.932 82.0372 124.807 86.0246C124.682 90.0121 123.713 94.4129 123.35 94.869C122.541 95.881 121.999 96.0164 122.202 96.8253C122.405 97.6378 122.744 97.8409 122.744 97.8409Z" fill="#0C4773" stroke="black" stroke-width="0.1461" stroke-miterlimit="10"/>
<path d="M178.145 97.8409C178.145 97.8409 176.591 99.4622 175.444 98.7852C174.296 98.1117 171.029 96.0449 172.205 79.1366C172.422 76.0221 172.967 73.3424 173.555 71.575C175.554 65.5742 179.428 68.8739 179.428 68.8739C179.428 68.8739 180.19 69.2018 179.901 69.6828C179.613 70.1674 178.12 69.4904 177.514 72.6654C177.183 74.4043 175.957 82.0372 176.082 86.0246C176.206 90.0121 177.175 94.4129 177.539 94.869C178.348 95.881 178.889 96.0164 178.686 96.8253C178.483 97.6378 178.145 97.8409 178.145 97.8409Z" fill="#0C4773" stroke="black" stroke-width="0.1461" stroke-miterlimit="10"/>
<path d="M139.101 69.229C139.101 69.229 135.445 74.934 141.802 79.4239C149.16 84.6229 157.538 79.6413 157.538 79.6413C157.538 79.6413 163.236 76.2026 161.23 69.6103C159.223 63.018 139.372 69.229 139.372 69.229H139.101Z" fill="#0C4773" stroke="black" stroke-width="0.1461" stroke-miterlimit="10"/>
<path d="M119.248 22.6266C118.168 24.4511 118.101 29.5574 120.125 35.1841C120.125 35.1841 116.412 40.7216 120.673 56.5574C124.101 63.2032 130.925 64.5002 134.236 66.2392C137.55 67.9817 139.502 69.008 139.502 69.008C139.502 69.008 140.019 72.7175 143.476 75.251C146.932 77.7846 150.061 77.3107 150.061 77.3107C150.061 77.3107 154.344 77.7241 158.745 74.0716C160.837 71.2351 161.243 69.6814 161.243 69.6814C161.243 69.6814 162.75 68.4913 164.617 67.4543C166.488 66.4174 179.153 60.3916 181.159 54.5583C183.828 46.7936 180.724 34.0295 180.724 34.0295C180.724 34.0295 183.678 27.733 181.451 23.0079C182.224 21.8533 182.442 18.5394 182.103 17C187.234 6.35249 181.629 -3.97783 172.247 1.88754C171.52 2.39354 169.41 3.71913 169.139 9.99786C160.733 6.4202 150.766 12.6277 150.057 13.237C149.045 12.5564 140.415 4.79885 131.531 9.71992C131.1 9.34932 129.842 -5.59919 118.703 2.30089C114.07 6.54492 118.229 14.8584 119.376 16.5866C117.762 18.9135 118.639 21.2761 119.248 22.6266Z" fill="#34A7D6" stroke="black" stroke-width="0.1461" stroke-miterlimit="10"/>
<path d="M123.383 29.3296C123.383 29.3296 130.271 41.691 147.158 30.7264C146.609 29.6788 141.585 23.2326 133.731 24.323C125.877 25.4134 123.383 29.3296 123.383 29.3296Z" fill="white" stroke="black" stroke-width="0.1461" stroke-miterlimit="10"/>
<path d="M134.507 33.034C136.349 33.034 137.843 31.5407 137.843 29.6986C137.843 27.8566 136.349 26.3633 134.507 26.3633C132.665 26.3633 131.172 27.8566 131.172 29.6986C131.172 31.5407 132.665 33.034 134.507 33.034Z" fill="black" stroke="black" stroke-width="0.1461" stroke-miterlimit="10"/>
<path d="M133.38 29.9442C134 29.9442 134.503 29.4416 134.503 28.8217C134.503 28.2018 134 27.6992 133.38 27.6992C132.76 27.6992 132.258 28.2018 132.258 28.8217C132.258 29.4416 132.76 29.9442 133.38 29.9442Z" fill="white" stroke="white" stroke-width="0.1461" stroke-miterlimit="10"/>
<path d="M177.338 29.3413C177.338 29.3413 170.45 41.7027 153.562 30.7381C154.111 29.6905 159.136 23.2443 166.989 24.3347C174.843 25.4251 177.338 29.3413 177.338 29.3413Z" fill="white" stroke="black" stroke-width="0.1461" stroke-miterlimit="10"/>
<path d="M166.195 33.0457C168.037 33.0457 169.53 31.5524 169.53 29.7104C169.53 27.8683 168.037 26.375 166.195 26.375C164.353 26.375 162.859 27.8683 162.859 29.7104C162.859 31.5524 164.353 33.0457 166.195 33.0457Z" fill="black" stroke="black" stroke-width="0.1461" stroke-miterlimit="10"/>
<path d="M164.896 29.9442C165.516 29.9442 166.018 29.4416 166.018 28.8217C166.018 28.2018 165.516 27.6992 164.896 27.6992C164.276 27.6992 163.773 28.2018 163.773 28.8217C163.773 29.4416 164.276 29.9442 164.896 29.9442Z" fill="white" stroke="white" stroke-width="0.1461" stroke-miterlimit="10"/>
<path d="M147.029 30.5008C147.029 30.5008 148.462 29.3783 147.924 26.859C147.902 26.7556 147.87 26.6452 147.835 26.5276C146.976 23.8764 142.151 18.6988 131.539 19.4293" stroke="black" stroke-width="0.1461" stroke-miterlimit="10"/>
<path d="M134.514 14.75C131.007 15.4698 148.771 11.771 147.884 26.6696" stroke="black" stroke-width="0.1461" stroke-miterlimit="10"/>
<path d="M153.648 30.7117C153.648 30.7117 152.216 29.5892 152.754 27.0699C152.775 26.9666 152.807 26.8561 152.843 26.7385C153.702 24.0873 158.526 18.9097 169.138 19.6402" stroke="black" stroke-width="0.1461" stroke-miterlimit="10"/>
<path d="M166.181 14.9609C169.687 15.6807 151.934 11.9392 152.821 26.8378" stroke="black" stroke-width="0.1461" stroke-miterlimit="10"/>
<path d="M131.528 10.1367C131.528 10.1367 128.321 11.4516 125.078 16.5829" stroke="black" stroke-width="0.1461" stroke-miterlimit="10"/>
<path d="M122.728 18.0352C122.728 18.0352 121.68 18.1706 119.25 22.5928" stroke="black" stroke-width="0.1461" stroke-miterlimit="10"/>
<path d="M119.006 16.8534C118.984 16.9033 122.676 16.2762 123.428 13.5787C123.496 12.5667 120.153 6.62289 120.153 6.62289C120.153 6.62289 119.48 5.8817 118.261 6.38771C117.046 6.89371 116.707 7.53512 116.707 7.53512C116.707 7.53512 116.504 7.29994 116.707 9.52707C116.914 11.7542 119.006 16.8534 119.006 16.8534Z" fill="#ED3293" stroke="black" stroke-width="0.1461" stroke-miterlimit="10"/>
<path d="M169.492 10.1289C169.492 10.1289 172.699 11.4438 175.942 16.5751" stroke="black" stroke-width="0.1461" stroke-miterlimit="10"/>
<path d="M178.32 18.0273C178.32 18.0273 179.368 18.1628 181.798 22.5849" stroke="black" stroke-width="0.1461" stroke-miterlimit="10"/>
<path d="M182.017 16.8456C182.038 16.8955 178.347 16.2684 177.595 13.5709C177.527 12.5588 180.87 6.61508 180.87 6.61508C180.87 6.61508 181.543 5.87389 182.762 6.37989C183.977 6.8859 184.048 7.19948 184.048 7.19948C184.048 7.19948 184.315 10.5206 183.756 12.8047C183.457 14.002 182.017 16.8456 182.017 16.8456Z" fill="#ED3293" stroke="black" stroke-width="0.1461" stroke-miterlimit="10"/>
<path d="M124.327 38.3281H149.649L175.85 38.6025C175.85 38.6025 178.762 39.6038 177.033 42.6042C175.305 45.6082 170.726 50.4295 148.95 47.8816C142.34 48.0634 129.661 51.0958 122.991 42.8786C121.416 39.0871 124.327 38.3281 124.327 38.3281Z" fill="#C163A6" stroke="black" stroke-width="0.1461" stroke-miterlimit="10"/>
<path d="M127.172 41.7031C127.172 41.7031 133.782 45.9329 149.792 42.569C160.208 46.4817 172.933 41.7031 172.933 41.7031" stroke="black" stroke-width="0.1461" stroke-miterlimit="10"/>
</g>
<defs>
<clipPath id="clip0_1306_1562">
<rect width="300" height="300" fill="white"/>
</clipPath>
</defs>
</svg>
