<svg width="300" height="300" viewBox="0 0 300 300" fill="none" xmlns="http://www.w3.org/2000/svg">
<path d="M234.86 219.955C234.86 219.955 224.738 222.384 204.09 210.24C183.441 198.092 176.557 178.928 177.369 171.371C173.188 177.742 171.297 182.707 171.297 182.707C171.297 182.707 175.617 200.791 190.054 210.642C204.492 220.493 216.102 228.05 234.86 227.512C234.995 225.625 234.86 219.955 234.86 219.955Z" fill="#D16628" stroke="black" stroke-width="0.146099" stroke-miterlimit="10"/>
<path d="M233.244 224.95C233.244 224.95 234.323 232.642 244.58 229.672C254.837 226.702 256.001 211.723 256.001 211.723C256.001 211.723 252.005 217.257 246.606 216.986C241.207 216.716 237.532 216.231 235.406 217.528C232.3 219.419 233.244 224.95 233.244 224.95Z" fill="#E1E2E1" stroke="black" stroke-width="0.146099" stroke-miterlimit="10"/>
<path d="M158.552 269.224C158.552 269.224 165.643 283.833 166.131 290.197C166.615 296.561 171.889 296.91 172.616 296.985C179.283 297.676 176.295 288.887 176.295 288.887C176.295 288.887 177.078 292.355 181.89 292.619C189.237 293.025 184.315 286.618 184.315 286.618C184.315 286.618 188.435 289.588 190.861 287.647C193.286 285.706 194.557 281.404 193.831 280.859C193.628 280.706 192.681 279.538 190.558 278.466C185.127 275.717 175.201 271.461 174.069 270.677C172.491 269.588 172.007 258.736 172.007 258.736L175.793 199.169L178.011 176.768L181.918 155.261C181.918 155.261 158.121 147.847 149.823 147.622C141.525 147.398 117.134 154.809 117.134 154.809L120.944 175.561L126.835 259.57C126.835 259.57 126.226 266.924 123.192 269.018C120.154 271.108 108.48 276.169 108.48 276.169C108.48 276.169 103.284 277.654 105.78 283.997C108.277 290.34 117.86 283.591 117.86 283.591C117.86 283.591 109.359 286.764 114.352 290.81C119.345 294.859 123.316 287.305 123.316 287.305C123.316 287.305 120.318 295.115 125.959 295.938C129.67 296.479 131.92 294.645 132.504 291.283C133.99 282.715 141.75 266.924 141.75 266.924C141.75 266.924 137.497 205.993 138.644 201.199C139.791 196.409 141.191 185.141 150.005 184.87C158.819 184.6 160.507 196.274 161.18 201.334C161.854 206.395 159.439 256.396 159.439 256.396L158.552 269.224Z" fill="#D16628" stroke="black" stroke-width="0.146099" stroke-miterlimit="10"/>
<path d="M85.9868 138.165C85.9868 138.165 93.4834 132.157 100.578 125.02C107.672 117.886 120.938 103.705 120.938 103.705C120.938 103.705 115.357 96.262 113.082 94.7983C110.806 93.3346 75.7123 132.071 75.7123 132.071C75.7123 132.071 57.2716 129.892 55.3449 129.069C52.5706 127.887 50.3448 131.299 50.8897 132.57C51.4346 133.841 54.3442 138.482 66.0753 136.979C67.2469 136.829 64.6187 138.617 64.6187 138.617C64.5759 138.692 53.842 147.773 50.1133 149.162C46.4878 150.512 48.4323 156.21 52.5243 155.665C56.6163 155.12 65.7084 145.163 65.9827 144.889C66.2569 144.614 57.0935 157.2 56.7089 159.618C56.2103 162.756 60.6193 164.893 63.4363 160.708C66.2533 156.527 73.5292 146.979 73.2549 147.068C72.9807 147.161 65.4342 161.891 66.3459 163.981C67.2576 166.072 68.8923 167.799 71.4386 166.435C73.985 165.071 77.9417 149.814 77.6674 149.903C77.3932 149.996 76.9409 164.569 76.9409 164.569C76.9409 164.569 78.6219 168.75 81.8948 165.751C83.3514 165.797 85.132 142.894 85.0786 142.973L85.9868 138.165Z" fill="#D16628" stroke="black" stroke-width="0.146099" stroke-miterlimit="10"/>
<path d="M213.256 138.555C213.256 138.555 205.759 132.547 198.665 125.41C191.571 118.274 178.305 104.096 178.305 104.096C178.305 104.096 183.885 96.6526 186.161 95.1889C188.433 93.7252 223.534 132.462 223.534 132.462C223.534 132.462 241.974 130.282 243.901 129.46C246.675 128.277 248.901 131.689 248.356 132.961C247.812 134.232 244.902 138.872 233.171 137.37C231.999 137.22 234.627 139.008 234.627 139.008C234.67 139.083 245.404 148.164 249.133 149.553C252.758 150.903 250.814 156.601 246.722 156.056C242.63 155.511 233.538 145.553 233.263 145.279C232.989 145.005 242.153 157.591 242.537 160.009C243.036 163.147 238.627 165.283 235.81 161.099C232.993 156.918 225.717 147.37 225.991 147.459C226.265 147.551 233.812 162.281 232.9 164.372C231.992 166.462 230.354 168.189 227.807 166.825C225.261 165.461 221.304 150.205 221.579 150.294C221.853 150.383 222.305 164.959 222.305 164.959C222.305 164.959 220.624 169.14 217.351 166.142C215.895 166.188 214.114 143.285 214.167 143.363L213.256 138.555Z" fill="#D16628" stroke="black" stroke-width="0.146099" stroke-miterlimit="10"/>
<path d="M111.403 93.0644L78.8984 124.946L90.9536 137.542C90.9536 137.542 121.574 104.646 121.72 104.977C125.413 102.164 127.906 98.0681 127.906 98.0681C127.906 98.0681 128.041 110.935 127.269 116.345C124.904 119.255 114.131 136.666 117.13 154.807C131.631 155.58 133.679 150.124 142.55 149.077C147.219 148.536 153.502 148.283 162.23 150.626C167.918 152.154 179.371 156.991 181.918 155.26C184.418 149.622 181.554 129.344 172.733 117.616C170.642 105.251 171.825 99.0652 171.825 99.0652C171.825 99.0652 177.462 104.977 177.737 105.066C177.94 105.134 208.46 137.991 208.46 137.991C208.46 137.991 218.995 126.847 220.515 125.483C220.79 124.119 175.283 79.6951 175.283 79.6951C175.283 79.6951 165.5 70.927 157.843 70.2646C150.186 69.6022 140.606 70.0687 138.273 70.8736C135.944 71.6785 128.43 76.0197 124.181 79.6951C119.811 83.4701 111.403 93.0644 111.403 93.0644Z" fill="#EE2524" stroke="black" stroke-width="0.146099" stroke-miterlimit="10"/>
<path d="M141.176 3.11523C142.12 2.81252 142.426 0.29108 142.426 0.29108C142.426 0.29108 143.79 1.02116 144.516 -0.000950151C145.243 -1.02306 145.004 -2.04873 145.004 -2.04873C145.004 -2.04873 146.333 -1.17976 147.316 -1.43617C148.299 -1.69259 149.68 -4.00391 149.68 -4.00391C149.68 -4.00391 150.749 -1.91339 151.903 -1.60712C153.057 -1.30084 154.535 -1.90983 154.535 -1.90983C154.535 -1.90983 154.41 -0.841428 155.04 0.00261128C155.671 0.846651 156.906 0.340939 156.906 0.340939C156.906 0.340939 157.177 3.01907 158.178 2.91579C159.179 2.81608 149.638 6.56262 149.638 6.56262C149.638 6.56262 140.232 3.41794 141.176 3.11523Z" fill="#F1F2F2" stroke="black" stroke-width="0.146099" stroke-miterlimit="10"/>
<path d="M173.328 13.6477C173.328 13.6477 191.32 11.8029 188.713 0.000564306C187.98 -3.3293 191.886 3.61177 192.221 7.87471C192.559 12.1376 190.871 19.0716 188.375 21.098C185.878 23.1244 183.663 24.5846 175.169 25.0155C174.204 25.0618 173.328 13.6477 173.328 13.6477Z" fill="#EDDFD3" stroke="black" stroke-width="0.146099" stroke-miterlimit="10"/>
<path d="M179.592 31.8944C179.592 31.8944 182.502 32.9485 185.946 31.1394C188.122 29.9962 190.857 26.4597 193.165 24.2695C194.507 22.9945 196.085 22.6669 196.338 22.2467C197.018 21.0963 196.338 19.5044 196.338 19.5044C196.338 19.5044 183.652 14.9779 175.757 21.05C175.169 27.4391 179.592 31.8944 179.592 31.8944Z" fill="#D16628" stroke="black" stroke-width="0.146099" stroke-miterlimit="10"/>
<path d="M174.68 25.6886C174.68 25.6886 178.255 28.5234 183.79 23.3274C189.324 18.1314 195.471 22.5724 195.471 22.5724" stroke="black" stroke-width="0.146099" stroke-miterlimit="10"/>
<path d="M126.725 13.6477C126.725 13.6477 108.733 11.8029 111.34 0.000564306C112.074 -3.3293 108.167 3.61177 107.832 7.87471C107.494 12.1376 109.182 19.0716 111.678 21.098C114.175 23.1244 116.39 24.5846 124.884 25.0155C125.849 25.0618 126.725 13.6477 126.725 13.6477Z" fill="#EDDFD3" stroke="black" stroke-width="0.146099" stroke-miterlimit="10"/>
<path d="M119.993 31.2576C119.993 31.2576 117.083 32.3118 113.64 30.5026C111.464 29.3594 108.729 25.823 106.421 23.6328C105.078 22.3578 103.5 22.0302 103.248 21.6099C102.567 20.4596 103.248 18.8677 103.248 18.8677C103.248 18.8677 115.933 14.3412 123.829 20.4133C124.42 26.806 119.993 31.2576 119.993 31.2576Z" fill="#D16628" stroke="black" stroke-width="0.146099" stroke-miterlimit="10"/>
<path d="M126.151 25.6847C126.151 25.6847 122.575 28.5195 117.041 23.3235C111.506 18.1275 105.359 22.5685 105.359 22.5685" stroke="black" stroke-width="0.146099" stroke-miterlimit="10"/>
<path d="M124.666 18.6236C124.666 18.6236 121.757 19.108 121.636 26.7471C121.636 26.7471 108.298 40.0843 123.94 54.3903C141.768 66.7802 141.155 65.6655 141.155 65.6655L141.508 68.2083L142.972 78.757C142.972 78.757 144.361 83.287 150.002 83.287C155.643 83.287 156.911 78.9992 156.911 78.9992L158.488 66.1463C158.488 66.1463 178.977 55.3554 181.644 47.5952C184.312 39.835 178.371 27.2278 178.371 27.2278C178.371 27.2278 179.098 22.8616 175.099 18.6201C171.099 14.3785 175.22 -0.899683 154.368 2.3732C153.179 2.57263 150.6 4.2714 149.781 4.97654C148.77 4.29633 147.434 2.98575 146.376 2.72221C142.776 1.83187 140.436 1.05194 133.271 2.97863C127.295 4.59192 124.666 18.6236 124.666 18.6236Z" fill="#D16628" stroke="black" stroke-width="0.146099" stroke-miterlimit="10"/>
<path d="M142.123 2.08984L141.656 65.8344C141.656 65.8344 144.014 68.5054 149.527 68.5339C155.04 68.5624 157.697 66.6429 158.234 65.8344C158.772 65.026 157.372 2.27147 157.372 2.27147C157.372 2.27147 155.962 2.09697 153.889 2.7665C152.458 3.22948 150.83 4.56498 149.634 5.19534C148.669 4.39048 147.757 3.43247 146.735 3.0799C144.267 2.22517 142.123 2.08984 142.123 2.08984Z" fill="white"/>
<path d="M128.055 22.503C128.055 22.503 133.39 32.0189 148.543 23.6533C148.696 22.2893 143.967 13.3467 136.118 14.4401C128.268 15.5334 128.055 22.503 128.055 22.503Z" fill="white" stroke="black" stroke-width="0.146099" stroke-miterlimit="10"/>
<path d="M170.914 22.503C170.914 22.503 165.579 32.0189 150.425 23.6533C150.272 22.2893 155.002 13.3467 162.851 14.4401C170.704 15.5334 170.914 22.503 170.914 22.503Z" fill="white" stroke="black" stroke-width="0.146099" stroke-miterlimit="10"/>
<path d="M161.958 25.6851C164.493 25.6851 166.548 23.6298 166.548 21.0945C166.548 18.5592 164.493 16.5039 161.958 16.5039C159.422 16.5039 157.367 18.5592 157.367 21.0945C157.367 23.6298 159.422 25.6851 161.958 25.6851Z" fill="black" stroke="black" stroke-width="0.146099" stroke-miterlimit="10"/>
<path d="M137.177 25.314C139.712 25.314 141.767 23.2587 141.767 20.7234C141.767 18.1881 139.712 16.1328 137.177 16.1328C134.641 16.1328 132.586 18.1881 132.586 20.7234C132.586 23.2587 134.641 25.314 137.177 25.314Z" fill="black" stroke="black" stroke-width="0.146099" stroke-miterlimit="10"/>
<path d="M160.413 21.0522C161.266 21.0522 161.958 20.3602 161.958 19.5066C161.958 18.6529 161.266 17.9609 160.413 17.9609C159.559 17.9609 158.867 18.6529 158.867 19.5066C158.867 20.3602 159.559 21.0522 160.413 21.0522Z" fill="white" stroke="white" stroke-width="0.146099" stroke-miterlimit="10"/>
<path d="M135.6 21.0522C136.454 21.0522 137.146 20.3602 137.146 19.5066C137.146 18.6529 136.454 17.9609 135.6 17.9609C134.747 17.9609 134.055 18.6529 134.055 19.5066C134.055 20.3602 134.747 21.0522 135.6 21.0522Z" fill="white" stroke="white" stroke-width="0.146099" stroke-miterlimit="10"/>
<path d="M175.164 26.7266C175.164 26.7266 173.163 30.2594 167.102 30.6262" stroke="black" stroke-width="0.146099" stroke-miterlimit="10"/>
<path d="M179.587 36.3257C179.587 36.3257 178.921 34.9938 177.586 34.4453" stroke="black" stroke-width="0.146099" stroke-miterlimit="10"/>
<path d="M172.984 15.5954C172.984 15.5954 161.648 4.19905 151.039 16.5035" stroke="black" stroke-width="0.146099" stroke-miterlimit="10"/>
<path d="M158.856 6.56422C158.856 6.56422 152.314 6.34698 149.586 10.7915" stroke="black" stroke-width="0.146099" stroke-miterlimit="10"/>
<path d="M149.586 4.80469V23.7796" stroke="black" stroke-width="0.146099" stroke-miterlimit="10"/>
<path d="M124.055 26.7266C124.055 26.7266 126.056 30.2594 132.118 30.6262" stroke="black" stroke-width="0.146099" stroke-miterlimit="10"/>
<path d="M119.633 36.3257C119.633 36.3257 120.299 34.9938 121.634 34.4453" stroke="black" stroke-width="0.146099" stroke-miterlimit="10"/>
<path d="M126.234 15.5954C126.234 15.5954 137.57 4.19905 148.179 16.5035" stroke="black" stroke-width="0.146099" stroke-miterlimit="10"/>
<path d="M140.359 6.56422C140.359 6.56422 146.902 6.34698 149.63 10.7915" stroke="black" stroke-width="0.146099" stroke-miterlimit="10"/>
<path d="M149.633 4.80469V23.7796" stroke="black" stroke-width="0.146099" stroke-miterlimit="10"/>
<path d="M124.311 36.6092C127.189 35.6441 133.407 34.5045 133.407 34.5045C133.407 34.5045 131.366 31.2245 132.837 29.0058C134.308 26.787 136.153 27.1147 136.153 27.1147C136.153 27.1147 148.489 27.7237 149.892 27.6987C151.296 27.6738 165.124 27.4281 165.124 27.4281C165.124 27.4281 167.09 27.7272 167.599 29.8569C168.105 31.9866 166.809 34.5009 166.809 34.5009C166.809 34.5009 175.73 36.1961 176.731 36.9191C177.731 37.642 178.536 39.1983 176.809 42.197C175.082 45.1992 170.505 50.0177 148.742 47.4714C142.136 47.653 129.465 50.6837 122.798 42.4712C121.22 38.6891 123.104 37.0152 124.311 36.6092Z" fill="#F9D6B5" stroke="black" stroke-width="0.146099" stroke-miterlimit="10"/>
<path d="M126.727 41.2383C126.727 41.2383 133.333 45.4656 149.334 42.1037C159.744 46.0141 172.461 41.2383 172.461 41.2383" stroke="black" stroke-width="0.146099" stroke-miterlimit="10"/>
<path d="M155.289 33.4491C155.289 33.4491 159.189 28.5024 161.963 28.6805C164.737 28.8585 165.186 28.3208 165.546 29.9412C165.905 31.5616 165.994 33.0894 164.467 33.4491C162.939 33.8088 155.289 33.4491 155.289 33.4491Z" fill="black" stroke="black" stroke-width="0.146099" stroke-miterlimit="10"/>
<path d="M144.485 33.453C144.485 33.453 140.585 28.5063 137.811 28.6844C135.037 28.8624 134.588 28.3247 134.228 29.9451C133.869 31.5655 133.78 33.0933 135.307 33.453C136.839 33.8127 144.485 33.453 144.485 33.453Z" fill="black" stroke="black" stroke-width="0.146099" stroke-miterlimit="10"/>
</svg>
