<svg width="300" height="300" viewBox="0 0 300 300" fill="none" xmlns="http://www.w3.org/2000/svg">
<g clip-path="url(#clip0_1306_1476)">
<path d="M140.628 262.586C140.628 262.586 133.533 277.204 133.045 283.571C132.56 289.939 127.283 290.288 126.556 290.363C119.885 291.055 122.875 282.26 122.875 282.26C122.875 282.26 122.091 285.731 117.277 285.995C109.925 286.401 114.85 279.99 114.85 279.99C114.85 279.99 110.727 282.962 108.301 281.02C105.874 279.078 104.602 274.773 105.329 274.228C105.532 274.075 106.48 272.906 108.603 271.833C114.038 269.083 123.969 264.824 125.102 264.04C126.681 262.95 127.165 252.092 127.165 252.092L125.469 184.395H139.427L140.628 262.586Z" fill="#34A7D6" stroke="black" stroke-width="0.1461" stroke-miterlimit="10"/>
<path d="M85.7274 144.57C85.7274 144.57 96.0435 128.656 103.142 121.518C110.24 114.381 125.467 90.5913 125.467 90.5913C125.467 90.5913 124.398 71.1707 122.124 69.7062C119.851 68.2416 75.4469 138.476 75.4469 138.476C75.4469 138.476 56.9956 136.296 55.0678 135.473C52.2919 134.289 50.0648 137.703 50.61 138.975C51.1552 140.247 54.0665 144.891 65.8044 143.387C66.9767 143.237 64.3469 145.026 64.3469 145.026C64.3042 145.101 53.564 154.188 49.8331 155.577C46.2056 156.928 48.1512 162.629 52.2456 162.084C56.3399 161.539 65.4373 151.576 65.7117 151.301C65.9861 151.027 56.8174 163.62 56.4326 166.039C55.9337 169.179 60.3452 171.317 63.1639 167.13C65.9825 162.946 73.2626 153.393 72.9882 153.482C72.7138 153.575 65.1629 168.313 66.0752 170.405C66.9838 172.496 68.623 174.225 71.1709 172.86C73.7187 171.495 77.6776 156.229 77.4033 156.318C77.1289 156.408 76.6763 170.993 76.6763 170.993C76.6763 170.993 78.3582 175.176 81.633 172.176C83.0905 172.222 84.8722 149.306 84.8187 149.384L85.7274 144.57Z" fill="#34A7D6" stroke="black" stroke-width="0.1461" stroke-miterlimit="10"/>
<path d="M160.461 262.586C160.461 262.586 167.556 277.204 168.044 283.571C168.528 289.939 173.806 290.288 174.533 290.363C181.204 291.055 178.214 282.26 178.214 282.26C178.214 282.26 178.998 285.731 183.812 285.995C191.163 286.401 186.239 279.99 186.239 279.99C186.239 279.99 190.362 282.962 192.788 281.02C195.215 279.078 196.487 274.773 195.76 274.228C195.557 274.075 194.609 272.906 192.485 271.833C187.051 269.083 177.12 264.824 175.987 264.04C174.408 262.95 173.924 252.092 173.924 252.092L175.62 184.395H161.662L160.461 262.586Z" fill="#34A7D6" stroke="black" stroke-width="0.1461" stroke-miterlimit="10"/>
<path d="M215.349 144.57C215.349 144.57 205.032 128.656 197.934 121.518C190.836 114.381 175.609 90.5913 175.609 90.5913C175.609 90.5913 176.678 71.1707 178.952 69.7062C181.225 68.2416 225.629 138.476 225.629 138.476C225.629 138.476 244.08 136.296 246.008 135.473C248.784 134.289 251.011 137.703 250.466 138.975C249.921 140.247 247.009 144.891 235.272 143.387C234.099 143.237 236.729 145.026 236.729 145.026C236.772 145.101 247.512 154.188 251.243 155.577C254.87 156.928 252.925 162.629 248.83 162.084C244.736 161.539 235.639 151.576 235.364 151.301C235.09 151.027 244.258 163.62 244.643 166.039C245.142 169.179 240.731 171.317 237.912 167.13C235.093 162.946 227.813 153.393 228.088 153.482C228.362 153.575 235.913 168.313 235.001 170.405C234.092 172.496 232.453 174.225 229.905 172.86C227.357 171.495 223.398 156.229 223.673 156.318C223.947 156.408 224.4 170.993 224.4 170.993C224.4 170.993 222.718 175.176 219.443 172.176C217.985 172.222 216.204 149.306 216.257 149.384L215.349 144.57Z" fill="#34A7D6" stroke="black" stroke-width="0.1461" stroke-miterlimit="10"/>
<path d="M122.87 141.181C122.87 141.181 118.978 160.898 120.87 171.834C122.763 182.77 120.354 191.685 120.354 191.685L121.612 192.63H142.073C142.073 192.63 138.962 172.646 150.376 170.754C161.789 168.862 158.415 192.63 158.415 192.63H179.075L180.02 191.415C180.02 191.415 178.263 174.806 180.02 170.619C181.776 166.432 178.206 140.102 178.206 140.102L122.87 141.181Z" fill="#5F6BA8" stroke="black" stroke-width="0.1461" stroke-miterlimit="10"/>
<path d="M124.944 97.8402C124.944 97.8402 123.163 138.755 120.33 143.21C117.493 147.667 122.639 146.855 122.639 146.855C122.639 146.855 129.783 145.526 132.887 145.718C135.994 145.911 137.345 147.104 140.855 146.912C144.365 146.72 144.358 144.154 150.373 144.425C156.384 144.696 158.95 147.283 160.571 146.933C162.193 146.584 167.324 145.526 168.674 145.718C170.025 145.911 179.746 148.697 180.694 146.965C181.638 145.234 179.974 143.21 179.974 143.21C179.974 143.21 174.804 104.051 175.452 98.7845C176.101 93.5178 175.612 71.1039 175.612 71.1039L153.687 65.5664L124.948 70.4269L127.353 90.6813L124.944 97.8402Z" fill="#DEDEDE" stroke="black" stroke-width="0.1461" stroke-miterlimit="10"/>
<path d="M122.76 97.8409C122.76 97.8409 124.313 99.4622 125.461 98.7852C126.608 98.1081 129.876 96.0449 128.7 79.1366C128.482 76.0221 127.937 73.3424 127.349 71.575C125.35 65.5742 121.477 68.8739 121.477 68.8739C121.477 68.8739 120.714 69.2018 121.003 69.6828C121.291 70.1674 122.784 69.4904 123.39 72.6654C123.722 74.4043 124.947 82.0372 124.823 86.0246C124.698 90.0121 123.729 94.4129 123.365 94.869C122.556 95.881 122.015 96.0164 122.218 96.8253C122.421 97.6378 122.76 97.8409 122.76 97.8409Z" fill="#A7A7A7" stroke="black" stroke-width="0.1461" stroke-miterlimit="10"/>
<path d="M178.16 97.8409C178.16 97.8409 176.607 99.4622 175.459 98.7852C174.312 98.1117 171.044 96.0449 172.22 79.1366C172.438 76.0221 172.983 73.3424 173.571 71.575C175.57 65.5742 179.443 68.8739 179.443 68.8739C179.443 68.8739 180.206 69.2018 179.917 69.6828C179.628 70.1674 178.135 69.4904 177.53 72.6654C177.198 74.4043 175.972 82.0372 176.097 86.0246C176.222 90.0121 177.191 94.4129 177.555 94.869C178.363 95.881 178.905 96.0164 178.702 96.8253C178.499 97.6378 178.16 97.8409 178.16 97.8409Z" fill="#A7A7A7" stroke="black" stroke-width="0.1461" stroke-miterlimit="10"/>
<path d="M139.515 69.0102C139.515 69.0102 135.859 74.7153 142.216 79.2052C149.574 84.4042 157.952 79.4225 157.952 79.4225C157.952 79.4225 163.65 75.9838 161.644 69.3915C159.638 62.7992 139.786 69.0102 139.786 69.0102H139.515Z" fill="#A7A7A7" stroke="black" stroke-width="0.1461" stroke-miterlimit="10"/>
<path d="M119.264 22.6266C118.184 24.4511 118.116 29.5574 120.14 35.1841C120.14 35.1841 116.427 40.7216 120.689 56.5574C124.117 63.2032 130.941 64.5002 134.251 66.2392C137.565 67.9817 139.518 69.008 139.518 69.008C139.518 69.008 140.035 72.7175 143.491 75.251C146.948 77.7846 150.076 77.3107 150.076 77.3107C150.076 77.3107 154.36 77.7241 158.76 74.0716C160.852 71.2351 161.258 69.6814 161.258 69.6814C161.258 69.6814 162.766 68.4913 164.633 67.4543C166.504 66.4174 179.168 60.3916 181.174 54.5583C183.843 46.7936 180.74 34.0295 180.74 34.0295C180.74 34.0295 183.694 27.733 181.467 23.0079C182.24 21.8533 182.457 18.5394 182.119 17C187.25 6.35249 181.645 -3.97783 172.262 1.88754C171.535 2.39354 169.426 3.71913 169.155 9.99786C160.749 6.4202 150.782 12.6277 150.073 13.237C149.061 12.5564 140.43 4.79885 131.547 9.71992C131.116 9.34932 129.858 -5.59919 118.718 2.30089C114.086 6.54492 118.245 14.8584 119.392 16.5866C117.778 18.9135 118.654 21.2761 119.264 22.6266Z" fill="#34A7D6" stroke="black" stroke-width="0.1461" stroke-miterlimit="10"/>
<path d="M123.398 29.3296C123.398 29.3296 130.287 41.691 147.174 30.7264C146.625 29.6788 141.6 23.2326 133.747 24.323C125.893 25.4134 123.398 29.3296 123.398 29.3296Z" fill="white" stroke="black" stroke-width="0.1461" stroke-miterlimit="10"/>
<path d="M134.546 33.034C136.388 33.034 137.882 31.5407 137.882 29.6986C137.882 27.8566 136.388 26.3633 134.546 26.3633C132.704 26.3633 131.211 27.8566 131.211 29.6986C131.211 31.5407 132.704 33.034 134.546 33.034Z" fill="black" stroke="black" stroke-width="0.1461" stroke-miterlimit="10"/>
<path d="M133.396 29.9442C134.016 29.9442 134.518 29.4416 134.518 28.8217C134.518 28.2018 134.016 27.6992 133.396 27.6992C132.776 27.6992 132.273 28.2018 132.273 28.8217C132.273 29.4416 132.776 29.9442 133.396 29.9442Z" fill="white" stroke="white" stroke-width="0.1461" stroke-miterlimit="10"/>
<path d="M177.353 29.3413C177.353 29.3413 170.465 41.7027 153.578 30.7381C154.127 29.6905 159.151 23.2443 167.005 24.3347C174.859 25.4251 177.353 29.3413 177.353 29.3413Z" fill="white" stroke="black" stroke-width="0.1461" stroke-miterlimit="10"/>
<path d="M166.21 33.0457C168.052 33.0457 169.546 31.5524 169.546 29.7104C169.546 27.8683 168.052 26.375 166.21 26.375C164.368 26.375 162.875 27.8683 162.875 29.7104C162.875 31.5524 164.368 33.0457 166.21 33.0457Z" fill="black" stroke="black" stroke-width="0.1461" stroke-miterlimit="10"/>
<path d="M164.912 29.9442C165.531 29.9442 166.034 29.4416 166.034 28.8217C166.034 28.2018 165.531 27.6992 164.912 27.6992C164.292 27.6992 163.789 28.2018 163.789 28.8217C163.789 29.4416 164.292 29.9442 164.912 29.9442Z" fill="white" stroke="white" stroke-width="0.1461" stroke-miterlimit="10"/>
<path d="M147.045 30.5008C147.045 30.5008 148.477 29.3783 147.939 26.859C147.918 26.7556 147.886 26.6452 147.85 26.5276C146.991 23.8764 142.167 18.6988 131.555 19.4293" stroke="black" stroke-width="0.1461" stroke-miterlimit="10"/>
<path d="M134.529 14.75C131.023 15.4698 148.786 11.771 147.899 26.6696" stroke="black" stroke-width="0.1461" stroke-miterlimit="10"/>
<path d="M153.664 30.7117C153.664 30.7117 152.231 29.5892 152.769 27.0699C152.791 26.9666 152.823 26.8561 152.858 26.7385C153.717 24.0873 158.542 18.9097 169.154 19.6402" stroke="black" stroke-width="0.1461" stroke-miterlimit="10"/>
<path d="M166.196 14.9609C169.703 15.6807 151.95 11.9392 152.837 26.8378" stroke="black" stroke-width="0.1461" stroke-miterlimit="10"/>
<path d="M131.544 10.1367C131.544 10.1367 128.336 11.4516 125.094 16.5829" stroke="black" stroke-width="0.1461" stroke-miterlimit="10"/>
<path d="M122.744 18.0352C122.744 18.0352 121.696 18.1706 119.266 22.5928" stroke="black" stroke-width="0.1461" stroke-miterlimit="10"/>
<path d="M119.021 16.8534C119 16.9033 122.692 16.2762 123.444 13.5787C123.511 12.5667 120.169 6.62289 120.169 6.62289C120.169 6.62289 119.495 5.8817 118.277 6.38771C117.062 6.89371 116.723 7.53512 116.723 7.53512C116.723 7.53512 116.52 7.29994 116.723 9.52707C116.93 11.7542 119.021 16.8534 119.021 16.8534Z" fill="#ED3293" stroke="black" stroke-width="0.1461" stroke-miterlimit="10"/>
<path d="M169.508 10.1289C169.508 10.1289 172.715 11.4438 175.958 16.5751" stroke="black" stroke-width="0.1461" stroke-miterlimit="10"/>
<path d="M178.336 18.0273C178.336 18.0273 179.384 18.1628 181.814 22.5849" stroke="black" stroke-width="0.1461" stroke-miterlimit="10"/>
<path d="M182.033 16.8456C182.054 16.8955 178.362 16.2684 177.61 13.5709C177.543 12.5588 180.885 6.61508 180.885 6.61508C180.885 6.61508 181.559 5.87389 182.777 6.37989C183.992 6.8859 184.064 7.19948 184.064 7.19948C184.064 7.19948 184.331 10.5206 183.772 12.8047C183.472 14.002 182.033 16.8456 182.033 16.8456Z" fill="#ED3293" stroke="black" stroke-width="0.1461" stroke-miterlimit="10"/>
<path d="M124.343 38.3281H149.664L175.866 38.6025C175.866 38.6025 178.777 39.6038 177.049 42.6042C175.321 45.6082 170.742 50.4295 148.966 47.8816C142.356 48.0634 129.677 51.0958 123.006 42.8786C121.431 39.0871 124.343 38.3281 124.343 38.3281Z" fill="#C163A6" stroke="black" stroke-width="0.1461" stroke-miterlimit="10"/>
<path d="M127.188 41.7031C127.188 41.7031 133.798 45.9329 149.808 42.569C160.224 46.4817 172.949 41.7031 172.949 41.7031" stroke="black" stroke-width="0.1461" stroke-miterlimit="10"/>
</g>
<defs>
<clipPath id="clip0_1306_1476">
<rect width="300" height="300" fill="white"/>
</clipPath>
</defs>
</svg>
