<svg width="300" height="300" viewBox="0 0 300 300" fill="none" xmlns="http://www.w3.org/2000/svg">
<g clip-path="url(#clip0_1306_3614)">
<path d="M140.612 267.596C140.612 267.596 133.517 282.213 133.029 288.581C132.545 294.949 127.267 295.298 126.54 295.373C119.87 296.064 122.859 287.27 122.859 287.27C122.859 287.27 122.075 290.74 117.261 291.004C109.91 291.41 114.834 285 114.834 285C114.834 285 110.712 287.972 108.285 286.029C105.858 284.087 104.586 279.783 105.313 279.238C105.516 279.084 106.464 277.916 108.588 276.843C114.022 274.092 123.953 269.834 125.086 269.05C126.665 267.959 127.15 257.102 127.15 257.102L128.058 252.551L139.461 250.973L140.612 267.596Z" fill="#638C53" stroke="black" stroke-width="0.1461" stroke-miterlimit="10"/>
<path d="M158.602 267.596C158.602 267.596 165.696 282.213 166.185 288.581C166.669 294.949 171.947 295.298 172.673 295.373C179.344 296.064 176.354 287.27 176.354 287.27C176.354 287.27 177.138 290.74 181.953 291.004C189.304 291.41 184.379 285 184.379 285C184.379 285 188.502 287.972 190.929 286.029C193.355 284.087 194.628 279.783 193.901 279.238C193.698 279.084 192.75 277.916 190.626 276.843C185.192 274.092 175.261 269.834 174.127 269.05C172.549 267.959 172.064 257.102 172.064 257.102L171.155 252.551L159.753 250.973L158.602 267.596Z" fill="#638C53" stroke="black" stroke-width="0.1461" stroke-miterlimit="10"/>
<path d="M121.302 169.814L126.968 236.047L125.635 255.215C125.635 255.215 130.973 262.007 142.982 253.394C137.861 233.136 137.886 221.006 137.886 221.006C137.886 221.006 135.217 186.313 150.198 184.734C164.797 183.198 162.146 223.917 162.146 223.917L157.171 253.636C157.171 253.636 162.509 260.916 174.276 255.699C173.217 248.419 173.427 234.226 173.427 234.226L177.917 170.783C177.917 170.783 182.161 165.499 182.771 152.129C183.38 138.759 125.393 143.128 125.393 143.128L117.493 153.105C117.493 153.105 116.121 159.142 121.302 169.814Z" fill="#4E7789" stroke="black" stroke-width="0.1461" stroke-miterlimit="10"/>
<path d="M111.438 91.3363C111.438 91.3363 118.44 98.4417 120.98 101.984C121.344 102.49 121.615 102.925 121.764 103.252C125.46 100.437 127.954 96.3393 127.954 96.3393C127.954 96.3393 128.089 109.214 127.316 114.627C124.95 117.538 114.171 134.96 117.171 153.112C131.681 153.885 133.73 148.426 142.607 147.378C147.278 146.836 153.564 146.583 162.298 148.928C167.989 150.457 179.449 155.296 181.997 153.564C184.498 147.923 181.633 127.633 172.807 115.899C170.715 103.527 171.898 97.3371 171.898 97.3371C171.898 97.3371 177.539 103.252 177.813 103.341C178.088 103.434 182.225 96.9736 188.322 91.5145C188.596 90.1497 175.358 77.9593 175.358 77.9593C175.358 77.9593 165.569 69.1861 157.908 68.5233C150.247 67.8605 138.327 69.1327 138.327 69.1327C138.327 69.1327 128.478 74.2818 124.227 77.9593C119.851 81.7365 111.438 91.3363 111.438 91.3363Z" fill="#E71E25" stroke="black" stroke-width="0.1461" stroke-miterlimit="10"/>
<path d="M86.0008 136.459C86.0008 136.459 93.5018 130.448 100.6 123.307C107.698 116.169 120.972 101.98 120.972 101.98C120.972 101.98 115.388 94.5324 113.111 93.0678C110.834 91.6033 75.7204 130.362 75.7204 130.362C75.7204 130.362 57.269 128.182 55.3412 127.359C52.5653 126.175 50.3382 129.589 50.8834 130.861C51.4286 132.134 54.3399 136.777 66.0778 135.273C67.2502 135.123 64.6204 136.912 64.6204 136.912C64.5776 136.987 53.8375 146.074 50.1066 147.463C46.479 148.814 48.4247 154.515 52.519 153.97C56.6134 153.425 65.7108 143.462 65.9851 143.187C66.2595 142.913 57.0909 155.506 56.706 157.925C56.2071 161.065 60.6186 163.203 63.4373 159.016C66.256 154.832 73.536 145.279 73.2616 145.368C72.9872 145.461 65.4364 160.199 66.3486 162.291C67.2608 164.382 68.8965 166.111 71.4443 164.746C73.9921 163.381 77.9511 148.115 77.6767 148.204C77.4023 148.297 76.9498 162.879 76.9498 162.879C76.9498 162.879 78.6317 167.062 81.9065 164.062C83.3639 164.108 85.1456 141.192 85.0922 141.27L86.0008 136.459Z" fill="#638C53" stroke="black" stroke-width="0.1461" stroke-miterlimit="10"/>
<path d="M213.346 136.858C213.346 136.858 205.845 130.846 198.747 123.705C191.649 116.564 178.375 102.378 178.375 102.378C178.375 102.378 183.959 94.9308 186.236 93.4663C188.509 92.0017 223.63 130.761 223.63 130.761C223.63 130.761 242.082 128.58 244.009 127.757C246.785 126.574 249.012 129.988 248.467 131.26C247.922 132.532 245.011 137.175 233.273 135.671C232.101 135.522 234.73 137.31 234.73 137.31C234.773 137.385 245.513 146.472 249.244 147.862C252.872 149.212 250.926 154.914 246.832 154.369C242.737 153.823 233.64 143.86 233.366 143.586C233.091 143.311 242.26 155.904 242.645 158.324C243.144 161.463 238.732 163.601 235.913 159.414C233.095 155.231 225.815 145.677 226.089 145.766C226.363 145.859 233.914 160.597 233.002 162.689C232.093 164.781 230.454 166.509 227.906 165.144C225.359 163.779 221.4 148.514 221.674 148.603C221.948 148.692 222.401 163.277 222.401 163.277C222.401 163.277 220.719 167.46 217.444 164.46C215.987 164.506 214.205 141.59 214.259 141.669L213.346 136.858Z" fill="#638C53" stroke="black" stroke-width="0.1461" stroke-miterlimit="10"/>
<path d="M124.71 16.8482C124.71 16.8482 121.799 17.3328 121.678 24.9764C121.678 24.9764 108.333 38.3213 123.983 52.6356C139.634 66.9498 141.209 63.9173 141.209 63.9173L141.562 66.4616L143.026 77.0164L150.06 86.3561L156.973 77.2587L158.552 64.3984C158.552 64.3984 179.052 53.6012 181.721 45.8366C184.39 38.0719 178.446 25.4574 178.446 25.4574C178.446 25.4574 179.173 21.0887 175.172 16.8447C171.17 12.6006 175.293 -2.68639 154.429 0.588381C153.239 0.787932 150.659 2.48768 149.839 3.19323C148.827 2.51262 147.491 1.20129 146.433 0.937595C142.83 0.0467425 140.489 -0.733644 133.319 1.19416C127.34 2.80839 124.71 16.8482 124.71 16.8482Z" fill="#638C53" stroke="black" stroke-width="0.1461" stroke-miterlimit="10"/>
<path d="M138.047 68.2252C137.809 68.5316 137.577 69.1053 137.363 69.875C136.412 73.2888 135.842 80.4833 136.957 84.4209C139.551 81.5559 141.326 80.9644 141.326 80.9644C141.326 80.9644 149.507 86.5375 150.01 86.1491C150.512 85.7607 143.553 78.0566 142.986 75.801C142.373 73.3672 141.557 66.4648 141.557 66.4648C141.557 66.4648 139.341 66.5646 138.047 68.2252Z" fill="white" stroke="black" stroke-width="0.1461" stroke-miterlimit="10"/>
<path d="M138.047 68.2252C137.809 68.5316 137.577 69.1053 137.363 69.875C136.412 73.2888 135.842 80.4833 136.957 84.4209C139.551 81.5559 141.326 80.9644 141.326 80.9644C141.326 80.9644 149.507 86.5375 150.01 86.1491C150.512 85.7607 143.553 78.0566 142.986 75.801C142.373 73.3672 141.557 66.4648 141.557 66.4648C141.557 66.4648 139.341 66.5646 138.047 68.2252Z" fill="#E71E25" stroke="black" stroke-width="0.1461" stroke-miterlimit="10"/>
<path d="M161.668 68.2252C161.907 68.5316 162.138 69.1053 162.352 69.875C163.304 73.2888 163.874 80.4833 162.758 84.4209C160.164 81.5559 158.39 80.9644 158.39 80.9644C158.39 80.9644 150.208 86.5375 149.706 86.1491C149.203 85.7607 156.163 78.0566 156.729 75.801C157.342 73.3672 158.158 66.4648 158.158 66.4648C158.158 66.4648 160.374 66.5646 161.668 68.2252Z" fill="#E71E25" stroke="black" stroke-width="0.1461" stroke-miterlimit="10"/>
<path d="M128.094 20.7264C128.094 20.7264 133.432 30.2479 148.594 21.8774C148.747 20.5126 144.015 11.5649 136.161 12.6589C128.308 13.7528 128.094 20.7264 128.094 20.7264Z" fill="white" stroke="black" stroke-width="0.1461" stroke-miterlimit="10"/>
<path d="M170.988 20.7264C170.988 20.7264 165.65 30.2479 150.488 21.8774C150.335 20.5126 155.067 11.5649 162.921 12.6589C170.778 13.7528 170.988 20.7264 170.988 20.7264Z" fill="white" stroke="black" stroke-width="0.1461" stroke-miterlimit="10"/>
<path d="M162.007 23.9169C164.544 23.9169 166.601 21.8605 166.601 19.3237C166.601 16.7869 164.544 14.7305 162.007 14.7305C159.471 14.7305 157.414 16.7869 157.414 19.3237C157.414 21.8605 159.471 23.9169 162.007 23.9169Z" fill="black" stroke="black" stroke-width="0.1461" stroke-miterlimit="10"/>
<path d="M137.218 23.5341C139.755 23.5341 141.811 21.4777 141.811 18.9409C141.811 16.4041 139.755 14.3477 137.218 14.3477C134.681 14.3477 132.625 16.4041 132.625 18.9409C132.625 21.4777 134.681 23.5341 137.218 23.5341Z" fill="black" stroke="black" stroke-width="0.1461" stroke-miterlimit="10"/>
<path d="M160.468 19.2805C161.323 19.2805 162.015 18.5881 162.015 17.734C162.015 16.8799 161.323 16.1875 160.468 16.1875C159.614 16.1875 158.922 16.8799 158.922 17.734C158.922 18.5881 159.614 19.2805 160.468 19.2805Z" fill="white" stroke="white" stroke-width="0.1461" stroke-miterlimit="10"/>
<path d="M135.64 19.2805C136.494 19.2805 137.187 18.5881 137.187 17.734C137.187 16.8799 136.494 16.1875 135.64 16.1875C134.786 16.1875 134.094 16.8799 134.094 17.734C134.094 18.5881 134.786 19.2805 135.64 19.2805Z" fill="white" stroke="white" stroke-width="0.1461" stroke-miterlimit="10"/>
<path d="M123.913 36.1094H149.235L175.436 36.3838C175.436 36.3838 178.348 37.3851 176.619 40.3855C174.891 43.3894 170.312 48.2107 148.536 45.6629C141.926 45.8446 129.247 48.8771 122.577 40.6599C121.002 36.8684 123.913 36.1094 123.913 36.1094Z" fill="#9F5E44" stroke="black" stroke-width="0.1461" stroke-miterlimit="10"/>
<path d="M149.641 21.582C150.4 21.9633 153.642 23.6916 154.191 26.92C154.259 27.3262 154.294 27.7931 154.252 28.3133" stroke="black" stroke-width="0.1461" stroke-miterlimit="10"/>
<path d="M175.239 24.9453C175.239 24.9453 173.237 28.4802 167.172 28.8472" stroke="black" stroke-width="0.1461" stroke-miterlimit="10"/>
<path d="M179.651 34.5534C179.651 34.5534 178.985 33.2206 177.648 32.6719" stroke="black" stroke-width="0.1461" stroke-miterlimit="10"/>
<path d="M173.044 13.813C173.044 13.813 161.701 2.41008 151.086 14.7217" stroke="black" stroke-width="0.1461" stroke-miterlimit="10"/>
<path d="M158.916 4.77516C158.916 4.77516 152.37 4.55779 149.641 9.00493" stroke="black" stroke-width="0.1461" stroke-miterlimit="10"/>
<path d="M149.641 3.01172V21.9976" stroke="black" stroke-width="0.1461" stroke-miterlimit="10"/>
<path d="M149.684 21.582C148.925 21.9633 145.683 23.6916 145.134 26.92C145.066 27.3262 145.03 27.7931 145.073 28.3133" stroke="black" stroke-width="0.1461" stroke-miterlimit="10"/>
<path d="M124.094 24.9453C124.094 24.9453 126.096 28.4802 132.161 28.8472" stroke="black" stroke-width="0.1461" stroke-miterlimit="10"/>
<path d="M119.672 34.5534C119.672 34.5534 120.338 33.2206 121.675 32.6719" stroke="black" stroke-width="0.1461" stroke-miterlimit="10"/>
<path d="M126.281 13.813C126.281 13.813 137.624 2.41008 148.239 14.7217" stroke="black" stroke-width="0.1461" stroke-miterlimit="10"/>
<path d="M140.406 4.77516C140.406 4.77516 146.952 4.55779 149.682 9.00493" stroke="black" stroke-width="0.1461" stroke-miterlimit="10"/>
<path d="M149.68 3.01172V21.9976" stroke="black" stroke-width="0.1461" stroke-miterlimit="10"/>
<path d="M126.758 39.4727C126.758 39.4727 133.368 43.7024 149.378 40.3386C159.794 44.2512 172.519 39.4727 172.519 39.4727" stroke="black" stroke-width="0.1461" stroke-miterlimit="10"/>
</g>
<defs>
<clipPath id="clip0_1306_3614">
<rect width="300" height="300" fill="white"/>
</clipPath>
</defs>
</svg>
