<svg width="300" height="300" viewBox="0 0 300 300" fill="none" xmlns="http://www.w3.org/2000/svg">
<g clip-path="url(#clip0_1306_1896)">
<path d="M110.33 69.2263C110.512 70.8477 99.1663 90.6531 114.653 115.319C108.353 140.527 107.629 150.607 107.629 150.607C107.629 150.607 100.246 158.351 109.069 160.328C111.499 160.599 111.948 160.328 111.948 160.328C111.948 160.328 117.799 164.829 126.533 161.95C131.665 165.011 135.534 161.048 135.534 161.048C135.534 161.048 138.595 158.529 136.254 153.847C135.431 152.197 138.146 149.382 138.146 145.565C138.146 141.749 138.26 134.736 140.128 130.713C145.979 130.082 156.063 130.442 156.063 130.442C156.063 130.442 158.675 135.124 158.853 144.396C159.124 150.878 159.844 149.71 160.653 153.668C160.293 154.477 157.321 155.921 160.653 161.501C163.985 167.081 169.654 161.59 169.654 161.59C169.654 161.59 176.314 164.74 183.697 160.51C185.362 159.559 183.99 161.547 186.894 161.073C188.177 160.863 192.129 158.91 192.228 156.484C192.346 153.586 188.469 150.158 188.469 150.158C188.469 150.158 183.676 119.527 180.886 114.756C183.07 111.289 187.917 106.175 189.866 94.2985C191.451 84.6381 186.758 69.7679 186.758 69.7679C186.758 69.7679 215.476 74.8993 221.598 70.1279C223.622 72.2873 226.369 72.3479 228.621 73.7055C230.043 74.5607 234.28 76.5491 235.844 75.2592C238.139 73.367 237.612 71.1897 234.223 69.5862C233.553 69.1194 233.339 68.8343 233.45 68.6669C233.931 67.9542 240.509 69.5114 242.394 68.2357C243.288 67.6299 244.172 65.7128 243.203 64.3872C241.952 62.6768 238.613 61.5757 238.613 61.5757C238.613 61.5757 248.156 61.2158 246.624 57.1642C245.095 53.1126 235.281 54.0141 235.281 54.0141C235.281 54.0141 240.377 52.2573 241.852 49.9411C242.946 48.2236 240.73 45.8218 239.896 45.551C237.929 44.9167 236.614 46.7234 233.617 47.5073C224.345 49.9376 226.551 49.4209 223.939 49.599C221.327 49.7808 227.178 43.7479 224.748 41.8558C222.318 39.9636 219.706 41.4068 219.706 41.4068C219.706 41.4068 217.546 50.5897 212.415 51.2204C207.284 51.8511 187.029 48.9683 187.029 48.9683C187.029 48.9683 190.539 33.5744 186.128 26.5509C186.399 22.4993 186.309 22.8592 184.688 17.0972C184.546 16.5912 192.314 11.9195 191.53 6.65282C190.892 2.37317 182.874 -3.29978 175.327 4.4934C175.056 5.12412 173.645 1.53576 162.481 0.0034972C152.856 -0.19249 148.402 7.91427 148.402 7.91427C148.402 7.91427 138.328 -7.56875 121.313 5.03503C120.953 3.95532 113.929 -3.69889 107.269 3.23551C101.058 12.5075 111.232 17.0081 111.232 17.0081C111.232 17.0081 109.251 23.0409 110.601 27.1816C107.362 31.6822 106.97 43.9118 108.98 49.0574C98.2683 51.5767 80.804 51.1277 80.804 51.1277C80.804 51.1277 79.5319 49.5919 78.8691 47.4717C77.7608 43.9332 76.6598 39.2509 73.6451 40.8972C71.5534 42.0375 71.646 43.0495 71.9169 45.4797C72.1841 47.8708 72.9752 49.599 72.9752 49.599L68.4746 49.51C68.4746 49.51 61.2908 45.437 57.2 45.2802C54.5559 45.1769 54.3207 48.8222 54.3991 49.1608C54.7341 50.6609 57.6347 51.8868 61.4547 54.2814C64.9326 55.1045 58.9353 53.9678 54.9408 53.7183C51.8905 53.5259 50.8322 55.721 50.8322 55.721C50.8322 55.721 47.4113 61.3013 58.3937 61.6612C60.4391 61.7289 55.575 61.9569 53.7221 63.4714C51.8477 65.0072 52.9809 67.8295 53.4192 68.3319C54.8695 69.9996 65.2105 67.466 65.5063 67.8722C57.0432 70.4842 59.926 74.8957 59.926 74.8957C59.926 74.8957 63.55 77.9674 72.4621 71.3073C79.3858 67.89 75.9399 76.6988 110.33 69.2263Z" fill="#B3B3B3" stroke="black" stroke-width="0.1461" stroke-miterlimit="10"/>
<path d="M148.556 120.495C163.123 120.495 174.932 108.686 174.932 94.1185C174.932 79.5513 163.123 67.7422 148.556 67.7422C133.989 67.7422 122.18 79.5513 122.18 94.1185C122.18 108.686 133.989 120.495 148.556 120.495Z" fill="#F0F0F0"/>
<path d="M71.6423 66.3432C75.6689 66.3432 78.933 63.079 78.933 59.0525C78.933 55.0259 75.6689 51.7617 71.6423 51.7617C67.6157 51.7617 64.3516 55.0259 64.3516 59.0525C64.3516 63.079 67.6157 66.3432 71.6423 66.3432Z" fill="#F0F0F0"/>
<path d="M74.8523 46.4077C76.1039 46.4077 77.1186 45.393 77.1186 44.1413C77.1186 42.8897 76.1039 41.875 74.8523 41.875C73.6006 41.875 72.5859 42.8897 72.5859 44.1413C72.5859 45.393 73.6006 46.4077 74.8523 46.4077Z" fill="#F0F0F0"/>
<path d="M58.2898 50.9038C59.5414 50.9038 60.5561 49.8891 60.5561 48.6374C60.5561 47.3858 59.5414 46.3711 58.2898 46.3711C57.0381 46.3711 56.0234 47.3858 56.0234 48.6374C56.0234 49.8891 57.0381 50.9038 58.2898 50.9038Z" fill="#F0F0F0"/>
<path d="M54.4226 59.5561C55.6742 59.5561 56.6889 58.5414 56.6889 57.2898C56.6889 56.0381 55.6742 55.0234 54.4226 55.0234C53.1709 55.0234 52.1562 56.0381 52.1562 57.2898C52.1562 58.5414 53.1709 59.5561 54.4226 59.5561Z" fill="#F0F0F0"/>
<path d="M57.4929 67.6538C58.7446 67.6538 59.7592 66.6391 59.7592 65.3874C59.7592 64.1358 58.7446 63.1211 57.4929 63.1211C56.2412 63.1211 55.2266 64.1358 55.2266 65.3874C55.2266 66.6391 56.2412 67.6538 57.4929 67.6538Z" fill="#F0F0F0"/>
<path d="M63.4148 74.6733C64.6664 74.6733 65.6811 73.6586 65.6811 72.407C65.6811 71.1553 64.6664 70.1406 63.4148 70.1406C62.1631 70.1406 61.1484 71.1553 61.1484 72.407C61.1484 73.6586 62.1631 74.6733 63.4148 74.6733Z" fill="#F0F0F0"/>
<path d="M147.552 64.4132C156.849 64.4132 164.386 56.8766 164.386 47.5797C164.386 38.2827 156.849 30.7461 147.552 30.7461C138.255 30.7461 130.719 38.2827 130.719 47.5797C130.719 56.8766 138.255 64.4132 147.552 64.4132Z" fill="#666766"/>
<path d="M224.994 66.5659C229.02 66.5659 232.285 63.3017 232.285 59.2751C232.285 55.2486 229.02 51.9844 224.994 51.9844C220.967 51.9844 217.703 55.2486 217.703 59.2751C217.703 63.3017 220.967 66.5659 224.994 66.5659Z" fill="#F0F0F0"/>
<path d="M221.782 46.6147C223.034 46.6147 224.048 45.6 224.048 44.3484C224.048 43.0967 223.034 42.082 221.782 42.082C220.53 42.082 219.516 43.0967 219.516 44.3484C219.516 45.6 220.53 46.6147 221.782 46.6147Z" fill="#F0F0F0"/>
<path d="M238.337 51.1225C239.588 51.1225 240.603 50.1078 240.603 48.8562C240.603 47.6045 239.588 46.5898 238.337 46.5898C237.085 46.5898 236.07 47.6045 236.07 48.8562C236.07 50.1078 237.085 51.1225 238.337 51.1225Z" fill="#F0F0F0"/>
<path d="M242.212 59.7631C243.463 59.7631 244.478 58.7485 244.478 57.4968C244.478 56.2451 243.463 55.2305 242.212 55.2305C240.96 55.2305 239.945 56.2451 239.945 57.4968C239.945 58.7485 240.96 59.7631 242.212 59.7631Z" fill="#F0F0F0"/>
<path d="M239.157 67.8608C240.409 67.8608 241.423 66.8461 241.423 65.5944C241.423 64.3428 240.409 63.3281 239.157 63.3281C237.905 63.3281 236.891 64.3428 236.891 65.5944C236.891 66.8461 237.905 67.8608 239.157 67.8608Z" fill="#F0F0F0"/>
<path d="M233.212 74.892C234.463 74.892 235.478 73.8774 235.478 72.6257C235.478 71.3741 234.463 70.3594 233.212 70.3594C231.96 70.3594 230.945 71.3741 230.945 72.6257C230.945 73.8774 231.96 74.892 233.212 74.892Z" fill="#F0F0F0"/>
<path d="M117.141 29.8429C117.141 29.8429 118.22 20.211 127.585 19.1313C136.946 18.0516 144.329 25.4314 144.329 25.4314C144.529 25.3602 141.81 31.3645 130.735 32.7222C126.544 33.2389 121.189 34.2152 117.141 29.8429Z" fill="white" stroke="black" stroke-width="0.1461" stroke-miterlimit="10"/>
<path d="M179.379 29.8429C179.379 29.8429 178.299 20.211 168.934 19.1313C159.573 18.0516 152.19 25.4314 152.19 25.4314C151.99 25.3602 154.709 31.3645 165.784 32.7222C169.971 33.2389 175.331 34.2152 179.379 29.8429Z" fill="white" stroke="black" stroke-width="0.1461" stroke-miterlimit="10"/>
<path d="M167.586 31.9026C170.792 31.9026 173.391 29.3037 173.391 26.0978C173.391 22.8919 170.792 20.293 167.586 20.293C164.38 20.293 161.781 22.8919 161.781 26.0978C161.781 29.3037 164.38 31.9026 167.586 31.9026Z" fill="black" stroke="black" stroke-width="0.1461" stroke-miterlimit="10"/>
<path d="M165.762 25.3872C166.77 25.3872 167.586 24.5704 167.586 23.5627C167.586 22.5551 166.77 21.7383 165.762 21.7383C164.754 21.7383 163.938 22.5551 163.938 23.5627C163.938 24.5704 164.754 25.3872 165.762 25.3872Z" fill="white" stroke="white" stroke-width="0.1461" stroke-miterlimit="10"/>
<path d="M169.178 27.7854C169.682 27.7854 170.09 27.377 170.09 26.8732C170.09 26.3694 169.682 25.9609 169.178 25.9609C168.674 25.9609 168.266 26.3694 168.266 26.8732C168.266 27.377 168.674 27.7854 169.178 27.7854Z" fill="white" stroke="white" stroke-width="0.1461" stroke-miterlimit="10"/>
<path d="M128.945 31.9104C132.151 31.9104 134.75 29.3115 134.75 26.1056C134.75 22.8997 132.151 20.3008 128.945 20.3008C125.74 20.3008 123.141 22.8997 123.141 26.1056C123.141 29.3115 125.74 31.9104 128.945 31.9104Z" fill="black" stroke="black" stroke-width="0.1461" stroke-miterlimit="10"/>
<path d="M127.121 25.3872C128.129 25.3872 128.946 24.5704 128.946 23.5627C128.946 22.5551 128.129 21.7383 127.121 21.7383C126.114 21.7383 125.297 22.5551 125.297 23.5627C125.297 24.5704 126.114 25.3872 127.121 25.3872Z" fill="white" stroke="white" stroke-width="0.1461" stroke-miterlimit="10"/>
<path d="M130.529 27.7854C131.033 27.7854 131.442 27.377 131.442 26.8732C131.442 26.3694 131.033 25.9609 130.529 25.9609C130.026 25.9609 129.617 26.3694 129.617 26.8732C129.617 27.377 130.026 27.7854 130.529 27.7854Z" fill="white" stroke="white" stroke-width="0.1461" stroke-miterlimit="10"/>
<path d="M117.028 18.5859C117.028 18.5859 115.759 19.3414 114.622 20.5993C113.158 22.2171 111.729 26.2081 113.696 28.9412C114.351 29.8499 115.549 29.2477 117.028 30.2027" stroke="black" stroke-width="0.1461" stroke-miterlimit="10"/>
<path d="M114.42 42.9779C114.42 42.9779 107.457 34.6359 112.92 27.2383" stroke="black" stroke-width="0.1461" stroke-miterlimit="10"/>
<path d="M121.273 14.7146C121.273 14.7146 135.948 6.43322 147.921 17.0558" stroke="black" stroke-width="0.1461" stroke-miterlimit="10"/>
<path d="M126.203 9.76102C126.203 9.76102 138.265 4.62971 147.897 13.6309" stroke="black" stroke-width="0.1461" stroke-miterlimit="10"/>
<path d="M112.086 17.5939C112.086 17.5939 115.507 8.68183 121.269 5.17188" stroke="black" stroke-width="0.1461" stroke-miterlimit="10"/>
<path d="M144.039 25.5146C144.039 25.5146 148.002 26.0562 147.909 22.3645C147.82 18.6728 148.401 7.15234 148.401 7.15234" stroke="black" stroke-width="0.1461" stroke-miterlimit="10"/>
<path d="M139.083 46.3977C139.083 46.3977 133.592 46.7576 137.733 51.44C141.874 56.1223 147.906 48.9206 147.906 48.9206V42.168" stroke="black" stroke-width="0.1461" stroke-miterlimit="10"/>
<path d="M179.539 18.5859C179.539 18.5859 180.808 19.3414 181.944 20.5993C183.409 22.2171 184.838 26.2081 182.871 28.9412C182.215 29.8499 181.018 29.2477 179.539 30.2027" stroke="black" stroke-width="0.1461" stroke-miterlimit="10"/>
<path d="M182.148 42.9779C182.148 42.9779 189.111 34.6359 183.649 27.2383" stroke="black" stroke-width="0.1461" stroke-miterlimit="10"/>
<path d="M175.296 14.7146C175.296 14.7146 160.621 6.43322 148.648 17.0558" stroke="black" stroke-width="0.1461" stroke-miterlimit="10"/>
<path d="M170.366 9.76102C170.366 9.76102 158.304 4.62971 148.672 13.6309" stroke="black" stroke-width="0.1461" stroke-miterlimit="10"/>
<path d="M184.495 17.5939C184.495 17.5939 181.075 8.68183 175.312 5.17188" stroke="black" stroke-width="0.1461" stroke-miterlimit="10"/>
<path d="M152.533 25.5146C152.533 25.5146 148.571 26.0562 148.664 22.3645C148.753 18.6728 148.172 7.15234 148.172 7.15234" stroke="black" stroke-width="0.1461" stroke-miterlimit="10"/>
<path d="M157.471 46.3977C157.471 46.3977 162.963 46.7576 158.822 51.44C154.681 56.1223 148.648 48.9206 148.648 48.9206V42.168" stroke="black" stroke-width="0.1461" stroke-miterlimit="10"/>
<path d="M148.285 38.5828C149.988 38.5828 151.368 38.1393 151.368 37.5922C151.368 37.0451 149.988 36.6016 148.285 36.6016C146.583 36.6016 145.203 37.0451 145.203 37.5922C145.203 38.1393 146.583 38.5828 148.285 38.5828Z" fill="white"/>
<path d="M148.402 43.6147C148.402 43.6147 144.489 41.7225 144.041 40.1938C143.592 38.6651 144.041 36.0531 146.92 36.2313C149.799 36.4131 150.522 36.2242 150.522 36.2242C150.522 36.2242 152.774 36.5948 152.682 39.1141C152.593 41.6334 148.402 43.6147 148.402 43.6147Z" fill="black" stroke="black" stroke-width="0.1461" stroke-miterlimit="10"/>
<path d="M148.285 38.5945C149.988 38.5945 151.368 38.151 151.368 37.6039C151.368 37.0568 149.988 36.6133 148.285 36.6133C146.583 36.6133 145.203 37.0568 145.203 37.6039C145.203 38.151 146.583 38.5945 148.285 38.5945Z" fill="white"/>
<path d="M187.607 49.2852C187.607 49.2852 181.667 67.651 147.547 67.7401" stroke="black" stroke-width="0.1461" stroke-miterlimit="10"/>
<path d="M112.791 160.369C112.791 160.369 110.45 153.976 116.572 153.078" stroke="black" stroke-width="0.1461" stroke-miterlimit="10"/>
<path d="M126.203 161.725C126.203 161.725 129.624 158.664 127.012 154.973" stroke="black" stroke-width="0.1461" stroke-miterlimit="10"/>
<path d="M183.664 160.369C183.664 160.369 186.005 153.976 179.883 153.078" stroke="black" stroke-width="0.1461" stroke-miterlimit="10"/>
<path d="M170.237 161.725C170.237 161.725 166.816 158.664 169.428 154.973" stroke="black" stroke-width="0.1461" stroke-miterlimit="10"/>
<path d="M109.383 49.2852C109.383 49.2852 115.323 67.651 149.443 67.7401" stroke="black" stroke-width="0.1461" stroke-miterlimit="10"/>
</g>
<defs>
<clipPath id="clip0_1306_1896">
<rect width="300" height="300" fill="white"/>
</clipPath>
</defs>
</svg>
