<svg width="528" height="497" viewBox="0 0 528 497" fill="none" xmlns="http://www.w3.org/2000/svg">
<g clip-path="url(#clip0_1433_45)">
<rect width="528" height="496" transform="translate(0 0.5)" fill="white"/>
<path d="M349.6 1.5C360.783 15.1851 368.36 30.2555 367.073 48.1253C366.455 56.702 365.139 65.2406 364.852 73.8839C364.763 76.544 365.257 78.0544 367.388 79.6852C372.219 83.3817 372.184 84.754 367.769 89.3469C380.673 101.504 388.16 116.337 389.409 134.208C386.087 135.217 385.506 131.337 382.665 131.657C382.279 136.33 380.204 140.354 378.1 144.619C376.035 148.808 377.42 154.716 377.361 159.871C377.325 163.017 377.486 166.18 375.122 168.94C371.957 167.761 370.108 165.18 367.915 161.476C367.36 166.497 366.753 170.368 366.576 174.258C366.483 176.289 368.38 176.93 370.092 177.072C379.232 177.827 388.015 180.235 396.724 182.889C402.371 184.61 408.264 184.631 413.953 184.893C424.565 185.38 435.161 186.695 445.826 186.197C451.417 185.936 452.185 185.301 451.805 179.854C451.385 173.835 456.142 166.066 461.365 164.241C467.428 162.123 473.932 164.607 478 170.883C479.354 172.971 480.575 175.033 482.736 175.779C483.232 177.869 481.022 177.939 480.842 179.538C481.492 179.69 482.336 180.165 482.678 179.925C488.168 176.074 494.784 175.812 500.957 174.422C511.121 172.134 517.658 178.94 516.162 190.011C515.793 192.743 516.056 194.094 518.622 195.432C526.795 199.691 528.587 208.13 522.959 215.399C521.523 217.254 520.692 218.674 521.731 221.159C526.402 232.327 518.263 239.296 508.949 239.898C508.32 239.938 507.705 240.2 507.123 240.349C507.51 250.264 503.655 255.683 495.397 257.285C491.746 257.992 488.496 256.409 485.284 255.424C478.145 253.235 471.159 250.399 465.639 245.099C463.104 242.665 460.042 242.969 457.276 243.241C441.135 244.829 425.132 242.758 409.064 242.064C399.313 241.643 389.725 240.013 380.093 239.117C379.178 241.049 380.292 242.319 381.023 243.471C385.391 250.358 387.237 258.325 390.637 265.628C393.23 271.198 394.108 277.307 395.158 283.32C396.041 288.38 391.652 287.46 388.867 288.407C388.813 294.059 391.652 299.037 391.392 304.925C402.54 288.598 417.946 281.165 436.833 281.244C471.271 281.389 496.31 297.966 511.423 328.068C523.304 351.734 519.487 375.422 505.163 397.397C490.745 419.517 469.128 430.616 444.167 435.745C421.127 440.478 398.286 438.17 375.86 431.366C374.609 430.986 373.412 430.448 371.622 430.872C373.91 440.89 376.183 450.855 378.467 460.818C378.918 462.785 380.562 463.753 382.005 464.852C391.685 472.22 394.347 486.135 384.87 495.506C384.538 495.834 384.435 496.392 384.112 497.171C376.979 497.5 369.958 497.5 362.468 497.5C369.033 489.231 368.496 486.579 356.238 469.43C358.404 468.256 359.709 469.757 360.913 470.96C366.547 476.593 369.362 483.472 368.153 491.345C367.404 496.222 369.812 496.436 373.144 496.005C378.762 495.277 382.749 492.104 384.565 486.816C386.469 481.271 386.228 475.262 381.386 471.657C374.246 466.343 373.141 458.881 371.67 451.185C368.674 435.513 365.669 419.838 362.319 404.239C359.653 391.824 360.651 379.879 364.972 367.991C366.432 363.976 366.777 359.561 367.694 355.342C368.537 351.466 369.017 351.198 373.434 352.067C377.409 340.852 378.635 329.222 378.746 317.366C378.77 314.782 377.021 310.565 380.345 309.895C383.763 309.205 384.278 313.571 385.415 316.228C385.801 317.131 386.07 318.162 387.88 318.278C389.889 313.636 387.862 308.832 387.222 304.427C385.938 295.596 383.754 286.845 380.744 278.364C380.222 276.894 378.924 275.073 380.704 273.788C382.683 272.359 383.981 274.146 385.354 275.359C386.197 276.104 387.105 276.93 388.682 276.838C389.073 272.202 387.502 267.979 385.564 264.01C381.619 255.93 378.851 247.311 374.226 239.542C373.439 238.22 372.102 236.542 373.542 234.978C374.776 233.637 376.7 234.024 378.311 234.248C385.217 235.21 392.079 236.563 399.007 237.287C418.722 239.347 438.499 240.026 458.301 238.938C463.025 238.678 466.752 239.541 470.493 242.949C476.508 248.43 484.25 251.092 492.199 252.3C499.153 253.356 503.529 247.773 501.697 241.038C500.35 236.085 501.119 234.927 506.238 235.313C510.556 235.638 514.305 234.683 516.859 231.194C519.159 228.051 518.842 224.502 516.506 221.436C514.532 218.845 514.678 216.976 516.972 214.537C524.202 206.85 522.966 201.697 513.003 197.894C510.604 196.978 510.395 195.64 510.883 193.698C512.08 188.94 513.684 183.521 509.186 180.246C504.778 177.037 499.308 178.635 494.404 180.634C491.019 182.014 487.71 183.63 484.237 184.73C478.926 186.413 476.546 184.709 475.633 179.229C475.177 176.491 475.298 173.429 472.93 171.427C470.371 169.264 467.657 167.332 463.914 168.612C459.537 170.108 456.968 173.095 456.408 177.64C456.145 179.773 456.408 181.923 456.945 184.071C457.765 187.351 455.965 189.348 452.913 189.681C446.14 190.419 439.38 191.015 432.506 190.137C424.438 189.105 416.296 188.307 408.172 188.141C395.687 187.885 384.108 183.25 371.979 181.317C367.612 180.621 365.063 180.8 364.171 185.837C363.67 188.667 361.928 191.276 360.818 193.817C357.915 193.797 359.388 190.672 356.596 190.21C352.261 195.649 351.725 204.083 345.457 208.829C343.087 206.766 344.53 203.767 343.119 201.699C342.128 200.246 341.676 198.005 339.435 198.052C337.496 198.093 336.988 199.994 336.111 201.402C330.116 211.042 324.069 220.656 313.687 226.349C312.273 227.125 311.029 228.433 308.878 228.051C308.772 227.329 308.581 226.55 308.56 225.767C308.522 224.363 308.335 222.967 306.82 222.51C305.258 222.038 304.506 223.413 303.563 224.333C298.338 229.429 291.723 231.842 285.25 234.456C283.977 232.542 284.29 231.013 285.581 230.51C295.691 226.57 303.01 219.098 310.23 211.457C310.621 211.043 311.334 210.933 312.383 210.465C313.048 214.469 309.328 218.038 312.682 222.301C319.283 217.3 324.624 211.197 329.761 204.711C334.791 198.361 336.914 190.365 342.347 183.855C341.406 189.312 344.323 193.14 346.746 197.645C354.422 187.146 351.502 174.449 355.174 163.21C358.995 169.367 354.947 177.066 359.814 183.238C363.831 170.159 361.611 156.969 361.167 143.334C365.952 145.268 364.469 149.096 365.981 151.42C367.591 153.896 369.24 156.404 372.826 157.797C375.925 147.33 371.908 137.449 370.92 126.967C376.032 128.25 375.462 132.253 377.917 135.458C377.831 128.606 375.459 123.525 371.443 118.33C377.312 118.076 379.128 122.959 383.616 124.335C379.462 108.539 369.771 97.0166 358.016 87.4591C358.514 84.7542 361.204 85.5437 361.885 83.4176C357.952 80.3392 352.915 79.643 348.368 77.8786C346.841 77.286 345.312 77.4792 344.933 75.1145C344.516 72.5173 341.851 73.2422 340.004 72.8786C338.296 72.5422 336.478 74.333 334.405 72.2242C337.095 66.4324 344.217 66.1049 348.746 61.1711C339.757 59.1672 331.509 57.4466 322.725 60.4374C322.791 56.6467 326.198 55.468 326.915 52.5116C324.316 50.9819 321.582 54.0725 318.463 52.2423C321.02 47.5574 326.746 46.6963 329.966 41.9363C320.195 41.5735 311.492 44.84 301.272 47.8049C304.094 41.8286 308.858 38.5743 309.72 32.8299C304.425 34.0472 300.139 36.0218 296.766 40.0988C292.773 44.9265 291.866 44.7243 288.777 39.3406C286.269 40.4846 284.686 42.6092 283.045 44.6776C282.038 45.9466 281.209 47.863 279.202 47.1963C276.968 46.4542 278.385 44.3734 278.287 42.5077C275.473 42.9744 273.429 44.39 271.942 46.3162C269.29 49.7511 266.678 50.8695 263.714 47.0548C260.853 46.9759 259.083 52.4356 255.891 48.3177C254.005 45.8843 251.825 43.9648 248.72 43.1667C247.401 44.2254 248.936 46.8031 246.66 47.2018C244.33 47.6098 243.627 45.5291 242.533 44.1673C241.06 42.3333 239.502 40.6428 237.298 39.6869C233.942 44.5535 233.567 44.6634 229.359 40.2573C225.936 36.6733 222.069 34.1084 216.708 33.0512C217.034 39.1664 222.258 42.0845 225.468 47.9622C214.923 45.022 205.984 41.771 195.128 41.7683C200.033 45.5908 203.852 48.5664 208.029 51.8214C204.61 54.3042 201.645 51.0477 198.898 52.5792C199.407 55.4964 203.147 56.3498 203.414 60.3823C194.726 57.7431 186.431 58.9163 177.502 61.3674C180.98 64.6681 185.019 65.8925 188.359 68.1705C189.727 69.103 191.664 69.9053 191.201 71.8373C190.617 74.268 188.492 72.8111 186.985 72.947C184.496 73.1717 182.535 73.1442 180.522 76.0258C178.719 78.606 173.972 79.203 170.455 80.4843C168.285 81.275 165.963 81.6627 164.226 83.4045C164.58 85.6859 167.189 84.6061 168.524 86.8576C155.711 96.9453 146.177 109.7 141.281 126.577C145.331 123.298 147.989 119.113 154.591 117.876C150.012 124.339 147.73 130.241 147.707 137.776C149.733 133.777 149.362 129.37 154.798 127.164C153.7 138.069 150.509 148.164 152.725 158.884C159.129 155.535 160.722 149.387 162.767 143.287C165.966 145.405 165.156 147.813 164.77 149.95C163.213 158.56 163.155 167.174 164.548 175.789C164.829 177.528 164.81 179.454 166.535 181.381C171.438 175.669 166.778 168.254 170.794 162.42C174.827 173.702 171.196 186.853 179.205 197.498C181.911 193.015 184.898 188.908 182.105 182.982C185.849 183.396 186.111 185.889 186.854 187.666C191.886 199.708 199.212 210.094 208.968 218.754C210.44 220.06 212.072 221.186 213.847 222.564C215.977 218.292 213.958 214.641 213.537 210.472C221.781 216.51 227.757 225.536 238.12 228.816C239.295 221.686 235.234 215.265 235.895 208.415C239.236 208.092 239.183 210.38 239.646 211.964C243.345 224.608 252.709 233.436 260.664 243.196C262.737 245.739 264.718 244.55 266.376 242.371C274.182 232.108 284.256 223.296 287.122 209.867C287.29 209.079 287.87 208.371 289.225 208.33C291.385 209.539 290.483 211.668 290.011 213.417C289.189 216.457 287.864 219.353 288.004 222.625C288.035 223.352 287.515 224.691 287.084 224.763C278.512 226.197 277.775 234.717 273.484 239.935C270.851 243.137 268.029 246.208 265.553 249.551C263.795 251.925 262.181 251.469 260.313 249.428C255.108 243.744 250.921 237.341 246.714 230.932C245.301 228.778 244.377 226.063 241.246 225.145C238.236 228.256 242.914 230.929 241.739 233.869C240.502 235.141 239.24 234.267 238.155 233.655C232.539 230.486 226.098 228.649 221.686 223.511C221.027 222.744 220.142 222.075 219.062 222.52C216.6 223.533 217.92 226.079 216.763 228.458C212.291 226.795 208.094 224.447 204.829 221.092C199.14 215.247 193.949 208.915 190.013 201.682C189.149 200.095 188.567 197.918 186.348 198.119C184.051 198.327 183.448 200.67 182.597 202.406C181.667 204.301 182.38 206.706 180.781 209.037C174.658 203.942 173.633 196.033 169.729 190.317C166.857 190.277 167.721 193.024 166.027 193.966C163.328 191.484 162.397 188.042 161.535 184.811C160.62 181.378 159.21 181.003 155.858 181.593C147.328 183.094 139.085 186.237 130.538 187.046C113.047 188.702 95.5802 191.635 77.8924 189.87C72.5187 189.334 71.4025 187.823 72.3485 182.441C73.2171 177.499 72.2764 173.018 68.0961 169.92C64.7549 167.445 61.1994 168.372 57.7433 170.17C54.4127 171.903 53.9796 175.182 53.5391 178.224C52.2492 187.132 47.8697 186.331 42.5025 184.064C36.8606 181.681 31.4683 178.597 24.9947 178.833C19.3591 179.039 17.167 181.005 17.0384 186.601C17.0194 187.428 17.0501 188.283 17.2357 189.084C18.3271 193.795 18.8924 197.322 12.4671 199.571C6.44407 201.68 5.92227 208.521 10.6178 213.065C13.6847 216.033 15.0852 218.509 12.1071 222.334C7.88079 227.762 13.8112 236.346 21.1546 235.655C28.411 234.971 28.9815 235.767 27.0832 242.363C25.6665 247.285 30.1091 252.765 35.8378 252.337C44.3327 251.702 52.1487 248.379 58.5157 242.927C61.8936 240.034 64.9554 238.765 69.1664 238.932C96.1483 239.997 123.044 239.435 149.689 234.391C151.613 234.027 154.032 233.424 155.4 235.064C157.151 237.164 154.969 239.133 154.068 240.932C148.994 251.066 144.329 261.367 140.77 272.14C140.261 273.68 139.661 275.305 140.528 277.008C142.483 277.104 142.582 275.044 143.771 274.282C145.138 273.405 146.401 271.72 148.164 272.753C150.049 273.858 149.084 275.645 148.549 277.213C146.023 284.618 144.168 292.206 142.618 299.861C141.473 305.515 140.539 311.22 141.574 318.206C142.987 315.788 143.771 314.261 144.731 312.854C145.718 311.407 146.377 309.097 148.655 309.635C151.112 310.214 150.371 312.622 150.322 314.288C150.064 322.971 150.653 331.597 152.451 340.074C153.431 344.693 153.064 350.422 159.702 351.754C160.853 351.985 161.136 353.426 161.335 354.639C162.928 364.338 165.646 373.761 168.4 383.175C169.585 387.227 170.22 391.394 168.825 395.466C167.241 400.093 169.845 402.582 172.961 405.104C176.022 407.582 178.766 407.431 182.019 405.238C185.33 403.006 190.072 405.054 193.307 409.593C197.309 415.209 196.915 423.933 192.267 429.017C186.994 434.786 180.566 438.41 172.571 438.351C167.265 438.313 165.05 441.654 163.074 445.779C158.298 455.751 152.884 465.418 150.096 476.275C149.661 477.967 148.713 483.489 144.546 478.696C143.485 486.91 147.061 492.97 154.532 495.487C159.075 497.017 160.963 495.633 160.668 490.882C160.161 482.716 162.84 475.847 168.933 470.368C169.882 469.514 170.934 468.467 172.826 469.652C165.715 477.473 158.256 485.33 165.944 497.15C159.312 497.5 152.624 497.5 145.468 497.5C143.754 493.75 141.153 490.727 139.437 487.184C135.873 479.828 138.558 472.994 143.202 469.208C151.794 462.207 152.348 452.703 154.441 443.583C157.731 429.241 160.965 414.869 163.053 400.278C164.085 393.074 165.352 385.903 162.518 378.775C160.861 374.606 159.905 370.231 159.164 365.802C158.598 362.42 158.22 359.4 153.847 357.844C150.565 356.676 150.484 352.013 149.746 348.687C147.817 339.986 146.034 331.238 146.653 322.009C139.766 325.537 136.888 323.626 136.613 316.296C136.261 306.916 138.632 297.916 140.242 288.855C133.634 286.618 133.516 286.599 134.648 279.736C135.838 272.52 137.687 265.497 141.242 258.99C144.603 252.838 145.83 245.724 150.588 239.345C144.351 238.904 139.064 240.192 133.92 241.111C127.656 242.23 121.292 242.371 115.116 242.541C99.5442 242.968 83.9511 245.544 68.3409 243.045C66.5658 242.761 65.127 243.775 63.8296 244.828C57.16 250.244 49.3086 253.076 41.4051 256.219C31.0612 260.331 20.3479 252.891 21.951 240.56C20.675 239.449 19.0933 240.01 17.6514 239.803C8.79538 238.531 3.8784 230.447 7.07847 221.755C8.02686 219.179 7.87354 217.725 6.13219 215.617C0.287174 208.539 2.03875 200.094 10.1859 195.505C12.4489 194.231 13.3761 193.249 12.9061 190.208C11.1052 178.557 17.7438 172.352 29.2981 174.411C33.2164 175.109 37.1158 176.049 40.5853 178.05C42.9 179.386 45.262 179.302 47.7161 179.416C47.7045 172.681 54.9826 163.911 62.8888 163.313C69.7191 162.797 76.3287 169.702 77.2998 178.328C78.1793 186.14 78.1866 186.361 85.846 186.105C105.537 185.448 125.342 185.815 144.431 179.506C148.322 178.22 152.527 177.848 156.61 177.194C158.29 176.925 159.672 176.416 159.513 174.519C159.184 170.612 158.648 166.723 158.101 161.99C155.878 165.063 154.073 167.543 151.208 169.199C149.116 167.284 148.686 164.752 148.666 162.075C148.643 159.076 148.679 156.076 148.645 153.078C148.596 148.701 149.319 144.356 145.487 140.639C143.302 138.52 143.764 134.761 143.416 131.645C140.662 131.292 140.082 134.559 136.656 134.551C137.844 116.462 145.293 101.645 158.244 89.4857C153.791 84.4676 153.815 83.4776 158.884 79.4274C160.578 78.0737 161.36 76.9858 161.187 74.5306C160.594 66.0966 160.097 57.6976 159.006 49.2726C157.277 35.9069 161.898 23.6963 168.506 12.2476C170.576 8.66043 172.515 4.94256 175.792 1.76481C176.75 1.5 177.5 1.5 178.901 1.70088C193.713 8.56318 207.482 15.7078 218.688 27.11C221.682 30.1559 226.599 33.5068 230.285 33.1472C235.438 32.6446 238.686 34.4511 242.292 36.9477C242.95 37.4038 243.825 38.1424 244.461 37.1925C246.238 34.5406 248.093 36.3804 249.632 37.1967C252.816 38.8849 255.813 40.9249 259.089 42.945C261.84 38.4308 264.654 39.9183 267.237 42.966C269.703 41.3054 271.833 39.7001 274.127 38.3797C275.972 37.3179 278.713 35.0102 279.86 36.0917C283.038 39.0881 284.479 36.0711 286.462 35.012C289.051 33.629 291.37 31.4158 294.62 33.5692C295.583 34.2072 296.477 33.2617 297.327 32.7861C302.948 29.6409 308.747 26.9327 313.226 21.9035C316.387 18.355 320.485 15.5998 324.754 13.2699C331.861 9.39176 338.92 5.42783 346 1.5C347.066 1.5 348.133 1.5 349.6 1.5ZM474.789 295.274C460.926 287.503 446.14 283.871 430.272 285.939C418.19 287.514 407.427 292.42 399.35 301.621C391.516 310.546 389.735 320.894 395.749 331.679C401.793 342.514 410.181 349.873 423.592 349.226C429.66 348.934 435.732 344.327 437.63 338.291C439.332 332.881 437.382 327.139 432.473 323.304C430.908 322.081 428.628 321.03 429.113 318.801C429.624 316.458 432.358 316.977 434.154 316.377C435.068 316.071 436.133 316.199 437.131 316.168C453.941 315.644 466.389 323.773 476.249 336.445C482.187 344.077 484.693 352.822 482.885 362.657C480.091 377.86 470.863 388.031 457.584 394.678C441.516 402.722 424.26 404.798 406.528 402.967C403.915 402.697 401.746 403.03 399.815 403.664C388.827 397.631 376.166 395.997 365.399 389.525C363.829 392.765 364.18 395.288 364.586 397.692C365.718 404.401 367.316 411.04 368.237 417.774C368.947 422.965 371.604 425.773 376.532 426.972C397.246 432.011 417.914 436.471 439.493 432.214C466.226 426.941 488.847 415.594 503.585 391.556C511.607 378.473 515.365 364.249 513.281 349.103C509.954 324.926 495.513 308.174 474.789 295.274ZM431.38 398.167C446.235 395.61 460.207 391.122 470.241 378.964C477.414 370.273 481.298 360.408 477.77 349.081C473.675 335.932 464.036 327.878 451.713 322.787C447.445 321.024 442.959 319.541 437.501 320.263C442.559 326.506 444.833 332.743 442.72 339.908C438.878 352.933 427.741 355.956 414.545 353.101C401.49 350.276 394.025 340.722 389.564 328.908C388.127 325.101 386.141 323.28 382.185 322.115C383.099 331.152 381.279 339.593 379.303 347.976C378.25 352.44 378.511 357.921 372.173 359.276C371.433 359.434 370.674 361.095 370.521 362.146C369.634 368.233 368.209 374.199 366.253 380.002C365.069 383.518 366.428 385.2 369.368 386.623C376.108 389.884 382.993 392.753 390.258 394.589C403.47 397.929 416.729 400.943 431.38 398.167ZM189.71 43.4718C187.76 42.1031 185.81 40.7344 183.593 39.1788C183.097 40.6838 182.588 41.7328 182.426 42.8327C182.188 44.4545 181.972 46.3078 183.556 47.3567C185.277 48.4964 186.64 47.0236 187.982 46.1754C188.791 45.6641 189.697 45.1463 189.71 43.4718Z" fill="black"/>
<path d="M294.448 497.501C290.703 489.399 291.509 482.102 296.155 474.338C298.19 470.937 297.129 465.233 296.426 460.739C294.861 450.727 294.809 440.598 293.494 430.596C292.834 425.577 292.408 420.503 290.941 415.537C289.821 411.743 287.752 411.209 284.405 411.181C274.705 411.099 265.027 412.749 255.288 411.109C251.278 410.434 247.069 410.946 242.95 410.903C240.4 410.876 239.226 412.265 238.321 414.573C235.17 422.605 234.823 431.186 234.629 439.474C234.388 449.792 231.601 459.858 232.333 470.196C232.461 472.005 232.23 473.8 233.365 475.472C237.929 482.193 238.605 489.3 235.109 497.119C232.957 497.501 230.915 497.501 228.436 497.501C234.238 490.666 234.493 485.345 228.789 477.573C227.723 476.12 227.321 474.712 227.466 472.952C228.886 455.736 230.124 438.504 231.751 421.308C232.104 417.569 233.5 413.832 234.964 410.322C236.379 406.934 239.79 406.508 243.039 406.532C254.489 406.616 265.914 408.052 277.383 407.138C278.04 407.085 278.723 407.321 279.374 407.248C287.667 406.314 295.508 406.173 296.807 417.401C300.631 416.672 303.869 416.608 306.809 414.659C314.305 409.688 325.181 412.583 329.437 420.507C335.725 432.215 330.75 450.809 318.875 456.876C309.548 461.641 306.419 469.298 306.009 478.764C305.793 483.759 306.345 488.771 303.072 493.132C302.253 494.224 302.336 495.66 302.921 497.24C300.298 497.501 297.598 497.501 294.448 497.501Z" fill="black"/>
<path d="M202.375 497.501C206.468 491.112 206.752 483.515 208.055 476.164C210.379 483.541 208.36 490.254 205.142 497.161C204.25 497.501 203.5 497.501 202.375 497.501Z" fill="black"/>
<path d="M324.401 497.498C320.835 490.663 318.47 483.697 320.792 475.879C323.209 482.867 321.254 491.323 327.804 497.222C326.934 497.498 325.868 497.498 324.401 497.498Z" fill="black"/>
<path d="M275.428 161.09C270.574 156.698 266.623 152.014 263.327 146.07C249.733 165.777 230.968 176.823 208.36 181.745C210.229 177.607 214.224 176.748 217.783 175.443C221.845 173.954 226.019 172.784 229.889 170.79C244.002 163.519 250.385 150.307 255.575 136.485C257.978 130.085 252.959 124.357 246.226 125.834C235.693 128.145 226.215 132.902 219.174 141.551C214.819 146.901 210.11 151.962 206.249 157.804C205.004 153.997 207.315 151.414 208.916 148.808C210.731 145.853 213.03 143.163 215.346 140.56C217.297 138.368 218.949 137.031 216.523 133.5C214.63 130.745 217.856 128.409 220.393 126.226C226.253 121.182 234.54 121.846 240.332 116.973C243.391 114.399 243.449 113.79 240.071 109.665C235.454 116.821 229.077 120.201 220.592 118.127C211.651 115.942 208.65 109.429 208.642 100.644C206.682 101.406 205.09 104.583 203.406 100.831C202.843 99.5773 201.253 100.593 200.34 101.221C198.867 102.232 197.522 103.429 195.714 104.875C194.269 101.855 195.735 100.163 197.401 98.5907C200.913 95.2763 205.44 93.9654 209.85 92.4735C211.436 91.9369 212.996 91.9456 212.673 89.3597C212.357 86.8211 214.789 87.1127 216.28 87.2863C219.503 87.6616 221.724 86.9526 221.751 82.4607C230.756 86.1061 239.688 88.4281 244.154 97.7942C246.838 98.0873 247.071 95.7689 247.959 94.0869C249.568 91.0425 251.205 93.5267 252.748 94.1709C256.157 87.9285 259.449 81.7458 259.734 74.4577C259.808 72.5649 260.619 70.7648 263.008 70.7893C265.388 70.8138 266.018 72.6029 266.246 74.5153C267.058 81.2975 267.855 88.0698 273.412 93.3536C274.014 93.0239 275.116 92.4209 275.981 91.9476C278.942 92.6516 277.736 96.5824 280.821 97.0352C286.2 89.8987 293.781 86.1114 302.63 83.4141C303.16 87.6485 306.035 87.6487 309.11 87.1035C312.708 86.4657 315.297 86.8794 313.92 91.3751C317.612 92.8872 321.089 94.0632 324.328 95.7071C327.606 97.3706 330.527 99.511 331.708 103.411C332.751 106.852 336.383 108.012 338.751 110.252C341.289 112.652 343.509 115.335 346.064 117.682C349.345 120.695 349.163 123.833 346.685 128.079C345.446 122.595 341.702 119.772 338.465 116.517C334.946 112.978 331.575 109.344 328.946 104.997C327.532 102.659 325.621 99.4797 321.922 102.59C320.379 103.888 319.306 101.789 317.531 101.573C317.452 110.439 313.635 116.581 304.844 118.334C296.69 119.96 289.917 117.787 286.415 109.291C282.758 113.506 282.755 114.632 286.632 117.379C294.568 123.002 302.872 122.177 311.251 118.468C313.021 117.685 314.473 116.158 317.098 116.123C314.104 122.166 307.999 122.304 302.271 124.745C306.832 126.027 309.225 128.573 310.028 132.93C309.85 134.285 307.796 134.229 306.764 135.786C311.281 142.632 318.837 147.806 320.537 156.855C317.813 157.17 317.577 155.127 316.697 153.891C309.299 143.494 301.329 133.915 288.947 128.852C279.843 125.129 274.904 128.286 275.637 138.227C275.657 138.505 275.368 138.806 275.125 139.293C272.294 139.039 273.867 135.307 271.622 134.704C269.545 138.024 270.726 140.89 279.825 156.007C284.104 163.117 290.243 167.98 297.553 171.545C304.705 175.033 313.014 176.03 319.093 181.831C302.681 179.172 288.388 171.963 275.428 161.09ZM216.184 98.4335C214.25 99.1656 213.115 100.493 213.539 102.619C213.865 104.254 215.129 105.127 216.742 105.3C218.913 105.531 221.062 104.945 221.386 102.611C221.814 99.5197 219.859 98.1374 216.184 98.4335ZM256.419 124.757C257.6 125.853 258.777 126.954 259.963 128.044C261.144 129.129 262.278 130.745 264.087 129.229C265.393 128.134 266.103 126.551 265.618 124.828C264.993 122.607 263.12 122.387 261.257 122.76C259.676 123.076 258.165 123.741 256.419 124.757ZM295.834 105.744C297.684 104.568 298.227 103.033 296.921 101.159C296.205 100.132 295.083 99.6842 293.861 100.08C292.505 100.519 291.486 101.525 291.548 102.977C291.643 105.17 292.982 106.192 295.834 105.744Z" fill="black"/>
<path d="M181.746 125.415C183.867 127.928 186.007 127.018 187.727 125.703C190.543 123.548 193.373 122.663 196.398 124.836C200.084 127.484 203.621 130.318 203.225 135.653C203.055 137.944 201.863 140.152 202.927 142.33C196.176 144.367 190.551 143.341 185.064 138.964C181.775 136.339 180.724 132.012 176.754 129.981C175.171 129.17 177.753 121.441 179.993 119.68C182.027 121.05 180.451 123.491 181.746 125.415Z" fill="black"/>
<path d="M335.164 132.448C335.239 133.518 335.207 134.199 335.356 134.838C336.94 141.621 332.436 146.019 325.479 144.404C323.18 143.87 321.639 142.76 321.875 139.93C322.178 136.298 321.936 132.636 324.616 129.599C326.576 127.377 328.797 125.375 331.8 125.975C334.794 126.573 334.699 129.625 335.164 132.448Z" fill="black"/>
<path d="M238.314 153.755C239.869 153.13 241.203 152.281 242.338 153.495C243.498 154.735 242.576 156.024 241.89 157.128C239.728 160.609 237.547 164.105 231.75 165.801C233.95 160.986 233.674 156.439 238.314 153.755Z" fill="black"/>
<path d="M294.758 153.452C301.52 151.766 304.293 153.198 307.804 160.616C302.495 158.836 297.25 159.152 294.758 153.452Z" fill="black"/>
<path d="M291.901 158.669C292.843 161.136 293.719 163.239 294.627 165.423C291.012 165.357 285.668 161.178 285.199 158.115C284.832 155.717 286 154.576 288.355 155.064C290.065 155.419 291.3 156.553 291.901 158.669Z" fill="black"/>
<path d="M227.85 152.516C229.458 152.666 230.923 152.019 231.98 153.849C228.99 157.74 224.661 158.708 218.945 159.999C221.035 155.279 223.071 152.587 227.85 152.516Z" fill="black"/>
<path d="M211.391 119.589C210.528 118.628 209.65 118.011 209.916 116.414C213.822 117.328 216.677 120.131 220.089 121.91C216.886 122.782 214.232 121.433 211.391 119.589Z" fill="black"/>
<path d="M238.249 426.982C238.965 423.631 237.946 420.196 240.978 417.957C243.019 420.112 243.019 420.112 238.395 433.598C237.161 431.495 237.57 429.44 238.249 426.982Z" fill="black"/>
<path d="M288.081 424.064C286.599 422.027 286.177 420.224 287.691 417.473C290.218 420.584 290.463 424.119 291.232 427.33C291.62 428.946 290.103 429.422 288.837 429.629C286.746 427.893 289.273 426.002 288.081 424.064Z" fill="black"/>
<path d="M502.62 355.246C501.576 358.825 502.539 361.925 502.81 365.054C503.102 368.426 502.52 371.695 501.277 374.822C500.497 376.783 499.144 378.203 496.872 378.36C494.587 378.518 493.196 377.185 492.027 375.434C489.121 371.081 489.932 366.444 491.316 361.966C492.685 357.538 494.498 353.234 496.331 348.968C497.315 346.678 498.716 344.018 501.789 345.03C504.977 346.08 503.961 349.065 503.656 351.47C503.511 352.612 503.053 353.714 502.62 355.246Z" fill="black"/>
</g>
<defs>
<clipPath id="clip0_1433_45">
<rect width="528" height="496" fill="white" transform="translate(0 0.5)"/>
</clipPath>
</defs>
</svg>
