<svg width="300" height="300" viewBox="0 0 300 300" fill="none" xmlns="http://www.w3.org/2000/svg">
<g clip-path="url(#clip0_1306_3736)">
<path d="M140.628 267.596C140.628 267.596 133.533 282.213 133.045 288.581C132.56 294.949 127.283 295.298 126.556 295.373C119.885 296.064 122.875 287.27 122.875 287.27C122.875 287.27 122.091 290.74 117.277 291.004C109.925 291.41 114.85 285 114.85 285C114.85 285 110.727 287.972 108.301 286.029C105.874 284.087 104.602 279.783 105.329 279.238C105.532 279.084 106.48 277.916 108.603 276.843C114.038 274.092 123.969 269.834 125.102 269.05C126.681 267.959 127.165 257.102 127.165 257.102L128.074 252.551L139.477 250.973L140.628 267.596Z" fill="#638C53" stroke="black" stroke-width="0.1461" stroke-miterlimit="10"/>
<path d="M158.617 267.596C158.617 267.596 165.712 282.213 166.2 288.581C166.685 294.949 171.962 295.298 172.689 295.373C179.36 296.064 176.37 287.27 176.37 287.27C176.37 287.27 177.154 290.74 181.968 291.004C189.32 291.41 184.395 285 184.395 285C184.395 285 188.518 287.972 190.944 286.029C193.371 284.087 194.643 279.783 193.916 279.238C193.713 279.084 192.765 277.916 190.642 276.843C185.207 274.092 175.276 269.834 174.143 269.05C172.564 267.959 172.08 257.102 172.08 257.102L171.171 252.551L159.768 250.973L158.617 267.596Z" fill="#638C53" stroke="black" stroke-width="0.1461" stroke-miterlimit="10"/>
<path d="M121.317 169.814L126.983 236.047L125.651 255.215C125.651 255.215 130.989 262.007 142.997 253.394C137.877 233.136 137.902 221.006 137.902 221.006C137.902 221.006 135.233 186.313 150.213 184.734C164.812 183.198 162.161 223.917 162.161 223.917L157.187 253.636C157.187 253.636 162.525 260.916 174.291 255.699C173.233 248.419 173.443 234.226 173.443 234.226L177.933 170.783C177.933 170.783 182.177 165.499 182.786 152.129C183.396 138.759 125.408 143.128 125.408 143.128L117.508 153.105C117.508 153.105 116.136 159.142 121.317 169.814Z" fill="#4E7789" stroke="black" stroke-width="0.1461" stroke-miterlimit="10"/>
<path d="M111.453 91.3363C111.453 91.3363 118.455 98.4417 120.996 101.984C121.359 102.49 121.63 102.925 121.78 103.252C125.475 100.437 127.97 96.3393 127.97 96.3393C127.97 96.3393 128.105 109.214 127.332 114.627C124.966 117.538 114.186 134.96 117.187 153.112C131.697 153.885 133.746 148.426 142.622 147.378C147.294 146.836 153.58 146.583 162.314 148.928C168.004 150.457 179.464 155.296 182.012 153.564C184.514 147.923 181.649 127.633 172.822 115.899C170.73 103.527 171.914 97.3371 171.914 97.3371C171.914 97.3371 177.554 103.252 177.829 103.341C178.103 103.434 182.24 96.9736 188.337 91.5145C188.612 90.1497 175.374 77.9593 175.374 77.9593C175.374 77.9593 165.585 69.1861 157.924 68.5233C150.262 67.8605 138.343 69.1327 138.343 69.1327C138.343 69.1327 128.493 74.2818 124.242 77.9593C119.866 81.7365 111.453 91.3363 111.453 91.3363Z" fill="#252164" stroke="black" stroke-width="0.1461" stroke-miterlimit="10"/>
<path d="M86.0164 136.459C86.0164 136.459 93.5174 130.448 100.616 123.307C107.714 116.169 120.988 101.98 120.988 101.98C120.988 101.98 115.404 94.5324 113.127 93.0678C110.85 91.6033 75.736 130.362 75.736 130.362C75.736 130.362 57.2847 128.182 55.3569 127.359C52.581 126.175 50.3538 129.589 50.899 130.861C51.4442 132.134 54.3555 136.777 66.0934 135.273C67.2658 135.123 64.636 136.912 64.636 136.912C64.5932 136.987 53.8531 146.074 50.1222 147.463C46.4947 148.814 48.4403 154.515 52.5346 153.97C56.629 153.425 65.7264 143.462 66.0008 143.187C66.2752 142.913 57.1065 155.506 56.7216 157.925C56.2228 161.065 60.6343 163.203 63.4529 159.016C66.2716 154.832 73.5516 145.279 73.2773 145.368C73.0029 145.461 65.452 160.199 66.3642 162.291C67.2765 164.382 68.9121 166.111 71.4599 164.746C74.0078 163.381 77.9667 148.115 77.6923 148.204C77.4179 148.297 76.9654 162.879 76.9654 162.879C76.9654 162.879 78.6473 167.062 81.9221 164.062C83.3795 164.108 85.1612 141.192 85.1078 141.27L86.0164 136.459Z" fill="#638C53" stroke="black" stroke-width="0.1461" stroke-miterlimit="10"/>
<path d="M213.362 136.858C213.362 136.858 205.861 130.846 198.763 123.705C191.664 116.564 178.391 102.378 178.391 102.378C178.391 102.378 183.974 94.9308 186.252 93.4663C188.525 92.0017 223.646 130.761 223.646 130.761C223.646 130.761 242.097 128.58 244.025 127.757C246.801 126.574 249.028 129.988 248.483 131.26C247.938 132.532 245.026 137.175 233.289 135.671C232.116 135.522 234.746 137.31 234.746 137.31C234.789 137.385 245.529 146.472 249.26 147.862C252.887 149.212 250.942 154.914 246.847 154.369C242.753 153.823 233.656 143.86 233.381 143.586C233.107 143.311 242.275 155.904 242.66 158.324C243.159 161.463 238.748 163.601 235.929 159.414C233.11 155.231 225.83 145.677 226.105 145.766C226.379 145.859 233.93 160.597 233.018 162.689C232.109 164.781 230.47 166.509 227.922 165.144C225.374 163.779 221.415 148.514 221.69 148.603C221.964 148.692 222.417 163.277 222.417 163.277C222.417 163.277 220.735 167.46 217.46 164.46C216.002 164.506 214.221 141.59 214.274 141.669L213.362 136.858Z" fill="#638C53" stroke="black" stroke-width="0.1461" stroke-miterlimit="10"/>
<path d="M124.726 16.8482C124.726 16.8482 121.815 17.3328 121.693 24.9764C121.693 24.9764 108.348 38.3213 123.999 52.6356C139.649 66.9498 141.224 63.9173 141.224 63.9173L141.577 66.4616L143.042 77.0164L150.076 86.3561L156.989 77.2587L158.568 64.3984C158.568 64.3984 179.068 53.6012 181.737 45.8366C184.406 38.0719 178.462 25.4574 178.462 25.4574C178.462 25.4574 179.189 21.0887 175.187 16.8447C171.186 12.6006 175.308 -2.68639 154.445 0.588381C153.255 0.787932 150.675 2.48768 149.855 3.19323C148.843 2.51262 147.507 1.20129 146.448 0.937595C142.846 0.0467425 140.505 -0.733644 133.335 1.19416C127.356 2.80839 124.726 16.8482 124.726 16.8482Z" fill="#638C53" stroke="black" stroke-width="0.1461" stroke-miterlimit="10"/>
<path d="M138.063 68.2252C137.824 68.5316 137.593 69.1053 137.379 69.875C136.427 73.2888 135.857 80.4833 136.973 84.4209C139.567 81.5559 141.341 80.9644 141.341 80.9644C141.341 80.9644 149.523 86.5375 150.025 86.1491C150.528 85.7607 143.568 78.0566 143.002 75.801C142.389 73.3672 141.573 66.4648 141.573 66.4648C141.573 66.4648 139.357 66.5646 138.063 68.2252Z" fill="white" stroke="black" stroke-width="0.1461" stroke-miterlimit="10"/>
<path d="M138.063 68.2252C137.824 68.5316 137.593 69.1053 137.379 69.875C136.427 73.2888 135.857 80.4833 136.973 84.4209C139.567 81.5559 141.341 80.9644 141.341 80.9644C141.341 80.9644 149.523 86.5375 150.025 86.1491C150.528 85.7607 143.568 78.0566 143.002 75.801C142.389 73.3672 141.573 66.4648 141.573 66.4648C141.573 66.4648 139.357 66.5646 138.063 68.2252Z" fill="#252164" stroke="black" stroke-width="0.1461" stroke-miterlimit="10"/>
<path d="M161.684 68.2252C161.922 68.5316 162.154 69.1053 162.368 69.875C163.319 73.2888 163.889 80.4833 162.774 84.4209C160.18 81.5559 158.405 80.9644 158.405 80.9644C158.405 80.9644 150.224 86.5375 149.721 86.1491C149.219 85.7607 156.178 78.0566 156.745 75.801C157.358 73.3672 158.174 66.4648 158.174 66.4648C158.174 66.4648 160.39 66.5646 161.684 68.2252Z" fill="#252164" stroke="black" stroke-width="0.1461" stroke-miterlimit="10"/>
<path d="M128.109 20.7264C128.109 20.7264 133.447 30.2479 148.61 21.8774C148.763 20.5126 144.031 11.5649 136.177 12.6589C128.323 13.7528 128.109 20.7264 128.109 20.7264Z" fill="white" stroke="black" stroke-width="0.1461" stroke-miterlimit="10"/>
<path d="M171.004 20.7264C171.004 20.7264 165.666 30.2479 150.504 21.8774C150.35 20.5126 155.083 11.5649 162.936 12.6589C170.794 13.7528 171.004 20.7264 171.004 20.7264Z" fill="white" stroke="black" stroke-width="0.1461" stroke-miterlimit="10"/>
<path d="M162.023 23.9169C164.56 23.9169 166.616 21.8605 166.616 19.3237C166.616 16.7869 164.56 14.7305 162.023 14.7305C159.486 14.7305 157.43 16.7869 157.43 19.3237C157.43 21.8605 159.486 23.9169 162.023 23.9169Z" fill="black" stroke="black" stroke-width="0.1461" stroke-miterlimit="10"/>
<path d="M137.234 23.5341C139.771 23.5341 141.827 21.4777 141.827 18.9409C141.827 16.4041 139.771 14.3477 137.234 14.3477C134.697 14.3477 132.641 16.4041 132.641 18.9409C132.641 21.4777 134.697 23.5341 137.234 23.5341Z" fill="black" stroke="black" stroke-width="0.1461" stroke-miterlimit="10"/>
<path d="M160.484 19.2805C161.338 19.2805 162.031 18.5881 162.031 17.734C162.031 16.8799 161.338 16.1875 160.484 16.1875C159.63 16.1875 158.938 16.8799 158.938 17.734C158.938 18.5881 159.63 19.2805 160.484 19.2805Z" fill="white" stroke="white" stroke-width="0.1461" stroke-miterlimit="10"/>
<path d="M135.656 19.2805C136.51 19.2805 137.202 18.5881 137.202 17.734C137.202 16.8799 136.51 16.1875 135.656 16.1875C134.802 16.1875 134.109 16.8799 134.109 17.734C134.109 18.5881 134.802 19.2805 135.656 19.2805Z" fill="white" stroke="white" stroke-width="0.1461" stroke-miterlimit="10"/>
<path d="M123.929 36.1094H149.25L175.452 36.3838C175.452 36.3838 178.363 37.3851 176.635 40.3855C174.907 43.3894 170.328 48.2107 148.552 45.6629C141.942 45.8446 129.263 48.8771 122.592 40.6599C121.017 36.8684 123.929 36.1094 123.929 36.1094Z" fill="#9F5E44" stroke="black" stroke-width="0.1461" stroke-miterlimit="10"/>
<path d="M149.656 21.582C150.415 21.9633 153.658 23.6916 154.207 26.92C154.274 27.3262 154.31 27.7931 154.267 28.3133" stroke="black" stroke-width="0.1461" stroke-miterlimit="10"/>
<path d="M175.255 24.9453C175.255 24.9453 173.252 28.4802 167.188 28.8472" stroke="black" stroke-width="0.1461" stroke-miterlimit="10"/>
<path d="M179.667 34.5534C179.667 34.5534 179 33.2206 177.664 32.6719" stroke="black" stroke-width="0.1461" stroke-miterlimit="10"/>
<path d="M173.059 13.813C173.059 13.813 161.717 2.41008 151.102 14.7217" stroke="black" stroke-width="0.1461" stroke-miterlimit="10"/>
<path d="M158.932 4.77516C158.932 4.77516 152.386 4.55779 149.656 9.00493" stroke="black" stroke-width="0.1461" stroke-miterlimit="10"/>
<path d="M149.656 3.01172V21.9976" stroke="black" stroke-width="0.1461" stroke-miterlimit="10"/>
<path d="M149.692 21.582C148.933 21.9633 145.69 23.6916 145.142 26.92C145.074 27.3262 145.038 27.7931 145.081 28.3133" stroke="black" stroke-width="0.1461" stroke-miterlimit="10"/>
<path d="M124.102 24.9453C124.102 24.9453 126.104 28.4802 132.169 28.8472" stroke="black" stroke-width="0.1461" stroke-miterlimit="10"/>
<path d="M119.664 34.5534C119.664 34.5534 120.33 33.2206 121.667 32.6719" stroke="black" stroke-width="0.1461" stroke-miterlimit="10"/>
<path d="M126.273 13.813C126.273 13.813 137.616 2.41008 148.231 14.7217" stroke="black" stroke-width="0.1461" stroke-miterlimit="10"/>
<path d="M140.414 4.77516C140.414 4.77516 146.96 4.55779 149.69 9.00493" stroke="black" stroke-width="0.1461" stroke-miterlimit="10"/>
<path d="M149.695 3.01172V21.9976" stroke="black" stroke-width="0.1461" stroke-miterlimit="10"/>
<path d="M126.773 39.4727C126.773 39.4727 133.384 43.7024 149.394 40.3386C159.81 44.2512 172.535 39.4727 172.535 39.4727" stroke="black" stroke-width="0.1461" stroke-miterlimit="10"/>
</g>
<defs>
<clipPath id="clip0_1306_3736">
<rect width="300" height="300" fill="white"/>
</clipPath>
</defs>
</svg>
