<svg width="300" height="300" viewBox="0 0 300 300" fill="none" xmlns="http://www.w3.org/2000/svg">
<g clip-path="url(#clip0_1306_1814)">
<path d="M49.7777 113.781C49.7777 113.781 41.9061 117.703 40.044 122.113C39.8097 122.5 40.5167 124.789 42.0376 123.634C43.6695 123.309 46.1317 120.642 46.1317 120.642L50.0654 116.075L49.7777 113.781Z" fill="#252164" stroke="black" stroke-width="0.1461" stroke-miterlimit="10"/>
<path d="M250.217 113.285C250.217 113.285 258.089 117.207 259.951 121.617C260.185 122.004 259.478 124.293 257.958 123.138C256.326 122.813 253.863 120.146 253.863 120.146L249.93 115.579L250.217 113.285Z" fill="#252164" stroke="black" stroke-width="0.1461" stroke-miterlimit="10"/>
<path d="M145.523 8.1749C145.523 8.1749 147.254 -1.36974 151.192 0.1676C155.13 1.70494 155.039 9.36284 155.039 9.36284C155.039 9.36284 153.079 14.0488 151.611 13.6994C150.144 13.35 147.973 11.3893 147.484 11.1098C146.991 10.8344 145.523 8.1749 145.523 8.1749Z" fill="#858AC4" stroke="black" stroke-width="0.1461" stroke-miterlimit="10"/>
<path d="M126.909 77.1644C126.909 77.1644 114.035 61.2115 93.4658 84.3003C88.9894 83.4617 91.7845 72.4044 91.7845 72.4044C91.7845 72.4044 83.5265 76.6012 80.8012 84.5798C80.2216 85.3032 75.5521 81.9901 76.1152 69.4654C72.5637 70.3574 66.1595 77.5754 65.6211 81.3612C64.0138 83.3219 62.2628 67.2292 65.062 66.5263C62.0531 69.4654 57.5768 76.8808 54.9173 75.9025C52.2577 74.9241 57.6466 71.9851 56.1052 70.1642C54.5679 68.3432 45.7508 76.8808 44.4889 77.3C43.231 77.7193 40.5715 78.6277 44.9081 71.6316C49.2447 64.6355 69.5343 58.2683 71.9143 58.8273C77.1799 58.7904 97.2639 59.1439 102.838 58.5807C110.833 57.7751 118.634 55.169 124.669 55.6088C130.493 56.324 132.997 57.7093 134.168 58.6876C135.34 59.6659 137.683 60.2249 136.565 58.4081C135.447 56.5871 124.948 52.2505 125.511 39.5161C125.721 30.2099 127.961 32.7995 127.891 29.7207C127.612 28.1135 128.87 22.7246 128.87 22.7246C128.87 22.7246 130.818 13.217 134.037 10.278C137.255 7.33893 141.271 6.87855 145.398 7.54857C148.485 7.81164 150.47 10.8288 150.47 10.8288C150.47 10.8288 152.805 7.67599 155.736 7.41703C159.551 7.04708 164.29 6.54971 168.355 12.5346C170.596 18.2729 171.767 21.2983 171.348 22.9754C171.241 23.2384 173.736 23.8427 172.947 30.8388C172.791 30.1112 181.378 50.9886 164.446 57.8449C164.011 58.8602 164.294 58.7246 164.393 59.1562C164.607 60.1098 166.859 58.3711 166.859 58.3711C166.859 58.3711 172.277 55.5389 176.77 55.6417C186.166 55.8554 189.779 58.0957 198.272 58.9671C208.314 59.9988 225.344 58.3505 227.991 58.8972C234.584 60.2619 247.668 64.1464 252.707 68.483C257.747 72.8196 259.177 78.1715 255.959 77.0534C252.74 75.9353 244.326 67.9404 244.466 70.1806C244.606 72.4208 248.56 75.5859 245.621 76.0052C242.682 76.4245 236.282 67.9239 236.282 67.9239C236.282 67.9239 239.011 77.9454 234.864 81.6736C234.707 79.8362 233.815 73.8554 225.155 69.2886C221.952 69.8148 229.039 78.6812 219.486 84.9785C215.483 76.2149 208.548 71.644 208.762 71.981C208.98 72.3181 211.873 75.6887 207.73 84.7154C204.372 84.2961 197.585 70.4601 186.109 71.8577C174.636 73.2553 173.411 76.3176 173.411 76.3176C173.411 76.3176 180.074 110.53 170.419 126.4C172.519 132.151 170.908 151.812 169.021 162.376C168.742 171.123 169.51 175.809 169.51 175.809C169.51 175.809 169.091 192.67 167.973 196.028C166.855 199.387 166.995 209.811 164.755 214.571C162.514 219.327 174.899 226.886 174.899 226.886C174.899 226.886 179.515 228.637 177.14 230.175C174.764 231.712 170.148 228.773 168.956 229.825C168.536 232.485 172.943 235.424 171.126 238.363C167.488 241.651 163.221 230.388 159.863 230.388C157.204 231.716 151.083 234.865 150.47 232.768C149.858 230.672 156.155 228.222 155.876 220.942C156.994 212.758 158.256 212.898 159.374 205.409C155.666 188.128 159.501 179.586 157.343 176.232C154.824 172.315 154.096 163.161 154.195 164.406C154.293 165.656 152.448 142.822 152.374 141.457C152.263 139.377 150.766 136.278 150.38 136.278C147.963 136.278 147.055 152.999 147.055 152.999C147.055 152.999 146.775 169.511 145.373 170.629C144.88 171.024 144.07 174.115 142.993 176.647C141.921 179.175 142.969 194.096 142.155 200.435C140.897 210.23 141.316 209.392 143.976 219.187C146.635 228.982 147.083 228.691 148.871 230.66C152.37 234.507 144.062 232.678 143.976 232.62L140.338 229.961C140.338 229.961 137.958 232.76 135.019 235.979C132.08 239.197 128.783 239.016 128.783 237.619C128.783 236.221 132.569 231.013 131.241 228.633C128.652 228.843 127.768 231.843 124.036 230.384C120.143 228.863 126.346 226.746 123.966 227.305C123.966 227.305 134.74 222.619 135.722 216.741C135.442 208.977 132.224 206.177 133.202 194.701C131.032 186.163 128.726 177.21 131.381 173.009C134.041 168.813 129.844 149.501 129.844 149.501C129.844 149.501 127.641 131.436 130.403 127.81C130.613 126.902 127.768 124.772 125.799 117.476C123.826 110.18 124.558 102.271 125.088 96.6072C125.618 90.9511 126.909 77.1644 126.909 77.1644Z" fill="#252164" stroke="black" stroke-width="0.1461" stroke-miterlimit="10"/>
<path d="M135.934 59.8114C135.934 59.8114 128.519 63.5889 129.776 81.1491C133.172 75.6903 135.305 75.5506 135.305 75.5506C135.305 75.5506 130.759 85.2062 135.026 93.1107C136.53 86.6736 139.712 86.1146 139.712 86.1146C139.712 86.1146 138.03 95.4907 143 100.316C143.526 96.2594 145.17 95.5606 145.17 95.5606C145.17 95.5606 147.9 102.766 150.263 105.076C150.699 104.131 154.756 98.29 155.106 95.6305C155.911 96.506 158.324 100.037 157.625 100.526C156.926 101.015 162.451 94.7179 160.914 85.6912C162.488 86.0776 165.6 92.897 165.6 92.897C165.6 92.897 169.377 84.569 165.6 75.826C168.119 76.2822 170.709 80.9353 170.709 80.9353C170.709 80.9353 172.53 62.7422 164.761 59.8072C156.992 56.8723 135.934 59.8114 135.934 59.8114Z" fill="#5C60AB" stroke="black" stroke-width="0.1461" stroke-miterlimit="10"/>
<path d="M136.641 57.6838V60.4461C136.641 60.4461 146.995 64.5032 164.066 60.0597C164.276 58.8019 163.819 57.6797 163.819 57.6797C163.819 57.6797 146.576 61.3956 136.641 57.6838Z" fill="#858AC4" stroke="black" stroke-width="0.1461" stroke-miterlimit="10"/>
<path d="M147.058 42.8516C147.058 42.8516 149.089 48.0637 144.995 58.0358C142.023 64.4359 145.554 65.3115 145.554 65.3115C145.554 65.3115 149.578 67.0255 150.277 60.7981C150.527 58.9443 150.523 64.4729 152.131 65.2046C152.727 65.6773 157.31 65.8335 156.714 61.8463C156.118 57.8591 151.674 48.9721 153.388 44.7753C153.446 43.0941 153.446 43.0941 153.446 43.0941L147.058 42.8516Z" fill="#858AC4" stroke="black" stroke-width="0.1461" stroke-miterlimit="10"/>
<path d="M152.695 24.6853C152.695 24.6853 162.561 12.7196 169.277 24.6853C163.559 32.6104 152.695 24.6853 152.695 24.6853Z" fill="white" stroke="black" stroke-width="0.1461" stroke-miterlimit="10"/>
<path d="M147.762 24.6853C147.762 24.6853 137.896 12.7196 131.18 24.6853C136.902 32.6104 147.762 24.6853 147.762 24.6853Z" fill="white" stroke="black" stroke-width="0.1461" stroke-miterlimit="10"/>
<path d="M160.981 27.1607C162.981 27.1607 164.602 25.5394 164.602 23.5393C164.602 21.5393 162.981 19.918 160.981 19.918C158.981 19.918 157.359 21.5393 157.359 23.5393C157.359 25.5394 158.981 27.1607 160.981 27.1607Z" fill="black" stroke="black" stroke-width="0.1461" stroke-miterlimit="10"/>
<path d="M159.734 22.9213C160.209 22.9213 160.593 22.5367 160.593 22.0622C160.593 21.5878 160.209 21.2031 159.734 21.2031C159.26 21.2031 158.875 21.5878 158.875 22.0622C158.875 22.5367 159.26 22.9213 159.734 22.9213Z" fill="white" stroke="white" stroke-width="0.1461" stroke-miterlimit="10"/>
<path d="M139.457 27.4107C141.457 27.4107 143.079 25.7894 143.079 23.7893C143.079 21.7893 141.457 20.168 139.457 20.168C137.457 20.168 135.836 21.7893 135.836 23.7893C135.836 25.7894 137.457 27.4107 139.457 27.4107Z" fill="black" stroke="black" stroke-width="0.1461" stroke-miterlimit="10"/>
<path d="M138.234 23.187C138.709 23.187 139.093 22.8023 139.093 22.3278C139.093 21.8534 138.709 21.4688 138.234 21.4688C137.76 21.4688 137.375 21.8534 137.375 22.3278C137.375 22.8023 137.76 23.187 138.234 23.187Z" fill="white" stroke="white" stroke-width="0.1461" stroke-miterlimit="10"/>
<path d="M150.066 45.6664C150.066 45.6664 142.721 44.199 139.153 41.9916C135.585 39.7884 135.531 36.2204 135.531 36.2204L151.221 30.6055L160.721 32.0195L165.008 35.719C165.008 35.719 164.552 39.0896 161.719 41.6258C158.887 44.162 150.066 45.6664 150.066 45.6664Z" fill="white" stroke="black" stroke-width="0.1461" stroke-miterlimit="10"/>
<path d="M150.176 23.5838C145.926 28.9891 135.321 29.7742 135.534 36.2319C138.001 35.9153 140.574 34.2917 144.191 35.6029C147.813 36.9142 147.496 40.8521 150.645 40.589C154.213 39.9067 152.638 36.4949 157.468 35.2905C162.298 34.0862 164.789 37.0745 165.155 35.6071C165.521 34.1396 164.76 31.7761 158.677 29.0467C151.907 27.0448 150.386 22.6918 150.176 23.5838Z" fill="white" stroke="black" stroke-width="0.1461" stroke-miterlimit="10"/>
<path d="M130.758 17.6585C130.758 17.6585 136.846 11.0981 145.4 16.5568" stroke="black" stroke-width="0.1461" stroke-miterlimit="10"/>
<path d="M129.363 23.0703C129.363 23.0703 128.681 24.5378 131.463 24.6981" stroke="black" stroke-width="0.1461" stroke-miterlimit="10"/>
<path d="M127.884 29.9922C127.884 29.9922 127.567 30.6211 128.566 31.9858" stroke="black" stroke-width="0.1461" stroke-miterlimit="10"/>
<path d="M130.141 126.41C130.141 126.41 134.074 135.836 150.134 136.255" stroke="black" stroke-width="0.1461" stroke-miterlimit="10"/>
<path d="M169.845 17.6585C169.845 17.6585 163.757 11.0981 155.203 16.5568" stroke="black" stroke-width="0.1461" stroke-miterlimit="10"/>
<path d="M171.257 23.0703C171.257 23.0703 171.939 24.5378 169.156 24.6981" stroke="black" stroke-width="0.1461" stroke-miterlimit="10"/>
<path d="M172.737 29.9922C172.737 29.9922 173.054 30.6211 172.055 31.9858" stroke="black" stroke-width="0.1461" stroke-miterlimit="10"/>
<path d="M170.47 126.41C170.47 126.41 166.536 135.836 150.477 136.255" stroke="black" stroke-width="0.1461" stroke-miterlimit="10"/>
<path d="M169.465 185.266C169.465 185.266 169.116 192.681 167.998 196.039C166.88 199.398 167.019 209.822 164.779 214.582C162.539 219.338 174.924 226.897 174.924 226.897C174.924 226.897 179.54 228.648 177.164 230.185C174.788 231.723 170.172 228.784 168.98 229.836C168.561 232.496 172.967 235.435 171.15 238.374C167.513 241.662 163.246 230.399 159.888 230.399C157.228 231.727 151.108 234.876 150.495 232.779C149.883 230.683 156.18 228.233 155.9 220.953C157.019 212.769 157.931 212.839 159.049 205.35C158.49 199.541 157.721 192.895 158.001 189.467C161.211 189.043 169.465 185.266 169.465 185.266Z" fill="#5C60AB" stroke="black" stroke-width="0.1461" stroke-miterlimit="10"/>
<path d="M142.172 200.439C140.914 210.234 141.333 209.396 143.993 219.191C146.653 228.986 147.101 228.695 148.889 230.664C152.387 234.511 144.079 232.682 143.993 232.624L140.355 229.965C140.355 229.965 137.975 232.764 135.036 235.983C132.097 239.201 128.8 239.02 128.8 237.623C128.8 236.225 132.586 231.017 131.259 228.637C128.669 228.847 127.785 231.847 124.053 230.388C120.16 228.867 126.363 226.75 123.983 227.309C123.983 227.309 134.757 222.623 135.739 216.745C135.46 208.981 132.241 206.181 133.219 194.705C132.701 192.662 131.09 185.736 131.822 185.329C132.796 185.279 138.189 188.966 142.456 189.176C143.623 191.437 142.369 198.91 142.172 200.439Z" fill="#5C60AB" stroke="black" stroke-width="0.1461" stroke-miterlimit="10"/>
</g>
<defs>
<clipPath id="clip0_1306_1814">
<rect width="300" height="300" fill="white"/>
</clipPath>
</defs>
</svg>
