<svg width="300" height="300" viewBox="0 0 300 300" fill="none" xmlns="http://www.w3.org/2000/svg">
<g clip-path="url(#clip0_1306_3371)">
<path d="M132.046 81.2392L131.137 84.0578C131.137 84.0578 112.038 103.535 108.848 107.623C105.655 111.71 91.4089 124.168 89.8339 125.817C86.1957 129.637 86.5591 130.001 86.5591 130.001C86.5591 130.001 86.2848 149.379 83.9222 152.383C81.5597 155.387 79.6461 151.745 79.6461 151.745L80.5548 138.279C80.5548 138.279 77.5508 151.745 75.1883 153.11C72.8222 154.474 69.7292 153.11 70.0035 150.925C70.2779 148.741 76.1896 135.46 76.1896 135.46L66.4473 149.382C66.4473 149.382 60.0794 150.02 60.6246 147.109C61.1698 144.198 71.4503 132.641 71.4503 132.641L59.0781 142.284C59.0781 142.284 55.8924 144.376 53.7116 142.284C51.5308 140.192 53.7116 137.188 55.7499 136.917C57.7882 136.647 69.4512 126.637 69.4512 126.637C69.4512 126.637 58.4438 127.182 56.2595 122.503C54.0751 117.825 59.6269 118.537 59.8977 118.448C60.1008 118.381 65.0647 120.426 71.8173 120.903C74.162 121.071 76.5531 121.862 79.3682 120.996C82.4434 120.048 87.5854 113.994 91.7403 110.595C93.5541 109.112 104.615 97.8233 107.843 94.0639C111.072 90.3045 125.636 71.846 127.585 70.2282C132.406 66.2265 136.593 67.8621 136.593 67.8621L132.046 81.2392Z" fill="#588B3F" stroke="black" stroke-width="0.1461" stroke-miterlimit="10"/>
<path d="M164.163 81.2427L165.072 84.0614C165.072 84.0614 184.172 103.539 187.361 107.626C190.554 111.713 204.801 124.171 206.376 125.821C210.014 129.641 209.65 130.004 209.65 130.004C209.65 130.004 209.925 149.382 212.287 152.386C214.653 155.39 216.563 151.748 216.563 151.748L215.655 138.282C215.655 138.282 218.659 151.748 221.021 153.113C223.387 154.478 226.48 153.113 226.206 150.929C225.932 148.744 220.02 135.464 220.02 135.464L229.755 149.382C229.755 149.382 236.123 150.02 235.578 147.109C235.033 144.198 224.752 132.641 224.752 132.641L237.124 142.284C237.124 142.284 240.31 144.376 242.491 142.284C244.675 140.192 242.491 137.188 240.452 136.917C238.414 136.647 226.751 126.637 226.751 126.637C226.751 126.637 237.759 127.182 239.943 122.503C242.127 117.825 236.575 118.537 236.305 118.448C236.102 118.381 231.138 120.426 224.385 120.904C222.04 121.071 219.649 121.862 216.834 120.996C213.759 120.048 208.617 113.994 204.462 110.595C202.648 109.112 191.587 97.8233 188.359 94.0639C185.131 90.3045 170.567 71.846 168.618 70.2282C163.796 66.2265 159.609 67.8621 159.609 67.8621L164.163 81.2427Z" fill="#588B3F" stroke="black" stroke-width="0.1461" stroke-miterlimit="10"/>
<path d="M150.052 92.804C150.052 92.804 164.249 89.4686 164.883 86.9992C165.517 84.5297 165.339 95.8079 164.883 79.9757C164.427 64.1434 150.508 67.4218 150.508 67.4218L135.132 68.2414C135.132 68.2414 128.49 76.9753 130.4 80.7953C132.31 84.6152 130.856 78.9174 131.127 86.9992C131.401 95.0774 150.052 92.804 150.052 92.804Z" fill="#588B3F"/>
<path d="M140.867 70.236L140.051 60.1373C140.051 60.1373 117.21 49.1299 116.846 38.2116C116.483 27.2933 121.76 23.6551 121.76 23.6551C121.76 23.6551 119.85 19.4716 124.49 15.6481C125.43 15.6481 125.733 1.54769 137.5 0.364635C147.053 0.122323 148.115 3.48975 148.115 3.48975C148.115 3.48975 151.147 -2.48609 162.258 1.20204C172.752 6.54003 171.163 15.7443 171.163 15.7443C171.163 15.7443 174.074 14.5613 174.531 23.6587C176.776 27.0546 184.084 37.7306 173.38 48.6809C165.433 54.475 168.01 53.1637 156.496 60.1409C156.364 61.413 154.697 70.6957 154.697 70.6957H141.266L140.867 70.236Z" fill="#588B3F" stroke="black" stroke-width="0.1461" stroke-miterlimit="10"/>
<path d="M173.71 267.567C173.984 267.749 176.985 275.663 170.524 275.663C164.064 275.663 163.7 265.928 163.43 265.839C163.155 265.746 159.335 251.101 156.969 249.643C154.603 248.186 161.063 212.431 160.336 198.056C159.61 183.681 171.526 194.87 171.707 195.145C171.889 195.419 169.434 243.365 169.159 243.09C168.885 242.816 169.961 249.896 171.433 250.687C184.853 257.875 185.637 255.954 189.642 259.55C190.854 260.636 191.816 265.565 186.902 266.837C181.988 268.109 179.714 264.107 179.714 264.107C179.714 264.107 183.263 267.336 183.082 268.839C183.581 270.749 180.445 271.751 179.169 271.751C177.897 271.754 173.71 267.567 173.71 267.567Z" fill="#588B3F" stroke="black" stroke-width="0.1461" stroke-miterlimit="10"/>
<path d="M123.128 267.024C122.854 267.206 119.854 275.12 126.314 275.12C132.775 275.12 133.138 265.385 133.409 265.296C133.683 265.203 137.503 250.558 139.869 249.1C142.235 247.643 135.775 211.888 136.502 197.513C137.229 183.138 125.313 194.327 125.131 194.602C124.949 194.876 127.405 242.822 127.679 242.547C127.953 242.273 126.877 249.353 125.406 250.144C111.986 257.332 111.202 255.411 107.196 259.007C105.985 260.094 105.023 265.022 109.937 266.294C114.851 267.566 117.124 263.564 117.124 263.564C117.124 263.564 113.575 266.793 113.757 268.297C113.258 270.206 116.394 271.208 117.669 271.208C118.945 271.211 123.128 267.024 123.128 267.024Z" fill="#588B3F" stroke="black" stroke-width="0.1461" stroke-miterlimit="10"/>
<path d="M138.451 70.235C140.008 70.235 141.27 68.973 141.27 67.4163C141.27 65.8596 140.008 64.5977 138.451 64.5977C136.895 64.5977 135.633 65.8596 135.633 67.4163C135.633 68.973 136.895 70.235 138.451 70.235Z" fill="#E95D25" stroke="black" stroke-width="0.1461" stroke-miterlimit="10"/>
<path d="M142.873 73.5123C144.43 73.5123 145.692 72.2504 145.692 70.6937C145.692 69.137 144.43 67.875 142.873 67.875C141.317 67.875 140.055 69.137 140.055 70.6937C140.055 72.2504 141.317 73.5123 142.873 73.5123Z" fill="#E95D25" stroke="black" stroke-width="0.1461" stroke-miterlimit="10"/>
<path d="M158.116 70.235C159.672 70.235 160.934 68.973 160.934 67.4163C160.934 65.8596 159.672 64.5977 158.116 64.5977C156.559 64.5977 155.297 65.8596 155.297 67.4163C155.297 68.973 156.559 70.235 158.116 70.235Z" fill="#E95D25" stroke="black" stroke-width="0.1461" stroke-miterlimit="10"/>
<path d="M153.678 73.5123C155.235 73.5123 156.497 72.2504 156.497 70.6937C156.497 69.137 155.235 67.875 153.678 67.875C152.121 67.875 150.859 69.137 150.859 70.6937C150.859 72.2504 152.121 73.5123 153.678 73.5123Z" fill="#E95D25" stroke="black" stroke-width="0.1461" stroke-miterlimit="10"/>
<path d="M148.287 75.3326C149.844 75.3326 151.106 74.0707 151.106 72.514C151.106 70.9573 149.844 69.6953 148.287 69.6953C146.731 69.6953 145.469 70.9573 145.469 72.514C145.469 74.0707 146.731 75.3326 148.287 75.3326Z" fill="#E95D25" stroke="black" stroke-width="0.1461" stroke-miterlimit="10"/>
<path d="M130.861 84.5195C130.861 84.5195 146.875 95.3452 165.615 84.9756C169.407 98.4097 164.454 104.649 164.725 104.649C164.999 104.649 186.754 118.671 175.896 157.669C180.172 194.333 188.817 200.975 188.817 200.975C188.817 200.975 174.805 215.076 149.331 203.16C117.306 214.898 108.391 201.339 108.391 201.339C108.391 201.339 117.762 178.686 117.762 178.412C117.762 178.137 120.399 156.394 120.399 156.394C120.399 156.394 109.574 128.1 127.768 107.447C129.041 106.003 130.149 104.649 131.111 103.381C126.404 94.2263 130.861 84.5195 130.861 84.5195Z" fill="#0658A8" stroke="black" stroke-width="0.1461" stroke-miterlimit="10"/>
<path d="M148.898 20.3816C148.898 20.3816 162.062 29.4184 167.973 19.562C169.466 12.8913 161.841 12.168 159.856 12.168C157.875 12.168 151.232 13.6183 149.109 20.3211" fill="white"/>
<path d="M148.898 20.3816C148.898 20.3816 162.062 29.4184 167.973 19.562C169.466 12.8913 161.841 12.168 159.856 12.168C157.875 12.168 151.232 13.6183 149.109 20.3211" stroke="black" stroke-width="0.1461" stroke-miterlimit="10"/>
<path d="M147.338 20.3816C147.338 20.3816 134.174 29.4184 128.263 19.562C126.77 12.8913 134.395 12.168 136.38 12.168C138.361 12.168 145.004 13.6183 147.127 20.3211" fill="white"/>
<path d="M147.338 20.3816C147.338 20.3816 134.174 29.4184 128.263 19.562C126.77 12.8913 134.395 12.168 136.38 12.168C138.361 12.168 145.004 13.6183 147.127 20.3211" stroke="black" stroke-width="0.1461" stroke-miterlimit="10"/>
<path d="M122.441 37.6402C122.441 37.6402 126.201 42.237 130.691 42.9069C135.181 43.5732 148.379 42.5541 148.379 42.5541C148.379 42.5541 161.746 43.2989 165.687 42.6218C169.628 41.9448 173.633 38.67 174.118 36.9738C174.603 35.2741 171.994 34.0625 171.994 34.0625H148.376L123.592 34.4865C123.592 34.4865 121.957 35.0318 122.441 37.6402Z" fill="#A55A46" stroke="black" stroke-width="0.1461" stroke-miterlimit="10"/>
<path d="M120.099 32.2329C120.099 32.2329 119.433 32.1723 122.283 30.7148" stroke="black" stroke-width="0.1461" stroke-miterlimit="10"/>
<path d="M172.048 23.5039C172.048 23.5039 171.442 26.1729 164.586 27.0816" stroke="black" stroke-width="0.1461" stroke-miterlimit="10"/>
<path d="M171.249 18.164C171.067 17.8611 171.046 19.6214 167.992 19.5608" stroke="black" stroke-width="0.1461" stroke-miterlimit="10"/>
<path d="M170.698 15.0742C170.516 15.1348 171.646 16.3677 168.047 16.7205" stroke="black" stroke-width="0.1461" stroke-miterlimit="10"/>
<path d="M169.127 13.3672C169.127 13.3672 168.942 15.2665 167.078 14.7712" stroke="black" stroke-width="0.1461" stroke-miterlimit="10"/>
<path d="M167.368 11.8278C167.233 11.7351 168.284 13.4954 164.984 13.2282" stroke="black" stroke-width="0.1461" stroke-miterlimit="10"/>
<path d="M164.579 10.2812C164.397 10.3739 164.184 12.1663 162.031 12.1663" stroke="black" stroke-width="0.1461" stroke-miterlimit="10"/>
<path d="M170.042 13.2493C170.042 13.2493 160.716 2.44865 149.891 13.7767" stroke="black" stroke-width="0.1461" stroke-miterlimit="10"/>
<path d="M156.806 4.72656C156.806 4.72656 149.893 5.36441 147.891 8.91001" stroke="black" stroke-width="0.1461" stroke-miterlimit="10"/>
<path d="M147.984 3.36328V20.7705C152.617 22.0427 152.631 26.1085 152.631 26.1085" stroke="black" stroke-width="0.1461" stroke-miterlimit="10"/>
<path d="M169.625 36.7109C169.625 36.7109 158.229 40.0784 147.984 38.8027" stroke="black" stroke-width="0.1461" stroke-miterlimit="10"/>
<path d="M147.981 89.4655C147.884 89.3408 147.703 86.5649 148.797 84.5195" stroke="black" stroke-width="0.1461" stroke-miterlimit="10"/>
<path d="M124.219 23.5039C124.219 23.5039 124.825 26.1729 131.681 27.0816" stroke="black" stroke-width="0.1461" stroke-miterlimit="10"/>
<path d="M125 18.164C125.182 17.8611 125.203 19.6214 128.257 19.5608" stroke="black" stroke-width="0.1461" stroke-miterlimit="10"/>
<path d="M125.548 15.0742C125.73 15.1348 124.6 16.3677 128.199 16.7205" stroke="black" stroke-width="0.1461" stroke-miterlimit="10"/>
<path d="M127.133 13.3672C127.133 13.3672 127.318 15.2665 129.182 14.7712" stroke="black" stroke-width="0.1461" stroke-miterlimit="10"/>
<path d="M128.908 11.8278C129.044 11.7351 127.993 13.4954 131.292 13.2282" stroke="black" stroke-width="0.1461" stroke-miterlimit="10"/>
<path d="M131.672 10.2812C131.854 10.3739 132.067 12.1663 134.22 12.1663" stroke="black" stroke-width="0.1461" stroke-miterlimit="10"/>
<path d="M126.219 13.2493C126.219 13.2493 135.544 2.44865 146.37 13.7767" stroke="black" stroke-width="0.1461" stroke-miterlimit="10"/>
<path d="M139.461 4.72656C139.461 4.72656 146.374 5.36441 148.377 8.91001" stroke="black" stroke-width="0.1461" stroke-miterlimit="10"/>
<path d="M148.28 3.36328V20.7705C143.647 22.0427 143.633 26.1085 143.633 26.1085" stroke="black" stroke-width="0.1461" stroke-miterlimit="10"/>
<path d="M126.641 36.7109C126.641 36.7109 138.036 40.0784 148.281 38.8027" stroke="black" stroke-width="0.1461" stroke-miterlimit="10"/>
<path d="M148.285 89.4655C148.381 89.3408 148.563 86.5649 147.469 84.5195" stroke="black" stroke-width="0.1461" stroke-miterlimit="10"/>
<path d="M159.297 23.1365C162.011 23.1365 164.211 20.9364 164.211 18.2225C164.211 15.5086 162.011 13.3086 159.297 13.3086C156.583 13.3086 154.383 15.5086 154.383 18.2225C154.383 20.9364 156.583 23.1365 159.297 23.1365Z" fill="black" stroke="black" stroke-width="0.1461" stroke-miterlimit="10"/>
<path d="M157.391 18.2816C158.219 18.2816 158.891 17.61 158.891 16.7814C158.891 15.9529 158.219 15.2812 157.391 15.2812C156.562 15.2812 155.891 15.9529 155.891 16.7814C155.891 17.61 156.562 18.2816 157.391 18.2816Z" fill="white" stroke="white" stroke-width="0.1461" stroke-miterlimit="10"/>
<path d="M137.086 23.0818C139.8 23.0818 142 20.8817 142 18.1679C142 15.454 139.8 13.2539 137.086 13.2539C134.372 13.2539 132.172 15.454 132.172 18.1679C132.172 20.8817 134.372 23.0818 137.086 23.0818Z" fill="black" stroke="black" stroke-width="0.1461" stroke-miterlimit="10"/>
<path d="M135.18 18.2152C136.008 18.2152 136.68 17.5436 136.68 16.715C136.68 15.8865 136.008 15.2148 135.18 15.2148C134.351 15.2148 133.68 15.8865 133.68 16.715C133.68 17.5436 134.351 18.2152 135.18 18.2152Z" fill="white" stroke="white" stroke-width="0.1461" stroke-miterlimit="10"/>
</g>
<defs>
<clipPath id="clip0_1306_3371">
<rect width="300" height="300" fill="white"/>
</clipPath>
</defs>
</svg>
