<svg width="300" height="300" viewBox="0 0 300 300" fill="none" xmlns="http://www.w3.org/2000/svg">
<g clip-path="url(#clip0_1306_1773)">
<path d="M49.7775 113.785C49.7775 113.785 41.906 117.707 40.044 122.117C39.8097 122.503 40.5167 124.793 42.0376 123.638C43.6694 123.313 46.1316 120.646 46.1316 120.646L50.0653 116.079L49.7775 113.785Z" fill="#1471B9" stroke="black" stroke-width="0.1461" stroke-miterlimit="10"/>
<path d="M250.217 113.285C250.217 113.285 258.089 117.207 259.951 121.617C260.185 122.003 259.478 124.293 257.957 123.138C256.326 122.813 253.863 120.146 253.863 120.146L249.93 115.579L250.217 113.285Z" fill="#1471B9" stroke="black" stroke-width="0.1461" stroke-miterlimit="10"/>
<path d="M145.531 8.17477C145.531 8.17477 147.262 -1.36971 151.2 0.167597C155.137 1.70491 155.047 9.36269 155.047 9.36269C155.047 9.36269 153.086 14.0486 151.619 13.6992C150.151 13.3498 147.981 11.3891 147.492 11.1096C146.999 10.8342 145.531 8.17477 145.531 8.17477Z" fill="#0A4D7D" stroke="black" stroke-width="0.1461" stroke-miterlimit="10"/>
<path d="M126.909 77.1648C126.909 77.1648 114.035 61.2118 93.4661 84.3007C88.9897 83.4622 91.7848 72.4048 91.7848 72.4048C91.7848 72.4048 83.5267 76.6017 80.8015 84.5802C80.2219 85.3037 75.5523 81.9906 76.1154 69.4658C72.5639 70.3577 66.1597 77.5759 65.6212 81.3617C64.014 83.3224 62.2629 67.2296 65.0622 66.5267C62.0532 69.4657 57.5769 76.8812 54.9173 75.9029C52.2578 74.9246 57.6467 71.9855 56.1053 70.1645C54.5679 68.3436 45.7508 76.8812 44.4889 77.3005C43.231 77.7197 40.5715 78.6282 44.9081 71.632C49.2448 64.6359 69.5344 58.2686 71.9144 58.8277C77.1801 58.7907 97.2642 59.1442 102.838 58.581C110.833 57.7754 118.635 55.1693 124.669 55.6091C130.494 56.3243 132.997 57.7096 134.169 58.6879C135.34 59.6662 137.683 60.2252 136.565 58.4084C135.447 56.5874 124.949 52.2508 125.512 39.5163C125.722 30.21 127.962 32.7997 127.892 29.7209C127.612 28.1136 128.87 22.7247 128.87 22.7247C128.87 22.7247 130.819 13.217 134.037 10.278C137.256 7.33893 141.272 6.87855 145.399 7.54857C148.486 7.81164 150.471 10.8288 150.471 10.8288C150.471 10.8288 152.806 7.676 155.737 7.41703C159.551 7.04708 164.291 6.54971 168.356 12.5347C170.596 18.273 171.768 21.2984 171.349 22.9755C171.242 23.2385 173.737 23.8428 172.948 30.8389C172.791 30.1114 181.378 50.9888 164.447 57.8452C164.011 58.8605 164.295 58.7249 164.394 59.1565C164.607 60.1101 166.86 58.3714 166.86 58.3714C166.86 58.3714 172.278 55.5392 176.77 55.642C186.167 55.8557 189.78 58.096 198.273 58.9674C208.315 59.9992 225.345 58.3508 227.992 58.8975C234.585 60.2622 247.669 64.1467 252.709 68.4833C257.748 72.82 259.179 78.1719 255.96 77.0538C252.742 75.9358 244.327 67.9407 244.467 70.181C244.607 72.4212 248.561 75.5863 245.622 76.0056C242.683 76.4249 236.283 67.9243 236.283 67.9243C236.283 67.9243 239.012 77.9458 234.865 81.6741C234.709 79.8367 233.817 73.8558 225.156 69.289C221.954 69.8151 229.04 78.6816 219.487 84.979C215.484 76.2153 208.549 71.6443 208.763 71.9814C208.981 72.3185 211.875 75.6891 207.731 84.7159C204.373 84.2966 197.586 70.4605 186.11 71.8581C174.637 73.2557 173.412 76.318 173.412 76.318C173.412 76.318 180.075 110.53 170.42 126.401C172.52 132.152 170.909 151.812 169.022 162.376C168.743 171.124 169.511 175.81 169.511 175.81C169.511 175.81 169.092 192.671 167.974 196.03C166.856 199.388 166.996 209.812 164.755 214.572C162.515 219.328 174.9 226.887 174.9 226.887C174.9 226.887 179.516 228.638 177.14 230.176C174.764 231.713 170.148 228.774 168.956 229.826C168.537 232.486 172.944 235.425 171.127 238.364C167.489 241.652 163.222 230.39 159.864 230.39C157.204 231.717 151.084 234.866 150.471 232.77C149.859 230.673 156.156 228.223 155.877 220.944C156.995 212.759 158.257 212.899 159.375 205.41C155.667 188.129 159.502 179.587 157.344 176.233C154.824 172.316 154.097 163.162 154.195 164.407C154.294 165.657 152.448 142.823 152.374 141.458C152.263 139.378 150.767 136.279 150.381 136.279C147.964 136.279 147.055 153 147.055 153C147.055 153 146.776 169.512 145.374 170.63C144.881 171.025 144.071 174.116 142.994 176.648C141.921 179.176 142.969 194.098 142.155 200.436C140.898 210.231 141.317 209.393 143.976 219.188C146.636 228.984 147.084 228.692 148.872 230.661C152.37 234.508 144.063 232.679 143.976 232.622L140.339 229.962C140.339 229.962 137.959 232.761 135.02 235.98C132.081 239.198 128.784 239.018 128.784 237.62C128.784 236.222 132.57 231.014 131.242 228.634C128.652 228.844 127.769 231.845 124.036 230.385C120.144 228.865 126.346 226.748 123.966 227.307C123.966 227.307 134.74 222.621 135.722 216.743C135.443 208.978 132.224 206.178 133.203 194.702C131.032 186.164 128.726 177.211 131.382 173.01C134.041 168.814 129.844 149.502 129.844 149.502C129.844 149.502 127.641 131.436 130.403 127.811C130.613 126.902 127.769 124.773 125.8 117.477C123.827 110.181 124.558 102.272 125.088 96.6077C125.619 90.9516 126.909 77.1648 126.909 77.1648Z" fill="#1471B9" stroke="black" stroke-width="0.1461" stroke-miterlimit="10"/>
<path d="M135.942 59.8153C135.942 59.8153 128.526 63.5929 129.784 81.1531C133.18 75.6943 135.313 75.5546 135.313 75.5546C135.313 75.5546 130.767 85.2102 135.033 93.1148C136.538 86.6777 139.719 86.1187 139.719 86.1187C139.719 86.1187 138.038 95.4948 143.008 100.321C143.534 96.2635 145.178 95.5647 145.178 95.5647C145.178 95.5647 147.908 102.77 150.271 105.081C150.707 104.135 154.764 98.2941 155.113 95.6346C155.919 96.5101 158.332 100.041 157.633 100.53C156.934 101.019 162.459 94.722 160.922 85.6953C162.496 86.0817 165.608 92.9011 165.608 92.9011C165.608 92.9011 169.385 84.5731 165.608 75.83C168.127 76.2862 170.717 80.9394 170.717 80.9394C170.717 80.9394 172.538 62.7461 164.769 59.8112C157 56.8762 135.942 59.8153 135.942 59.8153Z" fill="#ACD8F4" stroke="black" stroke-width="0.1461" stroke-miterlimit="10"/>
<path d="M136.625 57.6877V60.4499C136.625 60.4499 146.979 64.5069 164.05 60.0635C164.26 58.8057 163.803 57.6836 163.803 57.6836C163.803 57.6836 146.56 61.3994 136.625 57.6877Z" fill="#0A4D7D" stroke="black" stroke-width="0.1461" stroke-miterlimit="10"/>
<path d="M147.066 42.8555C147.066 42.8555 149.097 48.0675 145.002 58.0395C142.031 64.4395 145.562 65.315 145.562 65.315C145.562 65.315 149.586 67.029 150.284 60.8017C150.535 58.9479 150.531 64.4765 152.138 65.2081C152.734 65.6808 157.317 65.837 156.721 61.8499C156.125 57.8627 151.682 48.9759 153.396 44.7792C153.454 43.098 153.454 43.098 153.454 43.098L147.066 42.8555Z" fill="#0A4D7D" stroke="black" stroke-width="0.1461" stroke-miterlimit="10"/>
<path d="M152.703 24.6813C152.703 24.6813 162.568 12.7158 169.285 24.6813C163.567 32.6063 152.703 24.6813 152.703 24.6813Z" fill="white" stroke="black" stroke-width="0.1461" stroke-miterlimit="10"/>
<path d="M147.769 24.6813C147.769 24.6813 137.904 12.7158 131.188 24.6813C136.909 32.6063 147.769 24.6813 147.769 24.6813Z" fill="white" stroke="black" stroke-width="0.1461" stroke-miterlimit="10"/>
<path d="M160.988 27.1567C162.988 27.1567 164.61 25.5354 164.61 23.5354C164.61 21.5354 162.988 19.9141 160.988 19.9141C158.989 19.9141 157.367 21.5354 157.367 23.5354C157.367 25.5354 158.989 27.1567 160.988 27.1567Z" fill="black" stroke="black" stroke-width="0.1461" stroke-miterlimit="10"/>
<path d="M159.734 22.9174C160.209 22.9174 160.593 22.5328 160.593 22.0583C160.593 21.5838 160.209 21.1992 159.734 21.1992C159.26 21.1992 158.875 21.5838 158.875 22.0583C158.875 22.5328 159.26 22.9174 159.734 22.9174Z" fill="white" stroke="white" stroke-width="0.1461" stroke-miterlimit="10"/>
<path d="M139.473 27.4106C141.473 27.4106 143.094 25.7893 143.094 23.7893C143.094 21.7893 141.473 20.168 139.473 20.168C137.473 20.168 135.852 21.7893 135.852 23.7893C135.852 25.7893 137.473 27.4106 139.473 27.4106Z" fill="black" stroke="black" stroke-width="0.1461" stroke-miterlimit="10"/>
<path d="M138.242 23.183C138.716 23.183 139.101 22.7984 139.101 22.3239C139.101 21.8495 138.716 21.4648 138.242 21.4648C137.767 21.4648 137.383 21.8495 137.383 22.3239C137.383 22.7984 137.767 23.183 138.242 23.183Z" fill="white" stroke="white" stroke-width="0.1461" stroke-miterlimit="10"/>
<path d="M150.066 45.6701C150.066 45.6701 142.72 44.2026 139.153 41.9953C135.585 39.7921 135.531 36.2243 135.531 36.2243L151.221 30.6094L160.72 32.0234L165.007 35.7228C165.007 35.7228 164.551 39.0934 161.719 41.6295C158.887 44.1657 150.066 45.6701 150.066 45.6701Z" fill="white" stroke="black" stroke-width="0.1461" stroke-miterlimit="10"/>
<path d="M150.176 23.5838C145.926 28.989 135.321 29.7741 135.534 36.2316C138.001 35.9151 140.574 34.2915 144.191 35.6027C147.812 36.914 147.496 40.8518 150.644 40.5887C154.212 39.9064 152.638 36.4947 157.468 35.2903C162.298 34.086 164.789 37.0743 165.154 35.6069C165.52 34.1394 164.76 31.7759 158.676 29.0466C151.906 27.0448 150.386 22.6918 150.176 23.5838Z" fill="white" stroke="black" stroke-width="0.1461" stroke-miterlimit="10"/>
<path d="M130.758 17.6623C130.758 17.6623 136.845 11.102 145.399 16.5607" stroke="black" stroke-width="0.1461" stroke-miterlimit="10"/>
<path d="M129.371 23.0742C129.371 23.0742 128.688 24.5417 131.471 24.702" stroke="black" stroke-width="0.1461" stroke-miterlimit="10"/>
<path d="M127.891 29.9922C127.891 29.9922 127.575 30.6211 128.574 31.9858" stroke="black" stroke-width="0.1461" stroke-miterlimit="10"/>
<path d="M130.156 126.418C130.156 126.418 134.09 135.843 150.149 136.263" stroke="black" stroke-width="0.1461" stroke-miterlimit="10"/>
<path d="M169.852 17.6623C169.852 17.6623 163.765 11.102 155.211 16.5607" stroke="black" stroke-width="0.1461" stroke-miterlimit="10"/>
<path d="M171.264 23.0742C171.264 23.0742 171.947 24.5417 169.164 24.702" stroke="black" stroke-width="0.1461" stroke-miterlimit="10"/>
<path d="M172.745 29.9922C172.745 29.9922 173.061 30.6211 172.062 31.9858" stroke="black" stroke-width="0.1461" stroke-miterlimit="10"/>
<path d="M170.478 126.418C170.478 126.418 166.544 135.843 150.484 136.263" stroke="black" stroke-width="0.1461" stroke-miterlimit="10"/>
<path d="M169.465 185.266C169.465 185.266 169.116 192.681 167.998 196.039C166.88 199.398 167.02 209.822 164.779 214.582C162.539 219.338 174.924 226.897 174.924 226.897C174.924 226.897 179.54 228.648 177.164 230.186C174.788 231.723 170.172 228.784 168.98 229.836C168.561 232.496 172.967 235.435 171.151 238.374C167.513 241.662 163.246 230.399 159.888 230.399C157.228 231.727 151.108 234.876 150.495 232.779C149.883 230.683 156.18 228.233 155.9 220.953C157.019 212.769 157.931 212.839 159.049 205.35C158.49 199.542 157.721 192.895 158.001 189.467C161.211 189.043 169.465 185.266 169.465 185.266Z" fill="#ACD8F4" stroke="black" stroke-width="0.1461" stroke-miterlimit="10"/>
<path d="M142.172 200.439C140.914 210.234 141.334 209.396 143.993 219.191C146.653 228.987 147.101 228.695 148.889 230.664C152.387 234.511 144.079 232.682 143.993 232.625L140.355 229.965C140.355 229.965 137.975 232.764 135.036 235.983C132.097 239.201 128.801 239.021 128.801 237.623C128.801 236.225 132.586 231.017 131.259 228.637C128.669 228.847 127.785 231.848 124.053 230.388C120.16 228.868 126.363 226.751 123.983 227.31C123.983 227.31 134.757 222.624 135.739 216.746C135.46 208.981 132.241 206.181 133.219 194.705C132.701 192.662 131.09 185.736 131.822 185.329C132.796 185.279 138.189 188.966 142.456 189.176C143.623 191.437 142.369 198.91 142.172 200.439Z" fill="#ACD8F4" stroke="black" stroke-width="0.1461" stroke-miterlimit="10"/>
</g>
<defs>
<clipPath id="clip0_1306_1773">
<rect width="300" height="300" fill="white"/>
</clipPath>
</defs>
</svg>
