<svg width="300" height="300" viewBox="0 0 300 300" fill="none" xmlns="http://www.w3.org/2000/svg">
<g clip-path="url(#clip0_1306_2859)">
<path d="M213.786 160.251C213.936 161.405 214.324 162.788 215.454 163.066C216.295 163.273 217.175 162.688 217.581 161.922C217.987 161.156 218.034 160.254 218.048 159.388C218.109 156.003 217.859 152.625 217.61 149.247C218.155 153.559 219.773 157.735 222.278 161.288C223.087 162.435 224.305 163.64 225.674 163.315C226.607 163.094 227.249 162.179 227.43 161.234C227.612 160.29 227.416 159.321 227.199 158.387C226.258 154.314 224.883 150.341 223.108 146.557C224.64 150.63 226.907 154.425 229.764 157.703C230.637 158.708 231.614 159.691 232.857 160.165C234.101 160.639 235.683 160.461 236.521 159.428C237.593 158.098 237.016 156.124 236.236 154.606C234.311 150.875 231.464 147.715 228.649 144.6C229.818 145.708 231.012 146.792 232.227 147.854C233.755 149.186 235.345 150.491 237.198 151.314C238.195 151.759 239.143 152.272 240.105 152.789C241.271 153.416 242.917 152.953 243.562 152.743C244.909 152.304 244.937 149.831 244.232 148.602C243.526 147.376 241.21 146.959 240.038 146.168C238.495 145.131 237.102 143.891 235.715 142.655C233.535 140.713 231.354 138.774 229.173 136.832C231.339 136.044 237.814 136.102 238.612 135.563C239.375 135.05 241.684 133.853 241.88 132.951C242.119 131.861 241.274 130.193 240.287 129.677C239.3 129.16 236.702 130.222 235.587 130.201C232.751 130.147 227.124 132.082 220.635 131.633C220.093 131.597 219.587 131.54 219.11 131.469C215.529 128.169 214.036 124.495 212.357 124.592C212.104 124.606 209.567 127.524 209.375 127.692C209.157 127.884 209.082 128.187 209.015 128.469C208.509 130.689 204.625 129.26 205.198 131.544C205.555 132.959 209.517 137.577 210.508 138.532C213.626 141.532 212.963 147.301 213.138 151.264C213.266 154.271 213.401 157.272 213.786 160.251Z" fill="#D07F39" stroke="black" stroke-width="0.1461" stroke-miterlimit="10"/>
<path d="M190.8 275.663C191.947 274.426 193.176 272.933 192.913 271.269C192.706 269.979 191.648 269.01 190.582 268.258C187.621 266.163 184.168 264.894 180.94 263.244C177.708 261.594 174.55 259.407 172.908 256.171C172.352 255.077 172.548 254.172 172.452 252.946C172.199 249.767 173.848 244.273 171.71 243.831C170.641 243.61 161.925 244.312 160.974 244.843C160.222 245.263 160.81 250.345 160.653 251.731C159.962 257.874 159.933 258.854 161.651 261.655C163.294 264.338 164.117 266.54 165.025 269.555C165.906 272.466 166.337 275.599 167.292 278.485C168.247 281.371 170.41 284.194 173.428 284.561C174.055 284.639 174.739 284.589 175.249 284.211C175.591 283.958 175.819 283.581 176.004 283.196C176.924 281.286 176.931 279.073 176.742 276.963C176.945 278.62 178.043 280.138 179.553 280.848C181.064 281.557 182.932 281.436 184.339 280.538C184.567 280.391 184.788 280.22 184.938 279.992C185.112 279.722 185.169 279.39 185.18 279.066C185.223 277.648 184.442 276.329 183.527 275.246C182.611 274.163 181.524 273.208 180.758 272.014C181.267 273.817 183.177 274.786 184.909 275.499C186.11 275.991 187.361 276.468 188.662 276.44C189.962 276.411 191.327 275.748 191.815 274.544" fill="#D07F39"/>
<path d="M190.8 275.663C191.947 274.426 193.176 272.933 192.913 271.269C192.706 269.979 191.648 269.01 190.582 268.258C187.621 266.163 184.168 264.894 180.94 263.244C177.708 261.594 174.55 259.407 172.908 256.171C172.352 255.077 172.548 254.172 172.452 252.946C172.199 249.767 173.848 244.273 171.71 243.831C170.641 243.61 161.925 244.312 160.974 244.843C160.222 245.263 160.81 250.345 160.653 251.731C159.962 257.874 159.933 258.854 161.651 261.655C163.294 264.338 164.117 266.54 165.025 269.555C165.906 272.466 166.337 275.599 167.292 278.485C168.247 281.371 170.41 284.194 173.428 284.561C174.055 284.639 174.739 284.589 175.249 284.211C175.591 283.958 175.819 283.581 176.004 283.196C176.924 281.286 176.931 279.073 176.742 276.963C176.945 278.62 178.043 280.138 179.553 280.848C181.064 281.557 182.932 281.436 184.339 280.538C184.567 280.391 184.788 280.22 184.938 279.992C185.112 279.722 185.169 279.39 185.18 279.066C185.223 277.648 184.442 276.329 183.527 275.246C182.611 274.163 181.524 273.208 180.758 272.014C181.267 273.817 183.177 274.786 184.909 275.499C186.11 275.991 187.361 276.468 188.662 276.44C189.962 276.411 191.327 275.748 191.815 274.544" stroke="black" stroke-width="0.1461" stroke-miterlimit="10"/>
<path d="M89.6297 160.329C89.4801 161.483 89.0917 162.866 87.9621 163.144C87.1211 163.351 86.2409 162.766 85.8347 162C85.4285 161.234 85.3822 160.332 85.3679 159.467C85.3073 156.081 85.5568 152.703 85.8062 149.325C85.261 153.637 83.6432 157.813 81.1381 161.366C80.3292 162.513 79.1105 163.718 77.7422 163.393C76.8086 163.172 76.1672 162.257 75.9854 161.312C75.8073 160.368 75.9997 159.399 76.2171 158.465C77.1578 154.392 78.5333 150.419 80.3079 146.635C78.7756 150.708 76.5093 154.503 73.6514 157.781C72.7784 158.786 71.802 159.769 70.5584 160.243C69.3147 160.717 67.7326 160.539 66.8952 159.506C65.8226 158.177 66.3999 156.202 67.1802 154.684C69.1045 150.954 71.9517 147.793 74.7667 144.678C73.598 145.787 72.4042 146.87 71.1891 147.932C69.6604 149.264 68.0711 150.569 66.2181 151.392C65.2204 151.837 64.2725 152.35 63.3104 152.867C62.1451 153.494 60.4989 153.031 59.8539 152.821C58.5069 152.382 58.4784 149.909 59.184 148.68C59.8895 147.454 62.2057 147.037 63.3781 146.246C64.921 145.209 66.3143 143.969 67.7005 142.733C69.8813 140.791 72.0621 138.852 74.2429 136.91C72.0764 136.123 65.6017 136.18 64.8035 135.642C64.0409 135.128 61.7318 133.931 61.5358 133.03C61.2971 131.939 62.1416 130.272 63.1286 129.755C64.1157 129.238 66.7134 130.3 67.8288 130.279C70.6653 130.225 76.2919 132.16 82.7809 131.711C83.3225 131.675 83.8285 131.618 84.306 131.547C87.8872 128.247 89.3803 124.574 91.0587 124.67C91.3117 124.684 93.8488 127.603 94.0412 127.77C94.2586 127.962 94.3334 128.265 94.4011 128.547C94.9071 130.767 98.7913 129.338 98.2176 131.622C97.8612 133.037 93.8987 137.655 92.9081 138.61C89.7901 141.61 90.4529 147.379 90.2783 151.342C90.15 154.349 90.011 157.35 89.6297 160.329Z" fill="#D07F39" stroke="black" stroke-width="0.1461" stroke-miterlimit="10"/>
<path d="M112.61 275.749C111.463 274.512 110.233 273.019 110.497 271.355C110.704 270.065 111.762 269.096 112.828 268.344C115.789 266.249 119.242 264.98 122.47 263.33C125.702 261.68 128.859 259.492 130.502 256.257C131.058 255.163 130.862 254.258 130.958 253.032C131.211 249.853 129.561 244.359 131.699 243.917C132.768 243.696 141.484 244.398 142.436 244.929C143.188 245.349 142.6 250.431 142.757 251.817C143.448 257.96 143.476 258.94 141.759 261.741C140.116 264.424 139.293 266.626 138.384 269.641C137.504 272.552 137.073 275.685 136.118 278.571C135.163 281.457 133 284.28 129.982 284.647C129.355 284.725 128.67 284.675 128.161 284.297C127.819 284.044 127.591 283.667 127.405 283.282C126.486 281.372 126.479 279.159 126.668 277.049C126.465 278.706 125.367 280.224 123.856 280.933C122.345 281.643 120.478 281.521 119.071 280.623C118.843 280.477 118.622 280.306 118.472 280.078C118.297 279.807 118.24 279.476 118.23 279.152C118.187 277.734 118.967 276.415 119.883 275.332C120.799 274.249 121.886 273.294 122.652 272.1C122.142 273.903 120.232 274.872 118.5 275.585C117.3 276.077 116.049 276.554 114.748 276.526C113.448 276.497 112.083 275.834 111.595 274.63" fill="#D07F39"/>
<path d="M112.61 275.749C111.463 274.512 110.233 273.019 110.497 271.355C110.704 270.065 111.762 269.096 112.828 268.344C115.789 266.249 119.242 264.98 122.47 263.33C125.702 261.68 128.859 259.492 130.502 256.257C131.058 255.163 130.862 254.258 130.958 253.032C131.211 249.853 129.561 244.359 131.699 243.917C132.768 243.696 141.484 244.398 142.436 244.929C143.188 245.349 142.6 250.431 142.757 251.817C143.448 257.96 143.476 258.94 141.759 261.741C140.116 264.424 139.293 266.626 138.384 269.641C137.504 272.552 137.073 275.685 136.118 278.571C135.163 281.457 133 284.28 129.982 284.647C129.355 284.725 128.67 284.675 128.161 284.297C127.819 284.044 127.591 283.667 127.405 283.282C126.486 281.372 126.479 279.159 126.668 277.049C126.465 278.706 125.367 280.224 123.856 280.933C122.345 281.643 120.478 281.521 119.071 280.623C118.843 280.477 118.622 280.306 118.472 280.078C118.297 279.807 118.24 279.476 118.23 279.152C118.187 277.734 118.967 276.415 119.883 275.332C120.799 274.249 121.886 273.294 122.652 272.1C122.142 273.903 120.232 274.872 118.5 275.585C117.3 276.077 116.049 276.554 114.748 276.526C113.448 276.497 112.083 275.834 111.595 274.63" stroke="black" stroke-width="0.1461" stroke-miterlimit="10"/>
<path d="M129.43 248.31C129.43 248.31 136.361 252.81 145.273 246.24C132.039 167.827 151.979 170.257 151.979 170.257C151.979 170.257 172.009 166.205 158.597 246.418C158.312 248.114 168.77 252.18 174.261 248.577C175.43 241.194 171.2 226.701 176.421 196.273C177.322 165.756 176.692 153.961 176.692 153.961L127.167 153.602C127.167 153.602 126.366 173.856 127.809 198.255C131.319 215.99 129.43 248.31 129.43 248.31Z" fill="#CE9C2B" stroke="black" stroke-width="0.1461" stroke-miterlimit="10"/>
<path d="M98.0507 137.358C98.0507 137.358 111.959 126.422 124.381 99.1445C128.251 114.72 125.282 150.999 125.596 155.318C132.555 157.467 143.645 163.87 178.666 155.767C175.786 121.377 180.016 98.1966 180.016 98.1966C180.016 98.1966 197.976 135.195 204.999 137.761C212.515 136.14 217.019 126.059 217.019 126.059C217.019 126.059 196.358 100.898 189.067 75.7827C142.661 68.3566 145.451 74.6567 115.608 74.8384C115.301 75.5974 96.9745 121.291 87.25 126.016C89.3488 133.653 98.0507 137.358 98.0507 137.358Z" fill="#1C1B1C" stroke="#010101" stroke-width="0.1461" stroke-miterlimit="10"/>
<path d="M172.667 104.563C174.089 115.909 166.047 126.257 154.701 127.679C147.207 128.62 140.151 125.431 135.811 119.886C133.58 117.035 132.066 113.564 131.585 109.712C130.163 98.3665 138.206 88.0183 149.551 86.5965C160.897 85.1747 171.246 93.2173 172.667 104.563Z" stroke="#575757" stroke-width="2.1915" stroke-miterlimit="10"/>
<path d="M151.922 86.4336L152.129 107.137L169.621 119.801" stroke="#575757" stroke-width="2.1915" stroke-miterlimit="10"/>
<path d="M135.328 119.249L151.381 107.137" stroke="#575757" stroke-width="2.1915" stroke-miterlimit="10"/>
<path d="M130.183 78.0779C129.104 76.8628 128.833 74.9706 125.725 73.4882C123.203 71.3466 121.898 68.9413 123.969 61.2016C123.969 61.2016 121.87 60.3463 122.041 52.2431C120.772 50.1265 119.963 44.14 123.922 38.1107C124.236 29.6939 126.534 28.2079 126.534 28.2079L126.894 20.9172L127.343 15.875C127.343 15.875 125.544 6.33217 139.045 5.52327C143.322 -1.54297 151.963 0.210225 151.963 0.210225C151.963 0.210225 160.561 -1.5893 164.52 5.34154C167.221 5.97226 176.222 4.53264 176.312 16.0531C177.48 18.4371 176.853 21.5444 176.853 21.5444C176.853 21.5444 178.475 25.147 176.853 28.8351C177.755 29.0168 180.363 31.6253 179.554 38.1962C180.456 39.4576 183.606 48.4588 181.714 52.1505C181.81 55.1224 182.059 56.2734 179.822 62.4131C179.74 62.6376 183.82 68.674 178.471 73.3956C176.671 74.5644 176.312 74.4753 173.789 78.0779C173.564 78.2596 170.097 75.2414 168.476 73.3956C165.596 79.1113 156.321 77.3581 156.321 77.3581L151.97 81.2279L148.054 77.4472C148.054 77.4472 138.465 79.6529 135.81 73.3528C134.595 73.8018 130.668 78.6195 130.183 78.0779Z" fill="#D07F39" stroke="black" stroke-width="0.1461" stroke-miterlimit="10"/>
<path d="M126.865 21.7031H148.823L151.118 25.4839H152.739L155.237 22.1094H176.91L177.519 24.4719L176.033 24.675L170.699 37.571C170.699 37.571 170.089 38.4476 169.28 38.4476C168.471 38.4476 156.046 38.4476 156.046 38.4476C156.046 38.4476 154.56 31.36 153.683 31.2246C152.807 31.0891 150.063 31.1569 150.063 31.1569C150.063 31.1569 148.89 34.396 148.014 38.1126C142.883 38.5189 134.106 38.4512 134.106 38.4512L128.03 24.8746L126.68 24.2652L126.865 21.7031Z" fill="#DB3D3A" stroke="black" stroke-width="0.1461" stroke-miterlimit="10"/>
<path d="M125.992 47.8347C125.992 47.8347 127.614 52.517 135.535 54.0457C143.456 55.5745 151.56 54.0457 151.56 54.0457C151.56 54.0457 166.145 55.3963 169.925 53.6858C173.706 51.9754 176.585 49.5452 177.127 48.3728C177.669 47.204 176.407 45.3118 175.328 45.3118C174.248 45.3118 151.966 45.3118 151.966 45.3118H127.614C127.61 45.3118 126.17 45.041 125.992 47.8347Z" fill="#D1514B" stroke="black" stroke-width="0.1461" stroke-miterlimit="10"/>
<path d="M130.031 47.6484C130.031 47.6484 139.303 50.7985 151.953 49.7188C155.057 49.5085 159.38 51.4292 172.703 47.6484" stroke="black" stroke-width="0.1461" stroke-miterlimit="10"/>
<path d="M131 24.875L134.984 35.8147H146.259L147.474 24.875H131Z" fill="url(#paint0_linear_1306_2859)" stroke="black" stroke-width="0.1461" stroke-miterlimit="10"/>
<path d="M172.724 24.875L168.743 35.8147H157.465L156.25 24.875H172.724Z" fill="url(#paint1_linear_1306_2859)" stroke="black" stroke-width="0.1461" stroke-miterlimit="10"/>
<path d="M135.014 25.2148C135.014 25.2148 133.122 26.9039 133.257 28.5217C133.392 30.143 135.484 30.2107 135.484 30.2107L134.066 32.1671L135.242 35.3563C135.242 35.3563 138.05 31.7644 138.93 29.7368C139.806 27.7128 136.5 27.9801 137.444 27.3066C138.388 26.6331 138.93 25.2148 138.93 25.2148H135.014Z" fill="white" stroke="white" stroke-width="0.1461" stroke-miterlimit="10"/>
<path d="M142.407 25.2734C142.407 25.2734 140.515 26.9625 140.65 28.5803C140.785 30.2016 142.877 30.2693 142.877 30.2693L139.367 35.4149H142.635C142.635 35.4149 145.443 31.823 146.323 29.7954C147.203 27.7678 143.893 28.0386 144.837 27.3652C145.781 26.6917 146.323 25.2734 146.323 25.2734H142.407Z" fill="white" stroke="white" stroke-width="0.1461" stroke-miterlimit="10"/>
<path d="M158.873 25.2734C158.873 25.2734 156.981 26.9625 157.116 28.5803C157.252 30.2016 159.343 30.2693 159.343 30.2693L157.469 32.6319L157.8 35.4398H159.14C159.14 35.4398 161.909 31.823 162.789 29.7954C163.666 27.7714 160.359 28.0386 161.303 27.3652C162.248 26.6917 162.789 25.2734 162.789 25.2734H158.873Z" fill="white" stroke="white" stroke-width="0.1461" stroke-miterlimit="10"/>
<path d="M166.204 25.1875C166.204 25.1875 164.311 26.8766 164.447 28.4943C164.582 30.1157 166.674 30.1834 166.674 30.1834L163.164 35.329H166.432C166.432 35.329 169.24 31.7371 170.12 29.7095C170.996 27.6855 167.69 27.9527 168.634 27.2792C169.578 26.6057 170.12 25.1875 170.12 25.1875H166.204Z" fill="white" stroke="white" stroke-width="0.1461" stroke-miterlimit="10"/>
<path d="M157.273 21.7614C157.273 21.7614 158.175 20.8599 159.119 20.5" stroke="black" stroke-width="0.1461" stroke-miterlimit="10"/>
<path d="M153.641 18.8794C153.641 18.8794 155.422 16.6274 160.418 16.043" stroke="black" stroke-width="0.1461" stroke-miterlimit="10"/>
<path d="M151.961 0.246094C151.961 0.246094 155.2 2.40552 155.471 5.19567" stroke="black" stroke-width="0.1461" stroke-miterlimit="10"/>
<path d="M176.398 16.7205C176.398 16.7205 175.814 14.2903 175.094 14.3366" stroke="black" stroke-width="0.1461" stroke-miterlimit="10"/>
<path d="M179.768 40.5785C179.768 40.5785 179.227 38.0591 179.227 37.6992" stroke="black" stroke-width="0.1461" stroke-miterlimit="10"/>
<path d="M179.516 61.9977C179.516 61.9977 178.843 58.8477 179.246 56.3711" stroke="black" stroke-width="0.1461" stroke-miterlimit="10"/>
<path d="M155.031 77.4905C155.031 77.4905 159.803 77.5368 161.691 69.4336" stroke="black" stroke-width="0.1461" stroke-miterlimit="10"/>
<path d="M168.437 73.4576C168.437 73.4576 166.773 70.1507 167.536 68.3477" stroke="black" stroke-width="0.1461" stroke-miterlimit="10"/>
<path d="M146.44 21.7614C146.44 21.7614 145.538 20.8599 144.594 20.5" stroke="black" stroke-width="0.1461" stroke-miterlimit="10"/>
<path d="M150.074 18.8794C150.074 18.8794 148.293 16.6274 143.297 16.043" stroke="black" stroke-width="0.1461" stroke-miterlimit="10"/>
<path d="M151.76 0.246094C151.76 0.246094 148.521 2.40552 148.25 5.19567" stroke="black" stroke-width="0.1461" stroke-miterlimit="10"/>
<path d="M127.312 16.7205C127.312 16.7205 127.897 14.2903 128.617 14.3366" stroke="black" stroke-width="0.1461" stroke-miterlimit="10"/>
<path d="M123.938 40.5785C123.938 40.5785 124.479 38.0591 124.479 37.6992" stroke="black" stroke-width="0.1461" stroke-miterlimit="10"/>
<path d="M124.203 61.9977C124.203 61.9977 124.877 58.8477 124.474 56.3711" stroke="black" stroke-width="0.1461" stroke-miterlimit="10"/>
<path d="M148.699 77.4905C148.699 77.4905 143.928 77.5368 142.039 69.4336" stroke="black" stroke-width="0.1461" stroke-miterlimit="10"/>
<path d="M135.273 73.4576C135.273 73.4576 136.938 70.1507 136.175 68.3477" stroke="black" stroke-width="0.1461" stroke-miterlimit="10"/>
</g>
<defs>
<linearGradient id="paint0_linear_1306_2859" x1="139.236" y1="35.8145" x2="139.236" y2="24.4417" gradientUnits="userSpaceOnUse">
<stop stop-color="#F386A7"/>
<stop offset="0.9713" stop-color="#7B2A90"/>
</linearGradient>
<linearGradient id="paint1_linear_1306_2859" x1="164.488" y1="35.8145" x2="164.488" y2="24.4417" gradientUnits="userSpaceOnUse">
<stop stop-color="#F386A7"/>
<stop offset="0.9713" stop-color="#7B2A90"/>
</linearGradient>
<clipPath id="clip0_1306_2859">
<rect width="300" height="300" fill="white"/>
</clipPath>
</defs>
</svg>
