<svg width="300" height="300" viewBox="0 0 300 300" fill="none" xmlns="http://www.w3.org/2000/svg">
<g clip-path="url(#clip0_1306_2272)">
<path d="M162.961 118.314C162.961 118.314 175.116 122.184 184.723 146.679C192.555 163.602 207.496 168.487 212.899 168.487C218.839 168.487 239.859 164.047 249.024 139.923C253.985 126.863 251.034 110.471 246.234 99.5029C242.168 90.2096 236.606 85.3455 235.163 84.109C232.009 81.4115 219.68 76.0058 214.997 84.109C206.577 95.1164 221.75 102.022 223.999 90.769C223.835 84.9108 229.041 86.5393 229.219 89.6893C229.401 92.8394 228.139 98.5123 225.256 100.312C221.476 102.471 213.373 104.453 207.251 96.1712C201.129 87.8898 212.653 76.3657 218.415 74.2063C224.177 72.0469 234.977 74.0246 245.24 85.4595C249.922 93.2919 261.985 105.354 254.961 139.025C247.938 172.695 217.513 174.128 216.793 174.128C216.074 174.128 196.446 178.09 184.024 157.565C171.602 137.04 176.281 134.339 169.079 135.24C161.878 136.142 165.84 125.879 165.84 125.879L162.961 118.314Z" fill="#1471B9" stroke="black" stroke-width="0.1461" stroke-miterlimit="10"/>
<path d="M173.864 22.5245L180.524 20.7249C180.524 20.7249 181.875 19.1962 180.524 15.6827C179.173 12.1728 179.683 10.7331 177.492 10.3697C175.3 10.0062 175.029 9.73894 173.86 10.8187C172.692 11.8984 170.258 14.4213 170.258 14.4213L171.968 22.5245H173.864Z" fill="#1471B9" stroke="black" stroke-width="0.1461" stroke-miterlimit="10"/>
<path d="M173.859 20.0988L176.828 13.168" stroke="black" stroke-width="0.1461" stroke-miterlimit="10"/>
<path d="M126.221 22.5245L119.561 20.7249C119.561 20.7249 118.211 19.1962 119.561 15.6827C120.912 12.1728 120.402 10.7331 122.594 10.3697C124.785 10.0062 125.056 9.73894 126.225 10.8187C127.394 11.8984 129.827 14.4213 129.827 14.4213L128.117 22.5245H126.221Z" fill="#1471B9" stroke="black" stroke-width="0.1461" stroke-miterlimit="10"/>
<path d="M126.222 20.0988L123.25 13.168" stroke="black" stroke-width="0.1461" stroke-miterlimit="10"/>
<path d="M92.7302 119.661L95.4313 116.422C95.4313 116.422 123.924 93.1956 126.084 81.3116C127.57 78.2043 128.108 80.6381 128.785 82.5268C129.458 84.4189 127.976 125.063 127.976 125.063C127.976 125.063 127.167 155.716 129.868 177.727C132.569 199.738 130.331 207.096 129.868 207.706C125.952 212.837 111.887 213.781 111.965 217.833C112.044 221.885 115.283 225.259 119.335 222.829C123.386 220.399 112.717 227.689 122.036 227.419C127.302 225.933 127.167 224.179 127.167 224.179C127.167 224.179 124.466 231.068 130.274 231.068C136.083 231.068 137.341 220.31 137.341 220.31C137.341 220.31 140.761 208.201 142.066 207.977C143.37 207.752 138.887 169.399 139.546 165.622C139.365 156.168 139.268 136.049 150.033 136.049C162.591 136.049 160.521 165.668 160.521 165.668C160.521 165.668 158.764 206.583 157.641 207.079C160.007 209.869 163.717 223.239 163.717 223.239C163.717 223.239 163.492 230.982 170.377 231.296C175.326 230.754 172.853 224.183 172.853 224.183C172.853 224.183 177.354 229.81 179.966 226.613C182.578 223.417 179.966 222.608 179.966 222.608C179.966 222.608 183.971 226.075 187.214 221.753C190.453 217.43 182.624 214.327 180.101 213.382C177.582 212.438 169.165 207.036 169.525 205.91C167.769 198.348 170.245 170.44 170.245 170.44L172.54 137.806C172.54 137.806 171.998 121.87 171.82 121.015C171.638 120.16 171.278 82.1241 171.278 82.1241C171.278 82.1241 171.727 79.5121 173.395 80.6381C174.069 80.909 183.854 98.3946 187.987 101.231C192.121 104.068 204.611 118.517 206.435 119.055C208.26 119.597 206.638 122.904 206.841 123.848C207.044 124.792 206.909 139.174 207.853 140.322C208.798 141.469 211.769 141.875 212.375 139.848C212.985 137.824 211.766 127.964 211.766 127.964L216.423 140.119C216.423 140.119 219.73 144.441 221.352 139.577C220.742 136.202 216.626 125.804 216.626 125.804L224.797 137.621C224.797 137.621 229.929 139.577 230.064 136.947C230.199 134.314 221.626 123.378 221.626 123.378C221.626 123.378 231.55 132.357 233.171 132.154C234.793 131.951 239.585 130.33 236.41 127.429C233.235 124.525 221.758 116.625 221.758 116.625C221.758 116.625 233.506 117.502 234.18 112.98C234.853 108.458 231.072 109.47 231.072 109.47C231.072 109.47 217.164 113.386 212.977 111.362C209.061 107.446 196.707 97.9243 194.882 94.6174C193.058 91.3106 176.72 61.8732 173.074 60.2519C169.429 58.6305 157.207 56.7419 157.207 56.7419C157.207 56.7419 156.665 56.6065 157.477 55.1883C158.29 53.77 178.138 43.5751 177.8 37.0256C177.461 30.476 177.935 26.1536 174.357 22.241C174.222 20.9581 175.843 17.719 171.318 13.532C170.844 8.80691 167.808 0.36519 159.231 0.162076C150.657 -0.0410386 150.251 2.59232 150.251 2.59232C150.251 2.59232 145.661 -0.739467 140.597 0.151386C135.534 1.03868 132.291 1.51261 128.781 12.1815C126.69 14.2055 126.572 16.2117 125.542 21.5675C124.701 25.9362 113.626 36.2737 132.159 48.3715L136.952 52.5585L139.653 54.3829C139.653 54.3829 141.948 56.5424 139.992 56.8809C138.035 57.2194 128.311 58.7053 125.881 61.0679C123.45 63.4304 108.463 91.6527 106.029 93.5448C103.599 95.437 87.5276 111.708 86.4479 112.046C85.3682 112.385 71.2571 110.56 69.1618 109.684C67.0665 108.807 63.7597 112.452 65.9868 113.803C67.8113 117.11 77.8708 116.436 77.8708 116.436C77.8708 116.436 70.1738 124.675 67.0665 125.619C63.9592 126.563 62.206 127.711 63.3534 131.021C64.5009 134.332 69.903 130.48 69.903 130.48L78.4089 122.918L71.1858 133.587C71.1858 133.587 68.2816 137.3 71.6598 138.447C75.0343 139.595 76.4525 135.611 77.0619 134.937C77.6712 134.264 83.3406 125.416 83.3406 125.416L78.5478 138.985C78.5478 138.985 79.0218 144.993 83.4083 139.794C85.5 133.922 88.1334 126.293 88.1334 126.293C88.1334 126.293 87.2568 139.93 87.5241 139.997C87.7949 140.065 90.3605 143.507 91.9819 139.862C93.6104 136.202 92.7302 119.661 92.7302 119.661Z" fill="#1471B9" stroke="black" stroke-width="0.1461" stroke-miterlimit="10"/>
<path d="M149.962 6.23006C149.962 6.23006 162.274 -1.67002 169.992 11.0228C173.595 21.959 173.256 24.1897 173.256 24.1897C173.256 24.1897 184.061 39.5159 167.583 45.1888C153.201 47.8899 149.164 47.416 149.164 47.416" fill="#D1E6F7"/>
<path d="M149.962 6.23006C149.962 6.23006 162.274 -1.67002 169.992 11.0228C173.595 21.959 173.256 24.1897 173.256 24.1897C173.256 24.1897 184.061 39.5159 167.583 45.1888C153.201 47.8899 149.164 47.416 149.164 47.416" stroke="#BEE6F5" stroke-width="0.1461" stroke-miterlimit="10"/>
<path d="M149.85 6.23006C149.85 6.23006 137.538 -1.67002 129.82 11.0228C126.218 21.959 126.556 24.1897 126.556 24.1897C126.556 24.1897 115.752 39.5159 132.229 45.1888C146.611 47.8899 150.648 47.416 150.648 47.416" fill="#D1E6F7"/>
<path d="M149.85 6.23006C149.85 6.23006 137.538 -1.67002 129.82 11.0228C126.218 21.959 126.556 24.1897 126.556 24.1897C126.556 24.1897 115.752 39.5159 132.229 45.1888C146.611 47.8899 150.648 47.416 150.648 47.416" stroke="#BEE6F5" stroke-width="0.1461" stroke-miterlimit="10"/>
<path d="M131.484 17.367C131.484 17.367 133.69 8.9716 140.396 11.0883C143.497 12.1502 144.726 11.9756 149.173 17.9763C147.488 21.497 131.755 24.4546 131.484 17.367Z" fill="white" stroke="black" stroke-width="0.1461" stroke-miterlimit="10"/>
<path d="M139.969 20.759C142.343 20.759 144.267 18.835 144.267 16.4615C144.267 14.0881 142.343 12.1641 139.969 12.1641C137.596 12.1641 135.672 14.0881 135.672 16.4615C135.672 18.835 137.596 20.759 139.969 20.759Z" fill="black" stroke="black" stroke-width="0.1461" stroke-miterlimit="10"/>
<path d="M138.499 16.1068C139.313 16.1068 139.974 15.4463 139.974 14.6315C139.974 13.8167 139.313 13.1562 138.499 13.1562C137.684 13.1562 137.023 13.8167 137.023 14.6315C137.023 15.4463 137.684 16.1068 138.499 16.1068Z" fill="white" stroke="white" stroke-width="0.1461" stroke-miterlimit="10"/>
<path d="M168.337 17.367C168.337 17.367 166.131 8.9716 159.425 11.0883C156.325 12.1502 155.096 11.9756 150.648 17.9763C152.337 21.497 168.07 24.4546 168.337 17.367Z" fill="white" stroke="black" stroke-width="0.1461" stroke-miterlimit="10"/>
<path d="M159.844 20.759C162.218 20.759 164.142 18.835 164.142 16.4615C164.142 14.0881 162.218 12.1641 159.844 12.1641C157.471 12.1641 155.547 14.0881 155.547 16.4615C155.547 18.835 157.471 20.759 159.844 20.759Z" fill="black" stroke="black" stroke-width="0.1461" stroke-miterlimit="10"/>
<path d="M158.014 16.1068C158.829 16.1068 159.49 15.4463 159.49 14.6315C159.49 13.8167 158.829 13.1562 158.014 13.1562C157.2 13.1562 156.539 13.8167 156.539 14.6315C156.539 15.4463 157.2 16.1068 158.014 16.1068Z" fill="white" stroke="white" stroke-width="0.1461" stroke-miterlimit="10"/>
<path d="M152.141 23.6602C152.141 23.6602 153.288 24.6045 153.22 25.6842" stroke="black" stroke-width="0.1461" stroke-miterlimit="10"/>
<path d="M172.07 27.7737C172.07 27.7737 174.853 27.706 175.32 29.7977" stroke="black" stroke-width="0.1461" stroke-miterlimit="10"/>
<path d="M165.727 24.1316C165.727 24.1316 173.491 23.1873 172.75 18.1914" stroke="black" stroke-width="0.1461" stroke-miterlimit="10"/>
<path d="M150.992 12.1831C150.992 12.1831 158.351 1.51427 170.438 12.1831" stroke="black" stroke-width="0.1461" stroke-miterlimit="10"/>
<path d="M149.852 7.79426C149.852 7.79426 155.792 1.65094 162.883 4.75467" stroke="black" stroke-width="0.1461" stroke-miterlimit="10"/>
<path d="M149.852 18.1882V2.72656" stroke="black" stroke-width="0.1461" stroke-miterlimit="10"/>
<path d="M147.567 23.6602C147.567 23.6602 146.42 24.6045 146.487 25.6842" stroke="black" stroke-width="0.1461" stroke-miterlimit="10"/>
<path d="M127.648 27.7737C127.648 27.7737 124.865 27.706 124.398 29.7977" stroke="black" stroke-width="0.1461" stroke-miterlimit="10"/>
<path d="M133.987 24.1316C133.987 24.1316 126.223 23.1873 126.964 18.1914" stroke="black" stroke-width="0.1461" stroke-miterlimit="10"/>
<path d="M148.719 12.1831C148.719 12.1831 141.361 1.51427 129.273 12.1831" stroke="black" stroke-width="0.1461" stroke-miterlimit="10"/>
<path d="M149.852 7.79426C149.852 7.79426 143.912 1.65094 136.82 4.75467" stroke="black" stroke-width="0.1461" stroke-miterlimit="10"/>
<path d="M149.859 18.1882V2.72656" stroke="black" stroke-width="0.1461" stroke-miterlimit="10"/>
<path d="M129.823 31.1453H150.242H170.785C170.785 31.1453 173.696 30.8745 173.693 33.3725C173.689 35.8704 168.761 38.5038 163.562 39.1772C159.496 39.555 155.391 39.8507 149.857 38.8387C148.71 38.6606 147.562 40.1893 135.678 39.245C129.332 38.1652 125.889 33.3725 126.631 33.5756C126.221 31.9578 127.347 31.1453 129.823 31.1453Z" fill="#1471B9" stroke="black" stroke-width="0.1461" stroke-miterlimit="10"/>
<path d="M169.893 33.4414C169.893 33.4414 159.167 36.9514 150.102 35.3336" stroke="black" stroke-width="0.1461" stroke-miterlimit="10"/>
<path d="M130.453 33.4414C130.453 33.4414 141.179 36.9514 150.244 35.3336" stroke="black" stroke-width="0.1461" stroke-miterlimit="10"/>
</g>
<defs>
<clipPath id="clip0_1306_2272">
<rect width="300" height="300" fill="white"/>
</clipPath>
</defs>
</svg>
