<svg width="300" height="300" viewBox="0 0 300 300" fill="none" xmlns="http://www.w3.org/2000/svg">
<g clip-path="url(#clip0_1306_2563)">
<path d="M160.524 255.98C159.668 259.547 166.061 260.449 168.107 276.965C168.591 283.333 173.869 283.682 174.595 283.757C181.266 284.448 178.276 275.654 178.276 275.654C178.276 275.654 179.06 279.125 183.875 279.388C191.226 279.795 186.301 273.384 186.301 273.384C186.301 273.384 190.424 276.356 192.851 274.414C195.278 272.472 196.55 268.167 195.823 267.622C195.62 267.469 194.672 266.3 192.548 265.227C187.114 262.476 177.183 258.218 176.049 257.434C174.471 256.344 173.986 245.486 173.986 245.486L173.979 222.007C173.979 222.007 159.127 223.357 162.095 220.385C165.07 217.417 161.379 252.41 160.524 255.98Z" fill="#E2B924" stroke="black" stroke-width="0.1461" stroke-miterlimit="10"/>
<path d="M141.222 256.094C142.077 259.661 135.684 260.562 133.639 277.079C133.154 283.446 127.877 283.796 127.15 283.87C120.479 284.562 123.469 275.767 123.469 275.767C123.469 275.767 122.685 279.238 117.871 279.502C110.519 279.908 115.444 273.497 115.444 273.497C115.444 273.497 111.321 276.469 108.894 274.527C106.468 272.585 105.195 268.281 105.922 267.735C106.126 267.582 107.073 266.413 109.197 265.341C114.631 262.59 124.563 258.332 125.696 257.548C127.274 256.457 127.759 245.599 127.759 245.599L127.766 222.12C127.766 222.12 142.618 223.471 139.65 220.499C136.675 217.53 140.366 252.523 141.222 256.094Z" fill="#E2B924" stroke="black" stroke-width="0.1461" stroke-miterlimit="10"/>
<path d="M142.372 224.353C143.092 223.273 135.445 160.347 150.928 163.946C166.411 160.076 159.117 223.451 159.477 224.353C159.836 225.254 172.44 227.685 176.399 225.073C179.46 225.433 176.128 188.252 179.909 167.278C181.89 158.907 178.38 131.629 178.38 131.629L122.838 131.27C122.838 131.27 119.687 158.547 122.838 178.353C124.783 193.747 122.296 216.973 123.504 222.375C123.896 224.132 123.319 225.165 125.539 225.525C127.759 225.885 141.652 225.433 142.372 224.353Z" fill="#4E5F89" stroke="black" stroke-width="0.1461" stroke-miterlimit="10"/>
<path d="M85.2899 138.076C85.2899 138.076 92.7909 132.065 99.8892 124.924C106.987 117.783 120.261 103.597 120.261 103.597C120.261 103.597 114.677 96.1494 112.4 94.6848C110.13 93.2238 75.0094 131.983 75.0094 131.983C75.0094 131.983 56.5581 129.802 54.6303 128.979C51.8544 127.796 49.6273 131.21 50.1725 132.482C50.7177 133.754 53.629 138.397 65.3669 136.893C66.5392 136.744 63.9094 138.533 63.9094 138.533C63.8667 138.607 53.1265 147.694 49.3956 149.084C45.7681 150.434 47.7137 156.136 51.8081 155.591C55.9024 155.045 64.9998 145.082 65.2742 144.808C65.5486 144.533 56.3799 157.126 55.9951 159.546C55.4962 162.685 59.9077 164.823 62.7264 160.636C65.545 156.449 72.8251 146.899 72.5507 146.989C72.2763 147.081 64.7254 161.819 65.6377 163.911C66.5463 166.003 68.1855 167.731 70.7334 166.366C73.2812 165.002 77.2401 149.736 76.9658 149.825C76.6914 149.918 76.2388 164.499 76.2388 164.499C76.2388 164.499 77.9208 168.683 81.1955 165.682C82.653 165.729 84.4347 142.812 84.3812 142.891L85.2899 138.076Z" fill="#E2B924" stroke="black" stroke-width="0.1461" stroke-miterlimit="10"/>
<path d="M217.385 138.069C217.385 138.069 209.884 132.057 202.786 124.916C195.688 117.775 182.414 103.589 182.414 103.589C182.414 103.589 187.998 96.1418 190.275 94.6772C192.548 93.2126 227.669 131.972 227.669 131.972C227.669 131.972 246.121 129.791 248.049 128.968C250.824 127.785 253.052 131.199 252.506 132.471C251.961 133.743 249.05 138.386 237.312 136.882C236.14 136.733 238.769 138.521 238.769 138.521C238.812 138.596 249.552 147.683 253.283 149.073C256.911 150.423 254.965 156.125 250.871 155.579C246.776 155.034 237.679 145.071 237.405 144.797C237.13 144.522 246.299 157.115 246.684 159.535C247.183 162.674 242.771 164.812 239.952 160.625C237.134 156.442 229.854 146.888 230.128 146.977C230.403 147.07 237.953 161.808 237.041 163.9C236.132 165.992 234.493 167.72 231.945 166.355C229.398 164.99 225.439 149.725 225.713 149.814C225.987 149.907 226.44 164.488 226.44 164.488C226.44 164.488 224.758 168.671 221.483 165.671C220.026 165.717 218.244 142.801 218.298 142.879L217.385 138.069Z" fill="#E2B924" stroke="black" stroke-width="0.1461" stroke-miterlimit="10"/>
<path d="M119.578 71.3366C118.341 74.8929 110.822 94.203 102.766 99.0635C102.798 99.1098 102.826 99.7691 103.036 100.008C105.093 102.345 114.853 112.423 114.988 112.722C118.683 109.907 124.827 102.559 124.827 102.559C124.827 102.559 125.012 100.692 124.239 106.105C124.103 111.012 119.866 138.197 120.266 140.043C120.661 141.889 126.765 140.417 129.823 139.412C133.546 138.186 136.65 140.798 141.525 140.221C143.371 140.007 148.295 137.516 151.923 137.837C154.984 138.108 157.439 140.257 160.835 140.403C163.604 140.524 166.561 138.55 168.938 139.188C174.629 140.716 178.681 141.051 181.225 139.323C180.01 133.383 176.567 98.447 177.038 101.782C177.711 105.022 186.082 112.088 186.356 112.18C186.63 112.273 193.223 105.218 199.32 99.7584C199.594 98.3936 186.83 89.8058 182.611 71.5112C182.308 70.4315 178.395 67.8908 176.835 65.2574C176.553 64.7835 175.808 63.4401 174.943 63.0303C171.009 61.1595 162.193 60.8531 157.664 60.4611C151.745 59.948 143.285 60.5929 139.743 60.9136C138.699 61.0063 138.083 61.074 138.083 61.074C138.083 61.074 128.354 61.3698 126.534 63.686C124.709 66.0022 120.633 69.6725 119.578 71.3366Z" fill="#252164" stroke="black" stroke-width="0.1461" stroke-miterlimit="10"/>
<path d="M177.031 101.78C177.031 101.78 170.999 78.6886 175.139 71.7578" stroke="black" stroke-width="0.1461" stroke-miterlimit="10"/>
<path d="M162.316 61.5C162.316 61.5 163.899 68.1279 159.355 71.7626C157.481 73.2628 154.559 74.2534 150.055 74.0575" stroke="black" stroke-width="0.1461" stroke-miterlimit="10"/>
<path d="M158.172 69.9219L159.351 71.7677" stroke="black" stroke-width="0.1461" stroke-miterlimit="10"/>
<path d="M150.93 134.821C150.93 134.821 153.356 134.415 154.707 134.821C156.057 135.227 161.189 137.205 162.493 137.073C163.797 136.938 169.516 134.821 171.719 135.676C173.921 136.532 177.944 137.219 180.841 137.077" stroke="black" stroke-width="0.1461" stroke-miterlimit="10"/>
<path d="M124.617 101.78C124.617 101.78 130.65 78.6886 126.509 71.7578" stroke="black" stroke-width="0.1461" stroke-miterlimit="10"/>
<path d="M139.345 61.5C139.345 61.5 137.763 68.1279 142.306 71.7626C144.18 73.2628 147.102 74.2534 151.606 74.0575" stroke="black" stroke-width="0.1461" stroke-miterlimit="10"/>
<path d="M143.484 69.9219L142.305 71.7677" stroke="black" stroke-width="0.1461" stroke-miterlimit="10"/>
<path d="M150.716 134.821C150.716 134.821 148.289 134.415 146.939 134.821C145.588 135.227 140.457 137.205 139.153 137.073C137.848 136.938 132.129 134.821 129.927 135.676C127.721 136.532 123.702 137.219 120.805 137.077" stroke="black" stroke-width="0.1461" stroke-miterlimit="10"/>
<path d="M122.475 50.5145C122.475 50.5145 123.826 58.6177 116.175 58.5251C108.524 58.436 105.731 50.6927 106.454 49.2531C106.725 46.3738 109.515 41.8697 108.613 38.4488C107.712 35.0279 105.912 31.4253 108.795 26.8357C111.678 22.246 113.656 19.9333 113.656 19.3347C113.656 18.736 110.053 13.7829 112.216 7.57187C113.117 4.8708 115.27 -0.26051 121.666 0.0103094C128.062 0.281129 131.123 4.24008 131.123 4.24008C131.123 4.24008 125.272 29.1768 125.272 29.5367C125.272 29.8966 122.475 50.5145 122.475 50.5145Z" fill="#E2B924" stroke="black" stroke-width="0.1461" stroke-miterlimit="10"/>
<path d="M178.922 50.5145C178.922 50.5145 177.571 58.6177 185.222 58.5251C192.873 58.436 195.666 50.6927 194.943 49.2531C194.672 46.3738 191.882 41.8697 192.784 38.4488C193.685 35.0279 195.485 31.4253 192.602 26.8357C189.723 22.246 187.741 19.9333 187.741 19.3347C187.741 18.736 191.344 13.7829 189.181 7.57187C188.279 4.8708 186.127 -0.26051 179.731 0.0103094C173.334 0.281129 170.273 4.24008 170.273 4.24008C170.273 4.24008 176.125 29.1768 176.125 29.5367C176.125 29.8966 178.922 50.5145 178.922 50.5145Z" fill="#E2B924" stroke="black" stroke-width="0.1461" stroke-miterlimit="10"/>
<path d="M143.731 67.5798C143.731 67.5798 149.386 72.5899 157.921 67.4194C158.975 66.7816 159.891 62.8405 163.661 60.5991C167.339 58.9813 175.549 55.874 178.652 51.8224C181.756 47.7708 183.78 37.9144 182.027 33.592C181.845 31.4753 184.194 23.8104 178.652 20.3967C177.298 18.5473 178.652 0.598355 162.175 1.04734C155.604 1.45357 150.926 5.50517 150.926 5.50517C150.926 5.50517 145.028 0.68744 137.581 1.09367C135.214 1.22908 125.176 1.12574 122.208 20.3967C121.082 23.4434 119.664 21.6011 119.664 34.6717C118.969 40.2769 117.483 51.0099 130.382 56.9537C134.63 59.1131 134.06 57.9657 138.835 60.4637C143.606 62.9652 141.661 66.8814 143.731 67.5798Z" fill="#E2B924" stroke="black" stroke-width="0.1461" stroke-miterlimit="10"/>
<path d="M123.621 31.9062C123.621 31.9062 118.558 35.8224 126.458 38.4558" stroke="black" stroke-width="0.1461" stroke-miterlimit="10"/>
<path d="M128.219 34.0703C128.219 34.0703 134.277 37.4449 150.928 37.3095" stroke="black" stroke-width="0.1461" stroke-miterlimit="10"/>
<path d="M142.867 41.1562C142.867 41.1562 146.912 42.0329 151.501 41.7656" stroke="black" stroke-width="0.1461" stroke-miterlimit="10"/>
<path d="M125.914 10.7708C125.914 10.7708 132.125 4.22129 143.874 8.67912C150.922 13.9458 148.463 19.6045 148.463 19.6045" stroke="black" stroke-width="0.1461" stroke-miterlimit="10"/>
<path d="M127.133 13.3631C127.133 13.3631 140.232 7.30528 148.064 19.6026" stroke="black" stroke-width="0.1461" stroke-miterlimit="10"/>
<path d="M147.648 23.4433C147.648 23.4433 149.131 21.6259 148.055 19.6055" stroke="black" stroke-width="0.1461" stroke-miterlimit="10"/>
<path d="M138.07 14.957C138.07 14.957 145.39 16.4216 147.335 23.2847" stroke="black" stroke-width="0.1461" stroke-miterlimit="10"/>
<path d="M177.93 31.9062C177.93 31.9062 182.994 35.8224 175.094 38.4558" stroke="black" stroke-width="0.1461" stroke-miterlimit="10"/>
<path d="M173.335 34.0703C173.335 34.0703 167.277 37.4449 150.625 37.3095" stroke="black" stroke-width="0.1461" stroke-miterlimit="10"/>
<path d="M158.689 41.1562C158.689 41.1562 154.644 42.0329 150.055 41.7656" stroke="black" stroke-width="0.1461" stroke-miterlimit="10"/>
<path d="M175.629 10.7708C175.629 10.7708 169.418 4.22129 157.669 8.67912C150.621 13.9458 153.079 19.6045 153.079 19.6045" stroke="black" stroke-width="0.1461" stroke-miterlimit="10"/>
<path d="M174.416 13.3631C174.416 13.3631 161.317 7.30528 153.484 19.6026" stroke="black" stroke-width="0.1461" stroke-miterlimit="10"/>
<path d="M153.9 23.4433C153.9 23.4433 152.417 21.6259 153.493 19.6055" stroke="black" stroke-width="0.1461" stroke-miterlimit="10"/>
<path d="M163.476 14.957C163.476 14.957 156.157 16.4216 154.211 23.2847" stroke="black" stroke-width="0.1461" stroke-miterlimit="10"/>
<path d="M154.344 23.2847C154.344 23.2847 164.425 9.96114 177.121 21.756C177.121 22.6504 176.53 23.3489 175.817 23.919C169.221 29.1679 161.912 27.8174 157.768 25.8932C155.406 24.7992 154.344 23.2847 154.344 23.2847Z" fill="#FBBEA3" stroke="black" stroke-width="0.1461" stroke-miterlimit="10"/>
<path d="M171.3 19.943C171.3 23.3924 168.502 26.1896 165.053 26.1896C161.604 26.1896 158.806 23.3924 158.806 19.943C158.806 19.6828 158.796 19.6971 158.828 19.4477C161.607 16.9497 167.932 16.376 170.986 17.7265C171.31 18.4784 171.3 19.0735 171.3 19.943Z" fill="black" stroke="black" stroke-width="0.1461" stroke-miterlimit="10"/>
<path d="M168.143 19.601C169.271 19.601 170.185 19.1272 170.185 18.5427C170.185 17.9582 169.271 17.4844 168.143 17.4844C167.016 17.4844 166.102 17.9582 166.102 18.5427C166.102 19.1272 167.016 19.601 168.143 19.601Z" fill="white" stroke="white" stroke-width="0.1461" stroke-miterlimit="10"/>
<path d="M167.353 22.656C168.308 22.656 169.082 22.2556 169.082 21.7616C169.082 21.2676 168.308 20.8672 167.353 20.8672C166.399 20.8672 165.625 21.2676 165.625 21.7616C165.625 22.2556 166.399 22.656 167.353 22.656Z" fill="white" stroke="white" stroke-width="0.1461" stroke-miterlimit="10"/>
<path d="M147.34 23.2847C147.34 23.2847 137.259 9.96114 124.562 21.756C124.562 22.6504 125.154 23.3489 125.867 23.919C132.463 29.1679 139.771 27.8174 143.915 25.8932C146.278 24.7992 147.34 23.2847 147.34 23.2847Z" fill="#FBBEA3" stroke="black" stroke-width="0.1461" stroke-miterlimit="10"/>
<path d="M130.375 19.943C130.375 23.3924 133.172 26.1896 136.622 26.1896C140.071 26.1896 142.868 23.3924 142.868 19.943C142.868 19.6828 142.879 19.6971 142.847 19.4477C140.067 16.9497 133.742 16.376 130.689 17.7265C130.368 18.4784 130.375 19.0735 130.375 19.943Z" fill="black" stroke="black" stroke-width="0.1461" stroke-miterlimit="10"/>
<path d="M139.62 20.4018C140.748 20.4018 141.662 19.928 141.662 19.3435C141.662 18.759 140.748 18.2852 139.62 18.2852C138.492 18.2852 137.578 18.759 137.578 19.3435C137.578 19.928 138.492 20.4018 139.62 20.4018Z" fill="white" stroke="white" stroke-width="0.1461" stroke-miterlimit="10"/>
<path d="M138.83 23.4451C139.784 23.4451 140.558 23.0446 140.558 22.5507C140.558 22.0567 139.784 21.6562 138.83 21.6562C137.875 21.6562 137.102 22.0567 137.102 22.5507C137.102 23.0446 137.875 23.4451 138.83 23.4451Z" fill="white" stroke="white" stroke-width="0.1461" stroke-miterlimit="10"/>
</g>
<defs>
<clipPath id="clip0_1306_2563">
<rect width="300" height="300" fill="white"/>
</clipPath>
</defs>
</svg>
