<svg width="300" height="300" viewBox="0 0 300 300" fill="none" xmlns="http://www.w3.org/2000/svg">
<g clip-path="url(#clip0_1306_2070)">
<path d="M110.346 69.2263C110.528 70.8477 99.1819 90.6531 114.668 115.319C108.368 140.527 107.645 150.607 107.645 150.607C107.645 150.607 100.262 158.351 109.085 160.328C111.515 160.599 111.964 160.328 111.964 160.328C111.964 160.328 117.815 164.829 126.549 161.95C131.68 165.011 135.55 161.048 135.55 161.048C135.55 161.048 138.611 158.529 136.27 153.847C135.447 152.197 138.162 149.382 138.162 145.565C138.162 141.749 138.276 134.736 140.143 130.713C145.994 130.082 156.079 130.442 156.079 130.442C156.079 130.442 158.691 135.124 158.869 144.396C159.14 150.878 159.86 149.71 160.669 153.668C160.309 154.477 157.337 155.921 160.669 161.501C164 167.081 169.67 161.59 169.67 161.59C169.67 161.59 176.33 164.74 183.713 160.51C185.377 159.559 184.005 161.547 186.909 161.073C188.192 160.863 192.144 158.91 192.244 156.484C192.362 153.586 188.485 150.158 188.485 150.158C188.485 150.158 183.692 119.527 180.902 114.756C183.086 111.289 187.932 106.175 189.881 94.2985C191.467 84.6381 186.774 69.7679 186.774 69.7679C186.774 69.7679 215.492 74.8993 221.614 70.1279C223.638 72.2873 226.385 72.3479 228.637 73.7055C230.059 74.5607 234.296 76.5491 235.86 75.2592C238.155 73.367 237.628 71.1897 234.239 69.5862C233.569 69.1194 233.355 68.8343 233.465 68.6669C233.947 67.9542 240.525 69.5114 242.41 68.2357C243.304 67.6299 244.188 65.7128 243.218 64.3872C241.968 62.6768 238.629 61.5757 238.629 61.5757C238.629 61.5757 248.172 61.2158 246.639 57.1642C245.111 53.1126 235.297 54.0141 235.297 54.0141C235.297 54.0141 240.393 52.2573 241.868 49.9411C242.962 48.2236 240.746 45.8218 239.912 45.551C237.945 44.9167 236.63 46.7234 233.633 47.5073C224.361 49.9376 226.567 49.4209 223.955 49.599C221.343 49.7808 227.194 43.7479 224.764 41.8558C222.333 39.9636 219.721 41.4068 219.721 41.4068C219.721 41.4068 217.562 50.5897 212.431 51.2204C207.299 51.8511 187.045 48.9683 187.045 48.9683C187.045 48.9683 190.555 33.5744 186.143 26.5509C186.414 22.4993 186.325 22.8592 184.704 17.0972C184.561 16.5912 192.329 11.9195 191.545 6.65282C190.908 2.37317 182.89 -3.29978 175.343 4.4934C175.072 5.12412 173.661 1.53576 162.497 0.0034972C152.872 -0.19249 148.418 7.91427 148.418 7.91427C148.418 7.91427 138.344 -7.56875 121.328 5.03503C120.969 3.95532 113.945 -3.69889 107.285 3.23551C101.074 12.5075 111.248 17.0081 111.248 17.0081C111.248 17.0081 109.266 23.0409 110.617 27.1816C107.378 31.6822 106.986 43.9118 108.996 49.0574C98.2839 51.5767 80.8196 51.1277 80.8196 51.1277C80.8196 51.1277 79.5475 49.5919 78.8847 47.4717C77.7765 43.9332 76.6754 39.2509 73.6607 40.8972C71.569 42.0375 71.6617 43.0495 71.9325 45.4797C72.1997 47.8708 72.9908 49.599 72.9908 49.599L68.4902 49.51C68.4902 49.51 61.3064 45.437 57.2156 45.2802C54.5715 45.1769 54.3364 48.8222 54.4147 49.1608C54.7497 50.6609 57.6503 51.8868 61.4703 54.2814C64.9482 55.1045 58.951 53.9678 54.9564 53.7183C51.9061 53.5259 50.8478 55.721 50.8478 55.721C50.8478 55.721 47.4269 61.3013 58.4093 61.6612C60.4547 61.7289 55.5907 61.9569 53.7377 63.4714C51.8633 65.0072 52.9965 67.8295 53.4348 68.3319C54.8851 69.9996 65.2261 67.466 65.5219 67.8722C57.0588 70.4842 59.9416 74.8957 59.9416 74.8957C59.9416 74.8957 63.5656 77.9674 72.4777 71.3073C79.4014 67.89 75.9556 76.6988 110.346 69.2263Z" fill="#252164" stroke="black" stroke-width="0.1461" stroke-miterlimit="10"/>
<path d="M148.572 120.495C163.139 120.495 174.948 108.686 174.948 94.1185C174.948 79.5513 163.139 67.7422 148.572 67.7422C134.004 67.7422 122.195 79.5513 122.195 94.1185C122.195 108.686 134.004 120.495 148.572 120.495Z" fill="#6B6DB2" stroke="black" stroke-width="0.1461" stroke-miterlimit="10"/>
<path d="M71.6579 66.3432C75.6845 66.3432 78.9487 63.079 78.9487 59.0525C78.9487 55.0259 75.6845 51.7617 71.6579 51.7617C67.6314 51.7617 64.3672 55.0259 64.3672 59.0525C64.3672 63.079 67.6314 66.3432 71.6579 66.3432Z" fill="#6B6DB2" stroke="black" stroke-width="0.1461" stroke-miterlimit="10"/>
<path d="M74.8679 46.4077C76.1196 46.4077 77.1342 45.393 77.1342 44.1413C77.1342 42.8897 76.1196 41.875 74.8679 41.875C73.6162 41.875 72.6016 42.8897 72.6016 44.1413C72.6016 45.393 73.6162 46.4077 74.8679 46.4077Z" fill="#6B6DB2" stroke="black" stroke-width="0.1461" stroke-miterlimit="10"/>
<path d="M58.3054 50.9038C59.5571 50.9038 60.5717 49.8891 60.5717 48.6374C60.5717 47.3858 59.5571 46.3711 58.3054 46.3711C57.0537 46.3711 56.0391 47.3858 56.0391 48.6374C56.0391 49.8891 57.0537 50.9038 58.3054 50.9038Z" fill="#6B6DB2" stroke="black" stroke-width="0.1461" stroke-miterlimit="10"/>
<path d="M54.4382 59.5561C55.6899 59.5561 56.7045 58.5414 56.7045 57.2898C56.7045 56.0381 55.6899 55.0234 54.4382 55.0234C53.1865 55.0234 52.1719 56.0381 52.1719 57.2898C52.1719 58.5414 53.1865 59.5561 54.4382 59.5561Z" fill="#6B6DB2" stroke="black" stroke-width="0.1461" stroke-miterlimit="10"/>
<path d="M57.5085 67.6538C58.7602 67.6538 59.7748 66.6391 59.7748 65.3874C59.7748 64.1358 58.7602 63.1211 57.5085 63.1211C56.2569 63.1211 55.2422 64.1358 55.2422 65.3874C55.2422 66.6391 56.2569 67.6538 57.5085 67.6538Z" fill="#6B6DB2" stroke="black" stroke-width="0.1461" stroke-miterlimit="10"/>
<path d="M63.4304 74.6733C64.6821 74.6733 65.6967 73.6586 65.6967 72.407C65.6967 71.1553 64.6821 70.1406 63.4304 70.1406C62.1787 70.1406 61.1641 71.1553 61.1641 72.407C61.1641 73.6586 62.1787 74.6733 63.4304 74.6733Z" fill="#6B6DB2" stroke="black" stroke-width="0.1461" stroke-miterlimit="10"/>
<path d="M147.568 64.4132C156.865 64.4132 164.401 56.8766 164.401 47.5797C164.401 38.2827 156.865 30.7461 147.568 30.7461C138.271 30.7461 130.734 38.2827 130.734 47.5797C130.734 56.8766 138.271 64.4132 147.568 64.4132Z" fill="#47449C" stroke="black" stroke-width="0.1461" stroke-miterlimit="10"/>
<path d="M225.009 66.5659C229.036 66.5659 232.3 63.3017 232.3 59.2751C232.3 55.2486 229.036 51.9844 225.009 51.9844C220.983 51.9844 217.719 55.2486 217.719 59.2751C217.719 63.3017 220.983 66.5659 225.009 66.5659Z" fill="#6B6DB2" stroke="black" stroke-width="0.1461" stroke-miterlimit="10"/>
<path d="M221.798 46.6147C223.049 46.6147 224.064 45.6 224.064 44.3484C224.064 43.0967 223.049 42.082 221.798 42.082C220.546 42.082 219.531 43.0967 219.531 44.3484C219.531 45.6 220.546 46.6147 221.798 46.6147Z" fill="#6B6DB2" stroke="black" stroke-width="0.1461" stroke-miterlimit="10"/>
<path d="M238.352 51.1225C239.604 51.1225 240.619 50.1078 240.619 48.8562C240.619 47.6045 239.604 46.5898 238.352 46.5898C237.101 46.5898 236.086 47.6045 236.086 48.8562C236.086 50.1078 237.101 51.1225 238.352 51.1225Z" fill="#6B6DB2" stroke="black" stroke-width="0.1461" stroke-miterlimit="10"/>
<path d="M242.227 59.7631C243.479 59.7631 244.494 58.7485 244.494 57.4968C244.494 56.2451 243.479 55.2305 242.227 55.2305C240.976 55.2305 239.961 56.2451 239.961 57.4968C239.961 58.7485 240.976 59.7631 242.227 59.7631Z" fill="#6B6DB2" stroke="black" stroke-width="0.1461" stroke-miterlimit="10"/>
<path d="M239.173 67.8608C240.424 67.8608 241.439 66.8461 241.439 65.5944C241.439 64.3428 240.424 63.3281 239.173 63.3281C237.921 63.3281 236.906 64.3428 236.906 65.5944C236.906 66.8461 237.921 67.8608 239.173 67.8608Z" fill="#6B6DB2" stroke="black" stroke-width="0.1461" stroke-miterlimit="10"/>
<path d="M233.227 74.892C234.479 74.892 235.494 73.8774 235.494 72.6257C235.494 71.3741 234.479 70.3594 233.227 70.3594C231.976 70.3594 230.961 71.3741 230.961 72.6257C230.961 73.8774 231.976 74.892 233.227 74.892Z" fill="#6B6DB2" stroke="black" stroke-width="0.1461" stroke-miterlimit="10"/>
<path d="M117.133 29.8429C117.133 29.8429 118.213 20.211 127.577 19.1313C136.938 18.0516 144.322 25.4314 144.322 25.4314C144.521 25.3602 141.802 31.3645 130.727 32.7222C126.537 33.2389 121.181 34.2152 117.133 29.8429Z" fill="white" stroke="black" stroke-width="0.1461" stroke-miterlimit="10"/>
<path d="M179.371 29.8429C179.371 29.8429 178.291 20.211 168.926 19.1313C159.565 18.0516 152.182 25.4314 152.182 25.4314C151.982 25.3602 154.701 31.3645 165.776 32.7222C169.963 33.2389 175.323 34.2152 179.371 29.8429Z" fill="white" stroke="black" stroke-width="0.1461" stroke-miterlimit="10"/>
<path d="M167.602 31.9026C170.808 31.9026 173.406 29.3037 173.406 26.0978C173.406 22.8919 170.808 20.293 167.602 20.293C164.396 20.293 161.797 22.8919 161.797 26.0978C161.797 29.3037 164.396 31.9026 167.602 31.9026Z" fill="black" stroke="black" stroke-width="0.1461" stroke-miterlimit="10"/>
<path d="M165.778 25.3872C166.785 25.3872 167.602 24.5704 167.602 23.5627C167.602 22.5551 166.785 21.7383 165.778 21.7383C164.77 21.7383 163.953 22.5551 163.953 23.5627C163.953 24.5704 164.77 25.3872 165.778 25.3872Z" fill="white" stroke="white" stroke-width="0.1461" stroke-miterlimit="10"/>
<path d="M169.193 27.7854C169.697 27.7854 170.106 27.377 170.106 26.8732C170.106 26.3694 169.697 25.9609 169.193 25.9609C168.69 25.9609 168.281 26.3694 168.281 26.8732C168.281 27.377 168.69 27.7854 169.193 27.7854Z" fill="white" stroke="white" stroke-width="0.1461" stroke-miterlimit="10"/>
<path d="M128.961 31.9104C132.167 31.9104 134.766 29.3115 134.766 26.1056C134.766 22.8997 132.167 20.3008 128.961 20.3008C125.755 20.3008 123.156 22.8997 123.156 26.1056C123.156 29.3115 125.755 31.9104 128.961 31.9104Z" fill="black" stroke="black" stroke-width="0.1461" stroke-miterlimit="10"/>
<path d="M127.137 25.3872C128.145 25.3872 128.961 24.5704 128.961 23.5627C128.961 22.5551 128.145 21.7383 127.137 21.7383C126.129 21.7383 125.312 22.5551 125.312 23.5627C125.312 24.5704 126.129 25.3872 127.137 25.3872Z" fill="white" stroke="white" stroke-width="0.1461" stroke-miterlimit="10"/>
<path d="M130.545 27.7854C131.049 27.7854 131.457 27.377 131.457 26.8732C131.457 26.3694 131.049 25.9609 130.545 25.9609C130.041 25.9609 129.633 26.3694 129.633 26.8732C129.633 27.377 130.041 27.7854 130.545 27.7854Z" fill="white" stroke="white" stroke-width="0.1461" stroke-miterlimit="10"/>
<path d="M117.043 18.5859C117.043 18.5859 115.775 19.3414 114.638 20.5993C113.173 22.2171 111.744 26.2081 113.711 28.9412C114.367 29.8499 115.564 29.2477 117.043 30.2027" stroke="black" stroke-width="0.1461" stroke-miterlimit="10"/>
<path d="M114.436 42.9779C114.436 42.9779 107.473 34.6359 112.936 27.2383" stroke="black" stroke-width="0.1461" stroke-miterlimit="10"/>
<path d="M121.289 14.7146C121.289 14.7146 135.963 6.43322 147.936 17.0558" stroke="black" stroke-width="0.1461" stroke-miterlimit="10"/>
<path d="M126.219 9.76102C126.219 9.76102 138.281 4.62971 147.913 13.6309" stroke="black" stroke-width="0.1461" stroke-miterlimit="10"/>
<path d="M112.102 17.5939C112.102 17.5939 115.522 8.68183 121.284 5.17188" stroke="black" stroke-width="0.1461" stroke-miterlimit="10"/>
<path d="M144.055 25.5146C144.055 25.5146 148.017 26.0562 147.925 22.3645C147.835 18.6728 148.416 7.15234 148.416 7.15234" stroke="black" stroke-width="0.1461" stroke-miterlimit="10"/>
<path d="M139.099 46.3977C139.099 46.3977 133.608 46.7576 137.748 51.44C141.889 56.1223 147.922 48.9206 147.922 48.9206V42.168" stroke="black" stroke-width="0.1461" stroke-miterlimit="10"/>
<path d="M179.555 18.5859C179.555 18.5859 180.823 19.3414 181.96 20.5993C183.425 22.2171 184.853 26.2081 182.886 28.9412C182.231 29.8499 181.034 29.2477 179.555 30.2027" stroke="black" stroke-width="0.1461" stroke-miterlimit="10"/>
<path d="M182.164 42.9779C182.164 42.9779 189.127 34.6359 183.664 27.2383" stroke="black" stroke-width="0.1461" stroke-miterlimit="10"/>
<path d="M175.311 14.7146C175.311 14.7146 160.637 6.43322 148.664 17.0558" stroke="black" stroke-width="0.1461" stroke-miterlimit="10"/>
<path d="M170.382 9.76102C170.382 9.76102 158.319 4.62971 148.688 13.6309" stroke="black" stroke-width="0.1461" stroke-miterlimit="10"/>
<path d="M184.511 17.5939C184.511 17.5939 181.09 8.68183 175.328 5.17188" stroke="black" stroke-width="0.1461" stroke-miterlimit="10"/>
<path d="M152.549 25.5146C152.549 25.5146 148.587 26.0562 148.679 22.3645C148.768 18.6728 148.188 7.15234 148.188 7.15234" stroke="black" stroke-width="0.1461" stroke-miterlimit="10"/>
<path d="M157.487 46.3977C157.487 46.3977 162.978 46.7576 158.838 51.44C154.697 56.1223 148.664 48.9206 148.664 48.9206V42.168" stroke="black" stroke-width="0.1461" stroke-miterlimit="10"/>
<path d="M148.301 38.5828C150.003 38.5828 151.383 38.1393 151.383 37.5922C151.383 37.0451 150.003 36.6016 148.301 36.6016C146.599 36.6016 145.219 37.0451 145.219 37.5922C145.219 38.1393 146.599 38.5828 148.301 38.5828Z" fill="white"/>
<path d="M148.418 43.6147C148.418 43.6147 144.505 41.7225 144.056 40.1938C143.607 38.6651 144.056 36.0531 146.935 36.2313C149.815 36.4131 150.538 36.2242 150.538 36.2242C150.538 36.2242 152.79 36.5948 152.697 39.1141C152.608 41.6334 148.418 43.6147 148.418 43.6147Z" fill="black" stroke="black" stroke-width="0.1461" stroke-miterlimit="10"/>
<path d="M148.301 38.5945C150.003 38.5945 151.383 38.151 151.383 37.6039C151.383 37.0568 150.003 36.6133 148.301 36.6133C146.599 36.6133 145.219 37.0568 145.219 37.6039C145.219 38.151 146.599 38.5945 148.301 38.5945Z" fill="white"/>
<path d="M187.622 49.2852C187.622 49.2852 181.682 67.651 147.562 67.7401" stroke="black" stroke-width="0.1461" stroke-miterlimit="10"/>
<path d="M112.807 160.369C112.807 160.369 110.466 153.976 116.588 153.078" stroke="black" stroke-width="0.1461" stroke-miterlimit="10"/>
<path d="M126.219 161.725C126.219 161.725 129.64 158.664 127.028 154.973" stroke="black" stroke-width="0.1461" stroke-miterlimit="10"/>
<path d="M183.679 160.369C183.679 160.369 186.02 153.976 179.898 153.078" stroke="black" stroke-width="0.1461" stroke-miterlimit="10"/>
<path d="M170.253 161.725C170.253 161.725 166.832 158.664 169.444 154.973" stroke="black" stroke-width="0.1461" stroke-miterlimit="10"/>
<path d="M109.398 49.2852C109.398 49.2852 115.339 67.651 149.458 67.7401" stroke="black" stroke-width="0.1461" stroke-miterlimit="10"/>
</g>
<defs>
<clipPath id="clip0_1306_2070">
<rect width="300" height="300" fill="white"/>
</clipPath>
</defs>
</svg>
