<svg width="265" height="265" viewBox="0 0 265 265" fill="none" xmlns="http://www.w3.org/2000/svg">
<path d="M141.647 222.443C141.768 222.737 142.144 223.781 141.647 224.436C141.245 224.971 140.414 225.025 136.726 224.851C134.365 224.744 133.453 224.65 133.132 225.186C132.85 225.654 133.199 226.363 133.467 226.938C134.043 228.143 134.929 228.852 135.143 229.026C135.143 229.026 138.214 231.514 140.159 235.435C140.668 236.465 141.299 237.75 140.829 238.271C140.266 238.887 138.456 238.097 136.659 237.268C130.53 234.471 127.472 233.08 124.964 231.608C121.008 229.28 119.949 228.383 117.454 227.942C115.631 227.621 114.249 227.755 112.439 227.942C111.299 228.062 107.477 228.517 99.7522 231.274C96.1045 232.571 93.9588 233.535 92.2423 232.438C91.9875 232.277 90.9683 231.608 90.9012 230.605C90.7805 228.597 94.6159 226.577 102.005 222.777C102.904 222.309 104.138 221.693 105.425 220.449C105.961 219.927 107.96 218.014 108.429 215.445C108.925 212.769 107.477 210.561 106.927 209.276C106.458 208.193 101.764 197.154 105.586 189.942C108.402 184.643 115.335 182.342 120.445 182.784C121.907 182.904 125.434 183.212 127.298 185.781C128.733 187.761 128.478 190.45 128.304 192.779C128.263 193.247 128.17 194.371 127.472 197.194C125.206 206.333 124.388 209.102 124.388 209.102C124.2 209.731 123.811 211.002 124.307 212.354C124.736 213.531 125.622 214.227 126.145 214.602C129.309 216.903 133.614 218.402 135.666 219.098C139.3 220.342 141.004 220.837 141.647 222.443Z" fill="#F28129"/>
<path fill-rule="evenodd" clip-rule="evenodd" d="M131.76 217.638C130.102 216.941 128.277 216.053 126.678 214.975C126.498 214.853 126.32 214.729 126.145 214.602C125.622 214.227 124.737 213.531 124.308 212.354C123.817 211.016 124.193 209.757 124.383 209.122L124.389 209.103C124.389 209.103 125.207 206.333 127.473 197.194C128.166 194.387 128.263 193.26 128.304 192.787L128.304 192.779C128.31 192.705 128.315 192.632 128.321 192.558C128.493 190.282 128.688 187.699 127.299 185.781C125.435 183.212 121.908 182.904 120.446 182.784C115.336 182.342 108.403 184.643 105.587 189.942C101.765 197.154 106.458 208.193 106.928 209.276C107.022 209.496 107.142 209.743 107.274 210.014C107.916 211.33 108.841 213.226 108.43 215.445C108.366 215.792 108.275 216.128 108.163 216.45C107.458 218.474 105.938 219.951 105.448 220.427L105.426 220.449C104.194 221.64 103.011 222.255 102.124 222.716C102.084 222.737 102.045 222.757 102.006 222.777C101.41 223.084 100.837 223.379 100.287 223.663C99.301 224.173 98.3898 224.649 97.555 225.096C97.5533 225.097 97.5515 225.098 97.5498 225.099C97.224 225.273 96.91 225.443 96.6076 225.609C96.5761 225.626 96.5446 225.644 96.5133 225.661C92.7349 227.74 90.8161 229.176 90.902 230.605C90.9691 231.608 91.9883 232.277 92.2431 232.438C93.7904 233.427 95.6865 232.741 98.7171 231.646C99.0485 231.526 99.3935 231.401 99.753 231.274C100.883 230.87 101.929 230.517 102.895 230.206C103.81 229.912 104.654 229.656 105.429 229.434C105.443 229.43 105.456 229.426 105.469 229.422C109.451 228.284 111.627 228.028 112.44 227.942C112.509 227.935 112.579 227.927 112.647 227.92C112.661 227.919 112.676 227.918 112.69 227.916C113.54 227.829 114.301 227.759 115.069 227.749C115.827 227.74 116.591 227.79 117.455 227.942C119.061 228.226 120.073 228.699 121.645 229.621C122.041 229.854 122.472 230.114 122.958 230.407C123.363 230.652 123.806 230.92 124.298 231.213C124.334 231.234 124.37 231.256 124.406 231.277C124.586 231.384 124.772 231.494 124.965 231.608C126.262 232.369 127.706 233.109 129.646 234.033C129.978 234.191 130.324 234.354 130.687 234.524C130.687 234.524 130.687 234.524 130.687 234.524C130.687 234.524 130.688 234.524 130.688 234.524C132.019 235.147 133.568 235.857 135.423 236.704C135.504 236.74 135.585 236.777 135.667 236.815C135.924 236.932 136.188 237.053 136.457 237.176L136.659 237.268C138.456 238.097 140.267 238.887 140.83 238.271C141.085 237.988 141.015 237.479 140.817 236.908C140.65 236.428 140.392 235.905 140.16 235.435C140.086 235.287 140.011 235.14 139.934 234.996C139.537 234.248 139.102 233.556 138.662 232.93C138.657 232.923 138.653 232.916 138.648 232.91C137.886 231.827 137.108 230.939 136.48 230.287C136.477 230.284 136.474 230.28 136.47 230.277C135.691 229.469 135.144 229.026 135.144 229.026L135.137 229.02C135.009 228.916 134.675 228.645 134.305 228.215C134.021 227.883 133.716 227.456 133.468 226.938C133.459 226.919 133.45 226.9 133.44 226.88C133.362 226.711 133.278 226.532 133.207 226.353C133.203 226.342 133.198 226.331 133.194 226.32C133.147 226.198 133.106 226.076 133.077 225.957C133.071 225.933 133.065 225.909 133.06 225.885C133.007 225.628 133.012 225.385 133.132 225.186C133.242 225.003 133.421 224.893 133.703 224.833C133.71 224.831 133.717 224.83 133.724 224.828C134.143 224.743 134.784 224.761 135.754 224.806C135.793 224.807 135.832 224.809 135.872 224.811C135.965 224.815 136.062 224.82 136.161 224.825C136.34 224.833 136.528 224.842 136.726 224.851C137.089 224.868 137.424 224.883 137.734 224.896C137.77 224.897 137.805 224.898 137.841 224.9C138.064 224.908 138.273 224.916 138.47 224.922C138.47 224.922 138.47 224.922 138.47 224.922C138.486 224.922 138.503 224.923 138.519 224.923C140.712 224.988 141.321 224.871 141.648 224.436C141.956 224.029 141.928 223.472 141.834 223.038C141.827 223.006 141.819 222.974 141.812 222.943C141.756 222.721 141.688 222.54 141.648 222.443C141.523 222.131 141.358 221.861 141.147 221.62C141.147 221.62 141.148 221.62 141.147 221.62C140.411 220.777 139.111 220.278 136.977 219.545C136.974 219.544 136.97 219.543 136.967 219.542C136.748 219.466 136.519 219.388 136.282 219.307C136.083 219.24 135.878 219.17 135.667 219.098C135.13 218.916 134.439 218.679 133.655 218.387C133.619 218.373 133.583 218.36 133.547 218.346C132.989 218.137 132.386 217.901 131.76 217.638ZM141.829 220.779C142.669 219.744 142.701 219.707 142.703 219.706C142.702 219.705 142.701 219.705 142.701 219.704L141.829 220.779ZM151.486 231.309C154.215 227.439 153.985 223.422 153.789 221.832C153.559 219.974 153.014 218.537 152.767 217.929C150.961 213.466 147.612 211.134 145.143 209.9C143.492 209.075 141.442 208.383 140.085 207.925C139.893 207.86 139.715 207.8 139.554 207.745L139.537 207.739L139.521 207.733C138.896 207.521 138.165 207.269 137.382 206.967C137.836 205.208 138.409 202.949 139.12 200.083L139.123 200.072C139.964 196.666 140.164 194.923 140.26 193.806L140.266 193.74L140.271 193.675C140.277 193.599 140.283 193.513 140.291 193.418C140.37 192.412 140.533 190.338 140.369 188.222C140.178 185.757 139.496 182.163 137.016 178.74L137.011 178.733C134.047 174.648 130.075 172.793 127.362 171.93C124.737 171.094 122.362 170.9 121.507 170.83C121.487 170.829 121.468 170.827 121.45 170.826C116.849 170.433 111.857 171.258 107.378 173.203C102.871 175.159 97.9942 178.659 94.9904 184.31L94.987 184.316L94.9836 184.323C91.0862 191.677 91.971 199.681 92.878 204.246C93.6028 207.894 94.6846 210.967 95.3628 212.7C92.2943 214.281 89.2864 215.859 87.0334 217.344C85.7734 218.175 83.9941 219.453 82.4604 221.231C80.8747 223.069 78.6359 226.54 78.9236 231.325L78.926 231.365L78.9287 231.405C79.2234 235.815 81.5229 238.746 82.7731 240.071C84.0853 241.463 85.3903 242.303 85.8214 242.575C90.5024 245.546 95.2062 245.056 97.8559 244.473C99.6916 244.068 101.824 243.29 103.14 242.81C103.382 242.721 103.596 242.643 103.776 242.579L103.786 242.576C110.412 240.211 113.335 239.911 113.675 239.878C114.138 239.83 114.444 239.799 114.712 239.777C114.957 239.757 115.1 239.751 115.185 239.749C115.409 239.873 115.734 240.064 116.283 240.395C116.418 240.476 116.564 240.565 116.722 240.66C117.308 241.014 118.045 241.459 118.879 241.95L118.885 241.954L118.891 241.957C121.915 243.732 125.469 245.353 130.862 247.813C131.121 247.931 131.384 248.051 131.652 248.173L131.712 248.201C132.508 248.569 134.122 249.315 135.762 249.806C136.585 250.053 138.204 250.488 140.175 250.491C142.055 250.494 146.294 250.075 149.683 246.373L149.717 246.335L149.752 246.296C152.56 243.175 153.005 239.652 152.995 237.693C152.985 235.77 152.556 234.226 152.305 233.432C152.059 232.652 151.752 231.903 151.486 231.309ZM99.9354 237.597C99.9349 237.597 99.9457 237.588 99.9695 237.571C99.9477 237.588 99.9359 237.597 99.9354 237.597ZM135.892 212.5C135.892 212.5 135.893 212.499 135.893 212.499C135.844 212.485 135.3 212.325 129.272 210.545L135.892 212.5ZM135.856 212.644C135.856 212.644 135.859 212.633 135.866 212.607C135.86 212.631 135.856 212.644 135.856 212.644ZM129.251 210.539L129.127 210.502C129.168 210.514 129.21 210.527 129.251 210.539Z" fill="#231F20"/>
<path d="M110.105 230.95C110.159 231.071 110.655 232.355 110.092 232.944C109.421 233.667 107.825 232.743 104.741 232.114C102.126 231.566 99.6716 231.057 98.8938 232.114C98.1428 233.145 99.2022 235.366 100.235 236.61C100.744 237.226 101.214 237.56 101.737 237.948C106.846 241.655 107.852 242.658 108.59 243.943C108.818 244.344 109.837 246.137 109.26 246.779C108.697 247.395 106.887 246.605 105.09 245.776C98.9608 242.979 95.9032 241.588 93.3954 240.116C89.4392 237.788 88.3797 236.891 85.8854 236.45C84.0615 236.129 82.6802 236.262 80.8698 236.45C79.7298 236.57 75.9078 237.025 68.1833 239.781C64.5356 241.079 62.3898 242.043 60.6732 240.945C60.4452 240.798 59.3187 240.076 59.3321 239.112C59.3724 237.226 63.7577 235.58 71.3616 232.784C73.4537 232.007 74.7143 231.606 75.7067 230.281C77.1684 228.328 77.0075 225.772 76.8734 223.953C76.632 220.688 75.586 218.293 75.3714 217.784C74.902 216.7 70.2083 205.662 74.0303 198.45C76.8466 193.151 83.7799 190.85 88.8894 191.291C90.3512 191.412 93.8782 191.72 95.7423 194.289C96.842 195.814 96.8151 197.634 96.7481 201.287C96.681 204.886 96.6274 207.629 95.2461 210.786C93.1138 215.643 91.7325 217.624 91.7325 217.624C91.1424 218.467 90.3914 219.443 90.5658 220.621C90.7535 221.946 92.0141 222.815 93.0736 223.457C96.3324 225.424 99.4302 226.227 104.097 227.619C107.517 228.636 109.421 229.265 110.105 230.95Z" fill="#F28129"/>
<path fill-rule="evenodd" clip-rule="evenodd" d="M103.603 231.88C103.355 231.831 103.111 231.784 102.871 231.741C102.87 231.741 102.869 231.741 102.868 231.741C101.023 231.411 99.4809 231.317 98.8938 232.115C98.3644 232.841 98.7346 234.159 99.3609 235.309C99.4237 235.425 99.4891 235.538 99.5564 235.649C99.7701 236.003 100.003 236.331 100.235 236.61C100.548 236.988 100.846 237.26 101.15 237.504C101.152 237.505 101.154 237.507 101.156 237.509C101.24 237.576 101.324 237.64 101.41 237.705C101.491 237.766 101.572 237.826 101.656 237.888C101.683 237.908 101.71 237.928 101.737 237.948C102.299 238.356 102.812 238.731 103.28 239.078C103.292 239.087 103.304 239.096 103.316 239.104C104.654 240.096 105.626 240.85 106.351 241.463C106.535 241.618 106.703 241.764 106.857 241.902C106.862 241.907 106.867 241.911 106.872 241.915C107.806 242.756 108.23 243.316 108.59 243.943L108.59 243.944C108.701 244.138 108.993 244.653 109.203 245.207C109.429 245.804 109.559 246.446 109.26 246.779C108.715 247.375 107 246.654 105.26 245.854C105.254 245.851 105.247 245.848 105.24 245.845C105.19 245.822 105.14 245.799 105.09 245.776L104.894 245.687C102.162 244.44 100.048 243.475 98.3213 242.657C98.3021 242.648 98.2829 242.639 98.2638 242.63C98.2005 242.6 98.1377 242.57 98.0755 242.54C96.8746 241.968 95.8638 241.467 94.9602 240.987C94.9578 240.986 94.9554 240.985 94.9529 240.984C94.4 240.69 93.8871 240.404 93.3955 240.116C92.6279 239.664 91.9694 239.266 91.3883 238.915C89.5108 237.781 88.4412 237.135 87.1128 236.736C86.7682 236.633 86.4061 236.546 86.0079 236.472C85.9675 236.464 85.9266 236.457 85.8854 236.45C85.0944 236.31 84.3866 236.257 83.6909 236.256C83.6877 236.256 83.6845 236.256 83.6813 236.256C82.7764 236.255 81.8914 236.344 80.8698 236.45C80.0193 236.54 77.6756 236.816 73.3319 238.095C73.3268 238.096 73.3217 238.098 73.3167 238.099C72.6942 238.283 72.0307 238.487 71.3247 238.714C70.8024 238.882 70.2568 239.062 69.6874 239.256C69.6174 239.28 69.5471 239.304 69.4764 239.329C69.0581 239.472 68.6272 239.623 68.1833 239.781C67.8238 239.909 67.4788 240.034 67.1474 240.154C64.1168 241.249 62.2206 241.934 60.6733 240.945L60.67 240.943C60.4347 240.791 59.3189 240.071 59.3322 239.112C59.357 237.947 61.0388 236.874 64.1122 235.565C64.128 235.558 64.1439 235.552 64.1598 235.545C64.8274 235.261 65.5601 234.967 66.355 234.658C66.3566 234.657 66.3581 234.656 66.3596 234.656C67.3627 234.266 68.465 233.853 69.661 233.41C70.2084 233.208 70.7755 232.999 71.3617 232.784C71.492 232.735 71.619 232.688 71.743 232.643C73.6097 231.954 74.7761 231.524 75.7067 230.281C76.93 228.647 77.0169 226.59 76.934 224.896C76.9179 224.566 76.8953 224.249 76.8734 223.953C76.6385 220.775 75.6412 218.421 75.3903 217.829C75.3835 217.813 75.3772 217.798 75.3714 217.784C74.9021 216.7 70.2083 205.662 74.0304 198.45C76.8466 193.151 83.78 190.85 88.8895 191.291C90.3512 191.412 93.8782 191.72 95.7423 194.289C96.842 195.814 96.8152 197.634 96.7481 201.287C96.6811 204.886 96.6274 207.629 95.2461 210.786C93.1138 215.643 91.7325 217.624 91.7325 217.624C91.6978 217.673 91.6626 217.723 91.627 217.774C91.0573 218.582 90.4017 219.513 90.5658 220.621C90.6716 221.367 91.1181 221.969 91.6772 222.467C92.1104 222.853 92.6112 223.177 93.0736 223.457C95.2904 224.795 97.4326 225.595 100.045 226.407C100.886 226.669 101.776 226.932 102.733 227.214C103.173 227.344 103.627 227.479 104.097 227.619C104.225 227.657 104.351 227.694 104.475 227.731C104.558 227.756 104.64 227.781 104.72 227.805C105.015 227.894 105.297 227.98 105.566 228.065C105.574 228.067 105.581 228.07 105.589 228.072C106.633 228.401 107.493 228.71 108.183 229.062C108.219 229.08 108.254 229.099 108.289 229.117C108.493 229.225 108.682 229.338 108.855 229.457C108.858 229.459 108.862 229.462 108.865 229.464C109.449 229.867 109.857 230.339 110.105 230.95C110.159 231.071 110.655 232.355 110.092 232.944C109.65 233.42 108.806 233.182 107.398 232.783C107.13 232.707 106.842 232.626 106.532 232.542C106.462 232.524 106.392 232.505 106.32 232.486C106.176 232.448 106.027 232.41 105.874 232.372C105.848 232.365 105.822 232.359 105.796 232.352C105.69 232.326 105.582 232.3 105.472 232.274C105.468 232.274 105.465 232.273 105.462 232.272C105.231 232.218 104.991 232.166 104.741 232.115C104.357 232.034 103.976 231.954 103.603 231.88ZM119.947 239.815C120.133 240.221 120.324 240.676 120.499 241.156C120.781 241.928 121.276 243.431 121.403 245.306C121.517 246.98 121.475 251.137 118.189 254.796L118.151 254.839L118.113 254.881C114.725 258.583 110.485 259.002 108.606 258.999C106.635 258.996 105.015 258.561 104.192 258.314C102.552 257.823 100.938 257.077 100.143 256.709L100.083 256.681C99.8162 256.56 99.5542 256.44 99.2964 256.323C93.9012 253.862 90.3462 252.24 87.3215 250.465L87.3154 250.462L87.3093 250.458C86.4754 249.967 85.7386 249.522 85.1529 249.168C84.9949 249.073 84.8478 248.984 84.7129 248.903C84.1642 248.572 83.8389 248.381 83.6156 248.257C83.5302 248.259 83.3877 248.265 83.1426 248.285C82.8741 248.307 82.5681 248.338 82.1048 248.386L82.1048 248.386C81.7655 248.419 78.8424 248.719 72.2162 251.083L72.206 251.087C72.0262 251.151 71.8119 251.229 71.5701 251.317C70.2543 251.798 68.1219 252.576 66.2861 252.98C63.6287 253.566 58.9052 254.057 54.2106 251.056L54.1876 251.042L54.1647 251.027C54.1569 251.022 54.1473 251.016 54.136 251.009C53.8586 250.831 52.5641 250.001 51.2795 248.67C50.1786 247.53 47.2607 244.166 47.3334 238.945L47.334 238.901L47.3349 238.856C47.4507 233.427 50.6918 230.044 52.309 228.645C54.0335 227.153 55.9366 226.142 57.2668 225.495C59.2615 224.526 61.7655 223.546 64.3683 222.575C64.3584 222.551 64.3489 222.529 64.3397 222.507C63.9347 221.568 62.3018 217.686 61.3217 212.754C60.4147 208.189 59.53 200.185 63.4273 192.831L63.4307 192.824L63.4341 192.818C66.4379 187.166 71.3146 183.667 75.8217 181.711C80.3007 179.766 85.2927 178.941 89.8936 179.334C89.9119 179.335 89.931 179.337 89.951 179.338C90.8058 179.408 93.1807 179.602 95.8057 180.437C98.5183 181.301 102.491 183.156 105.455 187.241L105.466 187.256L105.476 187.271C107.579 190.188 108.334 193.185 108.609 195.666C108.822 197.576 108.781 199.672 108.752 201.192C108.75 201.3 108.748 201.405 108.746 201.507L108.746 201.51C108.743 201.661 108.741 201.816 108.738 201.974C108.68 205.363 108.597 210.208 106.24 215.596L106.237 215.603L106.234 215.61C106.218 215.647 106.202 215.683 106.186 215.72C106.374 215.776 106.568 215.834 106.769 215.894C107.011 215.966 107.262 216.04 107.522 216.118C107.586 216.137 107.652 216.157 107.72 216.177C109.174 216.608 111.478 217.291 113.498 218.303C116.007 219.559 119.365 221.928 121.191 226.356C121.534 227.182 121.973 228.473 122.202 230.023L122.204 230.037C122.333 230.914 123.015 235.538 119.947 239.815ZM95.6046 220.324C95.4601 220.224 95.3122 220.12 95.1606 220.015L95.1605 220.015L95.6044 220.324C95.6044 220.324 95.6045 220.324 95.6046 220.324ZM111.257 221.401C111.257 221.401 111.256 221.4 111.255 221.4C111.269 221.404 111.271 221.404 111.257 221.401ZM95.1541 220.01L95.1542 220.01C95.1384 219.999 95.1226 219.988 95.1068 219.977L95.1541 220.01ZM99.1331 213.094C99.1339 213.094 99.1502 213.104 99.1793 213.124C99.1468 213.104 99.1322 213.093 99.1331 213.094ZM67.3444 247.296C67.3442 247.296 67.351 247.292 67.3655 247.284C67.3519 247.292 67.3446 247.296 67.3444 247.296Z" fill="#231F20"/>
<path d="M192.781 176.399C190.742 178.446 173.872 195.118 152.548 200.002C147.654 201.126 145.106 201.714 141.31 201.768C134.779 201.875 131.494 200.323 125.633 201.768C122.508 202.544 122.401 203.24 119.129 204.43C110.157 207.682 104.686 204.711 90.4434 205.019C83.8722 205.166 84.7439 205.795 79.2053 205.902C73.8678 206.009 60.6716 206.25 47.851 199.707C43.3986 197.433 44.096 196.951 20.3456 171.97C19.9701 171.582 16.5504 167.969 13.8414 162.229C12.3931 159.165 9.65729 153.358 11.7762 151.017C13.1038 149.545 15.3434 150.548 21.8342 151.311C28.325 152.074 34.0916 152.756 40.1667 151.017C44.5922 149.746 47.8644 147.565 50.2247 145.999C54.4893 143.162 57.158 140.326 57.909 139.51C60.846 136.312 62.3882 133.542 63.1124 132.365C69.2813 122.316 83.2553 117.299 86.5946 116.201C94.4935 113.619 96.0491 115.559 109.071 114.141C120.014 112.937 122.656 111.157 135.691 108.24C150.242 104.975 162.258 104.4 186.276 103.223C197.971 102.647 205.722 102.647 211.126 107.946C215.19 111.933 216.598 117.646 217.041 119.453C218.61 125.862 217.47 131.214 216.451 135.977C215.337 141.182 213.701 144.915 212.307 148.073C211.77 149.304 209.598 154.161 205.507 160.463C199.835 169.214 194.175 175.007 192.794 176.399H192.781Z" fill="#A6C9E9" stroke="#231F20" stroke-miterlimit="10"/>
<path d="M129.5 206.5C134 205 146.5 199.26 152 198C173.323 193.116 190.742 178.446 192.781 176.399H192.794C194.175 175.007 199.835 169.214 205.507 160.463C209.598 154.161 211.77 149.304 212.307 148.073C213.701 144.915 215.337 141.182 216.451 135.977C217.47 131.214 218.61 125.862 217.041 119.453C216.598 117.646 215.19 111.933 211.126 107.946C205.722 102.647 197.971 102.647 186.276 103.223C162.258 104.4 150.242 104.975 135.691 108.24C122.656 111.157 120.014 112.937 109.071 114.141C96.0491 115.559 94.4935 113.619 86.5946 116.201C83.2553 117.299 69.2813 122.316 63.1124 132.365C62.3882 133.542 60.846 136.312 57.909 139.51C57.158 140.326 54.4893 143.162 50.2247 145.999C47.8644 147.565 44.5922 149.746 40.1667 151.017C34.0916 152.756 28.325 152.074 21.8342 151.311C15.3434 150.548 13.1038 149.545 11.7762 151.017C9.65729 153.358 12.3931 159.165 13.8414 162.229C16.5504 167.969 19.9701 171.582 20.3456 171.97C44.096 196.951 43.3986 197.433 47.851 199.707C60.6716 206.25 64.5 206.5 67.5 210" stroke="#231F20" stroke-width="12" stroke-miterlimit="10"/>
<path d="M39 152.464C40.6093 154.511 38.4234 158.74 38.2759 159.021C37.4444 160.586 36.9079 160.492 33.6491 164.359C31.3961 167.035 31.1011 167.731 31.0341 168.521C30.8731 170.18 31.7985 170.849 31.423 172.682C31.1816 173.873 30.6988 173.953 30.0283 175.465C28.7543 178.328 29.5589 180.041 28.7542 180.469C27.5741 181.085 24.7981 177.914 22.5719 175.358C20.7078 173.204 18.0257 169.832 15.4374 165.296C14.4584 163.57 13.9622 162.513 12.9832 160.385C11.4812 157.147 11.2801 156.184 11.213 155.301C11.1326 154.177 10.9582 151.728 12.3663 150.564C13.7074 149.467 15.5313 150.337 20.3055 151.126C20.3055 151.126 23.2827 151.621 27.0511 151.889C34.8159 152.424 37.6187 150.698 39.0134 152.478L39 152.464Z" fill="#202325" stroke="#231F20" stroke-miterlimit="10"/>
<path d="M133.305 154.793C133.533 158.231 132.487 160.881 131.964 162.352C129.483 169.404 122.872 173.137 121.504 173.9C115.992 177.004 114.262 175.238 104.808 179.238C103.614 179.747 101.844 180.536 99.2422 181.232C97.1367 181.807 95.6615 181.995 90.78 182.57C85.295 183.199 82.5593 183.52 80.7622 183.68C76.444 184.069 74.0032 184.283 70.959 184.349C61.8666 184.55 55.4025 183.239 53.3641 182.797C47.9864 181.62 45.2641 180.991 43.1184 178.797C39.2292 174.823 39.5108 169.283 39.5511 168.574C39.6315 167.29 39.8327 164.252 42.0052 161.911C43.8023 159.971 46.0285 159.489 47.7987 159.021C51.3391 158.084 54.9064 156.318 62.0543 152.799C68.0623 149.842 67.1772 148.745 74.2983 144.356C82.2508 139.459 89.1573 137.238 94.7898 135.472C102.595 133.023 106.497 131.792 110.601 132.581C116.783 133.759 120.887 137.211 123.958 139.914C127.579 143.098 132.849 147.728 133.305 154.793Z" fill="#A6C9E9" stroke="#231F20" stroke-miterlimit="10"/>
<path d="M79.5936 141.371C80.2507 141.826 78.628 144.007 78.5207 147.619C78.4671 149.506 78.9633 149.787 79.5265 153.279C80.2507 157.762 79.9154 158.417 80.5323 161.95C80.9346 164.291 81.3504 166.646 82.5305 169.443C84.3946 173.831 87.1036 176.935 87.7071 177.605C90.2149 180.401 92.2399 181.565 91.8644 182.421C91.6364 182.957 90.7111 182.783 87.1975 183.104C83.4023 183.452 83.3889 183.746 82.6781 183.465C80.8006 182.716 80.8005 180.535 78.5073 175.597C77.0992 172.56 76.9919 173.189 75.8386 170.593C75.1144 168.961 73.6526 165.388 72.9955 160.598C72.3652 156.062 73.4515 156.169 72.6602 152.597C71.9226 149.238 70.6889 147.619 71.6277 146.041C72.1373 145.198 72.687 145.331 75.2485 143.846C78.1989 142.134 79.1108 141.01 79.5802 141.344L79.5936 141.371Z" fill="#202325" stroke="#231F20" stroke-miterlimit="10"/>
<path d="M62.0392 152.796C62.6427 153.278 61.7978 154.977 61.315 156.623C60.5506 159.246 61.2346 161.948 62.1465 167.448C62.8304 171.529 63.4875 175.449 65.6601 178.607C66.8 180.266 68.0338 181.898 69.4955 183.276C69.8979 183.651 70.4611 184.16 70.327 184.521C70.1661 184.936 69.1871 184.882 66.7329 184.775C62.4683 184.588 61.8514 184.601 61.2882 183.986C60.6713 183.303 60.9798 182.781 60.4701 180.935C59.9739 179.142 59.2632 178.165 58.6329 177.015C57.1175 174.285 56.5407 171.636 56.125 169.762C54.8108 163.795 56.0445 159.42 55.2935 156.931C55.2533 156.81 55.1461 156.462 55.2534 156.061C55.4813 155.178 56.581 154.844 58.2172 154.174C61.1139 152.997 61.6503 152.448 62.0258 152.756L62.0392 152.796Z" fill="#202325" stroke="#231F20" stroke-miterlimit="10"/>
<path d="M212.79 109.698C209.357 112.508 211.462 115.773 207.667 119.479C206.031 121.072 203.456 122.022 198.32 123.922C195.356 125.019 193.089 125.634 191.199 126.143C187.148 127.24 184.721 127.869 181.395 127.922C179.491 127.949 177.882 127.775 177.171 127.695C172.558 127.186 171.632 126.223 169.379 126.812C167.797 127.226 168.132 127.722 165.155 129.033C164.015 129.528 162.312 130.264 160.26 130.585C157.9 130.959 156.049 130.652 154.467 130.357C146.662 128.952 142.893 127.909 142.893 127.909C133.09 125.206 134.578 125.179 130.649 124.35C124.574 123.079 122.978 123.56 119.518 121.687C117.44 120.563 115.455 118.998 113.51 117.472C111.123 115.586 110.788 115.064 108.159 113.03C104.552 110.234 104.458 110.662 103.036 109.257C100.314 106.541 99.201 103.463 98.5841 101.697C97.5515 98.7533 97.3906 96.4118 97.243 94.1372C97.0285 90.752 96.8005 86.9787 98.3561 82.8041C99.9386 78.5626 101.722 78.3619 101.923 75.0302C102.071 72.6753 101.226 71.9126 101.253 68.5809C101.253 68.5809 101.28 65.7176 102.138 62.8007C103.868 56.967 111.941 54.1169 118.392 50.3571C128.839 44.2557 126.827 40.536 134.646 35.9198C145.575 29.4706 151.355 35.6523 181.409 34.3678C187.39 34.1136 192.647 33.6319 207.238 33.0298C224.229 32.334 229.017 32.4945 232.182 35.9198C236.057 40.1212 232.074 43.3593 235.749 56.3649C237.787 63.55 239.92 65.8247 241.542 74.5887C242.481 79.6999 242.937 82.3358 241.985 85.6942C241.381 87.8083 235.95 93.2139 222.861 95.0604C212.884 96.4653 218.623 102.794 217.148 103.463C212.079 105.765 216.035 107.036 212.803 109.685L212.79 109.698Z" fill="#2A5B8F" stroke="#231F20" stroke-miterlimit="10"/>
<path d="M210.536 111.84C210.536 111.84 210.563 111.84 210.59 111.866C210.764 112 210.979 112.321 210.509 112.643C210.509 112.643 210.456 112.669 210.442 112.669C210 112.629 209.544 112.576 209.101 112.576C205.467 112.482 201.913 113.592 198.48 114.864C195.033 116.135 191.56 117.566 187.912 118.383C184.278 119.226 180.55 119.68 176.821 119.68C174.957 119.68 173.093 119.573 171.243 119.373L170.183 119.239C170.183 119.239 168.923 118.985 168.078 118.677C166.616 118.222 167.26 118.155 168.185 118.235C168.306 118.235 170.398 118.436 170.398 118.436L171.98 118.623C173.777 118.811 175.574 118.878 177.385 118.851C180.992 118.797 184.586 118.356 188.086 117.5C191.6 116.683 194.939 115.292 198.372 114.034C201.779 112.79 205.386 111.666 209.128 111.759C209.597 111.759 210.067 111.813 210.536 111.853V111.84Z" fill="#202020"/>
<path d="M116.622 108.467C116.622 108.467 116.608 108.441 116.595 108.414C116.555 108.186 116.635 107.812 117.185 107.905C117.185 107.905 117.238 107.919 117.252 107.932C117.534 108.28 117.842 108.601 118.15 108.922C121.651 112.388 126.465 114.154 131.105 115.907C133.452 116.776 135.812 117.579 138.186 118.355L142.679 119.787C142.679 119.787 143.859 120.242 144.677 120.63C146.072 121.245 145.428 121.245 144.516 121.058C144.61 121.112 142.33 120.536 142.33 120.536L137.569 119.011C135.222 118.248 132.889 117.445 130.582 116.589C126.009 114.85 121.195 113.084 117.56 109.498C117.239 109.15 116.903 108.815 116.608 108.441L116.622 108.467Z" fill="#202020"/>
<path d="M192.23 63.7122C192.23 76.3565 205.091 78.5642 222.002 78.5642C238.913 78.5642 253.464 76.3432 253.464 63.7122C253.464 51.0813 239.758 40.832 222.847 40.832C205.936 40.832 192.23 51.0813 192.23 63.7122Z" fill="white" stroke="#231F20" stroke-miterlimit="10"/>
<path d="M225.004 78.5642C241.915 78.5642 256.465 76.3432 256.465 63.7122C256.444 52.6969 242.738 42.592 225.85 40.832" stroke="#231F20" stroke-width="12" stroke-miterlimit="10"/>
<path d="M234.031 76.625C241.06 76.625 246.758 72.0124 246.758 66.3223C246.758 60.6323 241.06 56.0195 234.031 56.0195C227.003 56.0195 221.305 60.6323 221.305 66.3223C221.305 72.0124 227.003 76.625 234.031 76.625Z" fill="#231F20"/>
<path d="M240.789 71.0064C242.108 71.0064 243.177 69.7484 243.177 68.1965C243.177 66.6447 242.108 65.3867 240.789 65.3867C239.471 65.3867 238.402 66.6447 238.402 68.1965C238.402 69.7484 239.471 71.0064 240.789 71.0064Z" fill="white"/>
<path d="M227.114 65.4794C226.671 66.2956 226.859 67.3793 227.556 67.9145C228.253 68.4497 229.165 68.2089 229.621 67.3927C230.077 66.5766 229.876 65.4927 229.179 64.9575C228.481 64.4223 227.57 64.6632 227.114 65.4794Z" fill="white"/>
<path d="M226.132 61.2518C225.85 61.7736 225.971 62.4694 226.414 62.8039C226.856 63.1384 227.446 62.9912 227.728 62.4694C228.009 61.9476 227.889 61.2518 227.446 60.9173C227.004 60.5828 226.414 60.7299 226.132 61.2518Z" fill="white"/>
<path d="M249.092 46.5999C250.795 48.5801 251.949 49.4499 252.995 51.7111C253.585 52.9956 254.403 54.5477 253.773 55.3773C253.236 56.0864 251.6 54.24 248.757 54.1597C246.839 54.1062 239.705 53.8252 238.645 53.9055C235.212 54.0928 225.141 54.8287 221.305 55.4844C214.157 56.702 209.772 58.8562 208.136 59.0836C200.921 60.1407 195.771 60.4083 191.359 60.0471C188.543 59.8196 189.871 59.3111 188.409 57.371C186.223 54.4541 187.98 52.0992 185.74 46.814C185.284 45.757 184.694 44.7668 183.514 42.8133C178.109 33.8887 174.904 31.8415 175.28 27.8141C175.32 27.3592 175.548 24.9106 177.278 23.7064C178.418 22.9169 179.209 23.3317 181.18 23.0373C183.97 22.6226 184.426 21.4585 189.2 19.2641C191.279 18.3007 192.325 17.8325 193.652 17.4846C196.992 16.6283 199.137 17.2303 203.12 17.5916C209.115 18.1402 208.498 17.1634 213.581 17.6986C218.261 18.1937 221.667 18.555 225.047 21.0303C228.641 23.6662 230.143 27.1719 230.72 28.5902C231.725 31.012 232.919 33.9288 231.94 35.8154C231.793 36.0964 236.969 37.0732 237.948 36.926C240.496 36.5514 242.762 38.5718 244.412 40.0302C246.812 42.1711 245.874 42.8401 249.092 46.5866V46.5999Z" fill="#2A5B8F" stroke="#231F20" stroke-miterlimit="10"/>
<path d="M214.332 51.5095C214.332 51.5095 214.359 51.5095 214.386 51.5095C214.587 51.5898 214.909 51.844 214.533 52.2722C214.533 52.2722 214.493 52.3123 214.48 52.3123L213.125 52.5531L208.834 53.3292L208.069 53.4629C208.069 53.4629 207.788 53.4897 207.332 53.5432C206.903 53.5834 206.393 53.6235 205.991 53.744C205.347 53.9848 205.213 54.2391 205.173 54.1053C205.132 53.9982 205.347 53.57 205.817 53.3158C205.763 53.3158 206.326 53.0348 206.903 52.9144C207.479 52.7672 208.029 52.6334 208.029 52.6334L208.686 52.513L212.978 51.7369L214.332 51.4961V51.5095Z" fill="#202020"/>
<path d="M245.567 50.401C245.567 50.401 245.594 50.401 245.62 50.4411C245.781 50.6284 245.875 50.9764 245.352 51.1771C245.352 51.1771 245.299 51.1905 245.285 51.1771C244.896 51.0299 244.454 50.9496 244.011 50.8693C241.289 50.4411 238.459 50.3742 235.67 50.3876C234.972 50.3876 234.275 50.4144 233.604 50.4813L231.485 50.682L228.508 50.9095C228.508 50.9095 227.476 50.9229 226.363 50.9362C224.847 50.9898 225.41 50.7221 226.322 50.4813C226.269 50.4813 226.819 50.3609 227.395 50.2538C227.972 50.1602 228.548 50.0665 228.548 50.0665L231.633 49.8257L233.685 49.6249C234.409 49.558 235.093 49.5446 235.804 49.5312C238.593 49.5312 241.369 49.5714 244.159 50.0263C244.628 50.1066 245.097 50.2003 245.567 50.3742V50.401Z" fill="#202020"/>
<path d="M241.046 37.328C241.046 37.328 241.073 37.328 241.086 37.3681C241.22 37.5688 241.301 37.9301 240.764 38.0773C240.764 38.0773 240.711 38.0773 240.697 38.0773C240.308 37.8899 239.893 37.7562 239.464 37.6358C237.009 37.0337 234.314 37.3012 231.726 37.5019C230.425 37.6357 229.124 37.8097 227.836 38.0238C227.193 38.1442 226.549 38.2646 225.905 38.3984L225.06 38.5857C225.06 38.5857 224.041 38.7329 222.928 38.9068C221.44 39.1477 221.949 38.8132 222.834 38.4519C222.781 38.4519 223.317 38.2646 223.867 38.0906C224.43 37.9167 224.98 37.7427 224.98 37.7427L225.959 37.5287C226.603 37.3949 227.246 37.2744 227.89 37.1674C229.178 36.9533 230.478 36.7794 231.779 36.6456C233.08 36.5251 234.394 36.4449 235.709 36.4315C237.023 36.4181 238.364 36.4716 239.692 36.8195C240.161 36.9399 240.617 37.1006 241.059 37.3013L241.046 37.328Z" fill="#202020"/>
<path d="M214.17 37.7695C214.17 37.7695 214.196 37.7695 214.223 37.7695C214.424 37.8364 214.773 38.0505 214.451 38.5188C214.451 38.5188 214.411 38.5589 214.398 38.5723C213.955 38.7061 213.499 38.8132 213.043 38.9336C208.819 39.9639 204.353 40.0308 200.102 39.3083C198.01 39.0139 195.837 38.7597 193.946 39.5223C193.007 39.8836 192.203 40.5259 191.425 41.235L190.754 41.8773C190.754 41.8773 189.789 42.7069 189.065 43.2287C187.858 44.1519 188.166 43.6033 188.77 42.8808C188.689 42.9343 190.258 41.2083 190.258 41.2083L190.553 40.9272L191.157 40.3653C191.961 39.6428 192.887 38.9738 193.973 38.6259C196.132 37.9034 198.372 38.2245 200.437 38.5188C204.568 39.2146 208.805 39.1076 212.855 38.1308C213.298 38.0238 213.74 37.9167 214.17 37.7829V37.7695Z" fill="#202020"/>
<path d="M205.225 55.1502C205.024 56.2608 189.307 58.2143 183.071 54.7086C173.938 49.5706 169.378 47.015 166.254 41.596C165.677 40.5925 161.117 32.6982 164.363 28.4835C165.422 27.1053 167.85 25.4194 170.371 25.4863C171.457 25.5131 172.289 25.861 174.488 25.9279C176.151 25.9814 176.848 25.8074 177.492 25.8208C181.797 25.8476 188.22 33.5679 187.845 40.6996C187.765 42.2785 187.335 44.1651 188.288 44.8073C189.186 45.4228 190.822 44.6066 192.069 43.8038C195.972 48.4334 201.309 50.5073 205.212 55.1368L205.225 55.1502Z" fill="#2A5B8F"/>
<path d="M223.395 87.8246C227.325 87.5837 216.569 82.8204 222.846 81.7366C227.808 80.8802 243.109 81.1746 245.684 79.4084C248.259 77.6422 249.801 76.8796 249.989 76.4916C250.767 74.993 250.552 72.8655 249.654 72.3838C249.077 72.0761 248.299 72.5042 248.098 72.6113C246.435 73.481 243.31 74.7254 235.961 74.6585C228.84 74.605 224.938 74.5648 219.627 74.2571C217.602 74.1367 217.025 73.9894 214.477 73.869C211.031 73.6951 207.262 72.2367 204.46 71.8888C195.488 70.7648 192.846 69.6007 189.989 69.1725C189.694 69.1324 189.627 70.912 189.775 71.6211C190.62 75.8493 195.394 76.2507 196.561 78.338C197.54 80.0641 197.566 80.7063 200.275 82.633C202.005 83.864 200.973 86.9415 216.596 87.731C220.365 87.9183 221.625 87.9584 223.382 87.838L223.395 87.8246Z" fill="#2A5B8F" stroke="#231F20" stroke-miterlimit="10"/>
<path d="M243 87.5C247.5 87 253.5 80 254 77.5C254.778 76.0014 254.5 70 254.5 70" stroke="#231F20" stroke-width="12" stroke-miterlimit="10"/>
<path d="M242.002 94.5004C244.785 93.2729 247.044 90.1099 247.5 86.5C247.882 84.8555 248.503 81.498 248.503 81.498" stroke="#231F20" stroke-width="12" stroke-miterlimit="10"/>
<path d="M133.439 60.1535C133.439 72.7978 147.145 78.2569 164.056 78.2569C180.967 78.2569 194.673 72.7978 194.673 60.1535C194.673 54.0387 189.469 48.593 184.226 44.4853C178.647 40.11 171.928 38.9727 163.198 38.9727C146.287 38.9727 133.426 47.5092 133.426 60.1535H133.439Z" fill="white" stroke="#231F20" stroke-miterlimit="10"/>
<path d="M172.92 72.9197C180.793 72.9197 187.175 67.9236 187.175 61.7606C187.175 55.5976 180.793 50.6016 172.92 50.6016C165.047 50.6016 158.664 55.5976 158.664 61.7606C158.664 67.9236 165.047 72.9197 172.92 72.9197Z" fill="#231F20"/>
<path d="M180.481 66.8436C181.955 66.8436 183.15 65.4778 183.15 63.7929C183.15 62.1081 181.955 60.7422 180.481 60.7422C179.007 60.7422 177.812 62.1081 177.812 63.7929C177.812 65.4778 179.007 66.8436 180.481 66.8436Z" fill="white"/>
<path d="M165.169 60.8624C164.673 61.7455 164.887 62.9229 165.665 63.4982C166.443 64.0736 167.475 63.8194 167.972 62.9363C168.468 62.0532 168.253 60.8758 167.475 60.3004C166.698 59.7251 165.665 59.9793 165.169 60.8624Z" fill="white"/>
<path d="M164.069 56.2729C163.747 56.8349 163.895 57.5976 164.391 57.9589C164.887 58.3201 165.544 58.1595 165.866 57.5976C166.188 57.0356 166.041 56.2729 165.544 55.9116C165.048 55.5504 164.391 55.711 164.069 56.2729Z" fill="white"/>
<path d="M194.122 51.0681C194.068 51.4294 194.538 52.8879 193.961 53.1822C193.223 53.5569 190.863 52.0984 190.528 51.8709C188.02 50.1449 184.185 48.9541 181.181 48.4857C172.785 47.2012 168.253 47.5625 166.04 47.4822C161.762 47.3217 158.382 48.0041 154.909 48.5928C151.69 49.128 152.066 49.1949 145.535 50.7336C141.431 51.697 141.793 51.978 138.856 53.0618C135.383 54.3329 135.262 54.2392 133.184 54.8814C128.034 56.4603 121.221 54.9083 118.204 50.2653C117.842 49.7034 118.231 50.4125 118.15 48.74C117.962 44.7794 121.583 43.2005 123.608 38.183C124.735 35.3865 125.285 36.2964 125.727 30.5161C125.835 29.0978 127.095 26.4619 128.959 24.5217C131.025 22.3542 132.285 21.471 139.205 19.076C145.83 16.7746 144.14 16.9887 146.782 16.5204C150.416 15.8782 154.426 15.8112 159.08 16.4267C164.001 17.0824 164.498 17.1359 167.448 18.8218C170.05 20.307 171.619 22.033 173.121 23.7056C176.245 27.1577 178.244 29.3654 178.793 32.6971C179.089 34.4232 178.981 36.4168 180.47 37.5808C181.006 38.009 181.234 37.9154 182.589 38.6914C183.836 39.414 184.386 39.909 185.593 40.8055C187.993 42.5583 187.953 42.1168 189.16 43.1337C191.118 44.7928 192.271 45.7561 192.995 47.2681C193.518 48.3519 194.323 49.8906 194.162 51.0413L194.122 51.0681Z" fill="#2A5B8F" stroke="#231F20" stroke-miterlimit="10"/>
<path d="M176.554 39.2515C177.828 39.1444 181.266 38.7859 182.5 39L182 38C180.5 38 178.03 38.3148 176.742 38.4085C174.14 38.6092 171.66 39.1177 169.152 38.9036C166.644 38.7296 164.15 38.1275 161.628 37.6726C159.094 37.2043 156.519 36.9367 153.944 36.8832C151.369 36.8431 148.781 36.9367 146.219 37.4586C143.658 37.9938 141.217 39.0374 139.045 40.4824C138.763 40.6697 138.495 40.8437 138.24 41.0445L137.891 41.3121L137.73 41.4458L137.409 41.7001C137.409 41.7001 136.979 42.1015 136.577 42.5296C136.175 42.9444 135.813 43.386 135.853 43.3592C135.276 44.1219 135.021 44.6705 136.161 43.6937C136.859 43.1317 137.865 42.3959 137.865 42.3959L138.173 42.1416L138.334 42.0212L138.414 41.9543L138.776 41.6733C140.828 40.1613 143.175 39.0508 145.643 38.4353C148.11 37.8198 150.712 37.6994 153.287 37.6994C155.875 37.7128 158.45 37.9536 160.985 38.3951C163.519 38.8367 166.067 39.4656 168.709 39.693C171.364 39.974 174.02 39.4789 176.554 39.2515Z" fill="#231F20"/>
<path d="M187.737 73.481C179.476 77.0669 174.608 78.3647 172.207 79.395C168.425 81.014 164.697 78.9267 161.023 79.5957C155.015 80.6929 157.04 87.4767 153.486 87.1154C144.983 86.2724 135.22 85.309 124.317 79.5555C118.444 76.4513 113.052 73.5077 111.296 67.5535C111.054 66.7507 109.566 61.4655 112.409 57.893C117.505 51.4571 129.883 54.6818 132.391 57.2642C133.182 58.0803 137.527 51.7649 138.385 53.3839C139.083 54.7085 138.895 57.5451 139.86 58.0134C143.83 59.9134 145.869 61.7331 146.874 62.2817C153.003 65.6134 157.67 66.8443 158.568 66.9112C161.559 67.0986 164.845 69.3733 169.364 70.243C174.192 71.1796 179.06 71.2464 183.646 70.7781C184.666 70.6711 187.562 69.788 188.769 70.8183C189.239 71.2331 187.576 73.1331 187.737 73.4676V73.481Z" fill="#2C5B8C" stroke="#231F20" stroke-miterlimit="10"/>
<path d="M172.289 81.3057C171.914 82.6705 166.978 83.4465 162.794 86.0824C162.084 86.5374 161.239 87.1261 161.346 87.6346C161.507 88.424 155.298 90.1768 143.872 89.1867C134.243 88.3571 129.428 87.9289 124.279 85.0789C123.756 84.7846 110.345 78.9107 107.824 67.9657C107.368 65.9586 107.596 61.4628 109.071 58.1446C110.358 55.2678 114.382 54.3981 115.253 53.7559C116.393 52.9129 117.426 52.1637 118.928 51.7622C123.273 50.5982 122.106 50.8389 127.98 50.6918C129.858 50.6516 135.892 49.4073 136.63 49.1397C141.967 47.3066 139.071 51.1066 138.481 52.3108C137.904 53.4883 137.019 56.7931 137.126 58.1312C137.502 62.6671 133.519 67.4438 133.733 67.8452C135.53 71.1501 138.99 72.2874 142.303 73.291C146.567 74.5755 147.211 73.7593 155.553 74.736C160.81 75.3515 166.509 74.7762 168.132 78.8438C169.272 81.7071 172.598 80.1417 172.276 81.279L172.289 81.3057Z" fill="#2C5B8C"/>
<path d="M159.776 77.2004C159.776 77.2004 159.802 77.2004 159.829 77.2272C160.004 77.361 160.218 77.6955 159.749 78.0033C159.749 78.0033 159.695 78.0301 159.682 78.0301C159.239 77.9765 158.783 77.9498 158.327 77.9364C157.509 77.9096 156.638 77.9096 155.793 77.7357C154.934 77.5617 154.17 77.3476 153.352 77.1603L152.601 76.9864C152.601 76.9864 151.367 76.6118 150.563 76.1836C149.195 75.4744 149.852 75.5413 150.737 75.7554C150.697 75.7287 151.233 75.8758 151.783 75.9829C152.36 76.0899 152.909 76.1969 152.909 76.1969L153.553 76.3441C154.358 76.5181 155.189 76.7455 155.954 76.9061C156.731 77.0533 157.523 77.0667 158.368 77.0934C158.837 77.0934 159.306 77.1336 159.776 77.1871V77.2004Z" fill="#202020"/>
<path d="M229.861 99.3034C229.861 99.3034 233.429 102.474 232.503 104.468C231.578 106.462 230.746 107.8 228.373 108.964C221.976 112.095 207.117 108.964 207.117 108.964C207.117 108.964 180.644 100.213 177.05 97.109C173.456 94.0048 171.793 89.7232 171.793 87.1408C171.793 84.5585 173.148 83.6485 175.722 83.0598C178.297 82.4711 188.167 82.8056 188.167 82.8056C188.167 82.8056 195.946 84.0232 200.197 84.4781C204.448 84.933 218.985 92.7204 218.985 92.7204L229.875 99.3034H229.861Z" fill="#374A6C" stroke="#231F20" stroke-miterlimit="10"/>
<path d="M225.971 108.391C224.067 108.391 224.818 108.31 215.538 106.062C206.258 103.815 194.872 100.108 191.734 98.7301C188.059 97.1245 175.534 90.8091 180.04 88.4006C184.546 85.9922 209.932 89.5647 209.932 89.5647L226.843 94.0604C226.843 94.0604 233.173 101.741 232.623 103.48C232.154 104.939 231.792 106.009 231.027 106.959C230.464 107.655 227.862 108.391 225.945 108.391H225.971Z" fill="#CFBBDB" stroke="#231F20" stroke-miterlimit="10"/>
<path d="M216 116C225.28 118.248 229.5 114.5 230 114.5C230.5 114.5 235.472 112.043 236.5 109.5C237.079 108.069 239.531 104.958 240 103.5L233.5 93" stroke="#231F20" stroke-width="12" stroke-miterlimit="10"/>
<path d="M205.895 88.4007C205.895 88.4007 209.274 91.9999 210.709 93.4851C215.054 97.9809 212.774 98.9041 212.466 99.2386C211.836 99.9076 208.952 99.2654 204.621 97.1245C200.289 94.9837 200.128 94.1274 198.318 94.6492C195.314 95.5189 197.714 101.058 199.243 101.393L195.434 99.64L190.928 98.3422C190.928 98.3422 177.357 92.2675 179.1 88.9358C180.843 85.6042 191.371 88.4007 191.371 88.4007L202.783 87.1562L205.895 88.4007Z" fill="#D7186D" stroke="#231F20" stroke-miterlimit="10"/>
<path d="M201.955 90.1901C199.126 89.3605 211.222 70.3071 215.473 72.9698C215.835 73.1972 225.518 79.8205 228.804 82.2022C232.13 84.624 233.028 84.7578 234.651 86.6979C236.408 88.7986 238.366 91.1401 238.661 94.3647C238.754 95.4485 236.998 96.4788 236.153 96.9471C234.423 97.9105 216.184 94.3781 201.969 90.1767L201.955 90.1901Z" fill="#374A6C" stroke="#231F20" stroke-miterlimit="10"/>
<path d="M242.5 87C242.5 87 246 93 245 96C244.5 98 244.5 98.5 242.5 100C240.77 100.963 239.5 102 236.5 101.5" stroke="#231F20" stroke-width="12" stroke-miterlimit="10"/>
<path d="M230.169 82.4859C230.879 81.8838 229.069 80.5591 226.99 77.8162C224.348 74.3106 221.304 72.4374 218.635 70.8184C215.068 68.6508 213.284 67.5804 210.79 67.4867C207.759 67.3797 205.506 68.6642 202.61 70.3233C202.02 70.6578 202.006 70.6979 194.925 76.4916C192.806 78.231 191.881 78.9803 191.09 80.4922C190.674 81.2817 189.735 83.3556 190.084 85.9915C190.231 87.0619 190.486 88.9084 191.921 90.1528C192.887 90.9824 194.241 91.4373 196.602 91.3169C200.477 91.1295 202.221 89.671 207.96 87.1556C211.313 85.6837 213.472 85.0013 217.817 83.6499C221.331 82.5528 223.034 82.7936 225.166 82.6464C227.58 82.4859 229.605 82.9542 230.169 82.4859Z" fill="white" stroke="#231F20" stroke-miterlimit="10"/>
<path d="M253 55.5C253 55.5 253.584 52.9956 252.994 51.7111C251.948 49.4499 250.795 48.5801 249.092 46.5999V46.5866C245.873 42.8401 246.812 42.1711 244.411 40.0302C242.762 38.5718 240.495 36.5514 237.947 36.926C236.968 37.0732 231.792 36.0964 231.939 35.8154C232.918 33.9288 231.725 31.012 230.719 28.5902C230.142 27.1719 228.64 23.6662 225.046 21.0303C221.667 18.555 218.261 18.1937 213.58 17.6986C208.498 17.1634 209.114 18.1402 203.12 17.5916C199.137 17.2303 196.991 16.6283 193.652 17.4846C192.324 17.8325 191.278 18.3007 189.199 19.2641C184.425 21.4585 183.969 22.6226 181.18 23.0373C179.208 23.3317 175.64 24.7106 174.5 25.5" stroke="#231F20" stroke-width="12" stroke-miterlimit="10"/>
<path d="M106 118C106 118 104.458 110.66 103.036 109.255C100.314 106.539 99.201 103.462 98.5841 101.695C97.5515 98.7517 97.3906 96.4102 97.243 94.1356C97.0285 90.7504 96.8005 86.9771 98.3561 82.8025C99.9386 78.561 101.722 78.3603 101.923 75.0286C102.071 72.6737 101.226 71.911 101.253 68.5793C101.253 68.5793 101.28 65.716 102.138 62.7991C103.868 56.9654 107.5 59 113 52.5" stroke="#231F20" stroke-width="12" stroke-miterlimit="10"/>
<path d="M112.5 53C112.5 53 121.584 43.2005 123.609 38.183C124.736 35.3865 125.286 36.2964 125.728 30.5161C125.835 29.0978 127.096 26.4619 128.96 24.5217C131.025 22.3542 132.286 21.471 139.206 19.076C145.831 16.7746 144.141 16.9887 146.783 16.5204C150.417 15.8782 154.427 15.8112 159.081 16.4267C164.002 17.0824 164.498 17.1359 167.449 18.8218C170.05 20.307 180.502 24 180.502 24" stroke="#231F20" stroke-width="12" stroke-miterlimit="10"/>
</svg>
