<svg width="64" height="68" viewBox="0 0 64 68" fill="none" xmlns="http://www.w3.org/2000/svg">
<path d="M57.1051 45.9504C57.1587 46.0708 57.655 47.3553 57.0918 47.9441C56.4212 48.6666 54.8253 47.7434 51.7408 47.1145C49.1257 46.5659 46.6716 46.0575 45.8938 47.1145C45.1428 48.1448 46.2022 50.3659 47.2348 51.6102C47.7444 52.2257 48.2138 52.5602 48.7368 52.9482C53.8463 56.6546 54.8522 57.6581 55.5898 58.9426C55.8177 59.3441 56.837 61.137 56.2603 61.7792C55.697 62.3947 53.8865 61.6053 52.0895 60.7757C45.9608 57.9793 42.9032 56.5877 40.3954 55.1158C36.4392 52.7877 35.3797 51.8912 32.8854 51.4497C31.0615 51.1285 29.6802 51.2623 27.8698 51.4497C26.7298 51.5701 22.9078 52.025 15.1833 54.7813C11.5356 56.0792 9.38979 57.0426 7.67322 55.9454C7.44524 55.7982 6.31874 55.0757 6.33215 54.1123C6.37238 52.2257 10.7577 50.58 18.3616 47.7835C20.4537 47.0075 21.7143 46.6061 22.7067 45.2814C24.1684 43.3279 24.0075 40.7723 23.8734 38.9526C23.632 35.6878 22.586 33.2927 22.3714 32.7843C21.902 31.7005 17.2083 20.6619 21.0303 13.4499C23.8466 8.15136 30.7799 5.84991 35.8894 6.29146C37.3512 6.41188 40.8782 6.71961 42.7423 9.28861C43.842 10.814 43.8151 12.6337 43.7481 16.2865C43.681 19.8858 43.6274 22.6287 42.2461 25.7864C40.1138 30.6435 38.7325 32.6237 38.7325 32.6237C38.1424 33.4667 37.3914 34.4434 37.5658 35.6209C37.7535 36.9455 39.0141 37.8152 40.0736 38.4575C43.3324 40.4243 46.4302 41.2272 51.0971 42.6188C54.5169 43.6357 56.4212 44.2645 57.1051 45.9504Z" fill="#F28129"/>
<path fill-rule="evenodd" clip-rule="evenodd" d="M45.7835 47.3002C45.2624 48.3927 46.2606 50.4362 47.2349 51.6102C47.4168 51.83 47.5936 52.0139 47.7696 52.1773C47.8725 52.2728 47.9751 52.3613 48.0783 52.4457C48.1213 52.4809 48.1643 52.5154 48.2075 52.5494C48.3542 52.6649 48.5028 52.7749 48.6556 52.888C48.6825 52.908 48.7096 52.928 48.7369 52.9482C50.9868 54.5803 52.441 55.6883 53.427 56.527C53.5814 56.6583 53.7243 56.783 53.857 56.9021C53.8619 56.9065 53.8668 56.9109 53.8717 56.9153C54.8057 57.7555 55.2297 58.3156 55.5898 58.9426L55.5904 58.9438C55.8197 59.3474 56.8364 61.1376 56.2603 61.7792C55.7149 62.3752 54.0001 61.6539 52.2604 60.8544C52.2537 60.8513 52.2469 60.8482 52.2401 60.8451C52.1899 60.822 52.1397 60.7989 52.0895 60.7757L51.894 60.6865C51.4369 60.4779 50.997 60.2772 50.5734 60.0838C48.4653 59.1212 46.759 58.3384 45.3213 57.6569C45.3021 57.6478 45.2829 57.6387 45.2638 57.6296C44.996 57.5025 44.7376 57.379 44.4876 57.2584C42.8381 56.4629 41.5577 55.798 40.3954 55.1158C39.6279 54.6641 38.9694 54.2663 38.3882 53.9153C35.9741 52.457 34.8958 51.8055 32.8854 51.4497C31.0615 51.1285 29.6802 51.2623 27.8698 51.4497C27.2317 51.5171 25.7533 51.6893 23.2206 52.3112C22.3772 52.5183 21.417 52.7753 20.3319 53.0949C20.3268 53.0964 20.3217 53.0979 20.3166 53.0994C18.8421 53.5339 17.1376 54.084 15.1833 54.7813C14.8238 54.9093 14.4788 55.0339 14.1474 55.1537C13.357 55.4394 12.6437 55.6972 11.9936 55.9047C10.1514 56.4927 8.81704 56.6765 7.67325 55.9454L7.66995 55.9433C7.43463 55.7914 6.31883 55.0711 6.33218 54.1123C6.35581 53.0043 7.8783 51.9793 10.6714 50.7555C11.4651 50.4077 12.3614 50.0439 13.355 49.6576C13.3565 49.657 13.3581 49.6564 13.3596 49.6558C14.8218 49.0873 16.4947 48.4701 18.3616 47.7835C18.4919 47.7352 18.619 47.6883 18.743 47.6425C19.6855 47.2948 20.4495 47.013 21.0947 46.6592C21.7274 46.3124 22.246 45.8964 22.7067 45.2814C24.1685 43.3279 24.0075 40.7723 23.8734 38.9526C23.6385 35.7748 22.6411 33.4209 22.3903 32.8289C22.3834 32.8127 22.3771 32.7978 22.3714 32.7843C21.902 31.7005 17.2083 20.6618 21.0304 13.4499C23.8466 8.15135 30.78 5.8499 35.8894 6.29145C37.3512 6.41187 40.8782 6.7196 42.7423 9.2886C43.842 10.8139 43.8152 12.6337 43.7481 16.2865C43.681 19.8858 43.6274 22.6287 42.2461 25.7864C40.1138 30.6434 38.7325 32.6237 38.7325 32.6237C38.6978 32.6733 38.6626 32.7233 38.627 32.7738C38.0573 33.5822 37.4017 34.5126 37.5658 35.6209C37.7535 36.9455 39.0141 37.8152 40.0736 38.4575C41.7445 39.466 43.3732 40.1685 45.1927 40.8012C46.5644 41.2782 48.0445 41.7155 49.733 42.2144C50.173 42.3444 50.6271 42.4786 51.0972 42.6188C51.6223 42.7749 52.1117 42.9219 52.5665 43.065C52.5739 43.0674 52.5814 43.0697 52.5889 43.0721C52.8367 43.1502 53.0742 43.2271 53.3015 43.3038C55.3606 43.9984 56.5853 44.6691 57.1051 45.9504C57.1588 46.0708 57.655 47.3553 57.0918 47.9441C56.6498 48.4203 55.8057 48.1815 54.3981 47.7832C54.1301 47.7074 53.8417 47.6258 53.5317 47.5422C53.4623 47.5235 53.3918 47.5047 53.3203 47.4859C52.8435 47.3603 52.3182 47.2322 51.7408 47.1145C51.6133 47.0877 51.4862 47.0611 51.3596 47.0347C50.8507 46.9286 50.3508 46.8269 49.8713 46.7412C49.8703 46.741 49.8692 46.7408 49.8681 46.7406C48.0228 46.4107 46.4808 46.3167 45.8938 47.1145C45.8513 47.1727 45.8147 47.2347 45.7835 47.3002ZM61.4579 52.0596C60.7252 52.8388 59.9131 53.3485 59.1192 53.6749C59.7861 54.4041 60.3229 55.1363 60.793 55.9549L60.8 55.9671L60.807 55.9795C60.8112 55.9869 60.8161 55.9954 60.8215 56.0049C60.9594 56.2469 61.4769 57.1552 61.8631 58.2134C62.0568 58.744 62.3442 59.6441 62.417 60.7139C62.483 61.6829 62.4397 63.8778 60.7248 65.7878L60.7058 65.8089L60.6866 65.8299C58.922 67.7582 56.6928 68.0004 55.6147 67.9987C54.4907 67.9971 53.5132 67.7461 52.9148 67.5667C51.6976 67.2019 50.4177 66.6124 49.5869 66.2289L49.0385 65.9787C43.3922 63.4027 40.1095 61.9051 37.3585 60.2905L37.3523 60.2869C36.5517 59.8157 35.8542 59.3943 35.2702 59.0415C35.1073 58.9431 34.9533 58.8501 34.8083 58.7628C34.1116 58.3432 33.6527 58.0738 33.2725 57.8714C32.6821 57.557 32.3888 57.4552 31.8422 57.3583C30.9264 57.1973 30.2902 57.2313 28.4933 57.4172L28.4911 57.4174C27.8144 57.4889 24.4547 57.8436 17.1997 60.4324L17.1946 60.4342C16.934 60.5269 16.6573 60.6273 16.3691 60.732C15.0082 61.2261 13.3898 61.8137 11.9951 62.121C10.0629 62.5467 7.21835 62.7755 4.44191 61.0009L4.43042 60.9936L4.41897 60.9862C4.41338 60.9826 4.40692 60.9784 4.39962 60.9737C4.20168 60.8465 3.38927 60.3243 2.59585 59.5026C1.89114 58.7727 0.293069 56.8798 0.332757 54.0288L0.333066 54.0066L0.33354 53.9844C0.396458 51.0339 2.1578 49.114 3.2342 48.1829C4.36427 47.2054 5.71058 46.4646 6.88867 45.8923C9.27186 44.7345 12.5994 43.5098 16.2824 42.1553C16.4404 42.0967 16.583 42.0441 16.714 41.9957C17.0659 41.8659 17.3346 41.7667 17.5969 41.6641C17.7222 41.6151 17.8239 41.5736 17.9066 41.5386C17.9134 41.4965 17.9203 41.4477 17.9266 41.3919C17.9816 40.9061 17.9586 40.3292 17.8897 39.395M61.4579 52.0596C63.7821 49.6 63.3642 46.5653 63.2657 45.8972C63.1228 44.9267 62.84 44.1129 62.6463 43.649C61.5617 41.0152 59.5593 39.5426 57.8127 38.6683C56.2755 37.8989 54.4189 37.3468 52.8562 36.8822L52.8116 36.8689C52.8106 36.8686 52.8095 36.8683 52.8085 36.868C52.8081 36.8679 52.8077 36.8678 52.8073 36.8676C52.3813 36.7406 51.9755 36.6202 51.5881 36.5052C48.455 35.5752 46.523 35.0017 44.7954 34.1892C44.8409 34.1084 44.8877 34.0249 44.9356 33.9386C45.6424 32.6655 46.6028 30.7886 47.74 28.1983L47.7432 28.191C49.6105 23.9223 49.6793 20.1286 49.7414 16.7079C49.7433 16.6043 49.7451 16.5011 49.7471 16.3983L49.7471 16.3966C49.7484 16.3241 49.7498 16.2514 49.7511 16.1784C49.7813 14.5596 49.8134 12.8342 49.6461 11.3277C49.4472 9.53635 48.9358 7.61967 47.6093 5.77977L47.604 5.77231L47.5986 5.76486C45.6504 3.08004 42.9904 1.79301 40.9853 1.15461C39.0184 0.528351 37.2041 0.379258 36.4235 0.315115L36.3925 0.312568C32.8141 0.00581824 28.8125 0.650852 25.2108 2.21433C21.5952 3.7838 17.9382 6.48356 15.7322 10.6339L15.7288 10.6403C12.8246 16.1203 13.376 22.4037 14.2066 26.5844C15.0729 30.9445 16.5323 34.3977 16.8554 35.1452C16.8563 35.1473 16.8572 35.1494 16.8581 35.1515C17.0379 35.5758 17.7274 37.2022 17.8896 39.3936M43.4786 35.9327C43.4785 35.9332 43.4785 35.9336 43.4784 35.9341L42.1605 35.0149C42.9221 35.5458 43.2956 35.8055 43.4786 35.9327ZM42.1543 35.0101C42.1387 34.9992 42.123 34.9883 42.1071 34.9772C42.0959 34.9693 42.0845 34.9614 42.0731 34.9535C41.3456 34.4463 40.2834 33.7055 38.7325 32.6237L42.1543 35.0101Z" fill="#231F20"/>
</svg>
